<svg width="70" height="18" viewBox="0 0 70 18" fill="none" xmlns="http://www.w3.org/2000/svg">
<path d="M53.5981 8.23581V17.6378H56.82V8.42121C56.82 7.80454 57.0647 7.21307 57.5004 6.77664C57.9361 6.3402 58.5271 6.09446 59.1438 6.09337H60.6311V3.02393H58.9831C57.5881 3.03545 56.251 3.583 55.2485 4.5532C54.2461 5.5234 53.6552 6.84194 53.5981 8.23581Z" fill="white"/>
<path d="M65.5297 12.2324V6.08116H69.0894V3.00759H65.5297V0.123535H62.2954V12.4055C62.3524 13.8012 62.9435 15.1217 63.9464 16.094C64.9494 17.0663 66.2876 17.6161 67.6845 17.6297H69.3325V14.5603H67.8451C67.2306 14.5549 66.6429 14.3075 66.2095 13.8717C65.7761 13.436 65.5318 12.847 65.5297 12.2324Z" fill="white"/>
<path d="M29.1658 2.73194C28.3774 2.73478 27.5993 2.91167 26.8871 3.24997C26.1749 3.58826 25.5461 4.07962 25.0458 4.68897C24.5454 4.07962 23.9167 3.58826 23.2045 3.24997C22.4923 2.91167 21.7142 2.73478 20.9257 2.73194C19.5726 2.73092 18.2706 3.24842 17.2873 4.178C16.3041 5.10758 15.7145 6.37857 15.6396 7.72959V17.6384H18.8821V8.13336C18.8728 7.82846 18.9246 7.52478 19.0346 7.24027C19.1446 6.95575 19.3105 6.69617 19.5225 6.47686C19.7345 6.25754 19.9884 6.08295 20.269 5.96339C20.5496 5.84384 20.8514 5.78176 21.1564 5.7808C22.207 5.7808 23.4431 6.48944 23.4431 8.5124V17.6384H26.6732V8.50416C26.6732 6.62953 27.8515 5.7808 28.9475 5.7808C29.2567 5.76922 29.5649 5.82263 29.8523 5.93759C30.1396 6.05256 30.3996 6.22652 30.6154 6.44823C30.8313 6.66994 30.9983 6.93447 31.1056 7.22474C31.2129 7.515 31.2581 7.82454 31.2382 8.13336V17.6384H34.4601V7.7502C34.3894 6.39445 33.8005 5.1177 32.8152 4.18377C31.8299 3.24984 30.5234 2.73009 29.1658 2.73194Z" fill="white"/>
<path d="M43.9365 2.76868C42.9483 2.76304 41.9689 2.95497 41.0559 3.33317C40.1429 3.71138 39.3147 4.26824 38.62 4.97103C37.9253 5.67383 37.378 6.50837 37.0104 7.42566C36.6427 8.34294 36.4621 9.32447 36.4791 10.3125C36.4791 14.7375 39.6433 17.9429 43.9983 17.9429C44.7706 17.9669 45.5394 17.8298 46.2558 17.5404C46.9722 17.251 47.6206 16.8156 48.1595 16.2619V17.638H51.3855V10.3743C51.3855 5.95762 48.2461 2.76868 43.9365 2.76868ZM43.9777 14.8446C43.0872 14.8675 42.2102 14.6246 41.4583 14.147C40.7065 13.6693 40.1141 12.9784 39.7566 12.1626C39.3991 11.3468 39.2928 10.4429 39.4511 9.56638C39.6095 8.68985 40.0254 7.88037 40.6459 7.24123C41.2663 6.6021 42.063 6.16228 42.9344 5.9779C43.8059 5.79352 44.7125 5.87295 45.5386 6.20603C46.3647 6.53912 47.0729 7.11077 47.5727 7.84804C48.0725 8.58531 48.3414 9.45477 48.3449 10.3455C48.3449 12.9906 46.5568 14.8446 43.9777 14.8446Z" fill="white"/>
<path d="M8.10418 8.89547C4.97704 8.5329 4.35079 7.97257 4.35079 7.11972C4.35079 5.76834 6.41083 5.59529 7.29664 5.59529C8.82249 5.6065 10.2962 6.15168 11.462 7.13619L13.5221 5.07615C12.6981 4.39634 10.7287 2.75244 6.81872 2.75244C2.90877 2.75244 0.881695 5.09264 0.881695 7.30511C0.881695 9.92136 2.91289 11.4252 7.09476 11.866C8.84991 12.0556 10.1807 12.3028 10.1807 13.5141C10.1807 15.7719 4.52384 15.5453 2.2578 13.0361L0 15.2898C1.85572 16.9875 4.2748 17.9373 6.78988 17.9555C11.4991 17.9555 13.6416 15.6483 13.6416 13.4893C13.658 10.7989 11.8946 9.33219 8.10418 8.89547Z" fill="white"/>
</svg>
