<svg width="198" height="45" viewBox="0 0 198 45" fill="none" xmlns="http://www.w3.org/2000/svg">
<rect y="7.74219" width="198" height="29.5146" rx="14.7573" fill="white"/>
<path d="M37.2791 26V19.1452H41.6976V20.2297H38.6157V22.0304H41.1579V23.1148H38.6157V24.9155H41.6976V26H37.2791ZM43.0442 26V20.6433H44.1538L44.2547 21.2183C44.6986 20.7391 45.208 20.497 45.778 20.497C46.8272 20.497 47.5787 20.9611 47.5787 22.8778V26H46.2673V22.8778C46.2673 22.0001 46.005 21.6672 45.4249 21.6672C45.087 21.6672 44.7541 21.8034 44.3556 22.1212V26H43.0442ZM53.2883 25.1476C52.8192 25.773 52.1988 26.1463 51.2404 26.1463C49.9895 26.1463 48.8244 25.1577 48.8244 23.3267C48.8244 21.8135 49.6617 20.492 51.2758 20.492C52.2341 20.492 52.8192 20.8854 53.2883 21.5108L52.5014 22.2422C52.1988 21.8589 51.881 21.5815 51.2758 21.5815C50.5292 21.5815 50.1358 22.2523 50.1358 23.3267C50.1358 24.396 50.6453 25.0618 51.3766 25.0618C51.9163 25.0618 52.1988 24.7995 52.5014 24.4162L53.2883 25.1476ZM56.5465 26.1463C55.1342 26.1463 54.08 25.0063 54.08 23.3267C54.08 21.642 55.1342 20.492 56.5465 20.492C57.9588 20.492 59.013 21.642 59.013 23.3267C59.013 25.0063 57.9588 26.1463 56.5465 26.1463ZM56.5465 25.0618C57.2174 25.0618 57.7016 24.5574 57.7016 23.3267C57.7016 22.101 57.2174 21.5815 56.5465 21.5815C55.8757 21.5815 55.3915 22.101 55.3915 23.3267C55.3915 24.5574 55.8757 25.0618 56.5465 25.0618ZM60.3091 26V20.6433H61.4188L61.5197 21.2183C61.9636 20.7391 62.473 20.497 63.043 20.497C64.0921 20.497 64.8437 20.9611 64.8437 22.8778V26H63.5323V22.8778C63.5323 22.0001 63.27 21.6672 62.6899 21.6672C62.352 21.6672 62.0191 21.8034 61.6206 22.1212V26H60.3091ZM66.3567 19.1452H67.6681V20.6433H69.2065V21.6823H67.6681V24.1337C67.6681 24.7289 67.8396 24.9761 68.2381 24.9761C68.571 24.9761 68.8888 24.8903 69.257 24.7289L69.5193 25.7579C68.8888 26.0404 68.3894 26.1463 67.9909 26.1463C66.7249 26.1463 66.3567 25.3039 66.3567 24.2901V19.1452ZM70.5581 20.6433H71.6729L71.7788 21.1779C72.2882 20.6534 72.6665 20.497 73.1356 20.497C73.3777 20.497 73.635 20.5424 73.8569 20.6685L73.4937 21.7883C73.3222 21.7126 73.1306 21.642 72.9288 21.642C72.5505 21.642 72.1974 21.8387 71.8696 22.328V26H70.5581V20.6433ZM76.8579 17.6774H78.2551L76.7116 19.5084H75.5616L76.8579 17.6774ZM76.066 26.1463C75.0118 26.1463 74.3056 25.536 74.3056 24.4011C74.3056 23.0644 75.4657 22.6558 76.2526 22.6558H77.3925V22.3784C77.3925 21.7227 76.9941 21.531 76.3232 21.531C75.8541 21.531 75.4657 21.6168 74.9916 21.8185L74.689 20.8047C75.3295 20.6029 75.844 20.492 76.3232 20.492C77.5741 20.492 78.704 20.9308 78.704 22.6104V26H77.6094L77.5035 25.546C77.221 25.8436 76.6965 26.1463 76.066 26.1463ZM76.3383 25.0618C76.6914 25.0618 77.1202 24.8298 77.3925 24.5978V23.6344H76.6561C76.0761 23.6344 75.6171 23.816 75.6171 24.4011C75.6171 24.8601 75.9147 25.0618 76.3383 25.0618ZM82.6076 19.1452H83.9191V20.6433H85.4575V21.6823H83.9191V24.1337C83.9191 24.7289 84.0906 24.9761 84.489 24.9761C84.8219 24.9761 85.1397 24.8903 85.5079 24.7289L85.7702 25.7579C85.1397 26.0404 84.6404 26.1463 84.2419 26.1463C82.9758 26.1463 82.6076 25.3039 82.6076 24.2901V19.1452ZM91.2881 20.6433V26H90.1785L90.0776 25.425C89.6337 25.9042 89.1243 26.1463 88.5543 26.1463C87.5051 26.1463 86.7536 25.6822 86.7536 23.7655V20.6433H88.065V23.7655C88.065 24.6432 88.3273 24.9761 88.9074 24.9761C89.2453 24.9761 89.5782 24.8399 89.9767 24.5221V20.6433H91.2881ZM99.4388 25.1476C98.9697 25.773 98.3493 26.1463 97.391 26.1463C96.1401 26.1463 94.9749 25.1577 94.9749 23.3267C94.9749 21.8135 95.8122 20.492 97.4263 20.492C98.3846 20.492 98.9697 20.8854 99.4388 21.5108L98.652 22.2422C98.3493 21.8589 98.0316 21.5815 97.4263 21.5815C96.6798 21.5815 96.2863 22.2523 96.2863 23.3267C96.2863 24.396 96.7958 25.0618 97.5272 25.0618C98.0669 25.0618 98.3493 24.7995 98.652 24.4162L99.4388 25.1476ZM102.697 26.1463C101.285 26.1463 100.231 25.0063 100.231 23.3267C100.231 21.642 101.285 20.492 102.697 20.492C104.109 20.492 105.164 21.642 105.164 23.3267C105.164 25.0063 104.109 26.1463 102.697 26.1463ZM102.697 25.0618C103.368 25.0618 103.852 24.5574 103.852 23.3267C103.852 22.101 103.368 21.5815 102.697 21.5815C102.026 21.5815 101.542 22.101 101.542 23.3267C101.542 24.5574 102.026 25.0618 102.697 25.0618ZM106.46 26V20.6433H107.569L107.67 21.2183C108.114 20.7391 108.624 20.497 109.194 20.497C110.243 20.497 110.994 20.9611 110.994 22.8778V26H109.683V22.8778C109.683 22.0001 109.42 21.6672 108.84 21.6672C108.502 21.6672 108.17 21.8034 107.771 22.1212V26H106.46ZM116.704 25.1476C116.235 25.773 115.614 26.1463 114.656 26.1463C113.405 26.1463 112.24 25.1577 112.24 23.3267C112.24 21.8135 113.077 20.492 114.691 20.492C115.65 20.492 116.235 20.8854 116.704 21.5108L115.917 22.2422C115.614 21.8589 115.297 21.5815 114.691 21.5815C113.945 21.5815 113.551 22.2523 113.551 23.3267C113.551 24.396 114.061 25.0618 114.792 25.0618C115.332 25.0618 115.614 24.7995 115.917 24.4162L116.704 25.1476ZM122.197 25.1829C121.808 25.7024 121.077 26.1463 120.113 26.1463C118.081 26.1463 117.501 24.5625 117.501 23.2561C117.501 22.0354 118.071 20.492 119.927 20.492C121.627 20.492 122.267 21.8034 122.267 23.6192V23.7806H118.883C118.898 24.8096 119.7 25.0618 120.179 25.0618C120.618 25.0618 121.046 24.8449 121.389 24.4263L122.197 25.1829ZM119.927 21.5815C119.226 21.5815 118.883 22.0455 118.883 22.792H120.915C120.915 22.0455 120.613 21.5815 119.927 21.5815ZM125.314 20.497C126.095 20.497 126.771 20.7038 127.422 21.3494L126.63 22.1212C126.181 21.6622 125.793 21.5815 125.399 21.5815C124.905 21.5815 124.683 21.7883 124.683 22.0909C124.683 22.4188 124.834 22.6256 125.757 22.8072C127.139 23.0795 127.603 23.5839 127.603 24.4918C127.603 25.4805 126.912 26.1463 125.505 26.1463C124.506 26.1463 123.664 25.7478 123.124 25.1425L123.896 24.3506C124.335 24.855 124.86 25.0618 125.5 25.0618C126.075 25.0618 126.292 24.8247 126.292 24.5221C126.292 24.1943 126.02 23.9824 125.273 23.8311C123.82 23.5385 123.372 23.019 123.372 22.1565C123.372 21.2738 124.027 20.497 125.314 20.497ZM130.135 19.5084H128.824V18.1415H130.135V19.5084ZM128.824 26V20.6433H130.135V26H128.824ZM133.898 26.1463C132.486 26.1463 131.431 25.0063 131.431 23.3267C131.431 21.642 132.486 20.492 133.898 20.492C135.31 20.492 136.364 21.642 136.364 23.3267C136.364 25.0063 135.31 26.1463 133.898 26.1463ZM133.898 25.0618C134.569 25.0618 135.053 24.5574 135.053 23.3267C135.053 22.101 134.569 21.5815 133.898 21.5815C133.227 21.5815 132.743 22.101 132.743 23.3267C132.743 24.5574 133.227 25.0618 133.898 25.0618ZM137.661 26V20.6433H138.77L138.871 21.2183C139.315 20.7391 139.824 20.497 140.394 20.497C141.444 20.497 142.195 20.9611 142.195 22.8778V26H140.884V22.8778C140.884 22.0001 140.621 21.6672 140.041 21.6672C139.703 21.6672 139.371 21.8034 138.972 22.1212V26H137.661ZM145.136 26.1463C144.081 26.1463 143.375 25.536 143.375 24.4011C143.375 23.0644 144.535 22.6558 145.322 22.6558H146.462V22.3784C146.462 21.7227 146.064 21.531 145.393 21.531C144.924 21.531 144.535 21.6168 144.061 21.8185L143.759 20.8047C144.399 20.6029 144.914 20.492 145.393 20.492C146.644 20.492 147.774 20.9308 147.774 22.6104V26H146.679L146.573 25.546C146.291 25.8436 145.766 26.1463 145.136 26.1463ZM145.408 25.0618C145.761 25.0618 146.19 24.8298 146.462 24.5978V23.6344H145.726C145.146 23.6344 144.687 23.816 144.687 24.4011C144.687 24.8601 144.984 25.0618 145.408 25.0618ZM149.342 20.6433H150.457L150.563 21.1779C151.072 20.6534 151.45 20.497 151.92 20.497C152.162 20.497 152.419 20.5424 152.641 20.6685L152.278 21.7883C152.106 21.7126 151.915 21.642 151.713 21.642C151.334 21.642 150.981 21.8387 150.654 22.328V26H149.342V20.6433ZM154.926 19.5084H153.614V18.1415H154.926V19.5084ZM153.614 26V20.6433H154.926V26H153.614ZM158.688 26.1463C157.276 26.1463 156.222 25.0063 156.222 23.3267C156.222 21.642 157.276 20.492 158.688 20.492C160.101 20.492 161.155 21.642 161.155 23.3267C161.155 25.0063 160.101 26.1463 158.688 26.1463ZM158.688 25.0618C159.359 25.0618 159.843 24.5574 159.843 23.3267C159.843 22.101 159.359 21.5815 158.688 21.5815C158.017 21.5815 157.533 22.101 157.533 23.3267C157.533 24.5574 158.017 25.0618 158.688 25.0618Z" fill="black"/>
</svg>
