<svg width="77" height="42" viewBox="0 0 77 42" fill="none" xmlns="http://www.w3.org/2000/svg">
<path d="M2.55398 16.065C3.20277 16.7241 4.09872 17.0845 4.91229 17.0845C6.59091 17.0845 7.21911 15.962 7.21911 14.9631C7.21911 13.6037 6.46733 12.9961 4.66513 12.9961H3.99574V10.8746H4.66513C6.09659 10.8746 6.83807 10.0611 6.83807 8.93856C6.83807 7.5277 5.85973 6.8892 4.77841 6.8892C3.96484 6.8892 3.20277 7.31143 2.62607 7.93963L1.17401 6.16832C2.23473 5.17969 3.56321 4.67507 5.12855 4.67507C7.89879 4.67507 9.24787 6.59055 9.24787 8.55753C9.24787 9.76243 8.81534 11.2763 7.49716 11.8221C8.84624 12.3988 9.73189 13.4492 9.73189 15.1381C9.73189 18.0526 7.60014 19.2987 5.29332 19.2987C3.47053 19.2987 2.08026 18.7837 1.13281 17.8775L2.55398 16.065ZM16.0344 16.4563L13.3672 23.0369H10.8544L12.8008 16.4563H16.0344ZM19.5256 16.065C20.1744 16.6829 20.854 17.0845 21.9148 17.0845C23.4595 17.0845 24.5717 16.065 24.5717 13.1197C23.9538 13.82 22.9343 14.2422 21.8427 14.2422C19.5977 14.2422 17.9602 12.5739 17.9602 9.55646C17.9602 5.77699 20.6481 4.67507 22.3473 4.67507C25.6016 4.67507 27.1978 7.11577 27.1978 11.647C27.1978 16.6829 25.1381 19.2987 21.8942 19.2987C20.0714 19.2987 18.9798 18.619 18.1147 17.8775L19.5256 16.065ZM24.5923 10.576C24.5923 7.78516 23.5522 6.9201 22.3164 6.9201C21.163 6.9201 20.4318 7.81605 20.4318 9.55646C20.4318 10.8335 21.06 11.9972 22.3988 11.9972C23.5007 11.9972 24.3349 11.2042 24.5923 10.576ZM37.7021 7.76456C39.2983 7.76456 40.6783 8.18679 42.0067 9.50497L40.3899 11.0806C39.4734 10.1435 38.6804 9.97869 37.8771 9.97869C36.8679 9.97869 36.4148 10.4009 36.4148 11.0188C36.4148 11.6882 36.7237 12.1104 38.6083 12.4812C41.43 13.0373 42.3775 14.0671 42.3775 15.9208C42.3775 17.9393 40.9666 19.2987 38.0934 19.2987C36.0543 19.2987 34.3345 18.4851 33.2326 17.2493L34.8082 15.6325C35.7042 16.6623 36.7752 17.0845 38.0831 17.0845C39.2571 17.0845 39.6999 16.6005 39.6999 15.9826C39.6999 15.3132 39.1438 14.8807 37.6197 14.5717C34.6538 13.9744 33.7372 12.9137 33.7372 11.1527C33.7372 9.3505 35.076 7.76456 37.7021 7.76456ZM53.3864 17.3317C52.5934 18.3924 51.1001 19.2987 49.1332 19.2987C44.983 19.2987 43.7987 16.065 43.7987 13.3977C43.7987 10.9055 44.9624 7.75426 48.7521 7.75426C52.2227 7.75426 53.5305 10.4318 53.5305 14.1392V14.4687H46.6204C46.6513 16.5696 48.2887 17.0845 49.267 17.0845C50.163 17.0845 51.0384 16.6417 51.7386 15.7869L53.3864 17.3317ZM48.7521 9.97869C47.3207 9.97869 46.6204 10.9261 46.6204 12.4503H50.7706C50.7706 10.9261 50.1527 9.97869 48.7521 9.97869ZM59.5344 7.76456C60.5437 7.76456 61.7589 8.21768 62.5107 9.43288V8.06321H64.9925V18.8043C64.9925 21.7393 63.1594 23.4386 59.2976 23.4386H56.7436V21.3171H59.3491C61.2028 21.3171 62.315 20.5962 62.315 18.5057V17.6303C61.8516 18.4439 60.8217 19 59.4006 19C57.7528 19 55.1783 17.8569 55.1783 13.3977C55.1783 8.95916 57.5675 7.76456 59.5344 7.76456ZM60.2656 9.97869C58.9063 9.97869 57.8558 11.0806 57.8558 13.3977C57.8558 15.7148 58.9063 16.6726 60.2656 16.6726C61.6353 16.6726 62.6136 15.7663 62.6136 13.3977C62.6136 11.1012 61.6662 9.97869 60.2656 9.97869Z" fill="white"/>
<path d="M3.49957 33.1045C2.40023 33.1045 1.89561 32.2323 1.89561 30.6067C1.89561 28.9847 2.40023 27.9502 3.49957 27.9502C4.59531 27.9502 5.10353 28.9847 5.10353 30.6067C5.10353 32.2323 4.59531 33.1045 3.49957 33.1045ZM3.49957 32.5783C4.11953 32.5783 4.49439 32.0701 4.49439 30.6067C4.49439 29.1469 4.11953 28.4765 3.49957 28.4765C2.87962 28.4765 2.50115 29.1469 2.50115 30.6067C2.50115 32.0701 2.87962 32.5783 3.49957 32.5783ZM10.2578 30.9094H7.4536V30.3976H10.2578V30.9094ZM12.8278 28.6423L14.2948 28.1016H14.7021V32.4882H15.6897V33H13.0945V32.4882H14.0821V28.7612L13.0008 29.1433L12.8278 28.6423ZM18.0469 33.1045C16.9476 33.1045 16.443 32.2323 16.443 30.6067C16.443 28.9847 16.9476 27.9502 18.0469 27.9502C19.1427 27.9502 19.6509 28.9847 19.6509 30.6067C19.6509 32.2323 19.1427 33.1045 18.0469 33.1045ZM18.0469 32.5783C18.6669 32.5783 19.0418 32.0701 19.0418 30.6067C19.0418 29.1469 18.6669 28.4765 18.0469 28.4765C17.427 28.4765 17.0485 29.1469 17.0485 30.6067C17.0485 32.0701 17.427 32.5783 18.0469 32.5783ZM21.882 33.1045C20.7827 33.1045 20.2781 32.2323 20.2781 30.6067C20.2781 28.9847 20.7827 27.9502 21.882 27.9502C22.9778 27.9502 23.486 28.9847 23.486 30.6067C23.486 32.2323 22.9778 33.1045 21.882 33.1045ZM21.882 32.5783C22.502 32.5783 22.8768 32.0701 22.8768 30.6067C22.8768 29.1469 22.502 28.4765 21.882 28.4765C21.2621 28.4765 20.8836 29.1469 20.8836 30.6067C20.8836 32.0701 21.2621 32.5783 21.882 32.5783ZM28.5286 33L27.3751 31.2735L26.6182 32.1674V33H25.9983V27.5249H26.6182V31.3672L28.3916 29.1721H29.1233L27.7536 30.8374L29.2134 33H28.5286ZM29.855 33V29.1721H30.4101L30.4461 29.6551C30.7164 29.2983 31.0985 29.064 31.531 29.064C31.9419 29.064 32.2411 29.2334 32.4249 29.6443C32.7313 29.273 33.1458 29.064 33.5639 29.064C34.3172 29.064 34.6705 29.5794 34.6705 30.2895V33H34.0505V30.412C34.0505 29.8353 33.827 29.6191 33.4594 29.6191C33.1097 29.6191 32.7241 29.9218 32.5655 30.1958C32.5727 30.3652 32.5727 30.3147 32.5727 30.4337V33H31.9527V30.412C31.9527 29.8353 31.7293 29.6191 31.3616 29.6191C31.0444 29.6191 30.7272 29.8534 30.4749 30.203V33H29.855ZM35.3661 34.1246L37.4675 27.9863H38.0225L35.9212 34.1246H35.3661ZM38.7578 33V27.5141H39.3778V29.6876C39.677 29.3704 40.059 29.064 40.6141 29.064C41.3206 29.064 41.8108 29.3704 41.8108 30.6499V33H41.1908V30.6499C41.1908 29.8425 40.9349 29.6191 40.5024 29.6191C40.0302 29.6191 39.6626 29.9687 39.3778 30.2607V33H38.7578Z" fill="white"/>
</svg>
