<svg width="65" height="42" viewBox="0 0 65 42" fill="none" xmlns="http://www.w3.org/2000/svg">
<path d="M8.69176 7.56889C8.08416 7.14666 7.33239 6.8892 6.53942 6.8892C4.94318 6.8892 3.74858 7.99112 3.74858 10.8746C4.33558 10.1435 5.38601 9.73153 6.46733 9.73153C8.80504 9.73153 10.3498 11.4308 10.3498 14.4379C10.3498 17.5788 8.37251 19.2987 5.97301 19.2987C3.07919 19.2987 1.11222 17.2287 1.11222 12.3267C1.11222 7.02308 3.53232 4.67507 6.41584 4.67507C7.54865 4.67507 8.71236 5.02521 9.71129 5.67401L8.69176 7.56889ZM3.69709 13.3977C3.69709 16.2092 4.78871 17.0536 5.99361 17.0536C7.14702 17.0536 7.88849 16.0341 7.88849 14.4379C7.88849 13.1918 7.25 11.9972 5.92152 11.9972C4.8299 11.9972 3.97514 12.7901 3.69709 13.3977ZM19.9375 7.56889C19.3299 7.14666 18.5781 6.8892 17.7852 6.8892C16.1889 6.8892 14.9943 7.99112 14.9943 10.8746C15.5813 10.1435 16.6317 9.73153 17.7131 9.73153C20.0508 9.73153 21.5955 11.4308 21.5955 14.4379C21.5955 17.5788 19.6183 19.2987 17.2188 19.2987C14.3249 19.2987 12.358 17.2287 12.358 12.3267C12.358 7.02308 14.7781 4.67507 17.6616 4.67507C18.7944 4.67507 19.9581 5.02521 20.957 5.67401L19.9375 7.56889ZM14.9428 13.3977C14.9428 16.2092 16.0344 17.0536 17.2393 17.0536C18.3928 17.0536 19.1342 16.0341 19.1342 14.4379C19.1342 13.1918 18.4957 11.9972 17.1673 11.9972C16.0756 11.9972 15.2209 12.7901 14.9428 13.3977ZM29.5932 19L27.3688 15.6716L25.7869 17.5335V19H23.6449V6.48551H25.7869V14.823L29.3625 10.2506H31.7517L28.6457 14.2051L31.9165 19H29.5932ZM45.0818 7.80369L42.808 19H40.2375L38.7463 13.0599L37.2551 19H34.6764L32.4273 7.80369H34.594L36.1347 17.1051L37.667 10.2506H39.8338L41.358 17.1298L42.8821 7.80369H45.0818ZM46.7131 19V6.48551H48.8551V11.0415C49.4895 10.3824 50.2474 10.0034 51.1784 10.0034C52.892 10.0034 54.1196 10.7696 54.1196 13.9003V19H51.9776V13.9003C51.9776 12.4668 51.5491 11.923 50.6017 11.923C50.0497 11.923 49.506 12.1455 48.8551 12.6645V19H46.7131Z" fill="white"/>
<path d="M2.22001 28.1016H3.72665C4.76472 28.1016 5.26213 28.617 5.26213 29.3956C5.26213 29.7596 5.10353 30.2895 4.64938 30.4337C5.14679 30.567 5.52525 30.9779 5.52525 31.6231C5.52525 32.5639 4.77553 33 3.80234 33H2.22001V28.1016ZM2.84718 28.6279V30.1958H3.69782C4.34661 30.1958 4.59531 29.8858 4.59531 29.4244C4.59531 28.945 4.33219 28.6279 3.687 28.6279H2.84718ZM2.84718 30.7256V32.4738H3.7627C4.52683 32.4738 4.85843 32.0701 4.85843 31.5943C4.85843 31.1077 4.52322 30.7256 3.77351 30.7256H2.84718ZM7.41035 33.1117C6.72191 33.1117 6.15602 32.7909 6.15602 31.9007C6.15602 30.9455 6.97061 30.6607 7.60499 30.6607H8.54934V30.3868C8.54934 29.8209 8.22495 29.5758 7.6122 29.5758C7.23013 29.5758 6.90573 29.6767 6.60297 29.7993L6.44798 29.2983C6.84446 29.1577 7.24455 29.064 7.6122 29.064C8.5133 29.064 9.1693 29.4461 9.1693 30.4625V33H8.64666L8.5998 32.5386C8.38354 32.809 7.90055 33.1117 7.41035 33.1117ZM7.49686 32.5819C7.90776 32.5819 8.30064 32.2971 8.54934 32.0268V31.1545H7.73475C7.11479 31.1545 6.77598 31.4285 6.77598 31.9007C6.77598 32.3728 7.05352 32.5819 7.49686 32.5819ZM10.2578 28.1016H10.8778V29.1721H12.2943V29.6839H10.8778V31.7276C10.8778 32.2971 11.0616 32.5494 11.505 32.5494C11.7933 32.5494 12.1249 32.4413 12.3664 32.3224L12.5178 32.827C12.0672 33.0288 11.7104 33.1045 11.4257 33.1045C10.521 33.1045 10.2578 32.5026 10.2578 31.7781V28.1016ZM16.0321 32.4305C15.7113 32.8162 15.2427 33.1045 14.6156 33.1045C13.372 33.1045 12.8674 32.1674 12.8674 31.068C12.8674 30.0119 13.3684 29.064 14.5146 29.064C15.6644 29.064 16.133 30.0083 16.133 31.1545V31.2951H13.509C13.5378 32.1782 13.9956 32.5783 14.6336 32.5783C15.0553 32.5783 15.3689 32.38 15.65 32.052L16.0321 32.4305ZM14.5146 29.5938C13.8154 29.5938 13.5378 30.1633 13.5162 30.7977H15.495C15.477 30.1633 15.2067 29.5938 14.5146 29.5938ZM17.0305 29.1721H17.5567L17.6036 29.6876C17.9496 29.2586 18.2632 29.064 18.6056 29.064C18.8039 29.064 19.0021 29.1145 19.1751 29.1937L18.9913 29.7272C18.8832 29.6803 18.7029 29.6119 18.5407 29.6119C18.2272 29.6119 17.9388 29.8353 17.6505 30.2895V33H17.0305V29.1721ZM20.7647 26.977H21.4675L20.4222 28.2963H19.8491L20.7647 26.977ZM19.8491 33V29.1721H20.4691V33H19.8491ZM22.5849 33.1117C21.8964 33.1117 21.3306 32.7909 21.3306 31.9007C21.3306 30.9455 22.1452 30.6607 22.7795 30.6607H23.7239V30.3868C23.7239 29.8209 23.3995 29.5758 22.7867 29.5758C22.4047 29.5758 22.0803 29.6767 21.7775 29.7993L21.6225 29.2983C22.019 29.1577 22.4191 29.064 22.7867 29.064C23.6878 29.064 24.3438 29.4461 24.3438 30.4625V33H23.8212L23.7743 32.5386C23.5581 32.809 23.0751 33.1117 22.5849 33.1117ZM22.6714 32.5819C23.0823 32.5819 23.4752 32.2971 23.7239 32.0268V31.1545H22.9093C22.2893 31.1545 21.9505 31.4285 21.9505 31.9007C21.9505 32.3728 22.2281 32.5819 22.6714 32.5819Z" fill="white"/>
</svg>
