<svg width="65" height="42" viewBox="0 0 65 42" fill="none" xmlns="http://www.w3.org/2000/svg">
<path d="M8.87713 15.8899H3.97514L2.95561 19H0.102983L5.10795 5.00462H8.00178L12.6875 19H9.89666L8.87713 15.8899ZM4.70632 13.6758H8.14595L6.43643 8.43395L4.70632 13.6758ZM28.7734 5.00462L25.9311 19H22.718L20.854 11.5749L18.9901 19H15.7667L12.9553 5.00462H15.6637L17.5895 16.6314L19.505 8.06321H22.2134L24.1186 16.6623L26.0238 5.00462H28.7734ZM31.0391 5.00462H35.2408C39.5661 5.00462 41.6978 8.25888 41.6978 11.9251C41.6978 15.6325 39.5661 19 35.2408 19H31.0391V5.00462ZM33.7681 7.21875V16.7859H35.2408C37.5064 16.7859 38.7113 14.9116 38.7113 11.9251C38.7113 8.93856 37.5064 7.21875 35.2408 7.21875H33.7681Z" fill="white"/>
<path d="M3.29412 33V28.6279H1.73702V28.1016H5.47479V28.6279H3.92129V33H3.29412ZM5.6478 29.1721H6.17404L6.2209 29.6876C6.56692 29.2586 6.8805 29.064 7.22292 29.064C7.42116 29.064 7.61941 29.1145 7.79242 29.1937L7.60859 29.7272C7.50046 29.6803 7.32024 29.6119 7.15804 29.6119C6.84446 29.6119 6.55611 29.8353 6.26776 30.2895V33H5.6478V29.1721ZM9.29906 33.1117C8.61062 33.1117 8.04473 32.7909 8.04473 31.9007C8.04473 30.9455 8.85932 30.6607 9.4937 30.6607H10.4381V30.3868C10.4381 29.8209 10.1137 29.5758 9.50091 29.5758C9.11884 29.5758 8.79444 29.6767 8.49167 29.7993L8.33668 29.2983C8.73317 29.1577 9.13326 29.064 9.50091 29.064C10.402 29.064 11.058 29.4461 11.058 30.4625V33H10.5354L10.4885 32.5386C10.2722 32.809 9.78926 33.1117 9.29906 33.1117ZM9.38556 32.5819C9.79647 32.5819 10.1893 32.2971 10.4381 32.0268V31.1545H9.62346C9.0035 31.1545 8.66468 31.4285 8.66468 31.9007C8.66468 32.3728 8.94222 32.5819 9.38556 32.5819ZM14.9472 32.4197C14.5939 32.8775 14.1974 33.1045 13.6099 33.1045C12.6187 33.1045 11.9375 32.3584 11.9375 31.0897C11.9375 29.9399 12.5538 29.064 13.6207 29.064C14.2083 29.064 14.5939 29.3019 14.9472 29.7632L14.5543 30.1309C14.3236 29.8137 14.0533 29.5938 13.6207 29.5938C12.9323 29.5938 12.5574 30.1705 12.5574 31.0897C12.5574 32.0088 12.9359 32.5783 13.6532 32.5783C14.0677 32.5783 14.3236 32.3692 14.5543 32.052L14.9472 32.4197ZM18.5011 32.4197C18.1479 32.8775 17.7514 33.1045 17.1639 33.1045C16.1727 33.1045 15.4914 32.3584 15.4914 31.0897C15.4914 29.9399 16.1078 29.064 17.1747 29.064C17.7622 29.064 18.1479 29.3019 18.5011 29.7632L18.1082 30.1309C17.8775 29.8137 17.6072 29.5938 17.1747 29.5938C16.4862 29.5938 16.1114 30.1705 16.1114 31.0897C16.1114 32.0088 16.4898 32.5783 17.2071 32.5783C17.6216 32.5783 17.8775 32.3692 18.1082 32.052L18.5011 32.4197ZM19.9969 28.2963H19.2977V27.579H19.9969V28.2963ZM19.3373 33V29.1721H19.9573V33H19.3373ZM22.9525 26.977H23.6554L22.6101 28.2963H22.037L22.9525 26.977ZM22.538 33.1045C21.536 33.1045 20.8764 32.2899 20.8764 31.0897C20.8764 29.8858 21.536 29.064 22.538 29.064C23.5365 29.064 24.1961 29.8858 24.1961 31.0897C24.1961 32.2899 23.5365 33.1045 22.538 33.1045ZM22.538 32.5783C23.2229 32.5783 23.5761 32.0196 23.5761 31.0897C23.5761 30.1633 23.2229 29.5938 22.538 29.5938C21.8496 29.5938 21.4964 30.1633 21.4964 31.0897C21.4964 32.0196 21.8496 32.5783 22.538 32.5783ZM25.1188 33V29.1721H25.6522L25.6955 29.7272C26.0127 29.3848 26.42 29.064 26.9751 29.064C27.6815 29.064 28.1717 29.3704 28.1717 30.6499V33H27.5518V30.6499C27.5518 29.8425 27.2958 29.6191 26.8633 29.6191C26.3911 29.6191 26.0235 29.9687 25.7387 30.2607V33H25.1188Z" fill="white"/>
</svg>
