<svg width="64" height="43" viewBox="0 0 64 43" fill="none" xmlns="http://www.w3.org/2000/svg">
<path d="M9.43643 19V16.0341H4.00923V14.098L8.83913 5.00462H11.7947V14.0156H13.669V16.0341H11.7947V19H9.43643ZM6.44993 14.0156H9.43643V7.91903L6.44993 14.0156ZM24.3381 19H15.9347V17.033L20.1982 12.0281C21.4134 10.6069 21.8768 9.77273 21.8768 8.81499C21.8768 7.34233 20.5998 6.8892 19.7656 6.8892C18.7461 6.8892 17.881 7.42472 17.0984 8.42365L15.3683 6.85831C16.6761 5.32386 18.1282 4.67507 19.7656 4.67507C22.4947 4.67507 24.3381 6.18892 24.3381 8.81499C24.3381 10.5554 23.3185 12.2134 21.8047 13.7479L18.7255 16.8786H24.3381V19ZM31.3306 4.67507C33.9052 4.67507 35.4499 6.01385 35.4499 8.53693C35.4499 9.9066 34.7702 11.0497 33.6374 11.5543C35.0483 12.0795 35.9545 13.5419 35.9545 15.1587C35.9545 18.104 33.3697 19.2987 31.3306 19.2987C29.3224 19.2987 26.7685 18.104 26.7685 15.1587C26.7685 13.3462 27.7674 12.1516 29.0856 11.5543C27.9734 11.0806 27.2628 9.9066 27.2628 8.53693C27.2628 6.01385 28.756 4.67507 31.3306 4.67507ZM31.3306 10.3803C32.2987 10.3803 33.0607 9.65945 33.0607 8.53693C33.0607 7.41442 32.2987 6.69354 31.3306 6.69354C30.3626 6.69354 29.6314 7.41442 29.6314 8.53693C29.6314 9.65945 30.3832 10.3803 31.3306 10.3803ZM31.3306 12.8931C30.3008 12.8931 29.3018 13.6655 29.3018 14.994C29.3018 16.3327 30.3008 17.0845 31.3306 17.0845C32.3604 17.0845 33.4212 16.3327 33.4212 14.994C33.4212 13.6655 32.3604 12.8931 31.3306 12.8931ZM48.055 17.3317C47.1076 18.6087 45.4805 19.2987 43.8018 19.2987C40.1563 19.2987 37.9318 16.3224 37.9318 12.0075C37.9318 7.67187 40.1563 4.67507 43.8018 4.67507C45.4805 4.67507 47.1076 5.36506 48.055 6.64204L46.3764 8.41335C45.81 7.61008 44.9656 7.06428 43.9872 7.06428C42.1747 7.06428 40.8359 8.7429 40.8359 12.0075C40.8359 15.272 42.1747 16.9094 43.9872 16.9094C44.9656 16.9094 45.81 16.3636 46.3764 15.5604L48.055 17.3317ZM60.3924 5.00462L56.2731 19H53.0188L48.9201 5.00462H51.5771L54.6562 16.5078L57.7354 5.00462H60.3924Z" fill="white"/>
<path d="M5.53967 29.5959C5.53967 30.5475 4.9918 31.0846 3.67979 31.0846H2.84718V32.9841H2.22001V28.0821H3.67979C4.9918 28.0821 5.53967 28.6444 5.53967 29.5959ZM2.84718 28.6083V30.5511H3.67979C4.49799 30.5511 4.87285 30.2483 4.87285 29.5959C4.87285 28.9435 4.49799 28.6083 3.67979 28.6083H2.84718ZM7.75277 33.085C6.75075 33.085 6.09114 32.2704 6.09114 31.0701C6.09114 29.8663 6.75075 29.0445 7.75277 29.0445C8.75119 29.0445 9.4108 29.8663 9.4108 31.0701C9.4108 32.2704 8.75119 33.085 7.75277 33.085ZM7.75277 32.5588C8.43761 32.5588 8.79084 32.0001 8.79084 31.0701C8.79084 30.1438 8.43761 29.5743 7.75277 29.5743C7.06433 29.5743 6.7111 30.1438 6.7111 31.0701C6.7111 32.0001 7.06433 32.5588 7.75277 32.5588ZM10.2939 28.0821H10.9138V29.1526H12.3304V29.6644H10.9138V31.7081C10.9138 32.2776 11.0977 32.5299 11.541 32.5299C11.8293 32.5299 12.161 32.4218 12.4024 32.3028L12.5538 32.8075C12.1033 33.0093 11.7464 33.085 11.4617 33.085C10.557 33.085 10.2939 32.4831 10.2939 31.7586V28.0821ZM16.0681 32.411C15.7473 32.7966 15.2788 33.085 14.6516 33.085C13.4081 33.085 12.9035 32.1479 12.9035 31.0485C12.9035 29.9924 13.4045 29.0445 14.5507 29.0445C15.7005 29.0445 16.1691 29.9888 16.1691 31.135V31.2756H13.545C13.5739 32.1587 14.0316 32.5588 14.6696 32.5588C15.0913 32.5588 15.4049 32.3605 15.6861 32.0325L16.0681 32.411ZM14.5507 29.5743C13.8514 29.5743 13.5739 30.1438 13.5523 30.7782H15.5311C15.5131 30.1438 15.2427 29.5743 14.5507 29.5743ZM17.0665 32.9805V29.1526H17.6L17.6433 29.7077C17.9604 29.3653 18.3677 29.0445 18.9228 29.0445C19.6293 29.0445 20.1195 29.3508 20.1195 30.6304V32.9805H19.4995V30.6304C19.4995 29.823 19.2436 29.5995 18.8111 29.5995C18.3389 29.5995 17.9713 29.9492 17.6865 30.2411V32.9805H17.0665ZM24.0086 32.4002C23.6554 32.8579 23.2589 33.085 22.6714 33.085C21.6802 33.085 20.999 32.3389 20.999 31.0701C20.999 29.9203 21.6153 29.0445 22.6822 29.0445C23.2697 29.0445 23.6554 29.2824 24.0086 29.7437L23.6158 30.1114C23.3851 29.7942 23.1147 29.5743 22.6822 29.5743C21.9938 29.5743 21.6189 30.151 21.6189 31.0701C21.6189 31.9893 21.9974 32.5588 22.7146 32.5588C23.1292 32.5588 23.3851 32.3497 23.6158 32.0325L24.0086 32.4002ZM25.5045 28.2767H24.8052V27.5594H25.5045V28.2767ZM24.8449 32.9805V29.1526H25.4648V32.9805H24.8449ZM27.5806 33.0922C26.8922 33.0922 26.3263 32.7714 26.3263 31.8811C26.3263 30.926 27.1409 30.6412 27.7752 30.6412H28.7196V30.3673C28.7196 29.8014 28.3952 29.5563 27.7824 29.5563C27.4004 29.5563 27.076 29.6572 26.7732 29.7798L26.6182 29.2787C27.0147 29.1382 27.4148 29.0445 27.7824 29.0445C28.6835 29.0445 29.3395 29.4265 29.3395 30.443V32.9805H28.8169L28.77 32.5191C28.5538 32.7894 28.0708 33.0922 27.5806 33.0922ZM27.6671 32.5624C28.078 32.5624 28.4709 32.2776 28.7196 32.0073V31.135H27.905C27.285 31.135 26.9462 31.4089 26.9462 31.8811C26.9462 32.3533 27.2238 32.5624 27.6671 32.5624Z" fill="white"/>
</svg>
