<svg width="65" height="43" viewBox="0 0 65 43" fill="none" xmlns="http://www.w3.org/2000/svg">
<path d="M6.18928 19V16.0341H0.762074V14.098L5.59197 5.00462H8.54759V14.0156H10.4219V16.0341H8.54759V19H6.18928ZM3.20277 14.0156H6.18928V7.91903L3.20277 14.0156ZM16.8789 19.2987C13.429 19.2987 12.1005 16.3121 12.1005 12.2237C12.1005 8.1353 13.429 4.67507 16.8789 4.67507C20.2979 4.67507 21.6367 8.1353 21.6367 12.2237C21.6367 16.3121 20.2979 19.2987 16.8789 19.2987ZM16.8789 17.0845C18.1662 17.0845 19.0313 16.0856 19.0313 12.2237C19.0313 8.36186 18.1662 6.8892 16.8789 6.8892C15.5916 6.8892 14.6957 8.36186 14.6957 12.2237C14.6957 16.0856 15.5916 17.0845 16.8789 17.0845ZM28.1246 19.2987C24.6747 19.2987 23.3462 16.3121 23.3462 12.2237C23.3462 8.1353 24.6747 4.67507 28.1246 4.67507C31.5437 4.67507 32.8825 8.1353 32.8825 12.2237C32.8825 16.3121 31.5437 19.2987 28.1246 19.2987ZM28.1246 17.0845C29.4119 17.0845 30.277 16.0856 30.277 12.2237C30.277 8.36186 29.4119 6.8892 28.1246 6.8892C26.8374 6.8892 25.9414 8.36186 25.9414 12.2237C25.9414 16.0856 26.8374 17.0845 28.1246 17.0845ZM40.8389 19L38.6145 15.6716L37.0327 17.5335V19H34.8906V6.48551H37.0327V14.823L40.6082 10.2506H42.9974L39.8915 14.2051L43.1622 19H40.8389ZM44.3486 19V10.2506H46.2929L46.4 11.025C46.9685 10.4318 47.7923 10.0116 48.7892 10.0116C49.6131 10.0116 50.1239 10.3906 50.4699 10.9673C51.2278 10.3082 52.0517 10.0116 52.958 10.0116C54.6057 10.0116 55.5202 11.231 55.5202 12.7222V19H53.3781V13.3401C53.3781 12.269 53.1063 11.923 52.4472 11.923C51.821 11.923 50.9889 12.5409 50.9642 12.5656C51.0054 12.9446 51.0054 13.0105 51.0054 13.3401V19H48.8634V13.3401C48.8634 12.269 48.5915 11.923 47.9324 11.923C47.4793 11.923 46.9849 12.1866 46.4906 12.5821V19H44.3486Z" fill="white"/>
<path d="M3.89679 31.8415H1.87832L1.48544 32.9805H0.836648L2.58839 28.0821H3.2552L4.91683 32.9805H4.27885L3.89679 31.8415ZM2.05494 31.3152H3.72017L2.90197 28.8751L2.05494 31.3152ZM8.61495 29.1526V32.9805H8.07789L8.03464 32.4254C7.71745 32.7678 7.31016 33.0886 6.75508 33.0886C6.04862 33.0886 5.55842 32.7822 5.55842 31.5027V29.1526H6.17837V31.5027C6.17837 32.3064 6.43429 32.5335 6.86681 32.5335C7.3426 32.5335 7.70664 32.1839 7.99499 31.8919V29.1526H8.61495ZM9.74313 28.0821H10.3631V29.1526H11.7796V29.6644H10.3631V31.7081C10.3631 32.2776 10.5469 32.5299 10.9903 32.5299C11.2786 32.5299 11.6102 32.4218 11.8517 32.3028L12.0031 32.8075C11.5525 33.0093 11.1957 33.085 10.911 33.085C10.0063 33.085 9.74313 32.4831 9.74313 31.7586V28.0821ZM14.0143 33.085C13.0123 33.085 12.3527 32.2704 12.3527 31.0701C12.3527 29.8663 13.0123 29.0445 14.0143 29.0445C15.0128 29.0445 15.6724 29.8663 15.6724 31.0701C15.6724 32.2704 15.0128 33.085 14.0143 33.085ZM14.0143 32.5588C14.6992 32.5588 15.0524 32.0001 15.0524 31.0701C15.0524 30.1438 14.6992 29.5743 14.0143 29.5743C13.3259 29.5743 12.9727 30.1438 12.9727 31.0701C12.9727 32.0001 13.3259 32.5588 14.0143 32.5588ZM16.5951 32.9805V29.1526H17.1286L17.1718 29.7077C17.489 29.3653 17.8963 29.0445 18.4514 29.0445C19.1578 29.0445 19.648 29.3508 19.648 30.6304V32.9805H19.0281V30.6304C19.0281 29.823 18.7722 29.5995 18.3396 29.5995C17.8675 29.5995 17.4998 29.9492 17.2151 30.2411V32.9805H16.5951ZM22.1891 33.085C21.1871 33.085 20.5275 32.2704 20.5275 31.0701C20.5275 29.8663 21.1871 29.0445 22.1891 29.0445C23.1876 29.0445 23.8472 29.8663 23.8472 31.0701C23.8472 32.2704 23.1876 33.085 22.1891 33.085ZM22.1891 32.5588C22.874 32.5588 23.2272 32.0001 23.2272 31.0701C23.2272 30.1438 22.874 29.5743 22.1891 29.5743C21.5007 29.5743 21.1475 30.1438 21.1475 31.0701C21.1475 32.0001 21.5007 32.5588 22.1891 32.5588ZM24.7699 32.9805V29.1526H25.325L25.361 29.6356C25.6313 29.2787 26.0134 29.0445 26.4459 29.0445C26.8568 29.0445 27.156 29.2139 27.3398 29.6248C27.6462 29.2535 28.0607 29.0445 28.4788 29.0445C29.2321 29.0445 29.5854 29.5599 29.5854 30.27V32.9805H28.9654V30.3925C28.9654 29.8158 28.7419 29.5995 28.3743 29.5995C28.0247 29.5995 27.639 29.9023 27.4804 30.1762C27.4876 30.3456 27.4876 30.2952 27.4876 30.4141V32.9805H26.8677V30.3925C26.8677 29.8158 26.6442 29.5995 26.2765 29.5995C25.9593 29.5995 25.6422 29.8338 25.3898 30.1835V32.9805H24.7699ZM31.6327 26.9575H32.3355L31.2903 28.2767H30.7172L31.6327 26.9575ZM30.7172 32.9805V29.1526H31.3371V32.9805H30.7172ZM33.4529 33.0922C32.7645 33.0922 32.1986 32.7714 32.1986 31.8811C32.1986 30.926 33.0132 30.6412 33.6475 30.6412H34.5919V30.3673C34.5919 29.8014 34.2675 29.5563 33.6547 29.5563C33.2727 29.5563 32.9483 29.6572 32.6455 29.7798L32.4905 29.2787C32.887 29.1382 33.2871 29.0445 33.6547 29.0445C34.5558 29.0445 35.2118 29.4265 35.2118 30.443V32.9805H34.6892L34.6423 32.5191C34.4261 32.7894 33.9431 33.0922 33.4529 33.0922ZM33.5394 32.5624C33.9503 32.5624 34.3432 32.2776 34.5919 32.0073V31.135H33.7773C33.1573 31.135 32.8185 31.4089 32.8185 31.8811C32.8185 32.3533 33.0961 32.5624 33.5394 32.5624Z" fill="white"/>
</svg>
