<svg width="233" height="20" viewBox="0 0 233 20" fill="none" xmlns="http://www.w3.org/2000/svg">
<path opacity="0.8" d="M3.31641 5.29297H1.12891L0.703125 6.52734H0L1.89844 1.21875H2.62109L4.42188 6.52734H3.73047L3.31641 5.29297ZM1.32031 4.72266H3.125L2.23828 2.07812L1.32031 4.72266ZM8.42969 2.37891V6.52734H7.84766L7.80078 5.92578C7.45703 6.29688 7.01562 6.64453 6.41406 6.64453C5.64844 6.64453 5.11719 6.3125 5.11719 4.92578V2.37891H5.78906V4.92578C5.78906 5.79688 6.06641 6.04297 6.53516 6.04297C7.05078 6.04297 7.44531 5.66406 7.75781 5.34766V2.37891H8.42969ZM9.65234 1.21875H10.3242V2.37891H11.8594V2.93359H10.3242V5.14844C10.3242 5.76562 10.5234 6.03906 11.0039 6.03906C11.3164 6.03906 11.6758 5.92188 11.9375 5.79297L12.1016 6.33984C11.6133 6.55859 11.2266 6.64062 10.918 6.64062C9.9375 6.64062 9.65234 5.98828 9.65234 5.20312V1.21875ZM14.2812 6.64062C13.1953 6.64062 12.4805 5.75781 12.4805 4.45703C12.4805 3.15234 13.1953 2.26172 14.2812 2.26172C15.3633 2.26172 16.0781 3.15234 16.0781 4.45703C16.0781 5.75781 15.3633 6.64062 14.2812 6.64062ZM14.2812 6.07031C15.0234 6.07031 15.4062 5.46484 15.4062 4.45703C15.4062 3.45312 15.0234 2.83594 14.2812 2.83594C13.5352 2.83594 13.1523 3.45312 13.1523 4.45703C13.1523 5.46484 13.5352 6.07031 14.2812 6.07031ZM17.0781 6.52734V2.37891H17.6562L17.7031 2.98047C18.0469 2.60938 18.4883 2.26172 19.0898 2.26172C19.8555 2.26172 20.3867 2.59375 20.3867 3.98047V6.52734H19.7148V3.98047C19.7148 3.10547 19.4375 2.86328 18.9688 2.86328C18.457 2.86328 18.0586 3.24219 17.75 3.55859V6.52734H17.0781ZM23.1406 6.64062C22.0547 6.64062 21.3398 5.75781 21.3398 4.45703C21.3398 3.15234 22.0547 2.26172 23.1406 2.26172C24.2227 2.26172 24.9375 3.15234 24.9375 4.45703C24.9375 5.75781 24.2227 6.64062 23.1406 6.64062ZM23.1406 6.07031C23.8828 6.07031 24.2656 5.46484 24.2656 4.45703C24.2656 3.45312 23.8828 2.83594 23.1406 2.83594C22.3945 2.83594 22.0117 3.45312 22.0117 4.45703C22.0117 5.46484 22.3945 6.07031 23.1406 6.07031ZM25.9375 6.52734V2.37891H26.5391L26.5781 2.90234C26.8711 2.51562 27.2852 2.26172 27.7539 2.26172C28.1992 2.26172 28.5234 2.44531 28.7227 2.89062C29.0547 2.48828 29.5039 2.26172 29.957 2.26172C30.7734 2.26172 31.1562 2.82031 31.1562 3.58984V6.52734H30.4844V3.72266C30.4844 3.09766 30.2422 2.86328 29.8438 2.86328C29.4648 2.86328 29.0469 3.19141 28.875 3.48828C28.8828 3.67188 28.8828 3.61719 28.8828 3.74609V6.52734H28.2109V3.72266C28.2109 3.09766 27.9688 2.86328 27.5703 2.86328C27.2266 2.86328 26.8828 3.11719 26.6094 3.49609V6.52734H25.9375ZM33.375 0H34.1367L33.0039 1.42969H32.3828L33.375 0ZM32.3828 6.52734V2.37891H33.0547V6.52734H32.3828ZM35.3477 6.64844C34.6016 6.64844 33.9883 6.30078 33.9883 5.33594C33.9883 4.30078 34.8711 3.99219 35.5586 3.99219H36.582V3.69531C36.582 3.08203 36.2305 2.81641 35.5664 2.81641C35.1523 2.81641 34.8008 2.92578 34.4727 3.05859L34.3047 2.51562C34.7344 2.36328 35.168 2.26172 35.5664 2.26172C36.543 2.26172 37.2539 2.67578 37.2539 3.77734V6.52734H36.6875L36.6367 6.02734C36.4023 6.32031 35.8789 6.64844 35.3477 6.64844ZM35.4414 6.07422C35.8867 6.07422 36.3125 5.76562 36.582 5.47266V4.52734H35.6992C35.0273 4.52734 34.6602 4.82422 34.6602 5.33594C34.6602 5.84766 34.9609 6.07422 35.4414 6.07422ZM43.3867 5.91016C43.0391 6.32812 42.5312 6.64062 41.8516 6.64062C40.5039 6.64062 39.957 5.625 39.957 4.43359C39.957 3.28906 40.5 2.26172 41.7422 2.26172C42.9883 2.26172 43.4961 3.28516 43.4961 4.52734V4.67969H40.6523C40.6836 5.63672 41.1797 6.07031 41.8711 6.07031C42.3281 6.07031 42.668 5.85547 42.9727 5.5L43.3867 5.91016ZM41.7422 2.83594C40.9844 2.83594 40.6836 3.45312 40.6602 4.14062H42.8047C42.7852 3.45312 42.4922 2.83594 41.7422 2.83594ZM44.4688 6.52734V2.37891H45.0469L45.0938 2.98047C45.4375 2.60938 45.8789 2.26172 46.4805 2.26172C47.2461 2.26172 47.7773 2.59375 47.7773 3.98047V6.52734H47.1055V3.98047C47.1055 3.10547 46.8281 2.86328 46.3594 2.86328C45.8477 2.86328 45.4492 3.24219 45.1406 3.55859V6.52734H44.4688ZM53.7422 5.89844C53.3594 6.39453 52.9297 6.64062 52.293 6.64062C51.2188 6.64062 50.4805 5.83203 50.4805 4.45703C50.4805 3.21094 51.1484 2.26172 52.3047 2.26172C52.9414 2.26172 53.3594 2.51953 53.7422 3.01953L53.3164 3.41797C53.0664 3.07422 52.7734 2.83594 52.3047 2.83594C51.5586 2.83594 51.1523 3.46094 51.1523 4.45703C51.1523 5.45312 51.5625 6.07031 52.3398 6.07031C52.7891 6.07031 53.0664 5.84375 53.3164 5.5L53.7422 5.89844ZM55.3633 1.42969H54.6055V0.652344H55.3633V1.42969ZM54.6484 6.52734V2.37891H55.3203V6.52734H54.6484ZM59.5781 5.89844C59.1953 6.39453 58.7656 6.64062 58.1289 6.64062C57.0547 6.64062 56.3164 5.83203 56.3164 4.45703C56.3164 3.21094 56.9844 2.26172 58.1406 2.26172C58.7773 2.26172 59.1953 2.51953 59.5781 3.01953L59.1523 3.41797C58.9023 3.07422 58.6094 2.83594 58.1406 2.83594C57.3945 2.83594 56.9883 3.46094 56.9883 4.45703C56.9883 5.45312 57.3984 6.07031 58.1758 6.07031C58.625 6.07031 58.9023 5.84375 59.1523 5.5L59.5781 5.89844ZM60.4844 6.52734V0.59375H61.1562V6.52734H60.4844ZM63.9531 6.64062C62.8672 6.64062 62.1523 5.75781 62.1523 4.45703C62.1523 3.15234 62.8672 2.26172 63.9531 2.26172C65.0352 2.26172 65.75 3.15234 65.75 4.45703C65.75 5.75781 65.0352 6.64062 63.9531 6.64062ZM63.9531 6.07031C64.6953 6.07031 65.0781 5.46484 65.0781 4.45703C65.0781 3.45312 64.6953 2.83594 63.9531 2.83594C63.207 2.83594 62.8242 3.45312 62.8242 4.45703C62.8242 5.46484 63.207 6.07031 63.9531 6.07031ZM68.5 6.52734V2.37891H69.1016L69.1406 2.90234C69.4336 2.51562 69.8477 2.26172 70.3164 2.26172C70.7617 2.26172 71.0859 2.44531 71.2852 2.89062C71.6172 2.48828 72.0664 2.26172 72.5195 2.26172C73.3359 2.26172 73.7188 2.82031 73.7188 3.58984V6.52734H73.0469V3.72266C73.0469 3.09766 72.8047 2.86328 72.4062 2.86328C72.0273 2.86328 71.6094 3.19141 71.4375 3.48828C71.4453 3.67188 71.4453 3.61719 71.4453 3.74609V6.52734H70.7734V3.72266C70.7734 3.09766 70.5312 2.86328 70.1328 2.86328C69.7891 2.86328 69.4453 3.11719 69.1719 3.49609V6.52734H68.5ZM75.6602 1.42969H74.9023V0.652344H75.6602V1.42969ZM74.9453 6.52734V2.37891H75.6172V6.52734H74.9453ZM79.3164 6.52734L78.2305 4.89062L77.1484 6.52734H76.3906L77.8281 4.44922L76.3906 2.37891H77.1484L78.2305 3.99219L79.3164 2.37891H80.0742L78.6445 4.4375L80.0742 6.52734H79.3164ZM80.8086 1.21875H81.4805V2.37891H83.0156V2.93359H81.4805V5.14844C81.4805 5.76562 81.6797 6.03906 82.1602 6.03906C82.4727 6.03906 82.832 5.92188 83.0938 5.79297L83.2578 6.33984C82.7695 6.55859 82.3828 6.64062 82.0742 6.64062C81.0938 6.64062 80.8086 5.98828 80.8086 5.20312V1.21875ZM85.4375 6.64062C84.3516 6.64062 83.6367 5.75781 83.6367 4.45703C83.6367 3.15234 84.3516 2.26172 85.4375 2.26172C86.5195 2.26172 87.2344 3.15234 87.2344 4.45703C87.2344 5.75781 86.5195 6.64062 85.4375 6.64062ZM85.4375 6.07031C86.1797 6.07031 86.5625 5.46484 86.5625 4.45703C86.5625 3.45312 86.1797 2.83594 85.4375 2.83594C84.6914 2.83594 84.3086 3.45312 84.3086 4.45703C84.3086 5.46484 84.6914 6.07031 85.4375 6.07031ZM88.9492 5.5625L88.0469 8.05859H87.4141L88.1523 5.5625H88.9492ZM92.793 2.26172C93.375 2.26172 93.875 2.46484 94.2891 2.97656L93.8438 3.35938C93.5547 2.98828 93.207 2.83594 92.8242 2.83594C92.2656 2.83594 92.0273 3.07422 92.0273 3.42188C92.0273 3.80859 92.2539 4 93.1055 4.15625C94.1133 4.34766 94.5039 4.73828 94.5039 5.40625C94.5039 6.17969 93.9414 6.64062 92.9336 6.64062C92.1992 6.64062 91.6133 6.32422 91.2422 5.89453L91.6719 5.47266C91.9922 5.84766 92.4023 6.07031 92.9336 6.07031C93.543 6.07031 93.832 5.80859 93.832 5.41797C93.832 5.06641 93.5586 4.83203 92.8242 4.69141C91.6797 4.47266 91.3555 4.07422 91.3555 3.44141C91.3555 2.80078 91.8359 2.26172 92.793 2.26172ZM98.6797 2.37891V6.52734H98.0977L98.0508 5.92578C97.707 6.29688 97.2656 6.64453 96.6641 6.64453C95.8984 6.64453 95.3672 6.3125 95.3672 4.92578V2.37891H96.0391V4.92578C96.0391 5.79688 96.3164 6.04297 96.7852 6.04297C97.3008 6.04297 97.6953 5.66406 98.0078 5.34766V2.37891H98.6797ZM100.66 1.42969H99.9023V0.652344H100.66V1.42969ZM98.4531 7.65625H99.1133C99.6523 7.65625 99.9453 7.32031 99.9453 6.52734V2.37891H100.617V6.48438C100.617 7.67188 100.102 8.21094 99.1641 8.21094H98.4531V7.65625ZM105.043 5.91016C104.695 6.32812 104.188 6.64062 103.508 6.64062C102.16 6.64062 101.613 5.625 101.613 4.43359C101.613 3.28906 102.156 2.26172 103.398 2.26172C104.645 2.26172 105.152 3.28516 105.152 4.52734V4.67969H102.309C102.34 5.63672 102.836 6.07031 103.527 6.07031C103.984 6.07031 104.324 5.85547 104.629 5.5L105.043 5.91016ZM103.398 2.83594C102.641 2.83594 102.34 3.45312 102.316 4.14062H104.461C104.441 3.45312 104.148 2.83594 103.398 2.83594ZM106.082 1.21875H106.754V2.37891H108.289V2.93359H106.754V5.14844C106.754 5.76562 106.953 6.03906 107.434 6.03906C107.746 6.03906 108.105 5.92188 108.367 5.79297L108.531 6.33984C108.043 6.55859 107.656 6.64062 107.348 6.64062C106.367 6.64062 106.082 5.98828 106.082 5.20312V1.21875ZM110.277 6.64844C109.531 6.64844 108.918 6.30078 108.918 5.33594C108.918 4.30078 109.801 3.99219 110.488 3.99219H111.512V3.69531C111.512 3.08203 111.16 2.81641 110.496 2.81641C110.082 2.81641 109.73 2.92578 109.402 3.05859L109.234 2.51562C109.664 2.36328 110.098 2.26172 110.496 2.26172C111.473 2.26172 112.184 2.67578 112.184 3.77734V6.52734H111.617L111.566 6.02734C111.332 6.32031 110.809 6.64844 110.277 6.64844ZM110.371 6.07422C110.816 6.07422 111.242 5.76562 111.512 5.47266V4.52734H110.629C109.957 4.52734 109.59 4.82422 109.59 5.33594C109.59 5.84766 109.891 6.07422 110.371 6.07422ZM116.184 6.64844C115.438 6.64844 114.824 6.30078 114.824 5.33594C114.824 4.30078 115.707 3.99219 116.395 3.99219H117.418V3.69531C117.418 3.08203 117.066 2.81641 116.402 2.81641C115.988 2.81641 115.637 2.92578 115.309 3.05859L115.141 2.51562C115.57 2.36328 116.004 2.26172 116.402 2.26172C117.379 2.26172 118.09 2.67578 118.09 3.77734V6.52734H117.523L117.473 6.02734C117.238 6.32031 116.715 6.64844 116.184 6.64844ZM116.277 6.07422C116.723 6.07422 117.148 5.76562 117.418 5.47266V4.52734H116.535C115.863 4.52734 115.496 4.82422 115.496 5.33594C115.496 5.84766 115.797 6.07422 116.277 6.07422ZM121.02 1.21875H121.691V2.37891H123.227V2.93359H121.691V5.14844C121.691 5.76562 121.891 6.03906 122.371 6.03906C122.684 6.03906 123.043 5.92188 123.305 5.79297L123.469 6.33984C122.98 6.55859 122.594 6.64062 122.285 6.64062C121.305 6.64062 121.02 5.98828 121.02 5.20312V1.21875ZM124.902 1.42969H124.145V0.652344H124.902V1.42969ZM124.188 6.52734V2.37891H124.859V6.52734H124.188ZM126.125 8.20703V2.37891H126.73L126.789 3C127.102 2.44531 127.594 2.26172 128.059 2.26172C128.941 2.26172 129.699 2.97266 129.699 4.46094C129.699 5.94531 128.941 6.64062 128.059 6.64062C127.594 6.64062 127.098 6.46094 126.793 5.87109V8.20703H126.125ZM127.898 6.06641C128.609 6.06641 129.027 5.48047 129.027 4.46094C129.027 3.4375 128.609 2.83203 127.898 2.83203C127.188 2.83203 126.77 3.43359 126.77 4.46094C126.77 5.48047 127.188 6.06641 127.898 6.06641ZM132.242 6.64062C131.156 6.64062 130.441 5.75781 130.441 4.45703C130.441 3.15234 131.156 2.26172 132.242 2.26172C133.324 2.26172 134.039 3.15234 134.039 4.45703C134.039 5.75781 133.324 6.64062 132.242 6.64062ZM132.242 6.07031C132.984 6.07031 133.367 5.46484 133.367 4.45703C133.367 3.45312 132.984 2.83594 132.242 2.83594C131.496 2.83594 131.113 3.45312 131.113 4.45703C131.113 5.46484 131.496 6.07031 132.242 6.07031ZM138.156 2.26172C138.621 2.26172 139.133 2.44141 139.441 3.03125V0.546875H140.105V6.52734H139.504L139.449 5.90234C139.141 6.47266 138.613 6.64062 138.172 6.64062C137.312 6.64062 136.531 5.93359 136.531 4.44531C136.531 2.95703 137.293 2.26172 138.156 2.26172ZM138.324 2.83594C137.617 2.83594 137.203 3.42188 137.203 4.44531C137.203 5.46484 137.617 6.07031 138.324 6.07031C139.039 6.07031 139.461 5.46875 139.461 4.44531C139.461 3.42188 139.039 2.83594 138.324 2.83594ZM144.535 5.91016C144.188 6.32812 143.68 6.64062 143 6.64062C141.652 6.64062 141.105 5.625 141.105 4.43359C141.105 3.28906 141.648 2.26172 142.891 2.26172C144.137 2.26172 144.645 3.28516 144.645 4.52734V4.67969H141.801C141.832 5.63672 142.328 6.07031 143.02 6.07031C143.477 6.07031 143.816 5.85547 144.121 5.5L144.535 5.91016ZM142.891 2.83594C142.133 2.83594 141.832 3.45312 141.809 4.14062H143.953C143.934 3.45312 143.641 2.83594 142.891 2.83594ZM150.359 5.89844C149.977 6.39453 149.547 6.64062 148.91 6.64062C147.836 6.64062 147.098 5.83203 147.098 4.45703C147.098 3.21094 147.766 2.26172 148.922 2.26172C149.559 2.26172 149.977 2.51953 150.359 3.01953L149.934 3.41797C149.684 3.07422 149.391 2.83594 148.922 2.83594C148.176 2.83594 147.77 3.46094 147.77 4.45703C147.77 5.45312 148.18 6.07031 148.957 6.07031C149.406 6.07031 149.684 5.84375 149.934 5.5L150.359 5.89844ZM152.75 6.64062C151.664 6.64062 150.949 5.75781 150.949 4.45703C150.949 3.15234 151.664 2.26172 152.75 2.26172C153.832 2.26172 154.547 3.15234 154.547 4.45703C154.547 5.75781 153.832 6.64062 152.75 6.64062ZM152.75 6.07031C153.492 6.07031 153.875 5.46484 153.875 4.45703C153.875 3.45312 153.492 2.83594 152.75 2.83594C152.004 2.83594 151.621 3.45312 151.621 4.45703C151.621 5.46484 152.004 6.07031 152.75 6.07031ZM155.547 6.52734V2.37891H156.125L156.172 2.98047C156.516 2.60938 156.957 2.26172 157.559 2.26172C158.324 2.26172 158.855 2.59375 158.855 3.98047V6.52734H158.184V3.98047C158.184 3.10547 157.906 2.86328 157.438 2.86328C156.926 2.86328 156.527 3.24219 156.219 3.55859V6.52734H155.547ZM161.445 2.26172C161.91 2.26172 162.422 2.44141 162.73 3.03125V0.546875H163.395V6.52734H162.793L162.738 5.90234C162.43 6.47266 161.902 6.64062 161.461 6.64062C160.602 6.64062 159.82 5.93359 159.82 4.44531C159.82 2.95703 160.582 2.26172 161.445 2.26172ZM161.613 2.83594C160.906 2.83594 160.492 3.42188 160.492 4.44531C160.492 5.46484 160.906 6.07031 161.613 6.07031C162.328 6.07031 162.75 5.46875 162.75 4.44531C162.75 3.42188 162.328 2.83594 161.613 2.83594ZM167.93 2.37891V6.52734H167.348L167.301 5.92578C166.957 6.29688 166.516 6.64453 165.914 6.64453C165.148 6.64453 164.617 6.3125 164.617 4.92578V2.37891H165.289V4.92578C165.289 5.79688 165.566 6.04297 166.035 6.04297C166.551 6.04297 166.945 5.66406 167.258 5.34766V2.37891H167.93ZM172.188 5.89844C171.805 6.39453 171.375 6.64062 170.738 6.64062C169.664 6.64062 168.926 5.83203 168.926 4.45703C168.926 3.21094 169.594 2.26172 170.75 2.26172C171.387 2.26172 171.805 2.51953 172.188 3.01953L171.762 3.41797C171.512 3.07422 171.219 2.83594 170.75 2.83594C170.004 2.83594 169.598 3.46094 169.598 4.45703C169.598 5.45312 170.008 6.07031 170.785 6.07031C171.234 6.07031 171.512 5.84375 171.762 5.5L172.188 5.89844ZM176.039 5.89844C175.656 6.39453 175.227 6.64062 174.59 6.64062C173.516 6.64062 172.777 5.83203 172.777 4.45703C172.777 3.21094 173.445 2.26172 174.602 2.26172C175.238 2.26172 175.656 2.51953 176.039 3.01953L175.613 3.41797C175.363 3.07422 175.07 2.83594 174.602 2.83594C173.855 2.83594 173.449 3.46094 173.449 4.45703C173.449 5.45312 173.859 6.07031 174.637 6.07031C175.086 6.07031 175.363 5.84375 175.613 5.5L176.039 5.89844ZM177.66 1.42969H176.902V0.652344H177.66V1.42969ZM176.945 6.52734V2.37891H177.617V6.52734H176.945ZM180.863 0H181.625L180.492 1.42969H179.871L180.863 0ZM180.414 6.64062C179.328 6.64062 178.613 5.75781 178.613 4.45703C178.613 3.15234 179.328 2.26172 180.414 2.26172C181.496 2.26172 182.211 3.15234 182.211 4.45703C182.211 5.75781 181.496 6.64062 180.414 6.64062ZM180.414 6.07031C181.156 6.07031 181.539 5.46484 181.539 4.45703C181.539 3.45312 181.156 2.83594 180.414 2.83594C179.668 2.83594 179.285 3.45312 179.285 4.45703C179.285 5.46484 179.668 6.07031 180.414 6.07031ZM183.211 6.52734V2.37891H183.789L183.836 2.98047C184.18 2.60938 184.621 2.26172 185.223 2.26172C185.988 2.26172 186.52 2.59375 186.52 3.98047V6.52734H185.848V3.98047C185.848 3.10547 185.57 2.86328 185.102 2.86328C184.59 2.86328 184.191 3.24219 183.883 3.55859V6.52734H183.211ZM188.559 5.5625L187.656 8.05859H187.023L187.762 5.5625H188.559ZM194.18 5.89844C193.797 6.39453 193.367 6.64062 192.73 6.64062C191.656 6.64062 190.918 5.83203 190.918 4.45703C190.918 3.21094 191.586 2.26172 192.742 2.26172C193.379 2.26172 193.797 2.51953 194.18 3.01953L193.754 3.41797C193.504 3.07422 193.211 2.83594 192.742 2.83594C191.996 2.83594 191.59 3.46094 191.59 4.45703C191.59 5.45312 192 6.07031 192.777 6.07031C193.227 6.07031 193.504 5.84375 193.754 5.5L194.18 5.89844ZM196.57 6.64062C195.484 6.64062 194.77 5.75781 194.77 4.45703C194.77 3.15234 195.484 2.26172 196.57 2.26172C197.652 2.26172 198.367 3.15234 198.367 4.45703C198.367 5.75781 197.652 6.64062 196.57 6.64062ZM196.57 6.07031C197.312 6.07031 197.695 5.46484 197.695 4.45703C197.695 3.45312 197.312 2.83594 196.57 2.83594C195.824 2.83594 195.441 3.45312 195.441 4.45703C195.441 5.46484 195.824 6.07031 196.57 6.07031ZM199.367 6.52734V2.37891H199.945L199.992 2.98047C200.336 2.60938 200.777 2.26172 201.379 2.26172C202.145 2.26172 202.676 2.59375 202.676 3.98047V6.52734H202.004V3.98047C202.004 3.10547 201.727 2.86328 201.258 2.86328C200.746 2.86328 200.348 3.24219 200.039 3.55859V6.52734H199.367ZM205.266 2.26172C205.73 2.26172 206.242 2.44141 206.551 3.03125V0.546875H207.215V6.52734H206.613L206.559 5.90234C206.25 6.47266 205.723 6.64062 205.281 6.64062C204.422 6.64062 203.641 5.93359 203.641 4.44531C203.641 2.95703 204.402 2.26172 205.266 2.26172ZM205.434 2.83594C204.727 2.83594 204.312 3.42188 204.312 4.44531C204.312 5.46484 204.727 6.07031 205.434 6.07031C206.148 6.07031 206.57 5.46875 206.57 4.44531C206.57 3.42188 206.148 2.83594 205.434 2.83594ZM209.199 1.42969H208.441V0.652344H209.199V1.42969ZM208.484 6.52734V2.37891H209.156V6.52734H208.484ZM213.414 5.89844C213.031 6.39453 212.602 6.64062 211.965 6.64062C210.891 6.64062 210.152 5.83203 210.152 4.45703C210.152 3.21094 210.82 2.26172 211.977 2.26172C212.613 2.26172 213.031 2.51953 213.414 3.01953L212.988 3.41797C212.738 3.07422 212.445 2.83594 211.977 2.83594C211.23 2.83594 210.824 3.46094 210.824 4.45703C210.824 5.45312 211.234 6.07031 212.012 6.07031C212.461 6.07031 212.738 5.84375 212.988 5.5L213.414 5.89844ZM215.035 1.42969H214.277V0.652344H215.035V1.42969ZM214.32 6.52734V2.37891H214.992V6.52734H214.32ZM217.789 6.64062C216.703 6.64062 215.988 5.75781 215.988 4.45703C215.988 3.15234 216.703 2.26172 217.789 2.26172C218.871 2.26172 219.586 3.15234 219.586 4.45703C219.586 5.75781 218.871 6.64062 217.789 6.64062ZM217.789 6.07031C218.531 6.07031 218.914 5.46484 218.914 4.45703C218.914 3.45312 218.531 2.83594 217.789 2.83594C217.043 2.83594 216.66 3.45312 216.66 4.45703C216.66 5.46484 217.043 6.07031 217.789 6.07031ZM220.586 6.52734V2.37891H221.164L221.211 2.98047C221.555 2.60938 221.996 2.26172 222.598 2.26172C223.363 2.26172 223.895 2.59375 223.895 3.98047V6.52734H223.223V3.98047C223.223 3.10547 222.945 2.86328 222.477 2.86328C221.965 2.86328 221.566 3.24219 221.258 3.55859V6.52734H220.586ZM228.277 5.91016C227.93 6.32812 227.422 6.64062 226.742 6.64062C225.395 6.64062 224.848 5.625 224.848 4.43359C224.848 3.28906 225.391 2.26172 226.633 2.26172C227.879 2.26172 228.387 3.28516 228.387 4.52734V4.67969H225.543C225.574 5.63672 226.07 6.07031 226.762 6.07031C227.219 6.07031 227.559 5.85547 227.863 5.5L228.277 5.91016ZM226.633 2.83594C225.875 2.83594 225.574 3.45312 225.551 4.14062H227.695C227.676 3.45312 227.383 2.83594 226.633 2.83594ZM230.574 2.26172C231.156 2.26172 231.656 2.46484 232.07 2.97656L231.625 3.35938C231.336 2.98828 230.988 2.83594 230.605 2.83594C230.047 2.83594 229.809 3.07422 229.809 3.42188C229.809 3.80859 230.035 4 230.887 4.15625C231.895 4.34766 232.285 4.73828 232.285 5.40625C232.285 6.17969 231.723 6.64062 230.715 6.64062C229.98 6.64062 229.395 6.32422 229.023 5.89453L229.453 5.47266C229.773 5.84766 230.184 6.07031 230.715 6.07031C231.324 6.07031 231.613 5.80859 231.613 5.41797C231.613 5.06641 231.34 4.83203 230.605 4.69141C229.461 4.47266 229.137 4.07422 229.137 3.44141C229.137 2.80078 229.617 2.26172 230.574 2.26172ZM1.88281 13.2617C2.34766 13.2617 2.85938 13.4414 3.16797 14.0312V11.5469H3.83203V17.5273H3.23047L3.17578 16.9023C2.86719 17.4727 2.33984 17.6406 1.89844 17.6406C1.03906 17.6406 0.257812 16.9336 0.257812 15.4453C0.257812 13.957 1.01953 13.2617 1.88281 13.2617ZM2.05078 13.8359C1.34375 13.8359 0.929688 14.4219 0.929688 15.4453C0.929688 16.4648 1.34375 17.0703 2.05078 17.0703C2.76562 17.0703 3.1875 16.4688 3.1875 15.4453C3.1875 14.4219 2.76562 13.8359 2.05078 13.8359ZM8.26172 16.9102C7.91406 17.3281 7.40625 17.6406 6.72656 17.6406C5.37891 17.6406 4.83203 16.625 4.83203 15.4336C4.83203 14.2891 5.375 13.2617 6.61719 13.2617C7.86328 13.2617 8.37109 14.2852 8.37109 15.5273V15.6797H5.52734C5.55859 16.6367 6.05469 17.0703 6.74609 17.0703C7.20312 17.0703 7.54297 16.8555 7.84766 16.5L8.26172 16.9102ZM6.61719 13.8359C5.85938 13.8359 5.55859 14.4531 5.53516 15.1406H7.67969C7.66016 14.4531 7.36719 13.8359 6.61719 13.8359ZM9.34375 17.5273V11.5938H10.0156V17.5273H9.34375ZM12.9883 12.2188H13.6602V13.3789H15.1953V13.9336H13.6602V16.1484C13.6602 16.7656 13.8594 17.0391 14.3398 17.0391C14.6523 17.0391 15.0117 16.9219 15.2734 16.793L15.4375 17.3398C14.9492 17.5586 14.5625 17.6406 14.2539 17.6406C13.2734 17.6406 12.9883 16.9883 12.9883 16.2031V12.2188ZM19.2461 16.9102C18.8984 17.3281 18.3906 17.6406 17.7109 17.6406C16.3633 17.6406 15.8164 16.625 15.8164 15.4336C15.8164 14.2891 16.3594 13.2617 17.6016 13.2617C18.8477 13.2617 19.3555 14.2852 19.3555 15.5273V15.6797H16.5117C16.543 16.6367 17.0391 17.0703 17.7305 17.0703C18.1875 17.0703 18.5273 16.8555 18.832 16.5L19.2461 16.9102ZM17.6016 13.8359C16.8438 13.8359 16.543 14.4531 16.5195 15.1406H18.6641C18.6445 14.4531 18.3516 13.8359 17.6016 13.8359ZM20.3281 13.3789H20.8984L20.9492 13.9375C21.3242 13.4727 21.6641 13.2617 22.0352 13.2617C22.25 13.2617 22.4648 13.3164 22.6523 13.4023L22.4531 13.9805C22.3359 13.9297 22.1406 13.8555 21.9648 13.8555C21.625 13.8555 21.3125 14.0977 21 14.5898V17.5273H20.3281V13.3789ZM23.3828 13.3789H23.9531L24.0039 13.9375C24.3789 13.4727 24.7188 13.2617 25.0898 13.2617C25.3047 13.2617 25.5195 13.3164 25.707 13.4023L25.5078 13.9805C25.3906 13.9297 25.1953 13.8555 25.0195 13.8555C24.6797 13.8555 24.3672 14.0977 24.0547 14.5898V17.5273H23.3828V13.3789ZM26.4375 13.3789H27.0078L27.0586 13.9375C27.4336 13.4727 27.7734 13.2617 28.1445 13.2617C28.3594 13.2617 28.5742 13.3164 28.7617 13.4023L28.5625 13.9805C28.4453 13.9297 28.25 13.8555 28.0742 13.8555C27.7344 13.8555 27.4219 14.0977 27.1094 14.5898V17.5273H26.4375V13.3789ZM32.5039 16.9102C32.1562 17.3281 31.6484 17.6406 30.9688 17.6406C29.6211 17.6406 29.0742 16.625 29.0742 15.4336C29.0742 14.2891 29.6172 13.2617 30.8594 13.2617C32.1055 13.2617 32.6133 14.2852 32.6133 15.5273V15.6797H29.7695C29.8008 16.6367 30.2969 17.0703 30.9883 17.0703C31.4453 17.0703 31.7852 16.8555 32.0898 16.5L32.5039 16.9102ZM30.8594 13.8359C30.1016 13.8359 29.8008 14.4531 29.7773 15.1406H31.9219C31.9023 14.4531 31.6094 13.8359 30.8594 13.8359ZM33.5859 17.5273V13.3789H34.1641L34.2109 13.9805C34.5547 13.6094 34.9961 13.2617 35.5977 13.2617C36.3633 13.2617 36.8945 13.5938 36.8945 14.9805V17.5273H36.2227V14.9805C36.2227 14.1055 35.9453 13.8633 35.4766 13.8633C34.9648 13.8633 34.5664 14.2422 34.2578 14.5586V17.5273H33.5859ZM39.6484 17.6406C38.5625 17.6406 37.8477 16.7578 37.8477 15.457C37.8477 14.1523 38.5625 13.2617 39.6484 13.2617C40.7305 13.2617 41.4453 14.1523 41.4453 15.457C41.4453 16.7578 40.7305 17.6406 39.6484 17.6406ZM39.6484 17.0703C40.3906 17.0703 40.7734 16.4648 40.7734 15.457C40.7734 14.4531 40.3906 13.8359 39.6484 13.8359C38.9023 13.8359 38.5195 14.4531 38.5195 15.457C38.5195 16.4648 38.9023 17.0703 39.6484 17.0703ZM47.3789 13.3789L44.9922 19.2188H44.2734L45.0703 17.2539L43.4961 13.3789H44.2188L45.4453 16.5195L46.6836 13.3789H47.3789ZM52.6719 16.8984C52.2891 17.3945 51.8594 17.6406 51.2227 17.6406C50.1484 17.6406 49.4102 16.832 49.4102 15.457C49.4102 14.2109 50.0781 13.2617 51.2344 13.2617C51.8711 13.2617 52.2891 13.5195 52.6719 14.0195L52.2461 14.418C51.9961 14.0742 51.7031 13.8359 51.2344 13.8359C50.4883 13.8359 50.082 14.4609 50.082 15.457C50.082 16.4531 50.4922 17.0703 51.2695 17.0703C51.7188 17.0703 51.9961 16.8438 52.2461 16.5L52.6719 16.8984ZM55.0625 17.6406C53.9766 17.6406 53.2617 16.7578 53.2617 15.457C53.2617 14.1523 53.9766 13.2617 55.0625 13.2617C56.1445 13.2617 56.8594 14.1523 56.8594 15.457C56.8594 16.7578 56.1445 17.6406 55.0625 17.6406ZM55.0625 17.0703C55.8047 17.0703 56.1875 16.4648 56.1875 15.457C56.1875 14.4531 55.8047 13.8359 55.0625 13.8359C54.3164 13.8359 53.9336 14.4531 53.9336 15.457C53.9336 16.4648 54.3164 17.0703 55.0625 17.0703ZM57.8594 17.5273V13.3789H58.4375L58.4844 13.9805C58.8281 13.6094 59.2695 13.2617 59.8711 13.2617C60.6367 13.2617 61.168 13.5938 61.168 14.9805V17.5273H60.4961V14.9805C60.4961 14.1055 60.2188 13.8633 59.75 13.8633C59.2383 13.8633 58.8398 14.2422 58.5312 14.5586V17.5273H57.8594ZM63.7578 13.2617C64.2227 13.2617 64.7344 13.4414 65.043 14.0312V11.5469H65.707V17.5273H65.1055L65.0508 16.9023C64.7422 17.4727 64.2148 17.6406 63.7734 17.6406C62.9141 17.6406 62.1328 16.9336 62.1328 15.4453C62.1328 13.957 62.8945 13.2617 63.7578 13.2617ZM63.9258 13.8359C63.2188 13.8359 62.8047 14.4219 62.8047 15.4453C62.8047 16.4648 63.2188 17.0703 63.9258 17.0703C64.6406 17.0703 65.0625 16.4688 65.0625 15.4453C65.0625 14.4219 64.6406 13.8359 63.9258 13.8359ZM67.6914 12.4297H66.9336V11.6523H67.6914V12.4297ZM66.9766 17.5273V13.3789H67.6484V17.5273H66.9766ZM71.9062 16.8984C71.5234 17.3945 71.0938 17.6406 70.457 17.6406C69.3828 17.6406 68.6445 16.832 68.6445 15.457C68.6445 14.2109 69.3125 13.2617 70.4688 13.2617C71.1055 13.2617 71.5234 13.5195 71.9062 14.0195L71.4805 14.418C71.2305 14.0742 70.9375 13.8359 70.4688 13.8359C69.7227 13.8359 69.3164 14.4609 69.3164 15.457C69.3164 16.4531 69.7266 17.0703 70.5039 17.0703C70.9531 17.0703 71.2305 16.8438 71.4805 16.5L71.9062 16.8984ZM73.5273 12.4297H72.7695V11.6523H73.5273V12.4297ZM72.8125 17.5273V13.3789H73.4844V17.5273H72.8125ZM76.2812 17.6406C75.1953 17.6406 74.4805 16.7578 74.4805 15.457C74.4805 14.1523 75.1953 13.2617 76.2812 13.2617C77.3633 13.2617 78.0781 14.1523 78.0781 15.457C78.0781 16.7578 77.3633 17.6406 76.2812 17.6406ZM76.2812 17.0703C77.0234 17.0703 77.4062 16.4648 77.4062 15.457C77.4062 14.4531 77.0234 13.8359 76.2812 13.8359C75.5352 13.8359 75.1523 14.4531 75.1523 15.457C75.1523 16.4648 75.5352 17.0703 76.2812 17.0703ZM79.0781 17.5273V13.3789H79.6562L79.7031 13.9805C80.0469 13.6094 80.4883 13.2617 81.0898 13.2617C81.8555 13.2617 82.3867 13.5938 82.3867 14.9805V17.5273H81.7148V14.9805C81.7148 14.1055 81.4375 13.8633 80.9688 13.8633C80.457 13.8633 80.0586 14.2422 79.75 14.5586V17.5273H79.0781ZM86.7695 16.9102C86.4219 17.3281 85.9141 17.6406 85.2344 17.6406C83.8867 17.6406 83.3398 16.625 83.3398 15.4336C83.3398 14.2891 83.8828 13.2617 85.125 13.2617C86.3711 13.2617 86.8789 14.2852 86.8789 15.5273V15.6797H84.0352C84.0664 16.6367 84.5625 17.0703 85.2539 17.0703C85.7109 17.0703 86.0508 16.8555 86.3555 16.5L86.7695 16.9102ZM85.125 13.8359C84.3672 13.8359 84.0664 14.4531 84.043 15.1406H86.1875C86.168 14.4531 85.875 13.8359 85.125 13.8359ZM89.0664 13.2617C89.6484 13.2617 90.1484 13.4648 90.5625 13.9766L90.1172 14.3594C89.8281 13.9883 89.4805 13.8359 89.0977 13.8359C88.5391 13.8359 88.3008 14.0742 88.3008 14.4219C88.3008 14.8086 88.5273 15 89.3789 15.1562C90.3867 15.3477 90.7773 15.7383 90.7773 16.4062C90.7773 17.1797 90.2148 17.6406 89.207 17.6406C88.4727 17.6406 87.8867 17.3242 87.5156 16.8945L87.9453 16.4727C88.2656 16.8477 88.6758 17.0703 89.207 17.0703C89.8164 17.0703 90.1055 16.8086 90.1055 16.418C90.1055 16.0664 89.832 15.832 89.0977 15.6914C87.9531 15.4727 87.6289 15.0742 87.6289 14.4414C87.6289 13.8008 88.1094 13.2617 89.0664 13.2617ZM94.8047 13.2617C95.2695 13.2617 95.7812 13.4414 96.0898 14.0312V11.5469H96.7539V17.5273H96.1523L96.0977 16.9023C95.7891 17.4727 95.2617 17.6406 94.8203 17.6406C93.9609 17.6406 93.1797 16.9336 93.1797 15.4453C93.1797 13.957 93.9414 13.2617 94.8047 13.2617ZM94.9727 13.8359C94.2656 13.8359 93.8516 14.4219 93.8516 15.4453C93.8516 16.4648 94.2656 17.0703 94.9727 17.0703C95.6875 17.0703 96.1094 16.4688 96.1094 15.4453C96.1094 14.4219 95.6875 13.8359 94.9727 13.8359ZM101.184 16.9102C100.836 17.3281 100.328 17.6406 99.6484 17.6406C98.3008 17.6406 97.7539 16.625 97.7539 15.4336C97.7539 14.2891 98.2969 13.2617 99.5391 13.2617C100.785 13.2617 101.293 14.2852 101.293 15.5273V15.6797H98.4492C98.4805 16.6367 98.9766 17.0703 99.668 17.0703C100.125 17.0703 100.465 16.8555 100.77 16.5L101.184 16.9102ZM99.5391 13.8359C98.7812 13.8359 98.4805 14.4531 98.457 15.1406H100.602C100.582 14.4531 100.289 13.8359 99.5391 13.8359ZM102.266 17.5273V11.5938H102.938V17.5273H102.266ZM108.945 16.8984C108.562 17.3945 108.133 17.6406 107.496 17.6406C106.422 17.6406 105.684 16.832 105.684 15.457C105.684 14.2109 106.352 13.2617 107.508 13.2617C108.145 13.2617 108.562 13.5195 108.945 14.0195L108.52 14.418C108.27 14.0742 107.977 13.8359 107.508 13.8359C106.762 13.8359 106.355 14.4609 106.355 15.457C106.355 16.4531 106.766 17.0703 107.543 17.0703C107.992 17.0703 108.27 16.8438 108.52 16.5L108.945 16.8984ZM109.852 17.5273V11.5938H110.523V17.5273H109.852ZM112.504 12.4297H111.746V11.6523H112.504V12.4297ZM111.789 17.5273V13.3789H112.461V17.5273H111.789ZM113.727 17.5273V13.3789H114.328L114.367 13.9023C114.66 13.5156 115.074 13.2617 115.543 13.2617C115.988 13.2617 116.312 13.4453 116.512 13.8906C116.844 13.4883 117.293 13.2617 117.746 13.2617C118.562 13.2617 118.945 13.8203 118.945 14.5898V17.5273H118.273V14.7227C118.273 14.0977 118.031 13.8633 117.633 13.8633C117.254 13.8633 116.836 14.1914 116.664 14.4883C116.672 14.6719 116.672 14.6172 116.672 14.7461V17.5273H116V14.7227C116 14.0977 115.758 13.8633 115.359 13.8633C115.016 13.8633 114.672 14.1172 114.398 14.4961V17.5273H113.727ZM121.199 17.6484C120.453 17.6484 119.84 17.3008 119.84 16.3359C119.84 15.3008 120.723 14.9922 121.41 14.9922H122.434V14.6953C122.434 14.082 122.082 13.8164 121.418 13.8164C121.004 13.8164 120.652 13.9258 120.324 14.0586L120.156 13.5156C120.586 13.3633 121.02 13.2617 121.418 13.2617C122.395 13.2617 123.105 13.6758 123.105 14.7773V17.5273H122.539L122.488 17.0273C122.254 17.3203 121.73 17.6484 121.199 17.6484ZM121.293 17.0742C121.738 17.0742 122.164 16.7656 122.434 16.4727V15.5273H121.551C120.879 15.5273 120.512 15.8242 120.512 16.3359C120.512 16.8477 120.812 17.0742 121.293 17.0742ZM125.012 17.5273H124.207V16.7109H125.012V17.5273Z" fill="white"/>
</svg>
