<svg width="375" height="197" viewBox="0 0 375 197" fill="none" xmlns="http://www.w3.org/2000/svg">
<rect width="375" height="197" fill="url(#paint0_linear_304_44711)"/>
<path d="M32.4023 10.5547H33.6094V14.1172H32.2617C32.1797 13.707 32.0273 13.332 31.7812 13.0039C31.3828 12.4531 30.6211 11.8789 29.2969 11.8789C27.1875 11.8789 26.9883 13.0977 26.9883 13.6602C26.9883 15.3125 28.2305 15.5703 30.1523 15.875C32.168 16.2266 34.2773 16.8477 34.2773 19.5547C34.2773 22.25 32.5078 23.3398 30.2578 23.3398C28.043 23.3398 26.8828 22.0977 26.4727 21.5L26.332 23H25.1484V19.2383H26.4844C26.6133 19.6953 26.8242 20.1172 27.1289 20.4805C27.6328 21.1133 28.5352 21.7109 30.0469 21.7109C31.5586 21.7109 32.4375 21.0781 32.4375 19.7539C32.4375 18.3008 31.3125 18.0195 29.5312 17.6797C27.5039 17.3047 25.2188 16.7656 25.2188 13.7773C25.2188 12.5938 25.6875 10.2383 29.0859 10.2383C31.043 10.2383 32.0156 11.1523 32.2734 11.7852L32.4023 10.5547ZM36.1702 23V21.3945H37.7639V12.1602H36.1702V10.5547H39.4631L39.5569 11.6445C40.2483 10.9766 41.6545 10.2383 43.0725 10.2383C44.2795 10.2383 44.8772 10.8828 45.2522 11.5039C45.7209 11.1289 47.1506 10.2383 48.8967 10.2383C51.135 10.2383 51.9319 12.1016 51.9319 13.8594V21.3945H53.3967V23H50.092V14.4102C50.092 13.2266 49.9631 11.9023 48.51 11.9023C47.3616 11.9023 45.9319 12.7812 45.7092 12.9102C45.8381 13.4609 45.8381 13.7773 45.8381 14.2344V21.3945H47.5256V23H43.9983V14.2344C43.9983 13.0859 43.7873 11.9023 42.4163 11.9023C41.76 11.9023 41.0686 12.207 40.5178 12.5C40.2014 12.6758 39.8967 12.8633 39.6038 13.0859V21.3945H41.303V23H36.1702ZM65.8833 21.3945V23H62.6958L62.5669 21.418C61.7466 22.3672 60.4458 23.3398 58.7466 23.3398C56.8716 23.3398 55.0669 22.2734 55.0669 19.4023C55.0669 16.625 56.9888 15.3945 59.895 15.3945H62.438V14.457C62.438 12.6758 61.313 11.8438 59.5083 11.8438C58.5708 11.8438 57.8091 12.0078 57.2583 12.1602C56.9419 12.2539 56.6489 12.3594 56.3794 12.4766L55.9341 10.9297C56.2739 10.8008 56.6489 10.6953 57.0356 10.5898C57.7036 10.4141 58.6177 10.2383 59.602 10.2383C62.3091 10.2383 64.2778 11.5625 64.2778 14.7734V21.3945H65.8833ZM59.0864 21.7109C60.3989 21.7109 61.6528 20.7148 62.438 19.8125V17H59.895C58.3364 17 56.9067 17.457 56.9067 19.4023C56.9067 21.2188 58.0903 21.7109 59.0864 21.7109ZM67.4948 12.1602V10.5547H70.6941L70.823 12.3008C71.8777 11.0938 72.9206 10.2383 74.3855 10.2383C74.8425 10.2383 75.2292 10.3555 75.5222 10.4609C75.698 10.5195 75.8503 10.5898 75.9909 10.6719L75.405 12.3242C75.2644 12.2656 75.1237 12.207 74.9831 12.1602C74.737 12.0781 74.4089 11.9961 74.1159 11.9961C72.4284 11.9961 71.4909 13.5547 70.9284 14.1758V21.3945H74.2448V23H67.4948V21.3945H69.0886V12.1602H67.4948ZM77.6142 19.0273V6.83984H79.4541V10.5547H83.6142V12.1602H79.4541V18.8281C79.4541 20.5273 79.8408 21.5586 81.2002 21.5586C81.8447 21.5586 82.4306 21.4062 82.8877 21.2305C83.1455 21.1367 83.3916 21.0195 83.6142 20.8906L84.0478 22.4375C83.7314 22.6133 83.3916 22.7656 83.0517 22.8945C82.4541 23.1172 81.6806 23.3398 80.9306 23.3398C78.083 23.3398 77.6142 21.2422 77.6142 19.0273ZM90.7983 11.9609V10.3555H93.8452L94.4077 4.95312H95.9897L95.4155 10.3555H98.5092L99.0717 4.95312H100.665L100.091 10.3555H102.576V11.9609H99.9155L99.4702 16.1328H102.576V17.7383H99.2827L98.6967 23.3398H97.103L97.7006 17.7383H94.6069L94.0209 23.3398H92.4272L93.0366 17.7383H90.7983V16.1328H93.2241L93.6694 11.9609H90.7983ZM95.2397 11.9609L94.7944 16.1328H97.8881L98.3334 11.9609H95.2397ZM105.218 10.1562L104.715 8.57422L109.121 6.83984H110.328V21.3945H113.433V23H105.382V21.3945H108.465V8.91406L105.218 10.1562Z" fill="white"/>
<path d="M28.2422 39.125C29.7969 39.125 30.9844 39.9062 31.6094 41.3906L30.3906 41.9375C30.0938 40.9922 29.3594 40.3047 28.2422 40.3047C27.0312 40.3047 26.2891 40.8047 26.2891 41.9375C26.2891 42.8047 26.8438 43.4609 28.4297 43.9922C30.5781 44.7109 31.8203 45.3594 31.8203 47.2422C31.8203 49.1172 30.5625 50.2266 28.2891 50.2266C26.6719 50.2266 25.5 49.5938 24.6875 48.4531L25.7812 47.6406C26.1094 48.2578 26.9766 49.0547 28.2891 49.0547C29.7812 49.0547 30.4062 48.3359 30.4062 47.3125C30.4062 46.1953 29.625 45.8281 28.0312 45.2734C26.1406 44.6328 24.875 43.8516 24.875 41.9453C24.875 40.4375 25.8125 39.125 28.2422 39.125ZM41.2422 39.3828V46.375C41.2422 48.7734 40.0781 50.2266 37.5469 50.2266C35.0234 50.2266 33.8516 48.7734 33.8516 46.375V39.3828H35.2109V46.375C35.2109 48.1797 35.9844 49.0234 37.5469 49.0234C39.1172 49.0234 39.8828 48.1797 39.8828 46.375V39.3828H41.2422ZM51.1094 39.3828L47.8672 50H46.1484L42.9141 39.3828H44.25L47.0156 48.7656L49.7734 39.3828H51.1094ZM55.8281 40.5547L59.0078 39.3828H59.8906V48.8906H62.0312V50H56.4062V48.8906H58.5469V40.8125L56.2031 41.6406L55.8281 40.5547ZM67.1406 50.2266C64.7578 50.2266 63.6641 48.3359 63.6641 44.8125C63.6641 41.2969 64.7578 39.0547 67.1406 39.0547C69.5156 39.0547 70.6172 41.2969 70.6172 44.8125C70.6172 48.3359 69.5156 50.2266 67.1406 50.2266ZM67.1406 49.0859C68.4844 49.0859 69.2969 47.9844 69.2969 44.8125C69.2969 41.6484 68.4844 40.1953 67.1406 40.1953C65.7969 40.1953 64.9766 41.6484 64.9766 44.8125C64.9766 47.9844 65.7969 49.0859 67.1406 49.0859ZM75.4531 50.2266C73.0703 50.2266 71.9766 48.3359 71.9766 44.8125C71.9766 41.2969 73.0703 39.0547 75.4531 39.0547C77.8281 39.0547 78.9297 41.2969 78.9297 44.8125C78.9297 48.3359 77.8281 50.2266 75.4531 50.2266ZM75.4531 49.0859C76.7969 49.0859 77.6094 47.9844 77.6094 44.8125C77.6094 41.6484 76.7969 40.1953 75.4531 40.1953C74.1094 40.1953 73.2891 41.6484 73.2891 44.8125C73.2891 47.9844 74.1094 49.0859 75.4531 49.0859ZM82.2109 43.9219C80.8203 43.9219 80.0781 42.6953 80.0781 41.4609C80.0781 40.2266 80.8359 38.9922 82.2109 38.9922C83.6016 38.9922 84.3438 40.2266 84.3438 41.4609C84.3438 42.6953 83.6016 43.9219 82.2109 43.9219ZM87.1953 39.2969H88.2422L82.5156 50H81.4688L87.1953 39.2969ZM82.2109 42.9531C82.9453 42.9531 83.3203 42.3125 83.3203 41.4609C83.3203 40.6094 82.9453 39.9688 82.2109 39.9688C81.4844 39.9688 81.1016 40.6094 81.1016 41.4609C81.1016 42.3125 81.4844 42.9531 82.2109 42.9531ZM87.6016 50.2266C86.2109 50.2266 85.4688 49 85.4688 47.7656C85.4688 46.5312 86.2266 45.2969 87.6016 45.2969C88.9922 45.2969 89.7344 46.5312 89.7344 47.7656C89.7344 49 88.9922 50.2266 87.6016 50.2266ZM87.6016 49.25C88.3359 49.25 88.7109 48.6172 88.7109 47.7656C88.7109 46.9062 88.3359 46.2734 87.6016 46.2734C86.875 46.2734 86.4922 46.9062 86.4922 47.7656C86.4922 48.6172 86.875 49.25 87.6016 49.25ZM101.289 48.7656C100.594 49.6016 99.5781 50.2266 98.2188 50.2266C95.5234 50.2266 94.4297 48.1953 94.4297 45.8125C94.4297 43.5234 95.5156 41.4688 98 41.4688C100.492 41.4688 101.508 43.5156 101.508 46V46.3047H95.8203C95.8828 48.2188 96.875 49.0859 98.2578 49.0859C99.1719 49.0859 99.8516 48.6562 100.461 47.9453L101.289 48.7656ZM98 42.6172C96.4844 42.6172 95.8828 43.8516 95.8359 45.2266H100.125C100.086 43.8516 99.5 42.6172 98 42.6172ZM103.453 50V38.1328H104.797V50H103.453ZM111.281 36.9453H112.805L110.539 39.8047H109.297L111.281 36.9453ZM113.648 48.7656C112.953 49.6016 111.938 50.2266 110.578 50.2266C107.883 50.2266 106.789 48.1953 106.789 45.8125C106.789 43.5234 107.875 41.4688 110.359 41.4688C112.852 41.4688 113.867 43.5156 113.867 46V46.3047H108.18C108.242 48.2188 109.234 49.0859 110.617 49.0859C111.531 49.0859 112.211 48.6562 112.82 47.9453L113.648 48.7656ZM110.359 42.6172C108.844 42.6172 108.242 43.8516 108.195 45.2266H112.484C112.445 43.8516 111.859 42.6172 110.359 42.6172ZM121.797 48.7422C121.031 49.7344 120.172 50.2266 118.898 50.2266C116.75 50.2266 115.273 48.6094 115.273 45.8594C115.273 43.3672 116.609 41.4688 118.922 41.4688C120.195 41.4688 121.031 41.9844 121.797 42.9844L120.945 43.7812C120.445 43.0938 119.859 42.6172 118.922 42.6172C117.43 42.6172 116.617 43.8672 116.617 45.8594C116.617 47.8516 117.438 49.0859 118.992 49.0859C119.891 49.0859 120.445 48.6328 120.945 47.9453L121.797 48.7422ZM123.523 39.3828H124.867V41.7031H127.938V42.8125H124.867V47.2422C124.867 48.4766 125.266 49.0234 126.227 49.0234C126.852 49.0234 127.57 48.7891 128.094 48.5312L128.422 49.625C127.445 50.0625 126.672 50.2266 126.055 50.2266C124.094 50.2266 123.523 48.9219 123.523 47.3516V39.3828ZM129.859 41.7031H131L131.102 42.8203C131.852 41.8906 132.531 41.4688 133.273 41.4688C133.703 41.4688 134.133 41.5781 134.508 41.75L134.109 42.9062C133.875 42.8047 133.484 42.6562 133.133 42.6562C132.453 42.6562 131.828 43.1406 131.203 44.125V50H129.859V41.7031ZM137.398 39.8047H135.883V38.25H137.398V39.8047ZM135.969 50V41.7031H137.312V50H135.969ZM145.828 48.7422C145.062 49.7344 144.203 50.2266 142.93 50.2266C140.781 50.2266 139.305 48.6094 139.305 45.8594C139.305 43.3672 140.641 41.4688 142.953 41.4688C144.227 41.4688 145.062 41.9844 145.828 42.9844L144.977 43.7812C144.477 43.0938 143.891 42.6172 142.953 42.6172C141.461 42.6172 140.648 43.8672 140.648 45.8594C140.648 47.8516 141.469 49.0859 143.023 49.0859C143.922 49.0859 144.477 48.6328 144.977 47.9453L145.828 48.7422ZM150.609 50.2266C148.438 50.2266 147.008 48.4609 147.008 45.8594C147.008 43.25 148.438 41.4688 150.609 41.4688C152.773 41.4688 154.203 43.25 154.203 45.8594C154.203 48.4609 152.773 50.2266 150.609 50.2266ZM150.609 49.0859C152.094 49.0859 152.859 47.875 152.859 45.8594C152.859 43.8516 152.094 42.6172 150.609 42.6172C149.117 42.6172 148.352 43.8516 148.352 45.8594C148.352 47.875 149.117 49.0859 150.609 49.0859ZM157.367 50H155.758V48.3672H157.367V50ZM31.3828 76V71.1641H26.7422V76H25.3828V65.3828H26.7422V69.9844H31.3828V65.3828H32.75V76H31.3828ZM37.4609 76.2422C35.9688 76.2422 34.7422 75.5469 34.7422 73.6172C34.7422 71.5469 36.5078 70.9297 37.8828 70.9297H39.9297V70.3359C39.9297 69.1094 39.2266 68.5781 37.8984 68.5781C37.0703 68.5781 36.3672 68.7969 35.7109 69.0625L35.375 67.9766C36.2344 67.6719 37.1016 67.4688 37.8984 67.4688C39.8516 67.4688 41.2734 68.2969 41.2734 70.5V76H40.1406L40.0391 75C39.5703 75.5859 38.5234 76.2422 37.4609 76.2422ZM37.6484 75.0938C38.5391 75.0938 39.3906 74.4766 39.9297 73.8906V72H38.1641C36.8203 72 36.0859 72.5938 36.0859 73.6172C36.0859 74.6406 36.6875 75.0938 37.6484 75.0938ZM46.1484 67.4688C47.3125 67.4688 48.3125 67.875 49.1406 68.8984L48.25 69.6641C47.6719 68.9219 46.9766 68.6172 46.2109 68.6172C45.0938 68.6172 44.6172 69.0938 44.6172 69.7891C44.6172 70.5625 45.0703 70.9453 46.7734 71.2578C48.7891 71.6406 49.5703 72.4219 49.5703 73.7578C49.5703 75.3047 48.4453 76.2266 46.4297 76.2266C44.9609 76.2266 43.7891 75.5938 43.0469 74.7344L43.9062 73.8906C44.5469 74.6406 45.3672 75.0859 46.4297 75.0859C47.6484 75.0859 48.2266 74.5625 48.2266 73.7812C48.2266 73.0781 47.6797 72.6094 46.2109 72.3281C43.9219 71.8906 43.2734 71.0938 43.2734 69.8281C43.2734 68.5469 44.2344 67.4688 46.1484 67.4688ZM51.3047 65.3828H52.6484V67.7031H55.7188V68.8125H52.6484V73.2422C52.6484 74.4766 53.0469 75.0234 54.0078 75.0234C54.6328 75.0234 55.3516 74.7891 55.875 74.5312L56.2031 75.625C55.2266 76.0625 54.4531 76.2266 53.8359 76.2266C51.875 76.2266 51.3047 74.9219 51.3047 73.3516V65.3828ZM59.6953 76.2422C58.2031 76.2422 56.9766 75.5469 56.9766 73.6172C56.9766 71.5469 58.7422 70.9297 60.1172 70.9297H62.1641V70.3359C62.1641 69.1094 61.4609 68.5781 60.1328 68.5781C59.3047 68.5781 58.6016 68.7969 57.9453 69.0625L57.6094 67.9766C58.4688 67.6719 59.3359 67.4688 60.1328 67.4688C62.0859 67.4688 63.5078 68.2969 63.5078 70.5V76H62.375L62.2734 75C61.8047 75.5859 60.7578 76.2422 59.6953 76.2422ZM59.8828 75.0938C60.7734 75.0938 61.625 74.4766 62.1641 73.8906V72H60.3984C59.0547 72 58.3203 72.5938 58.3203 73.6172C58.3203 74.6406 58.9219 75.0938 59.8828 75.0938ZM74.8906 66.4062H71.1641L70.6484 69.6172C71.0781 69.3594 71.6562 69.125 72.4062 69.125C74.1875 69.125 75.4688 70.3906 75.4688 72.5C75.4688 74.6016 74.3281 76.2266 72.0156 76.2266C70.8828 76.2266 69.9531 75.8594 69.1172 75.1719L69.875 74.2109C70.4375 74.7344 71.1562 75.0859 71.9922 75.0859C73.3828 75.0859 74.2031 74.0703 74.2031 72.5391C74.2031 71.3984 73.625 70.3125 71.9219 70.3125C71.25 70.3125 70.5312 70.6562 70.0469 71.0078L69.4062 70.4219L70.2344 65.2969H74.8906V66.4062ZM80.6406 65.0703C82.4219 65.0703 83.6484 66.0859 83.6484 67.9609C83.6484 69.1328 83.0547 70 82.1484 70.3672C83.2031 70.7422 84.0156 71.7422 84.0156 73.1094C84.0156 75.3125 82.2578 76.2266 80.6406 76.2266C79.0312 76.2266 77.2812 75.3125 77.2812 73.1094C77.2812 71.6719 78.1406 70.7656 79.1641 70.3672C78.2656 70.0078 77.6562 69.1328 77.6562 67.9609C77.6562 66.0859 78.8594 65.0703 80.6406 65.0703ZM80.6406 69.7734C81.6406 69.7734 82.4062 69.0703 82.4062 67.9609C82.4062 66.8516 81.6406 66.1406 80.6406 66.1406C79.6406 66.1406 78.8906 66.8516 78.8906 67.9609C78.8906 69.0703 79.6484 69.7734 80.6406 69.7734ZM80.6406 71.0156C79.3828 71.0156 78.6094 71.8516 78.6094 73.0547C78.6094 74.2578 79.3828 75.0859 80.6406 75.0859C81.8906 75.0859 82.6953 74.2578 82.6953 73.0547C82.6953 71.8516 81.8906 71.0156 80.6406 71.0156ZM89.7031 76V73.6484H85.2891V72.6328L89.2578 65.3828H90.9062V72.6016H92.6016V73.6484H90.9062V76H89.7031ZM86.5859 72.6016H89.7031V66.7109L86.5859 72.6016ZM99.875 76L97.375 72.2578L95.7344 74.1953V76H94.3906V64.1328H95.7344V72.4609L99.5781 67.7031H101.164L98.1953 71.3125L101.359 76H99.875ZM102.75 76V67.7031H103.953L104.031 68.75C104.617 67.9766 105.445 67.4688 106.383 67.4688C107.273 67.4688 107.922 67.8359 108.32 68.7266C108.984 67.9219 109.883 67.4688 110.789 67.4688C112.422 67.4688 113.188 68.5859 113.188 70.125V76H111.844V70.3906C111.844 69.1406 111.359 68.6719 110.562 68.6719C109.805 68.6719 108.969 69.3281 108.625 69.9219C108.641 70.2891 108.641 70.1797 108.641 70.4375V76H107.297V70.3906C107.297 69.1406 106.812 68.6719 106.016 68.6719C105.328 68.6719 104.641 69.1797 104.094 69.9375V76H102.75ZM121.875 67.4688C122.805 67.4688 123.828 67.8281 124.445 69.0078V64.0391H125.773V76H124.57L124.461 74.75C123.844 75.8906 122.789 76.2266 121.906 76.2266C120.188 76.2266 118.625 74.8125 118.625 71.8359C118.625 68.8594 120.148 67.4688 121.875 67.4688ZM122.211 68.6172C120.797 68.6172 119.969 69.7891 119.969 71.8359C119.969 73.875 120.797 75.0859 122.211 75.0859C123.641 75.0859 124.484 73.8828 124.484 71.8359C124.484 69.7891 123.641 68.6172 122.211 68.6172ZM134.633 74.7656C133.938 75.6016 132.922 76.2266 131.562 76.2266C128.867 76.2266 127.773 74.1953 127.773 71.8125C127.773 69.5234 128.859 67.4688 131.344 67.4688C133.836 67.4688 134.852 69.5156 134.852 72V72.3047H129.164C129.227 74.2188 130.219 75.0859 131.602 75.0859C132.516 75.0859 133.195 74.6562 133.805 73.9453L134.633 74.7656ZM131.344 68.6172C129.828 68.6172 129.227 69.8516 129.18 71.2266H133.469C133.43 69.8516 132.844 68.6172 131.344 68.6172ZM142.352 76.2422C140.859 76.2422 139.633 75.5469 139.633 73.6172C139.633 71.5469 141.398 70.9297 142.773 70.9297H144.82V70.3359C144.82 69.1094 144.117 68.5781 142.789 68.5781C141.961 68.5781 141.258 68.7969 140.602 69.0625L140.266 67.9766C141.125 67.6719 141.992 67.4688 142.789 67.4688C144.742 67.4688 146.164 68.2969 146.164 70.5V76H145.031L144.93 75C144.461 75.5859 143.414 76.2422 142.352 76.2422ZM142.539 75.0938C143.43 75.0938 144.281 74.4766 144.82 73.8906V72H143.055C141.711 72 140.977 72.5938 140.977 73.6172C140.977 74.6406 141.578 75.0938 142.539 75.0938ZM155.141 67.7031V76H153.977L153.883 74.7969C153.195 75.5391 152.312 76.2344 151.109 76.2344C149.578 76.2344 148.516 75.5703 148.516 72.7969V67.7031H149.859V72.7969C149.859 74.5391 150.414 75.0312 151.352 75.0312C152.383 75.0312 153.172 74.2734 153.797 73.6406V67.7031H155.141ZM157.586 65.3828H158.93V67.7031H162V68.8125H158.93V73.2422C158.93 74.4766 159.328 75.0234 160.289 75.0234C160.914 75.0234 161.633 74.7891 162.156 74.5312L162.484 75.625C161.508 76.0625 160.734 76.2266 160.117 76.2266C158.156 76.2266 157.586 74.9219 157.586 73.3516V65.3828ZM166.844 76.2266C164.672 76.2266 163.242 74.4609 163.242 71.8594C163.242 69.25 164.672 67.4688 166.844 67.4688C169.008 67.4688 170.438 69.25 170.438 71.8594C170.438 74.4609 169.008 76.2266 166.844 76.2266ZM166.844 75.0859C168.328 75.0859 169.094 73.875 169.094 71.8594C169.094 69.8516 168.328 68.6172 166.844 68.6172C165.352 68.6172 164.586 69.8516 164.586 71.8594C164.586 73.875 165.352 75.0859 166.844 75.0859ZM172.438 76V67.7031H173.594L173.688 68.9062C174.375 68.1641 175.258 67.4688 176.461 67.4688C177.992 67.4688 179.055 68.1328 179.055 70.9062V76H177.711V70.9062C177.711 69.1562 177.156 68.6719 176.219 68.6719C175.195 68.6719 174.398 69.4297 173.781 70.0625V76H172.438ZM184.562 76.2266C182.391 76.2266 180.961 74.4609 180.961 71.8594C180.961 69.25 182.391 67.4688 184.562 67.4688C186.727 67.4688 188.156 69.25 188.156 71.8594C188.156 74.4609 186.727 76.2266 184.562 76.2266ZM184.562 75.0859C186.047 75.0859 186.812 73.875 186.812 71.8594C186.812 69.8516 186.047 68.6172 184.562 68.6172C183.07 68.6172 182.305 69.8516 182.305 71.8594C182.305 73.875 183.07 75.0859 184.562 75.0859ZM190.156 76V67.7031H191.359L191.438 68.75C192.023 67.9766 192.852 67.4688 193.789 67.4688C194.68 67.4688 195.328 67.8359 195.727 68.7266C196.391 67.9219 197.289 67.4688 198.195 67.4688C199.828 67.4688 200.594 68.5859 200.594 70.125V76H199.25V70.3906C199.25 69.1406 198.766 68.6719 197.969 68.6719C197.211 68.6719 196.375 69.3281 196.031 69.9219C196.047 70.2891 196.047 70.1797 196.047 70.4375V76H194.703V70.3906C194.703 69.1406 194.219 68.6719 193.422 68.6719C192.734 68.6719 192.047 69.1797 191.5 69.9375V76H190.156ZM205.031 62.9453H206.555L204.289 65.8047H203.047L205.031 62.9453ZM203.047 76V67.7031H204.391V76H203.047ZM208.977 76.2422C207.484 76.2422 206.258 75.5469 206.258 73.6172C206.258 71.5469 208.023 70.9297 209.398 70.9297H211.445V70.3359C211.445 69.1094 210.742 68.5781 209.414 68.5781C208.586 68.5781 207.883 68.7969 207.227 69.0625L206.891 67.9766C207.75 67.6719 208.617 67.4688 209.414 67.4688C211.367 67.4688 212.789 68.2969 212.789 70.5V76H211.656L211.555 75C211.086 75.5859 210.039 76.2422 208.977 76.2422ZM209.164 75.0938C210.055 75.0938 210.906 74.4766 211.445 73.8906V72H209.68C208.336 72 207.602 72.5938 207.602 73.6172C207.602 74.6406 208.203 75.0938 209.164 75.0938ZM229.484 65.3828L227.07 76H225.391L223.586 69.2891L221.781 76H220.102L217.711 65.3828H219.047L221.023 74.8047L222.828 67.7031H224.352L226.156 74.8125L228.117 65.3828H229.484ZM231.383 76V65.3828H232.742V74.8594H237.57V76H231.383ZM240.07 76V66.5234H236.695V65.3828H244.797V66.5234H241.43V76H240.07ZM253.719 68.6641C253.719 70.7266 252.531 71.8906 249.688 71.8906H247.883V76.0078H246.523V65.3828H249.688C252.531 65.3828 253.719 66.6016 253.719 68.6641ZM247.883 66.5234V70.7344H249.688C251.461 70.7344 252.273 70.0781 252.273 68.6641C252.273 67.25 251.461 66.5234 249.688 66.5234H247.883ZM265.008 67.7031L260.234 79.3828H258.797L260.391 75.4531L257.242 67.7031H258.688L261.141 73.9844L263.617 67.7031H265.008ZM273.234 76V73.6484H268.82V72.6328L272.789 65.3828H274.438V72.6016H276.133V73.6484H274.438V76H273.234ZM270.117 72.6016H273.234V66.7109L270.117 72.6016ZM284.023 76H277.688V74.9453L281.016 71.125C281.953 70.0547 282.578 69.1484 282.578 68.1406C282.578 66.6953 281.484 66.2734 280.602 66.2734C279.562 66.2734 278.836 66.8438 278.242 67.6016L277.344 66.7891C278.133 65.8281 279.18 65.1328 280.602 65.1328C282.648 65.1328 283.852 66.2344 283.852 68.1406C283.852 69.5156 282.945 70.8047 281.828 72.0078L279.172 74.8906H284.023V76ZM289.109 65.0703C290.891 65.0703 292.117 66.0859 292.117 67.9609C292.117 69.1328 291.523 70 290.617 70.3672C291.672 70.7422 292.484 71.7422 292.484 73.1094C292.484 75.3125 290.727 76.2266 289.109 76.2266C287.5 76.2266 285.75 75.3125 285.75 73.1094C285.75 71.6719 286.609 70.7656 287.633 70.3672C286.734 70.0078 286.125 69.1328 286.125 67.9609C286.125 66.0859 287.328 65.0703 289.109 65.0703ZM289.109 69.7734C290.109 69.7734 290.875 69.0703 290.875 67.9609C290.875 66.8516 290.109 66.1406 289.109 66.1406C288.109 66.1406 287.359 66.8516 287.359 67.9609C287.359 69.0703 288.117 69.7734 289.109 69.7734ZM289.109 71.0156C287.852 71.0156 287.078 71.8516 287.078 73.0547C287.078 74.2578 287.852 75.0859 289.109 75.0859C290.359 75.0859 291.164 74.2578 291.164 73.0547C291.164 71.8516 290.359 71.0156 289.109 71.0156ZM304.961 74.3984C304.242 75.6406 303.078 76.2266 301.742 76.2266C298.852 76.2266 297.617 73.5156 297.617 70.6172C297.617 67.7188 298.852 65.0547 301.742 65.0547C303.078 65.0547 304.242 65.6484 304.961 66.8906L304.008 67.7109C303.547 66.7891 302.703 66.25 301.805 66.25C300.055 66.25 299.031 67.9531 299.031 70.6172C299.031 73.2812 300.055 75.0234 301.805 75.0234C302.703 75.0234 303.555 74.4922 304.016 73.5781L304.961 74.3984ZM314.031 65.3828L310.789 76H309.07L305.836 65.3828H307.172L309.938 74.7656L312.695 65.3828H314.031ZM325.18 74.7656C324.484 75.6016 323.469 76.2266 322.109 76.2266C319.414 76.2266 318.32 74.1953 318.32 71.8125C318.32 69.5234 319.406 67.4688 321.891 67.4688C324.383 67.4688 325.398 69.5156 325.398 72V72.3047H319.711C319.773 74.2188 320.766 75.0859 322.148 75.0859C323.062 75.0859 323.742 74.6562 324.352 73.9453L325.18 74.7656ZM321.891 68.6172C320.375 68.6172 319.773 69.8516 319.727 71.2266H324.016C323.977 69.8516 323.391 68.6172 321.891 68.6172ZM327.344 76V67.7031H328.5L328.594 68.9062C329.281 68.1641 330.164 67.4688 331.367 67.4688C332.898 67.4688 333.961 68.1328 333.961 70.9062V76H332.617V70.9062C332.617 69.1562 332.062 68.6719 331.125 68.6719C330.102 68.6719 329.305 69.4297 328.688 70.0625V76H327.344ZM27.6953 89.4688C28.8594 89.4688 29.8594 89.875 30.6875 90.8984L29.7969 91.6641C29.2188 90.9219 28.5234 90.6172 27.7578 90.6172C26.6406 90.6172 26.1641 91.0938 26.1641 91.7891C26.1641 92.5625 26.6172 92.9453 28.3203 93.2578C30.3359 93.6406 31.1172 94.4219 31.1172 95.7578C31.1172 97.3047 29.9922 98.2266 27.9766 98.2266C26.5078 98.2266 25.3359 97.5938 24.5938 96.7344L25.4531 95.8906C26.0938 96.6406 26.9141 97.0859 27.9766 97.0859C29.1953 97.0859 29.7734 96.5625 29.7734 95.7812C29.7734 95.0781 29.2266 94.6094 27.7578 94.3281C25.4688 93.8906 24.8203 93.0938 24.8203 91.8281C24.8203 90.5469 25.7812 89.4688 27.6953 89.4688ZM39.4688 89.7031V98H38.3047L38.2109 96.7969C37.5234 97.5391 36.6406 98.2344 35.4375 98.2344C33.9062 98.2344 32.8438 97.5703 32.8438 94.7969V89.7031H34.1875V94.7969C34.1875 96.5391 34.7422 97.0312 35.6797 97.0312C36.7109 97.0312 37.5 96.2734 38.125 95.6406V89.7031H39.4688ZM51.8203 89.7031L48.7812 98H47.2422L44.2109 89.7031H45.5781L48.0156 96.6562L50.4375 89.7031H51.8203ZM59.5547 96.7656C58.8594 97.6016 57.8438 98.2266 56.4844 98.2266C53.7891 98.2266 52.6953 96.1953 52.6953 93.8125C52.6953 91.5234 53.7812 89.4688 56.2656 89.4688C58.7578 89.4688 59.7734 91.5156 59.7734 94V94.3047H54.0859C54.1484 96.2188 55.1406 97.0859 56.5234 97.0859C57.4375 97.0859 58.1172 96.6562 58.7266 95.9453L59.5547 96.7656ZM56.2656 90.6172C54.75 90.6172 54.1484 91.8516 54.1016 93.2266H58.3906C58.3516 91.8516 57.7656 90.6172 56.2656 90.6172ZM61.7188 89.7031H62.8594L62.9609 90.8203C63.7109 89.8906 64.3906 89.4688 65.1328 89.4688C65.5625 89.4688 65.9922 89.5781 66.3672 89.75L65.9688 90.9062C65.7344 90.8047 65.3438 90.6562 64.9922 90.6562C64.3125 90.6562 63.6875 91.1406 63.0625 92.125V98H61.7188V89.7031ZM70.1016 89.4688C71.2656 89.4688 72.2656 89.875 73.0938 90.8984L72.2031 91.6641C71.625 90.9219 70.9297 90.6172 70.1641 90.6172C69.0469 90.6172 68.5703 91.0938 68.5703 91.7891C68.5703 92.5625 69.0234 92.9453 70.7266 93.2578C72.7422 93.6406 73.5234 94.4219 73.5234 95.7578C73.5234 97.3047 72.3984 98.2266 70.3828 98.2266C68.9141 98.2266 67.7422 97.5938 67 96.7344L67.8594 95.8906C68.5 96.6406 69.3203 97.0859 70.3828 97.0859C71.6016 97.0859 72.1797 96.5625 72.1797 95.7812C72.1797 95.0781 71.6328 94.6094 70.1641 94.3281C67.875 93.8906 67.2266 93.0938 67.2266 91.8281C67.2266 90.5469 68.1875 89.4688 70.1016 89.4688ZM76.7734 87.8047H75.2578V86.25H76.7734V87.8047ZM75.3438 98V89.7031H76.6875V98H75.3438ZM83.1797 84.9453H84.7031L82.4375 87.8047H81.1953L83.1797 84.9453ZM82.2812 98.2266C80.1094 98.2266 78.6797 96.4609 78.6797 93.8594C78.6797 91.25 80.1094 89.4688 82.2812 89.4688C84.4453 89.4688 85.875 91.25 85.875 93.8594C85.875 96.4609 84.4453 98.2266 82.2812 98.2266ZM82.2812 97.0859C83.7656 97.0859 84.5312 95.875 84.5312 93.8594C84.5312 91.8516 83.7656 90.6172 82.2812 90.6172C80.7891 90.6172 80.0234 91.8516 80.0234 93.8594C80.0234 95.875 80.7891 97.0859 82.2812 97.0859ZM87.875 98V89.7031H89.0312L89.125 90.9062C89.8125 90.1641 90.6953 89.4688 91.8984 89.4688C93.4297 89.4688 94.4922 90.1328 94.4922 92.9062V98H93.1484V92.9062C93.1484 91.1562 92.5938 90.6719 91.6562 90.6719C90.6328 90.6719 89.8359 91.4297 89.2188 92.0625V98H87.875ZM100.555 87.3828H103.82C106.07 87.3828 107.148 88.5 107.148 90.1875C107.148 90.9766 106.805 92.125 105.82 92.4375C106.898 92.7266 107.719 93.6172 107.719 95.0156C107.719 97.0547 106.094 98 103.984 98H100.555V87.3828ZM101.914 88.5234V91.9219H103.758C105.164 91.9219 105.703 91.25 105.703 90.25C105.703 89.2109 105.133 88.5234 103.734 88.5234H101.914ZM101.914 93.0703V96.8594H103.898C105.555 96.8594 106.273 95.9844 106.273 94.9531C106.273 93.8984 105.547 93.0703 103.922 93.0703H101.914ZM113.008 93.6328H111.227V98.0078H109.867V87.3828H112.883C115.398 87.3828 116.508 88.5703 116.508 90.5078C116.508 92.1406 115.625 93.0703 114.367 93.4453L116.789 98H115.289L113.008 93.6328ZM111.227 88.5234V92.4844H112.812C114.344 92.4844 115.055 91.7266 115.055 90.5078C115.055 89.2812 114.352 88.5234 112.812 88.5234H111.227ZM124.305 95.5312H119.93L119.078 98H117.672L121.469 87.3828H122.914L126.516 98H125.133L124.305 95.5312ZM120.312 94.3906H123.922L122.148 89.1016L120.312 94.3906ZM128.227 87.3828H131.492C133.742 87.3828 134.82 88.5 134.82 90.1875C134.82 90.9766 134.477 92.125 133.492 92.4375C134.57 92.7266 135.391 93.6172 135.391 95.0156C135.391 97.0547 133.766 98 131.656 98H128.227V87.3828ZM129.586 88.5234V91.9219H131.43C132.836 91.9219 133.375 91.25 133.375 90.25C133.375 89.2109 132.805 88.5234 131.406 88.5234H129.586ZM129.586 93.0703V96.8594H131.57C133.227 96.8594 133.945 95.9844 133.945 94.9531C133.945 93.8984 133.219 93.0703 131.594 93.0703H129.586ZM144.836 87.3828V94.375C144.836 96.7734 143.672 98.2266 141.141 98.2266C138.617 98.2266 137.445 96.7734 137.445 94.375V87.3828H138.805V94.375C138.805 96.1797 139.578 97.0234 141.141 97.0234C142.711 97.0234 143.477 96.1797 143.477 94.375V87.3828H144.836ZM150.367 87.125C151.922 87.125 153.109 87.9062 153.734 89.3906L152.516 89.9375C152.219 88.9922 151.484 88.3047 150.367 88.3047C149.156 88.3047 148.414 88.8047 148.414 89.9375C148.414 90.8047 148.969 91.4609 150.555 91.9922C152.703 92.7109 153.945 93.3594 153.945 95.2422C153.945 97.1172 152.688 98.2266 150.414 98.2266C148.797 98.2266 147.625 97.5938 146.812 96.4531L147.906 95.6406C148.234 96.2578 149.102 97.0547 150.414 97.0547C151.906 97.0547 152.531 96.3359 152.531 95.3125C152.531 94.1953 151.75 93.8281 150.156 93.2734C148.266 92.6328 147 91.8516 147 89.9453C147 88.4375 147.938 87.125 150.367 87.125ZM157.32 98H155.711V96.3672H157.32V98Z" fill="white"/>
<path opacity="0.99" d="M28.4336 111.766H26.2461L25.8203 113H25.1172L27.0156 107.691H27.7383L29.5391 113H28.8477L28.4336 111.766ZM26.4375 111.195H28.2422L27.3555 108.551L26.4375 111.195ZM33.5469 108.852V113H32.9648L32.918 112.398C32.5742 112.77 32.1328 113.117 31.5312 113.117C30.7656 113.117 30.2344 112.785 30.2344 111.398V108.852H30.9062V111.398C30.9062 112.27 31.1836 112.516 31.6523 112.516C32.168 112.516 32.5625 112.137 32.875 111.82V108.852H33.5469ZM34.7695 107.691H35.4414V108.852H36.9766V109.406H35.4414V111.621C35.4414 112.238 35.6406 112.512 36.1211 112.512C36.4336 112.512 36.793 112.395 37.0547 112.266L37.2188 112.812C36.7305 113.031 36.3438 113.113 36.0352 113.113C35.0547 113.113 34.7695 112.461 34.7695 111.676V107.691ZM39.3984 113.113C38.3125 113.113 37.5977 112.23 37.5977 110.93C37.5977 109.625 38.3125 108.734 39.3984 108.734C40.4805 108.734 41.1953 109.625 41.1953 110.93C41.1953 112.23 40.4805 113.113 39.3984 113.113ZM39.3984 112.543C40.1406 112.543 40.5234 111.938 40.5234 110.93C40.5234 109.926 40.1406 109.309 39.3984 109.309C38.6523 109.309 38.2695 109.926 38.2695 110.93C38.2695 111.938 38.6523 112.543 39.3984 112.543ZM42.1953 113V108.852H42.7734L42.8203 109.453C43.1641 109.082 43.6055 108.734 44.207 108.734C44.9727 108.734 45.5039 109.066 45.5039 110.453V113H44.832V110.453C44.832 109.578 44.5547 109.336 44.0859 109.336C43.5742 109.336 43.1758 109.715 42.8672 110.031V113H42.1953ZM48.2578 113.113C47.1719 113.113 46.457 112.23 46.457 110.93C46.457 109.625 47.1719 108.734 48.2578 108.734C49.3398 108.734 50.0547 109.625 50.0547 110.93C50.0547 112.23 49.3398 113.113 48.2578 113.113ZM48.2578 112.543C49 112.543 49.3828 111.938 49.3828 110.93C49.3828 109.926 49 109.309 48.2578 109.309C47.5117 109.309 47.1289 109.926 47.1289 110.93C47.1289 111.938 47.5117 112.543 48.2578 112.543ZM51.0547 113V108.852H51.6562L51.6953 109.375C51.9883 108.988 52.4023 108.734 52.8711 108.734C53.3164 108.734 53.6406 108.918 53.8398 109.363C54.1719 108.961 54.6211 108.734 55.0742 108.734C55.8906 108.734 56.2734 109.293 56.2734 110.062V113H55.6016V110.195C55.6016 109.57 55.3594 109.336 54.9609 109.336C54.582 109.336 54.1641 109.664 53.9922 109.961C54 110.145 54 110.09 54 110.219V113H53.3281V110.195C53.3281 109.57 53.0859 109.336 52.6875 109.336C52.3438 109.336 52 109.59 51.7266 109.969V113H51.0547ZM58.4922 106.473H59.2539L58.1211 107.902H57.5L58.4922 106.473ZM57.5 113V108.852H58.1719V113H57.5ZM60.4648 113.121C59.7188 113.121 59.1055 112.773 59.1055 111.809C59.1055 110.773 59.9883 110.465 60.6758 110.465H61.6992V110.168C61.6992 109.555 61.3477 109.289 60.6836 109.289C60.2695 109.289 59.918 109.398 59.5898 109.531L59.4219 108.988C59.8516 108.836 60.2852 108.734 60.6836 108.734C61.6602 108.734 62.3711 109.148 62.3711 110.25V113H61.8047L61.7539 112.5C61.5195 112.793 60.9961 113.121 60.4648 113.121ZM60.5586 112.547C61.0039 112.547 61.4297 112.238 61.6992 111.945V111H60.8164C60.1445 111 59.7773 111.297 59.7773 111.809C59.7773 112.32 60.0781 112.547 60.5586 112.547ZM66.5586 108.734C67.1406 108.734 67.6406 108.938 68.0547 109.449L67.6094 109.832C67.3203 109.461 66.9727 109.309 66.5898 109.309C66.0312 109.309 65.793 109.547 65.793 109.895C65.793 110.281 66.0195 110.473 66.8711 110.629C67.8789 110.82 68.2695 111.211 68.2695 111.879C68.2695 112.652 67.707 113.113 66.6992 113.113C65.9648 113.113 65.3789 112.797 65.0078 112.367L65.4375 111.945C65.7578 112.32 66.168 112.543 66.6992 112.543C67.3086 112.543 67.5977 112.281 67.5977 111.891C67.5977 111.539 67.3242 111.305 66.5898 111.164C65.4453 110.945 65.1211 110.547 65.1211 109.914C65.1211 109.273 65.6016 108.734 66.5586 108.734ZM72.4453 108.852V113H71.8633L71.8164 112.398C71.4727 112.77 71.0312 113.117 70.4297 113.117C69.6641 113.117 69.1328 112.785 69.1328 111.398V108.852H69.8047V111.398C69.8047 112.27 70.082 112.516 70.5508 112.516C71.0664 112.516 71.4609 112.137 71.7734 111.82V108.852H72.4453ZM74.4258 107.902H73.668V107.125H74.4258V107.902ZM72.2188 114.129H72.8789C73.418 114.129 73.7109 113.793 73.7109 113V108.852H74.3828V112.957C74.3828 114.145 73.8672 114.684 72.9297 114.684H72.2188V114.129ZM78.8086 112.383C78.4609 112.801 77.9531 113.113 77.2734 113.113C75.9258 113.113 75.3789 112.098 75.3789 110.906C75.3789 109.762 75.9219 108.734 77.1641 108.734C78.4102 108.734 78.918 109.758 78.918 111V111.152H76.0742C76.1055 112.109 76.6016 112.543 77.293 112.543C77.75 112.543 78.0898 112.328 78.3945 111.973L78.8086 112.383ZM77.1641 109.309C76.4062 109.309 76.1055 109.926 76.082 110.613H78.2266C78.207 109.926 77.9141 109.309 77.1641 109.309ZM79.8477 107.691H80.5195V108.852H82.0547V109.406H80.5195V111.621C80.5195 112.238 80.7188 112.512 81.1992 112.512C81.5117 112.512 81.8711 112.395 82.1328 112.266L82.2969 112.812C81.8086 113.031 81.4219 113.113 81.1133 113.113C80.1328 113.113 79.8477 112.461 79.8477 111.676V107.691ZM84.043 113.121C83.2969 113.121 82.6836 112.773 82.6836 111.809C82.6836 110.773 83.5664 110.465 84.2539 110.465H85.2773V110.168C85.2773 109.555 84.9258 109.289 84.2617 109.289C83.8477 109.289 83.4961 109.398 83.168 109.531L83 108.988C83.4297 108.836 83.8633 108.734 84.2617 108.734C85.2383 108.734 85.9492 109.148 85.9492 110.25V113H85.3828L85.332 112.5C85.0977 112.793 84.5742 113.121 84.043 113.121ZM84.1367 112.547C84.582 112.547 85.0078 112.238 85.2773 111.945V111H84.3945C83.7227 111 83.3555 111.297 83.3555 111.809C83.3555 112.32 83.6562 112.547 84.1367 112.547ZM89.9492 113.121C89.2031 113.121 88.5898 112.773 88.5898 111.809C88.5898 110.773 89.4727 110.465 90.1602 110.465H91.1836V110.168C91.1836 109.555 90.832 109.289 90.168 109.289C89.7539 109.289 89.4023 109.398 89.0742 109.531L88.9062 108.988C89.3359 108.836 89.7695 108.734 90.168 108.734C91.1445 108.734 91.8555 109.148 91.8555 110.25V113H91.2891L91.2383 112.5C91.0039 112.793 90.4805 113.121 89.9492 113.121ZM90.043 112.547C90.4883 112.547 90.9141 112.238 91.1836 111.945V111H90.3008C89.6289 111 89.2617 111.297 89.2617 111.809C89.2617 112.32 89.5625 112.547 90.043 112.547ZM94.7852 107.691H95.457V108.852H96.9922V109.406H95.457V111.621C95.457 112.238 95.6562 112.512 96.1367 112.512C96.4492 112.512 96.8086 112.395 97.0703 112.266L97.2344 112.812C96.7461 113.031 96.3594 113.113 96.0508 113.113C95.0703 113.113 94.7852 112.461 94.7852 111.676V107.691ZM98.668 107.902H97.9102V107.125H98.668V107.902ZM97.9531 113V108.852H98.625V113H97.9531ZM99.8906 114.68V108.852H100.496L100.555 109.473C100.867 108.918 101.359 108.734 101.824 108.734C102.707 108.734 103.465 109.445 103.465 110.934C103.465 112.418 102.707 113.113 101.824 113.113C101.359 113.113 100.863 112.934 100.559 112.344V114.68H99.8906ZM101.664 112.539C102.375 112.539 102.793 111.953 102.793 110.934C102.793 109.91 102.375 109.305 101.664 109.305C100.953 109.305 100.535 109.906 100.535 110.934C100.535 111.953 100.953 112.539 101.664 112.539ZM106.008 113.113C104.922 113.113 104.207 112.23 104.207 110.93C104.207 109.625 104.922 108.734 106.008 108.734C107.09 108.734 107.805 109.625 107.805 110.93C107.805 112.23 107.09 113.113 106.008 113.113ZM106.008 112.543C106.75 112.543 107.133 111.938 107.133 110.93C107.133 109.926 106.75 109.309 106.008 109.309C105.262 109.309 104.879 109.926 104.879 110.93C104.879 111.938 105.262 112.543 106.008 112.543ZM111.922 108.734C112.387 108.734 112.898 108.914 113.207 109.504V107.02H113.871V113H113.27L113.215 112.375C112.906 112.945 112.379 113.113 111.938 113.113C111.078 113.113 110.297 112.406 110.297 110.918C110.297 109.43 111.059 108.734 111.922 108.734ZM112.09 109.309C111.383 109.309 110.969 109.895 110.969 110.918C110.969 111.938 111.383 112.543 112.09 112.543C112.805 112.543 113.227 111.941 113.227 110.918C113.227 109.895 112.805 109.309 112.09 109.309ZM118.301 112.383C117.953 112.801 117.445 113.113 116.766 113.113C115.418 113.113 114.871 112.098 114.871 110.906C114.871 109.762 115.414 108.734 116.656 108.734C117.902 108.734 118.41 109.758 118.41 111V111.152H115.566C115.598 112.109 116.094 112.543 116.785 112.543C117.242 112.543 117.582 112.328 117.887 111.973L118.301 112.383ZM116.656 109.309C115.898 109.309 115.598 109.926 115.574 110.613H117.719C117.699 109.926 117.406 109.309 116.656 109.309ZM124.125 112.371C123.742 112.867 123.312 113.113 122.676 113.113C121.602 113.113 120.863 112.305 120.863 110.93C120.863 109.684 121.531 108.734 122.688 108.734C123.324 108.734 123.742 108.992 124.125 109.492L123.699 109.891C123.449 109.547 123.156 109.309 122.688 109.309C121.941 109.309 121.535 109.934 121.535 110.93C121.535 111.926 121.945 112.543 122.723 112.543C123.172 112.543 123.449 112.316 123.699 111.973L124.125 112.371ZM126.516 113.113C125.43 113.113 124.715 112.23 124.715 110.93C124.715 109.625 125.43 108.734 126.516 108.734C127.598 108.734 128.312 109.625 128.312 110.93C128.312 112.23 127.598 113.113 126.516 113.113ZM126.516 112.543C127.258 112.543 127.641 111.938 127.641 110.93C127.641 109.926 127.258 109.309 126.516 109.309C125.77 109.309 125.387 109.926 125.387 110.93C125.387 111.938 125.77 112.543 126.516 112.543ZM129.312 113V108.852H129.891L129.938 109.453C130.281 109.082 130.723 108.734 131.324 108.734C132.09 108.734 132.621 109.066 132.621 110.453V113H131.949V110.453C131.949 109.578 131.672 109.336 131.203 109.336C130.691 109.336 130.293 109.715 129.984 110.031V113H129.312ZM135.211 108.734C135.676 108.734 136.188 108.914 136.496 109.504V107.02H137.16V113H136.559L136.504 112.375C136.195 112.945 135.668 113.113 135.227 113.113C134.367 113.113 133.586 112.406 133.586 110.918C133.586 109.43 134.348 108.734 135.211 108.734ZM135.379 109.309C134.672 109.309 134.258 109.895 134.258 110.918C134.258 111.938 134.672 112.543 135.379 112.543C136.094 112.543 136.516 111.941 136.516 110.918C136.516 109.895 136.094 109.309 135.379 109.309ZM141.695 108.852V113H141.113L141.066 112.398C140.723 112.77 140.281 113.117 139.68 113.117C138.914 113.117 138.383 112.785 138.383 111.398V108.852H139.055V111.398C139.055 112.27 139.332 112.516 139.801 112.516C140.316 112.516 140.711 112.137 141.023 111.82V108.852H141.695ZM145.953 112.371C145.57 112.867 145.141 113.113 144.504 113.113C143.43 113.113 142.691 112.305 142.691 110.93C142.691 109.684 143.359 108.734 144.516 108.734C145.152 108.734 145.57 108.992 145.953 109.492L145.527 109.891C145.277 109.547 144.984 109.309 144.516 109.309C143.77 109.309 143.363 109.934 143.363 110.93C143.363 111.926 143.773 112.543 144.551 112.543C145 112.543 145.277 112.316 145.527 111.973L145.953 112.371ZM149.805 112.371C149.422 112.867 148.992 113.113 148.355 113.113C147.281 113.113 146.543 112.305 146.543 110.93C146.543 109.684 147.211 108.734 148.367 108.734C149.004 108.734 149.422 108.992 149.805 109.492L149.379 109.891C149.129 109.547 148.836 109.309 148.367 109.309C147.621 109.309 147.215 109.934 147.215 110.93C147.215 111.926 147.625 112.543 148.402 112.543C148.852 112.543 149.129 112.316 149.379 111.973L149.805 112.371ZM151.426 107.902H150.668V107.125H151.426V107.902ZM150.711 113V108.852H151.383V113H150.711ZM154.629 106.473H155.391L154.258 107.902H153.637L154.629 106.473ZM154.18 113.113C153.094 113.113 152.379 112.23 152.379 110.93C152.379 109.625 153.094 108.734 154.18 108.734C155.262 108.734 155.977 109.625 155.977 110.93C155.977 112.23 155.262 113.113 154.18 113.113ZM154.18 112.543C154.922 112.543 155.305 111.938 155.305 110.93C155.305 109.926 154.922 109.309 154.18 109.309C153.434 109.309 153.051 109.926 153.051 110.93C153.051 111.938 153.434 112.543 154.18 112.543ZM156.977 113V108.852H157.555L157.602 109.453C157.945 109.082 158.387 108.734 158.988 108.734C159.754 108.734 160.285 109.066 160.285 110.453V113H159.613V110.453C159.613 109.578 159.336 109.336 158.867 109.336C158.355 109.336 157.957 109.715 157.648 110.031V113H156.977ZM162.324 112.035L161.422 114.531H160.789L161.527 112.035H162.324ZM167.945 112.371C167.562 112.867 167.133 113.113 166.496 113.113C165.422 113.113 164.684 112.305 164.684 110.93C164.684 109.684 165.352 108.734 166.508 108.734C167.145 108.734 167.562 108.992 167.945 109.492L167.52 109.891C167.27 109.547 166.977 109.309 166.508 109.309C165.762 109.309 165.355 109.934 165.355 110.93C165.355 111.926 165.766 112.543 166.543 112.543C166.992 112.543 167.27 112.316 167.52 111.973L167.945 112.371ZM170.336 113.113C169.25 113.113 168.535 112.23 168.535 110.93C168.535 109.625 169.25 108.734 170.336 108.734C171.418 108.734 172.133 109.625 172.133 110.93C172.133 112.23 171.418 113.113 170.336 113.113ZM170.336 112.543C171.078 112.543 171.461 111.938 171.461 110.93C171.461 109.926 171.078 109.309 170.336 109.309C169.59 109.309 169.207 109.926 169.207 110.93C169.207 111.938 169.59 112.543 170.336 112.543ZM173.133 113V108.852H173.711L173.758 109.453C174.102 109.082 174.543 108.734 175.145 108.734C175.91 108.734 176.441 109.066 176.441 110.453V113H175.77V110.453C175.77 109.578 175.492 109.336 175.023 109.336C174.512 109.336 174.113 109.715 173.805 110.031V113H173.133ZM179.031 108.734C179.496 108.734 180.008 108.914 180.316 109.504V107.02H180.98V113H180.379L180.324 112.375C180.016 112.945 179.488 113.113 179.047 113.113C178.188 113.113 177.406 112.406 177.406 110.918C177.406 109.43 178.168 108.734 179.031 108.734ZM179.199 109.309C178.492 109.309 178.078 109.895 178.078 110.918C178.078 111.938 178.492 112.543 179.199 112.543C179.914 112.543 180.336 111.941 180.336 110.918C180.336 109.895 179.914 109.309 179.199 109.309ZM182.965 107.902H182.207V107.125H182.965V107.902ZM182.25 113V108.852H182.922V113H182.25ZM187.18 112.371C186.797 112.867 186.367 113.113 185.73 113.113C184.656 113.113 183.918 112.305 183.918 110.93C183.918 109.684 184.586 108.734 185.742 108.734C186.379 108.734 186.797 108.992 187.18 109.492L186.754 109.891C186.504 109.547 186.211 109.309 185.742 109.309C184.996 109.309 184.59 109.934 184.59 110.93C184.59 111.926 185 112.543 185.777 112.543C186.227 112.543 186.504 112.316 186.754 111.973L187.18 112.371ZM188.801 107.902H188.043V107.125H188.801V107.902ZM188.086 113V108.852H188.758V113H188.086ZM191.555 113.113C190.469 113.113 189.754 112.23 189.754 110.93C189.754 109.625 190.469 108.734 191.555 108.734C192.637 108.734 193.352 109.625 193.352 110.93C193.352 112.23 192.637 113.113 191.555 113.113ZM191.555 112.543C192.297 112.543 192.68 111.938 192.68 110.93C192.68 109.926 192.297 109.309 191.555 109.309C190.809 109.309 190.426 109.926 190.426 110.93C190.426 111.938 190.809 112.543 191.555 112.543ZM194.352 113V108.852H194.93L194.977 109.453C195.32 109.082 195.762 108.734 196.363 108.734C197.129 108.734 197.66 109.066 197.66 110.453V113H196.988V110.453C196.988 109.578 196.711 109.336 196.242 109.336C195.73 109.336 195.332 109.715 195.023 110.031V113H194.352ZM202.043 112.383C201.695 112.801 201.188 113.113 200.508 113.113C199.16 113.113 198.613 112.098 198.613 110.906C198.613 109.762 199.156 108.734 200.398 108.734C201.645 108.734 202.152 109.758 202.152 111V111.152H199.309C199.34 112.109 199.836 112.543 200.527 112.543C200.984 112.543 201.324 112.328 201.629 111.973L202.043 112.383ZM200.398 109.309C199.641 109.309 199.34 109.926 199.316 110.613H201.461C201.441 109.926 201.148 109.309 200.398 109.309ZM204.34 108.734C204.922 108.734 205.422 108.938 205.836 109.449L205.391 109.832C205.102 109.461 204.754 109.309 204.371 109.309C203.812 109.309 203.574 109.547 203.574 109.895C203.574 110.281 203.801 110.473 204.652 110.629C205.66 110.82 206.051 111.211 206.051 111.879C206.051 112.652 205.488 113.113 204.48 113.113C203.746 113.113 203.16 112.797 202.789 112.367L203.219 111.945C203.539 112.32 203.949 112.543 204.48 112.543C205.09 112.543 205.379 112.281 205.379 111.891C205.379 111.539 205.105 111.305 204.371 111.164C203.227 110.945 202.902 110.547 202.902 109.914C202.902 109.273 203.383 108.734 204.34 108.734ZM210.078 108.734C210.543 108.734 211.055 108.914 211.363 109.504V107.02H212.027V113H211.426L211.371 112.375C211.062 112.945 210.535 113.113 210.094 113.113C209.234 113.113 208.453 112.406 208.453 110.918C208.453 109.43 209.215 108.734 210.078 108.734ZM210.246 109.309C209.539 109.309 209.125 109.895 209.125 110.918C209.125 111.938 209.539 112.543 210.246 112.543C210.961 112.543 211.383 111.941 211.383 110.918C211.383 109.895 210.961 109.309 210.246 109.309ZM216.457 112.383C216.109 112.801 215.602 113.113 214.922 113.113C213.574 113.113 213.027 112.098 213.027 110.906C213.027 109.762 213.57 108.734 214.812 108.734C216.059 108.734 216.566 109.758 216.566 111V111.152H213.723C213.754 112.109 214.25 112.543 214.941 112.543C215.398 112.543 215.738 112.328 216.043 111.973L216.457 112.383ZM214.812 109.309C214.055 109.309 213.754 109.926 213.73 110.613H215.875C215.855 109.926 215.562 109.309 214.812 109.309ZM217.539 113V107.066H218.211V113H217.539ZM221.184 107.691H221.855V108.852H223.391V109.406H221.855V111.621C221.855 112.238 222.055 112.512 222.535 112.512C222.848 112.512 223.207 112.395 223.469 112.266L223.633 112.812C223.145 113.031 222.758 113.113 222.449 113.113C221.469 113.113 221.184 112.461 221.184 111.676V107.691ZM227.441 112.383C227.094 112.801 226.586 113.113 225.906 113.113C224.559 113.113 224.012 112.098 224.012 110.906C224.012 109.762 224.555 108.734 225.797 108.734C227.043 108.734 227.551 109.758 227.551 111V111.152H224.707C224.738 112.109 225.234 112.543 225.926 112.543C226.383 112.543 226.723 112.328 227.027 111.973L227.441 112.383ZM225.797 109.309C225.039 109.309 224.738 109.926 224.715 110.613H226.859C226.84 109.926 226.547 109.309 225.797 109.309ZM228.523 108.852H229.094L229.145 109.41C229.52 108.945 229.859 108.734 230.23 108.734C230.445 108.734 230.66 108.789 230.848 108.875L230.648 109.453C230.531 109.402 230.336 109.328 230.16 109.328C229.82 109.328 229.508 109.57 229.195 110.062V113H228.523V108.852ZM231.578 108.852H232.148L232.199 109.41C232.574 108.945 232.914 108.734 233.285 108.734C233.5 108.734 233.715 108.789 233.902 108.875L233.703 109.453C233.586 109.402 233.391 109.328 233.215 109.328C232.875 109.328 232.562 109.57 232.25 110.062V113H231.578V108.852ZM234.633 108.852H235.203L235.254 109.41C235.629 108.945 235.969 108.734 236.34 108.734C236.555 108.734 236.77 108.789 236.957 108.875L236.758 109.453C236.641 109.402 236.445 109.328 236.27 109.328C235.93 109.328 235.617 109.57 235.305 110.062V113H234.633V108.852ZM240.699 112.383C240.352 112.801 239.844 113.113 239.164 113.113C237.816 113.113 237.27 112.098 237.27 110.906C237.27 109.762 237.812 108.734 239.055 108.734C240.301 108.734 240.809 109.758 240.809 111V111.152H237.965C237.996 112.109 238.492 112.543 239.184 112.543C239.641 112.543 239.98 112.328 240.285 111.973L240.699 112.383ZM239.055 109.309C238.297 109.309 237.996 109.926 237.973 110.613H240.117C240.098 109.926 239.805 109.309 239.055 109.309ZM241.781 113V108.852H242.359L242.406 109.453C242.75 109.082 243.191 108.734 243.793 108.734C244.559 108.734 245.09 109.066 245.09 110.453V113H244.418V110.453C244.418 109.578 244.141 109.336 243.672 109.336C243.16 109.336 242.762 109.715 242.453 110.031V113H241.781ZM247.844 113.113C246.758 113.113 246.043 112.23 246.043 110.93C246.043 109.625 246.758 108.734 247.844 108.734C248.926 108.734 249.641 109.625 249.641 110.93C249.641 112.23 248.926 113.113 247.844 113.113ZM247.844 112.543C248.586 112.543 248.969 111.938 248.969 110.93C248.969 109.926 248.586 109.309 247.844 109.309C247.098 109.309 246.715 109.926 246.715 110.93C246.715 111.938 247.098 112.543 247.844 112.543ZM255.574 108.852L253.188 114.691H252.469L253.266 112.727L251.691 108.852H252.414L253.641 111.992L254.879 108.852H255.574ZM260.867 112.371C260.484 112.867 260.055 113.113 259.418 113.113C258.344 113.113 257.605 112.305 257.605 110.93C257.605 109.684 258.273 108.734 259.43 108.734C260.066 108.734 260.484 108.992 260.867 109.492L260.441 109.891C260.191 109.547 259.898 109.309 259.43 109.309C258.684 109.309 258.277 109.934 258.277 110.93C258.277 111.926 258.688 112.543 259.465 112.543C259.914 112.543 260.191 112.316 260.441 111.973L260.867 112.371ZM263.258 113.113C262.172 113.113 261.457 112.23 261.457 110.93C261.457 109.625 262.172 108.734 263.258 108.734C264.34 108.734 265.055 109.625 265.055 110.93C265.055 112.23 264.34 113.113 263.258 113.113ZM263.258 112.543C264 112.543 264.383 111.938 264.383 110.93C264.383 109.926 264 109.309 263.258 109.309C262.512 109.309 262.129 109.926 262.129 110.93C262.129 111.938 262.512 112.543 263.258 112.543ZM266.055 113V108.852H266.633L266.68 109.453C267.023 109.082 267.465 108.734 268.066 108.734C268.832 108.734 269.363 109.066 269.363 110.453V113H268.691V110.453C268.691 109.578 268.414 109.336 267.945 109.336C267.434 109.336 267.035 109.715 266.727 110.031V113H266.055ZM271.953 108.734C272.418 108.734 272.93 108.914 273.238 109.504V107.02H273.902V113H273.301L273.246 112.375C272.938 112.945 272.41 113.113 271.969 113.113C271.109 113.113 270.328 112.406 270.328 110.918C270.328 109.43 271.09 108.734 271.953 108.734ZM272.121 109.309C271.414 109.309 271 109.895 271 110.918C271 111.938 271.414 112.543 272.121 112.543C272.836 112.543 273.258 111.941 273.258 110.918C273.258 109.895 272.836 109.309 272.121 109.309ZM275.887 107.902H275.129V107.125H275.887V107.902ZM275.172 113V108.852H275.844V113H275.172ZM280.102 112.371C279.719 112.867 279.289 113.113 278.652 113.113C277.578 113.113 276.84 112.305 276.84 110.93C276.84 109.684 277.508 108.734 278.664 108.734C279.301 108.734 279.719 108.992 280.102 109.492L279.676 109.891C279.426 109.547 279.133 109.309 278.664 109.309C277.918 109.309 277.512 109.934 277.512 110.93C277.512 111.926 277.922 112.543 278.699 112.543C279.148 112.543 279.426 112.316 279.676 111.973L280.102 112.371ZM281.723 107.902H280.965V107.125H281.723V107.902ZM281.008 113V108.852H281.68V113H281.008ZM284.477 113.113C283.391 113.113 282.676 112.23 282.676 110.93C282.676 109.625 283.391 108.734 284.477 108.734C285.559 108.734 286.273 109.625 286.273 110.93C286.273 112.23 285.559 113.113 284.477 113.113ZM284.477 112.543C285.219 112.543 285.602 111.938 285.602 110.93C285.602 109.926 285.219 109.309 284.477 109.309C283.73 109.309 283.348 109.926 283.348 110.93C283.348 111.938 283.73 112.543 284.477 112.543ZM287.273 113V108.852H287.852L287.898 109.453C288.242 109.082 288.684 108.734 289.285 108.734C290.051 108.734 290.582 109.066 290.582 110.453V113H289.91V110.453C289.91 109.578 289.633 109.336 289.164 109.336C288.652 109.336 288.254 109.715 287.945 110.031V113H287.273ZM294.965 112.383C294.617 112.801 294.109 113.113 293.43 113.113C292.082 113.113 291.535 112.098 291.535 110.906C291.535 109.762 292.078 108.734 293.32 108.734C294.566 108.734 295.074 109.758 295.074 111V111.152H292.23C292.262 112.109 292.758 112.543 293.449 112.543C293.906 112.543 294.246 112.328 294.551 111.973L294.965 112.383ZM293.32 109.309C292.562 109.309 292.262 109.926 292.238 110.613H294.383C294.363 109.926 294.07 109.309 293.32 109.309ZM297.262 108.734C297.844 108.734 298.344 108.938 298.758 109.449L298.312 109.832C298.023 109.461 297.676 109.309 297.293 109.309C296.734 109.309 296.496 109.547 296.496 109.895C296.496 110.281 296.723 110.473 297.574 110.629C298.582 110.82 298.973 111.211 298.973 111.879C298.973 112.652 298.41 113.113 297.402 113.113C296.668 113.113 296.082 112.797 295.711 112.367L296.141 111.945C296.461 112.32 296.871 112.543 297.402 112.543C298.012 112.543 298.301 112.281 298.301 111.891C298.301 111.539 298.027 111.305 297.293 111.164C296.148 110.945 295.824 110.547 295.824 109.914C295.824 109.273 296.305 108.734 297.262 108.734ZM27 119.734C27.4648 119.734 27.9766 119.914 28.2852 120.504V118.02H28.9492V124H28.3477L28.293 123.375C27.9844 123.945 27.457 124.113 27.0156 124.113C26.1562 124.113 25.375 123.406 25.375 121.918C25.375 120.43 26.1367 119.734 27 119.734ZM27.168 120.309C26.4609 120.309 26.0469 120.895 26.0469 121.918C26.0469 122.938 26.4609 123.543 27.168 123.543C27.8828 123.543 28.3047 122.941 28.3047 121.918C28.3047 120.895 27.8828 120.309 27.168 120.309ZM33.3789 123.383C33.0312 123.801 32.5234 124.113 31.8438 124.113C30.4961 124.113 29.9492 123.098 29.9492 121.906C29.9492 120.762 30.4922 119.734 31.7344 119.734C32.9805 119.734 33.4883 120.758 33.4883 122V122.152H30.6445C30.6758 123.109 31.1719 123.543 31.8633 123.543C32.3203 123.543 32.6602 123.328 32.9648 122.973L33.3789 123.383ZM31.7344 120.309C30.9766 120.309 30.6758 120.926 30.6523 121.613H32.7969C32.7773 120.926 32.4844 120.309 31.7344 120.309ZM34.4609 124V118.066H35.1328V124H34.4609ZM41.1406 123.371C40.7578 123.867 40.3281 124.113 39.6914 124.113C38.6172 124.113 37.8789 123.305 37.8789 121.93C37.8789 120.684 38.5469 119.734 39.7031 119.734C40.3398 119.734 40.7578 119.992 41.1406 120.492L40.7148 120.891C40.4648 120.547 40.1719 120.309 39.7031 120.309C38.957 120.309 38.5508 120.934 38.5508 121.93C38.5508 122.926 38.9609 123.543 39.7383 123.543C40.1875 123.543 40.4648 123.316 40.7148 122.973L41.1406 123.371ZM42.0469 124V118.066H42.7188V124H42.0469ZM44.6992 118.902H43.9414V118.125H44.6992V118.902ZM43.9844 124V119.852H44.6562V124H43.9844ZM45.9219 124V119.852H46.5234L46.5625 120.375C46.8555 119.988 47.2695 119.734 47.7383 119.734C48.1836 119.734 48.5078 119.918 48.707 120.363C49.0391 119.961 49.4883 119.734 49.9414 119.734C50.7578 119.734 51.1406 120.293 51.1406 121.062V124H50.4688V121.195C50.4688 120.57 50.2266 120.336 49.8281 120.336C49.4492 120.336 49.0312 120.664 48.8594 120.961C48.8672 121.145 48.8672 121.09 48.8672 121.219V124H48.1953V121.195C48.1953 120.57 47.9531 120.336 47.5547 120.336C47.2109 120.336 46.8672 120.59 46.5938 120.969V124H45.9219ZM53.3945 124.121C52.6484 124.121 52.0352 123.773 52.0352 122.809C52.0352 121.773 52.918 121.465 53.6055 121.465H54.6289V121.168C54.6289 120.555 54.2773 120.289 53.6133 120.289C53.1992 120.289 52.8477 120.398 52.5195 120.531L52.3516 119.988C52.7812 119.836 53.2148 119.734 53.6133 119.734C54.5898 119.734 55.3008 120.148 55.3008 121.25V124H54.7344L54.6836 123.5C54.4492 123.793 53.9258 124.121 53.3945 124.121ZM53.4883 123.547C53.9336 123.547 54.3594 123.238 54.6289 122.945V122H53.7461C53.0742 122 52.707 122.297 52.707 122.809C52.707 123.32 53.0078 123.547 53.4883 123.547ZM57.207 124H56.4023V123.184H57.207V124Z" fill="white"/>
<rect x="24" y="140" width="148" height="33.9216" rx="16.9608" fill="white"/>
<path d="M63.214 157.596H62.4627V159.966H61.2337V153.658H63.2557C64.8789 153.658 65.607 154.331 65.607 155.606C65.607 156.636 65.0273 157.16 64.4059 157.396L65.7462 159.961H64.392L63.214 157.596ZM62.4627 154.655V156.585H63.1676C63.8865 156.585 64.2621 156.255 64.2621 155.606C64.2621 154.957 63.8865 154.655 63.1676 154.655H62.4627ZM70.866 159.21C70.5089 159.687 69.8365 160.095 68.9507 160.095C67.0817 160.095 66.5483 158.639 66.5483 157.438C66.5483 156.316 67.0724 154.897 68.7791 154.897C70.342 154.897 70.931 156.102 70.931 157.772V157.92H67.8191C67.833 158.866 68.5704 159.098 69.0109 159.098C69.4144 159.098 69.8086 158.899 70.124 158.514L70.866 159.21ZM68.7791 155.898C68.1344 155.898 67.8191 156.325 67.8191 157.011H69.6881C69.6881 156.325 69.4098 155.898 68.7791 155.898ZM73.398 160.095C72.4288 160.095 71.7795 159.534 71.7795 158.491C71.7795 157.262 72.8461 156.886 73.5696 156.886H74.6178V156.631C74.6178 156.028 74.2514 155.852 73.6346 155.852C73.2033 155.852 72.8461 155.931 72.4102 156.116L72.1319 155.184C72.7209 154.999 73.194 154.897 73.6346 154.897C74.7847 154.897 75.8236 155.3 75.8236 156.844V159.961H74.8172L74.7198 159.544C74.4601 159.817 73.9778 160.095 73.398 160.095ZM73.6485 159.098C73.9731 159.098 74.3673 158.885 74.6178 158.672V157.786H73.9406C73.4073 157.786 72.9853 157.953 72.9853 158.491C72.9853 158.913 73.2589 159.098 73.6485 159.098ZM77.2657 159.961V152.916H78.4715V159.961H77.2657ZM81.1658 153.992H79.96V152.735H81.1658V153.992ZM79.96 159.961V155.036H81.1658V159.961H79.96ZM86.1605 159.961H82.3761V159.163L84.6996 155.991H82.39V155.036H86.1605V155.843L83.8602 159.006H86.1605V159.961ZM88.6461 160.095C87.6768 160.095 87.0275 159.534 87.0275 158.491C87.0275 157.262 88.0942 156.886 88.8177 156.886H89.8658V156.631C89.8658 156.028 89.4994 155.852 88.8826 155.852C88.4513 155.852 88.0942 155.931 87.6583 156.116L87.38 155.184C87.969 154.999 88.442 154.897 88.8826 154.897C90.0328 154.897 91.0716 155.3 91.0716 156.844V159.961H90.0652L89.9678 159.544C89.7081 159.817 89.2258 160.095 88.6461 160.095ZM88.8965 159.098C89.2212 159.098 89.6154 158.885 89.8658 158.672V157.786H89.1887C88.6554 157.786 88.2333 157.953 88.2333 158.491C88.2333 158.913 88.507 159.098 88.8965 159.098ZM92.5138 155.036H93.5387L93.6361 155.527C94.1045 155.045 94.4523 154.901 94.8836 154.901C95.1063 154.901 95.3428 154.943 95.5468 155.059L95.2129 156.088C95.0552 156.019 94.879 155.954 94.6935 155.954C94.3457 155.954 94.021 156.135 93.7196 156.585V159.961H92.5138V155.036ZM102.215 159.177C101.784 159.752 101.214 160.095 100.333 160.095C99.1824 160.095 98.1111 159.186 98.1111 157.503C98.1111 156.112 98.881 154.897 100.365 154.897C101.246 154.897 101.784 155.258 102.215 155.833L101.492 156.506C101.214 156.153 100.922 155.898 100.365 155.898C99.6787 155.898 99.3169 156.515 99.3169 157.503C99.3169 158.486 99.7853 159.098 100.458 159.098C100.954 159.098 101.214 158.857 101.492 158.505L102.215 159.177ZM105.211 160.095C103.913 160.095 102.943 159.047 102.943 157.503C102.943 155.954 103.913 154.897 105.211 154.897C106.51 154.897 107.479 155.954 107.479 157.503C107.479 159.047 106.51 160.095 105.211 160.095ZM105.211 159.098C105.828 159.098 106.273 158.635 106.273 157.503C106.273 156.376 105.828 155.898 105.211 155.898C104.594 155.898 104.149 156.376 104.149 157.503C104.149 158.635 104.594 159.098 105.211 159.098ZM108.671 159.961V155.036H109.691L109.784 155.564C110.192 155.124 110.66 154.901 111.184 154.901C112.149 154.901 112.84 155.328 112.84 157.09V159.961H111.634V157.09C111.634 156.283 111.393 155.977 110.86 155.977C110.549 155.977 110.243 156.102 109.877 156.395V159.961H108.671ZM115.878 154.901C116.596 154.901 117.218 155.091 117.816 155.685L117.088 156.395C116.675 155.973 116.318 155.898 115.956 155.898C115.502 155.898 115.298 156.088 115.298 156.367C115.298 156.668 115.437 156.858 116.286 157.025C117.556 157.276 117.983 157.739 117.983 158.574C117.983 159.483 117.348 160.095 116.054 160.095C115.136 160.095 114.361 159.729 113.865 159.173L114.574 158.444C114.978 158.908 115.46 159.098 116.049 159.098C116.578 159.098 116.777 158.88 116.777 158.602C116.777 158.301 116.527 158.106 115.841 157.967C114.505 157.698 114.092 157.22 114.092 156.427C114.092 155.615 114.695 154.901 115.878 154.901ZM123.224 155.036V159.961H122.203L122.111 159.432C121.702 159.873 121.234 160.095 120.71 160.095C119.745 160.095 119.054 159.669 119.054 157.906V155.036H120.26V157.906C120.26 158.713 120.501 159.019 121.035 159.019C121.345 159.019 121.651 158.894 122.018 158.602V155.036H123.224ZM124.712 159.961V152.916H125.918V159.961H124.712ZM127.36 153.658H128.566V155.036H129.98V155.991H128.566V158.245C128.566 158.792 128.724 159.019 129.09 159.019C129.396 159.019 129.688 158.941 130.027 158.792L130.268 159.738C129.688 159.998 129.229 160.095 128.863 160.095C127.699 160.095 127.36 159.321 127.36 158.389V153.658ZM132.489 160.095C131.52 160.095 130.871 159.534 130.871 158.491C130.871 157.262 131.937 156.886 132.661 156.886H133.709V156.631C133.709 156.028 133.343 155.852 132.726 155.852C132.294 155.852 131.937 155.931 131.501 156.116L131.223 155.184C131.812 154.999 132.285 154.897 132.726 154.897C133.876 154.897 134.915 155.3 134.915 156.844V159.961H133.908L133.811 159.544C133.551 159.817 133.069 160.095 132.489 160.095ZM132.74 159.098C133.064 159.098 133.458 158.885 133.709 158.672V157.786H133.032C132.498 157.786 132.076 157.953 132.076 158.491C132.076 158.913 132.35 159.098 132.74 159.098Z" fill="black"/>
<defs>
<linearGradient id="paint0_linear_304_44711" x1="187.859" y1="-3.04752e-06" x2="187.859" y2="197" gradientUnits="userSpaceOnUse">
<stop stop-opacity="0"/>
<stop offset="0.4" stop-opacity="0.55"/>
<stop offset="1" stop-opacity="0.60"/>
</linearGradient>
</defs>
</svg>
