<svg width="1440" height="329" viewBox="0 0 1440 329" fill="none" xmlns="http://www.w3.org/2000/svg">
<rect width="1440" height="120" fill="url(#paint0_linear_304_45133)"/>
<rect width="1440" height="209" transform="translate(0 120)" fill="url(#paint1_linear_304_45133)"/>
<rect x="60" y="219" width="183" height="50" rx="25" fill="white"/>
<path d="M100.226 245.514H99.1184V249.007H97.3069V239.71H100.287C102.68 239.71 103.753 240.701 103.753 242.581C103.753 244.099 102.899 244.871 101.983 245.22L103.958 249H101.962L100.226 245.514ZM99.1184 241.18V244.023H100.157C101.217 244.023 101.771 243.538 101.771 242.581C101.771 241.624 101.217 241.18 100.157 241.18H99.1184ZM111.505 247.893C110.978 248.597 109.987 249.198 108.682 249.198C105.927 249.198 105.141 247.052 105.141 245.281C105.141 243.627 105.913 241.535 108.429 241.535C110.732 241.535 111.601 243.312 111.601 245.773V245.992H107.014C107.034 247.387 108.121 247.729 108.77 247.729C109.365 247.729 109.946 247.435 110.411 246.867L111.505 247.893ZM108.429 243.012C107.478 243.012 107.014 243.641 107.014 244.652H109.769C109.769 243.641 109.358 243.012 108.429 243.012ZM115.237 249.198C113.808 249.198 112.851 248.371 112.851 246.833C112.851 245.021 114.424 244.468 115.49 244.468H117.035V244.092C117.035 243.203 116.495 242.943 115.586 242.943C114.95 242.943 114.424 243.06 113.781 243.333L113.371 241.959C114.239 241.686 114.936 241.535 115.586 241.535C117.281 241.535 118.812 242.13 118.812 244.406V249H117.329L117.185 248.385C116.802 248.788 116.091 249.198 115.237 249.198ZM115.606 247.729C116.085 247.729 116.666 247.414 117.035 247.1V245.794H116.037C115.251 245.794 114.629 246.04 114.629 246.833C114.629 247.455 115.032 247.729 115.606 247.729ZM120.938 249V238.616H122.715V249H120.938ZM126.687 240.202H124.909V238.35H126.687V240.202ZM124.909 249V241.74H126.687V249H124.909ZM134.049 249H128.471V247.824L131.895 243.148H128.491V241.74H134.049V242.93L130.658 247.592H134.049V249ZM137.712 249.198C136.284 249.198 135.327 248.371 135.327 246.833C135.327 245.021 136.899 244.468 137.965 244.468H139.51V244.092C139.51 243.203 138.97 242.943 138.061 242.943C137.425 242.943 136.899 243.06 136.256 243.333L135.846 241.959C136.714 241.686 137.412 241.535 138.061 241.535C139.756 241.535 141.288 242.13 141.288 244.406V249H139.804L139.661 248.385C139.278 248.788 138.567 249.198 137.712 249.198ZM138.082 247.729C138.56 247.729 139.141 247.414 139.51 247.1V245.794H138.512C137.726 245.794 137.104 246.04 137.104 246.833C137.104 247.455 137.507 247.729 138.082 247.729ZM143.413 241.74H144.924L145.068 242.465C145.758 241.754 146.271 241.542 146.907 241.542C147.235 241.542 147.583 241.604 147.884 241.774L147.392 243.292C147.159 243.189 146.9 243.094 146.626 243.094C146.114 243.094 145.635 243.36 145.191 244.023V249H143.413V241.74ZM157.714 247.845C157.078 248.692 156.237 249.198 154.938 249.198C153.243 249.198 151.664 247.858 151.664 245.377C151.664 243.326 152.799 241.535 154.986 241.535C156.285 241.535 157.078 242.068 157.714 242.916L156.647 243.907C156.237 243.388 155.806 243.012 154.986 243.012C153.974 243.012 153.441 243.921 153.441 245.377C153.441 246.826 154.132 247.729 155.123 247.729C155.854 247.729 156.237 247.373 156.647 246.854L157.714 247.845ZM162.129 249.198C160.215 249.198 158.787 247.653 158.787 245.377C158.787 243.094 160.215 241.535 162.129 241.535C164.043 241.535 165.472 243.094 165.472 245.377C165.472 247.653 164.043 249.198 162.129 249.198ZM162.129 247.729C163.039 247.729 163.695 247.045 163.695 245.377C163.695 243.716 163.039 243.012 162.129 243.012C161.22 243.012 160.564 243.716 160.564 245.377C160.564 247.045 161.22 247.729 162.129 247.729ZM167.229 249V241.74H168.733L168.869 242.52C169.471 241.87 170.161 241.542 170.934 241.542C172.356 241.542 173.374 242.171 173.374 244.769V249H171.597V244.769C171.597 243.579 171.241 243.128 170.455 243.128C169.997 243.128 169.546 243.312 169.006 243.743V249H167.229ZM177.851 241.542C178.911 241.542 179.827 241.822 180.709 242.697L179.636 243.743C179.027 243.121 178.501 243.012 177.968 243.012C177.298 243.012 176.997 243.292 176.997 243.702C176.997 244.146 177.202 244.427 178.453 244.673C180.326 245.042 180.955 245.726 180.955 246.956C180.955 248.296 180.018 249.198 178.111 249.198C176.758 249.198 175.616 248.658 174.885 247.838L175.931 246.765C176.525 247.448 177.236 247.729 178.104 247.729C178.884 247.729 179.178 247.407 179.178 246.997C179.178 246.553 178.808 246.266 177.797 246.061C175.828 245.664 175.22 244.96 175.22 243.791C175.22 242.595 176.108 241.542 177.851 241.542ZM188.679 241.74V249H187.175L187.039 248.221C186.437 248.87 185.747 249.198 184.974 249.198C183.552 249.198 182.534 248.569 182.534 245.972V241.74H184.311V245.972C184.311 247.161 184.667 247.612 185.453 247.612C185.911 247.612 186.362 247.428 186.902 246.997V241.74H188.679ZM190.873 249V238.616H192.651V249H190.873ZM194.776 239.71H196.554V241.74H198.639V243.148H196.554V246.471C196.554 247.277 196.786 247.612 197.326 247.612C197.777 247.612 198.208 247.496 198.707 247.277L199.063 248.672C198.208 249.055 197.531 249.198 196.991 249.198C195.275 249.198 194.776 248.057 194.776 246.683V239.71ZM202.337 249.198C200.908 249.198 199.951 248.371 199.951 246.833C199.951 245.021 201.523 244.468 202.59 244.468H204.135V244.092C204.135 243.203 203.594 242.943 202.685 242.943C202.05 242.943 201.523 243.06 200.881 243.333L200.47 241.959C201.339 241.686 202.036 241.535 202.685 241.535C204.381 241.535 205.912 242.13 205.912 244.406V249H204.428L204.285 248.385C203.902 248.788 203.191 249.198 202.337 249.198ZM202.706 247.729C203.184 247.729 203.765 247.414 204.135 247.1V245.794H203.136C202.35 245.794 201.728 246.04 201.728 246.833C201.728 247.455 202.132 247.729 202.706 247.729Z" fill="#141413"/>
<path opacity="0.99" d="M65.292 195.457H62.5576L62.0254 197H61.1465L63.5195 190.364H64.4229L66.6738 197H65.8096L65.292 195.457ZM62.7969 194.744H65.0527L63.9443 191.438L62.7969 194.744ZM71.6836 191.814V197H70.9561L70.8975 196.248C70.4678 196.712 69.916 197.146 69.1641 197.146C68.207 197.146 67.543 196.731 67.543 194.998V191.814H68.3828V194.998C68.3828 196.087 68.7295 196.395 69.3154 196.395C69.96 196.395 70.4531 195.921 70.8438 195.525V191.814H71.6836ZM73.2119 190.364H74.0518V191.814H75.9707V192.508H74.0518V195.276C74.0518 196.048 74.3008 196.39 74.9014 196.39C75.292 196.39 75.7412 196.243 76.0684 196.082L76.2734 196.766C75.6631 197.039 75.1797 197.142 74.7939 197.142C73.5684 197.142 73.2119 196.326 73.2119 195.345V190.364ZM78.998 197.142C77.6406 197.142 76.7471 196.038 76.7471 194.412C76.7471 192.781 77.6406 191.668 78.998 191.668C80.3506 191.668 81.2441 192.781 81.2441 194.412C81.2441 196.038 80.3506 197.142 78.998 197.142ZM78.998 196.429C79.9258 196.429 80.4043 195.672 80.4043 194.412C80.4043 193.157 79.9258 192.386 78.998 192.386C78.0654 192.386 77.5869 193.157 77.5869 194.412C77.5869 195.672 78.0654 196.429 78.998 196.429ZM82.4941 197V191.814H83.2168L83.2754 192.566C83.7051 192.103 84.2568 191.668 85.0088 191.668C85.9658 191.668 86.6299 192.083 86.6299 193.816V197H85.79V193.816C85.79 192.723 85.4434 192.42 84.8574 192.42C84.2178 192.42 83.7197 192.894 83.334 193.289V197H82.4941ZM90.0723 197.142C88.7148 197.142 87.8213 196.038 87.8213 194.412C87.8213 192.781 88.7148 191.668 90.0723 191.668C91.4248 191.668 92.3184 192.781 92.3184 194.412C92.3184 196.038 91.4248 197.142 90.0723 197.142ZM90.0723 196.429C91 196.429 91.4785 195.672 91.4785 194.412C91.4785 193.157 91 192.386 90.0723 192.386C89.1396 192.386 88.6611 193.157 88.6611 194.412C88.6611 195.672 89.1396 196.429 90.0723 196.429ZM93.5684 197V191.814H94.3203L94.3691 192.469C94.7354 191.985 95.2529 191.668 95.8389 191.668C96.3955 191.668 96.8008 191.897 97.0498 192.454C97.4648 191.951 98.0264 191.668 98.5928 191.668C99.6133 191.668 100.092 192.366 100.092 193.328V197H99.252V193.494C99.252 192.713 98.9492 192.42 98.4512 192.42C97.9775 192.42 97.4551 192.83 97.2402 193.201C97.25 193.431 97.25 193.362 97.25 193.523V197H96.4102V193.494C96.4102 192.713 96.1074 192.42 95.6094 192.42C95.1797 192.42 94.75 192.737 94.4082 193.211V197H93.5684ZM102.865 188.841H103.817L102.401 190.628H101.625L102.865 188.841ZM101.625 197V191.814H102.465V197H101.625ZM105.331 197.151C104.398 197.151 103.632 196.717 103.632 195.511C103.632 194.217 104.735 193.831 105.595 193.831H106.874V193.46C106.874 192.693 106.435 192.361 105.604 192.361C105.087 192.361 104.647 192.498 104.237 192.664L104.027 191.985C104.564 191.795 105.106 191.668 105.604 191.668C106.825 191.668 107.714 192.186 107.714 193.562V197H107.006L106.942 196.375C106.649 196.741 105.995 197.151 105.331 197.151ZM105.448 196.434C106.005 196.434 106.537 196.048 106.874 195.682V194.5H105.771C104.931 194.5 104.472 194.871 104.472 195.511C104.472 196.15 104.848 196.434 105.448 196.434ZM112.948 191.668C113.676 191.668 114.301 191.922 114.818 192.562L114.262 193.04C113.9 192.576 113.466 192.386 112.987 192.386C112.289 192.386 111.991 192.684 111.991 193.118C111.991 193.602 112.274 193.841 113.339 194.036C114.599 194.275 115.087 194.764 115.087 195.599C115.087 196.565 114.384 197.142 113.124 197.142C112.206 197.142 111.474 196.746 111.01 196.209L111.547 195.682C111.947 196.15 112.46 196.429 113.124 196.429C113.886 196.429 114.247 196.102 114.247 195.613C114.247 195.174 113.905 194.881 112.987 194.705C111.557 194.432 111.151 193.934 111.151 193.143C111.151 192.342 111.752 191.668 112.948 191.668ZM120.307 191.814V197H119.579L119.521 196.248C119.091 196.712 118.539 197.146 117.787 197.146C116.83 197.146 116.166 196.731 116.166 194.998V191.814H117.006V194.998C117.006 196.087 117.353 196.395 117.938 196.395C118.583 196.395 119.076 195.921 119.467 195.525V191.814H120.307ZM122.782 190.628H121.835V189.656H122.782V190.628ZM120.023 198.411H120.849C121.522 198.411 121.889 197.991 121.889 197V191.814H122.729V196.946C122.729 198.431 122.084 199.104 120.912 199.104H120.023V198.411ZM128.261 196.229C127.826 196.751 127.191 197.142 126.342 197.142C124.657 197.142 123.974 195.872 123.974 194.383C123.974 192.952 124.652 191.668 126.205 191.668C127.763 191.668 128.397 192.947 128.397 194.5V194.69H124.843C124.882 195.887 125.502 196.429 126.366 196.429C126.938 196.429 127.362 196.16 127.743 195.716L128.261 196.229ZM126.205 192.386C125.258 192.386 124.882 193.157 124.853 194.017H127.533C127.509 193.157 127.143 192.386 126.205 192.386ZM129.56 190.364H130.399V191.814H132.318V192.508H130.399V195.276C130.399 196.048 130.648 196.39 131.249 196.39C131.64 196.39 132.089 196.243 132.416 196.082L132.621 196.766C132.011 197.039 131.527 197.142 131.142 197.142C129.916 197.142 129.56 196.326 129.56 195.345V190.364ZM134.804 197.151C133.871 197.151 133.104 196.717 133.104 195.511C133.104 194.217 134.208 193.831 135.067 193.831H136.347V193.46C136.347 192.693 135.907 192.361 135.077 192.361C134.56 192.361 134.12 192.498 133.71 192.664L133.5 191.985C134.037 191.795 134.579 191.668 135.077 191.668C136.298 191.668 137.187 192.186 137.187 193.562V197H136.479L136.415 196.375C136.122 196.741 135.468 197.151 134.804 197.151ZM134.921 196.434C135.478 196.434 136.01 196.048 136.347 195.682V194.5H135.243C134.403 194.5 133.944 194.871 133.944 195.511C133.944 196.15 134.32 196.434 134.921 196.434ZM142.187 197.151C141.254 197.151 140.487 196.717 140.487 195.511C140.487 194.217 141.591 193.831 142.45 193.831H143.729V193.46C143.729 192.693 143.29 192.361 142.46 192.361C141.942 192.361 141.503 192.498 141.093 192.664L140.883 191.985C141.42 191.795 141.962 191.668 142.46 191.668C143.681 191.668 144.569 192.186 144.569 193.562V197H143.861L143.798 196.375C143.505 196.741 142.851 197.151 142.187 197.151ZM142.304 196.434C142.86 196.434 143.393 196.048 143.729 195.682V194.5H142.626C141.786 194.5 141.327 194.871 141.327 195.511C141.327 196.15 141.703 196.434 142.304 196.434ZM148.231 190.364H149.071V191.814H150.99V192.508H149.071V195.276C149.071 196.048 149.32 196.39 149.921 196.39C150.312 196.39 150.761 196.243 151.088 196.082L151.293 196.766C150.683 197.039 150.199 197.142 149.813 197.142C148.588 197.142 148.231 196.326 148.231 195.345V190.364ZM153.085 190.628H152.138V189.656H153.085V190.628ZM152.191 197V191.814H153.031V197H152.191ZM154.613 199.1V191.814H155.37L155.443 192.591C155.834 191.897 156.449 191.668 157.03 191.668C158.134 191.668 159.081 192.557 159.081 194.417C159.081 196.272 158.134 197.142 157.03 197.142C156.449 197.142 155.829 196.917 155.448 196.18V199.1H154.613ZM156.83 196.424C157.719 196.424 158.241 195.691 158.241 194.417C158.241 193.138 157.719 192.381 156.83 192.381C155.941 192.381 155.419 193.133 155.419 194.417C155.419 195.691 155.941 196.424 156.83 196.424ZM162.26 197.142C160.902 197.142 160.009 196.038 160.009 194.412C160.009 192.781 160.902 191.668 162.26 191.668C163.612 191.668 164.506 192.781 164.506 194.412C164.506 196.038 163.612 197.142 162.26 197.142ZM162.26 196.429C163.188 196.429 163.666 195.672 163.666 194.412C163.666 193.157 163.188 192.386 162.26 192.386C161.327 192.386 160.849 193.157 160.849 194.412C160.849 195.672 161.327 196.429 162.26 196.429ZM169.652 191.668C170.233 191.668 170.873 191.893 171.259 192.63V189.524H172.089V197H171.337L171.269 196.219C170.883 196.932 170.224 197.142 169.672 197.142C168.598 197.142 167.621 196.258 167.621 194.397C167.621 192.537 168.573 191.668 169.652 191.668ZM169.862 192.386C168.979 192.386 168.461 193.118 168.461 194.397C168.461 195.672 168.979 196.429 169.862 196.429C170.756 196.429 171.283 195.677 171.283 194.397C171.283 193.118 170.756 192.386 169.862 192.386ZM177.626 196.229C177.191 196.751 176.557 197.142 175.707 197.142C174.022 197.142 173.339 195.872 173.339 194.383C173.339 192.952 174.018 191.668 175.57 191.668C177.128 191.668 177.763 192.947 177.763 194.5V194.69H174.208C174.247 195.887 174.867 196.429 175.731 196.429C176.303 196.429 176.728 196.16 177.108 195.716L177.626 196.229ZM175.57 192.386C174.623 192.386 174.247 193.157 174.218 194.017H176.898C176.874 193.157 176.508 192.386 175.57 192.386ZM184.906 196.214C184.428 196.834 183.891 197.142 183.095 197.142C181.752 197.142 180.829 196.131 180.829 194.412C180.829 192.854 181.664 191.668 183.109 191.668C183.905 191.668 184.428 191.99 184.906 192.615L184.374 193.113C184.062 192.684 183.695 192.386 183.109 192.386C182.177 192.386 181.669 193.167 181.669 194.412C181.669 195.657 182.182 196.429 183.153 196.429C183.715 196.429 184.062 196.146 184.374 195.716L184.906 196.214ZM187.895 197.142C186.537 197.142 185.644 196.038 185.644 194.412C185.644 192.781 186.537 191.668 187.895 191.668C189.247 191.668 190.141 192.781 190.141 194.412C190.141 196.038 189.247 197.142 187.895 197.142ZM187.895 196.429C188.822 196.429 189.301 195.672 189.301 194.412C189.301 193.157 188.822 192.386 187.895 192.386C186.962 192.386 186.483 193.157 186.483 194.412C186.483 195.672 186.962 196.429 187.895 196.429ZM191.391 197V191.814H192.113L192.172 192.566C192.602 192.103 193.153 191.668 193.905 191.668C194.862 191.668 195.526 192.083 195.526 193.816V197H194.687V193.816C194.687 192.723 194.34 192.42 193.754 192.42C193.114 192.42 192.616 192.894 192.23 193.289V197H191.391ZM198.764 191.668C199.345 191.668 199.984 191.893 200.37 192.63V189.524H201.2V197H200.448L200.38 196.219C199.994 196.932 199.335 197.142 198.783 197.142C197.709 197.142 196.732 196.258 196.732 194.397C196.732 192.537 197.685 191.668 198.764 191.668ZM198.974 192.386C198.09 192.386 197.572 193.118 197.572 194.397C197.572 195.672 198.09 196.429 198.974 196.429C199.867 196.429 200.395 195.677 200.395 194.397C200.395 193.118 199.867 192.386 198.974 192.386ZM206.869 191.814V197H206.142L206.083 196.248C205.653 196.712 205.102 197.146 204.35 197.146C203.393 197.146 202.729 196.731 202.729 194.998V191.814H203.568V194.998C203.568 196.087 203.915 196.395 204.501 196.395C205.146 196.395 205.639 195.921 206.029 195.525V191.814H206.869ZM212.191 196.214C211.713 196.834 211.176 197.142 210.38 197.142C209.037 197.142 208.114 196.131 208.114 194.412C208.114 192.854 208.949 191.668 210.395 191.668C211.19 191.668 211.713 191.99 212.191 192.615L211.659 193.113C211.347 192.684 210.98 192.386 210.395 192.386C209.462 192.386 208.954 193.167 208.954 194.412C208.954 195.657 209.467 196.429 210.438 196.429C211 196.429 211.347 196.146 211.659 195.716L212.191 196.214ZM217.006 196.214C216.527 196.834 215.99 197.142 215.194 197.142C213.852 197.142 212.929 196.131 212.929 194.412C212.929 192.854 213.764 191.668 215.209 191.668C216.005 191.668 216.527 191.99 217.006 192.615L216.474 193.113C216.161 192.684 215.795 192.386 215.209 192.386C214.276 192.386 213.769 193.167 213.769 194.412C213.769 195.657 214.281 196.429 215.253 196.429C215.814 196.429 216.161 196.146 216.474 195.716L217.006 196.214ZM219.032 190.628H218.085V189.656H219.032V190.628ZM218.139 197V191.814H218.979V197H218.139ZM223.036 188.841H223.988L222.572 190.628H221.796L223.036 188.841ZM222.475 197.142C221.117 197.142 220.224 196.038 220.224 194.412C220.224 192.781 221.117 191.668 222.475 191.668C223.827 191.668 224.721 192.781 224.721 194.412C224.721 196.038 223.827 197.142 222.475 197.142ZM222.475 196.429C223.402 196.429 223.881 195.672 223.881 194.412C223.881 193.157 223.402 192.386 222.475 192.386C221.542 192.386 221.063 193.157 221.063 194.412C221.063 195.672 221.542 196.429 222.475 196.429ZM225.971 197V191.814H226.693L226.752 192.566C227.182 192.103 227.733 191.668 228.485 191.668C229.442 191.668 230.106 192.083 230.106 193.816V197H229.267V193.816C229.267 192.723 228.92 192.42 228.334 192.42C227.694 192.42 227.196 192.894 226.811 193.289V197H225.971ZM232.655 195.794L231.527 198.914H230.736L231.659 195.794H232.655ZM239.682 196.214C239.203 196.834 238.666 197.142 237.87 197.142C236.527 197.142 235.604 196.131 235.604 194.412C235.604 192.854 236.439 191.668 237.885 191.668C238.681 191.668 239.203 191.99 239.682 192.615L239.149 193.113C238.837 192.684 238.471 192.386 237.885 192.386C236.952 192.386 236.444 193.167 236.444 194.412C236.444 195.657 236.957 196.429 237.929 196.429C238.49 196.429 238.837 196.146 239.149 195.716L239.682 196.214ZM242.67 197.142C241.312 197.142 240.419 196.038 240.419 194.412C240.419 192.781 241.312 191.668 242.67 191.668C244.022 191.668 244.916 192.781 244.916 194.412C244.916 196.038 244.022 197.142 242.67 197.142ZM242.67 196.429C243.598 196.429 244.076 195.672 244.076 194.412C244.076 193.157 243.598 192.386 242.67 192.386C241.737 192.386 241.259 193.157 241.259 194.412C241.259 195.672 241.737 196.429 242.67 196.429ZM246.166 197V191.814H246.889L246.947 192.566C247.377 192.103 247.929 191.668 248.681 191.668C249.638 191.668 250.302 192.083 250.302 193.816V197H249.462V193.816C249.462 192.723 249.115 192.42 248.529 192.42C247.89 192.42 247.392 192.894 247.006 193.289V197H246.166ZM253.539 191.668C254.12 191.668 254.76 191.893 255.146 192.63V189.524H255.976V197H255.224L255.155 196.219C254.77 196.932 254.11 197.142 253.559 197.142C252.484 197.142 251.508 196.258 251.508 194.397C251.508 192.537 252.46 191.668 253.539 191.668ZM253.749 192.386C252.865 192.386 252.348 193.118 252.348 194.397C252.348 195.672 252.865 196.429 253.749 196.429C254.643 196.429 255.17 195.677 255.17 194.397C255.17 193.118 254.643 192.386 253.749 192.386ZM258.456 190.628H257.509V189.656H258.456V190.628ZM257.562 197V191.814H258.402V197H257.562ZM263.725 196.214C263.246 196.834 262.709 197.142 261.913 197.142C260.57 197.142 259.647 196.131 259.647 194.412C259.647 192.854 260.482 191.668 261.928 191.668C262.724 191.668 263.246 191.99 263.725 192.615L263.192 193.113C262.88 192.684 262.514 192.386 261.928 192.386C260.995 192.386 260.487 193.167 260.487 194.412C260.487 195.657 261 196.429 261.972 196.429C262.533 196.429 262.88 196.146 263.192 195.716L263.725 196.214ZM265.751 190.628H264.804V189.656H265.751V190.628ZM264.857 197V191.814H265.697V197H264.857ZM269.193 197.142C267.836 197.142 266.942 196.038 266.942 194.412C266.942 192.781 267.836 191.668 269.193 191.668C270.546 191.668 271.439 192.781 271.439 194.412C271.439 196.038 270.546 197.142 269.193 197.142ZM269.193 196.429C270.121 196.429 270.6 195.672 270.6 194.412C270.6 193.157 270.121 192.386 269.193 192.386C268.261 192.386 267.782 193.157 267.782 194.412C267.782 195.672 268.261 196.429 269.193 196.429ZM272.689 197V191.814H273.412L273.471 192.566C273.9 192.103 274.452 191.668 275.204 191.668C276.161 191.668 276.825 192.083 276.825 193.816V197H275.985V193.816C275.985 192.723 275.639 192.42 275.053 192.42C274.413 192.42 273.915 192.894 273.529 193.289V197H272.689ZM282.304 196.229C281.869 196.751 281.234 197.142 280.385 197.142C278.7 197.142 278.017 195.872 278.017 194.383C278.017 192.952 278.695 191.668 280.248 191.668C281.806 191.668 282.44 192.947 282.44 194.5V194.69H278.886C278.925 195.887 279.545 196.429 280.409 196.429C280.98 196.429 281.405 196.16 281.786 195.716L282.304 196.229ZM280.248 192.386C279.301 192.386 278.925 193.157 278.896 194.017H281.576C281.552 193.157 281.186 192.386 280.248 192.386ZM285.175 191.668C285.902 191.668 286.527 191.922 287.045 192.562L286.488 193.04C286.127 192.576 285.692 192.386 285.214 192.386C284.516 192.386 284.218 192.684 284.218 193.118C284.218 193.602 284.501 193.841 285.565 194.036C286.825 194.275 287.313 194.764 287.313 195.599C287.313 196.565 286.61 197.142 285.351 197.142C284.433 197.142 283.7 196.746 283.236 196.209L283.773 195.682C284.174 196.15 284.687 196.429 285.351 196.429C286.112 196.429 286.474 196.102 286.474 195.613C286.474 195.174 286.132 194.881 285.214 194.705C283.783 194.432 283.378 193.934 283.378 193.143C283.378 192.342 283.979 191.668 285.175 191.668ZM292.348 191.668C292.929 191.668 293.568 191.893 293.954 192.63V189.524H294.784V197H294.032L293.964 196.219C293.578 196.932 292.919 197.142 292.367 197.142C291.293 197.142 290.316 196.258 290.316 194.397C290.316 192.537 291.269 191.668 292.348 191.668ZM292.558 192.386C291.674 192.386 291.156 193.118 291.156 194.397C291.156 195.672 291.674 196.429 292.558 196.429C293.451 196.429 293.979 195.677 293.979 194.397C293.979 193.118 293.451 192.386 292.558 192.386ZM300.321 196.229C299.887 196.751 299.252 197.142 298.402 197.142C296.718 197.142 296.034 195.872 296.034 194.383C296.034 192.952 296.713 191.668 298.266 191.668C299.823 191.668 300.458 192.947 300.458 194.5V194.69H296.903C296.942 195.887 297.562 196.429 298.427 196.429C298.998 196.429 299.423 196.16 299.804 195.716L300.321 196.229ZM298.266 192.386C297.318 192.386 296.942 193.157 296.913 194.017H299.594C299.569 193.157 299.203 192.386 298.266 192.386ZM301.674 197V189.583H302.514V197H301.674ZM306.229 190.364H307.069V191.814H308.988V192.508H307.069V195.276C307.069 196.048 307.318 196.39 307.919 196.39C308.31 196.39 308.759 196.243 309.086 196.082L309.291 196.766C308.681 197.039 308.197 197.142 307.812 197.142C306.586 197.142 306.229 196.326 306.229 195.345V190.364ZM314.052 196.229C313.617 196.751 312.982 197.142 312.133 197.142C310.448 197.142 309.765 195.872 309.765 194.383C309.765 192.952 310.443 191.668 311.996 191.668C313.554 191.668 314.188 192.947 314.188 194.5V194.69H310.634C310.673 195.887 311.293 196.429 312.157 196.429C312.729 196.429 313.153 196.16 313.534 195.716L314.052 196.229ZM311.996 192.386C311.049 192.386 310.673 193.157 310.644 194.017H313.324C313.3 193.157 312.934 192.386 311.996 192.386ZM315.404 191.814H316.117L316.181 192.513C316.649 191.932 317.074 191.668 317.538 191.668C317.807 191.668 318.075 191.736 318.31 191.844L318.061 192.566C317.914 192.503 317.67 192.41 317.45 192.41C317.025 192.41 316.635 192.713 316.244 193.328V197H315.404V191.814ZM319.223 191.814H319.936L319.999 192.513C320.468 191.932 320.893 191.668 321.356 191.668C321.625 191.668 321.894 191.736 322.128 191.844L321.879 192.566C321.732 192.503 321.488 192.41 321.269 192.41C320.844 192.41 320.453 192.713 320.062 193.328V197H319.223V191.814ZM323.041 191.814H323.754L323.817 192.513C324.286 191.932 324.711 191.668 325.175 191.668C325.443 191.668 325.712 191.736 325.946 191.844L325.697 192.566C325.551 192.503 325.307 192.41 325.087 192.41C324.662 192.41 324.271 192.713 323.881 193.328V197H323.041V191.814ZM330.624 196.229C330.189 196.751 329.555 197.142 328.705 197.142C327.021 197.142 326.337 195.872 326.337 194.383C326.337 192.952 327.016 191.668 328.568 191.668C330.126 191.668 330.761 192.947 330.761 194.5V194.69H327.206C327.245 195.887 327.865 196.429 328.729 196.429C329.301 196.429 329.726 196.16 330.106 195.716L330.624 196.229ZM328.568 192.386C327.621 192.386 327.245 193.157 327.216 194.017H329.896C329.872 193.157 329.506 192.386 328.568 192.386ZM331.977 197V191.814H332.699L332.758 192.566C333.188 192.103 333.739 191.668 334.491 191.668C335.448 191.668 336.112 192.083 336.112 193.816V197H335.272V193.816C335.272 192.723 334.926 192.42 334.34 192.42C333.7 192.42 333.202 192.894 332.816 193.289V197H331.977ZM339.555 197.142C338.197 197.142 337.304 196.038 337.304 194.412C337.304 192.781 338.197 191.668 339.555 191.668C340.907 191.668 341.801 192.781 341.801 194.412C341.801 196.038 340.907 197.142 339.555 197.142ZM339.555 196.429C340.482 196.429 340.961 195.672 340.961 194.412C340.961 193.157 340.482 192.386 339.555 192.386C338.622 192.386 338.144 193.157 338.144 194.412C338.144 195.672 338.622 196.429 339.555 196.429ZM349.218 191.814L346.234 199.114H345.336L346.332 196.658L344.364 191.814H345.268L346.801 195.74L348.349 191.814H349.218ZM355.834 196.214C355.355 196.834 354.818 197.142 354.022 197.142C352.68 197.142 351.757 196.131 351.757 194.412C351.757 192.854 352.592 191.668 354.037 191.668C354.833 191.668 355.355 191.99 355.834 192.615L355.302 193.113C354.989 192.684 354.623 192.386 354.037 192.386C353.104 192.386 352.597 193.167 352.597 194.412C352.597 195.657 353.109 196.429 354.081 196.429C354.643 196.429 354.989 196.146 355.302 195.716L355.834 196.214ZM358.822 197.142C357.465 197.142 356.571 196.038 356.571 194.412C356.571 192.781 357.465 191.668 358.822 191.668C360.175 191.668 361.068 192.781 361.068 194.412C361.068 196.038 360.175 197.142 358.822 197.142ZM358.822 196.429C359.75 196.429 360.229 195.672 360.229 194.412C360.229 193.157 359.75 192.386 358.822 192.386C357.89 192.386 357.411 193.157 357.411 194.412C357.411 195.672 357.89 196.429 358.822 196.429ZM362.318 197V191.814H363.041L363.1 192.566C363.529 192.103 364.081 191.668 364.833 191.668C365.79 191.668 366.454 192.083 366.454 193.816V197H365.614V193.816C365.614 192.723 365.268 192.42 364.682 192.42C364.042 192.42 363.544 192.894 363.158 193.289V197H362.318ZM369.691 191.668C370.272 191.668 370.912 191.893 371.298 192.63V189.524H372.128V197H371.376L371.308 196.219C370.922 196.932 370.263 197.142 369.711 197.142C368.637 197.142 367.66 196.258 367.66 194.397C367.66 192.537 368.612 191.668 369.691 191.668ZM369.901 192.386C369.018 192.386 368.5 193.118 368.5 194.397C368.5 195.672 369.018 196.429 369.901 196.429C370.795 196.429 371.322 195.677 371.322 194.397C371.322 193.118 370.795 192.386 369.901 192.386ZM374.608 190.628H373.661V189.656H374.608V190.628ZM373.715 197V191.814H374.555V197H373.715ZM379.877 196.214C379.398 196.834 378.861 197.142 378.065 197.142C376.723 197.142 375.8 196.131 375.8 194.412C375.8 192.854 376.635 191.668 378.08 191.668C378.876 191.668 379.398 191.99 379.877 192.615L379.345 193.113C379.032 192.684 378.666 192.386 378.08 192.386C377.147 192.386 376.64 193.167 376.64 194.412C376.64 195.657 377.152 196.429 378.124 196.429C378.686 196.429 379.032 196.146 379.345 195.716L379.877 196.214ZM381.903 190.628H380.956V189.656H381.903V190.628ZM381.01 197V191.814H381.85V197H381.01ZM385.346 197.142C383.988 197.142 383.095 196.038 383.095 194.412C383.095 192.781 383.988 191.668 385.346 191.668C386.698 191.668 387.592 192.781 387.592 194.412C387.592 196.038 386.698 197.142 385.346 197.142ZM385.346 196.429C386.273 196.429 386.752 195.672 386.752 194.412C386.752 193.157 386.273 192.386 385.346 192.386C384.413 192.386 383.935 193.157 383.935 194.412C383.935 195.672 384.413 196.429 385.346 196.429ZM388.842 197V191.814H389.564L389.623 192.566C390.053 192.103 390.604 191.668 391.356 191.668C392.313 191.668 392.978 192.083 392.978 193.816V197H392.138V193.816C392.138 192.723 391.791 192.42 391.205 192.42C390.565 192.42 390.067 192.894 389.682 193.289V197H388.842ZM398.456 196.229C398.021 196.751 397.387 197.142 396.537 197.142C394.853 197.142 394.169 195.872 394.169 194.383C394.169 192.952 394.848 191.668 396.4 191.668C397.958 191.668 398.593 192.947 398.593 194.5V194.69H395.038C395.077 195.887 395.697 196.429 396.562 196.429C397.133 196.429 397.558 196.16 397.938 195.716L398.456 196.229ZM396.4 192.386C395.453 192.386 395.077 193.157 395.048 194.017H397.729C397.704 193.157 397.338 192.386 396.4 192.386ZM401.327 191.668C402.055 191.668 402.68 191.922 403.197 192.562L402.641 193.04C402.279 192.576 401.845 192.386 401.366 192.386C400.668 192.386 400.37 192.684 400.37 193.118C400.37 193.602 400.653 193.841 401.718 194.036C402.978 194.275 403.466 194.764 403.466 195.599C403.466 196.565 402.763 197.142 401.503 197.142C400.585 197.142 399.853 196.746 399.389 196.209L399.926 195.682C400.326 196.15 400.839 196.429 401.503 196.429C402.265 196.429 402.626 196.102 402.626 195.613C402.626 195.174 402.284 194.881 401.366 194.705C399.936 194.432 399.53 193.934 399.53 193.143C399.53 192.342 400.131 191.668 401.327 191.668ZM408.5 191.668C409.081 191.668 409.721 191.893 410.106 192.63V189.524H410.937V197H410.185L410.116 196.219C409.73 196.932 409.071 197.142 408.52 197.142C407.445 197.142 406.469 196.258 406.469 194.397C406.469 192.537 407.421 191.668 408.5 191.668ZM408.71 192.386C407.826 192.386 407.309 193.118 407.309 194.397C407.309 195.672 407.826 196.429 408.71 196.429C409.604 196.429 410.131 195.677 410.131 194.397C410.131 193.118 409.604 192.386 408.71 192.386ZM416.474 196.229C416.039 196.751 415.404 197.142 414.555 197.142C412.87 197.142 412.187 195.872 412.187 194.383C412.187 192.952 412.865 191.668 414.418 191.668C415.976 191.668 416.61 192.947 416.61 194.5V194.69H413.056C413.095 195.887 413.715 196.429 414.579 196.429C415.15 196.429 415.575 196.16 415.956 195.716L416.474 196.229ZM414.418 192.386C413.471 192.386 413.095 193.157 413.065 194.017H415.746C415.722 193.157 415.355 192.386 414.418 192.386ZM417.826 197V189.583H418.666V197H417.826ZM426.176 196.214C425.697 196.834 425.16 197.142 424.364 197.142C423.021 197.142 422.099 196.131 422.099 194.412C422.099 192.854 422.934 191.668 424.379 191.668C425.175 191.668 425.697 191.99 426.176 192.615L425.644 193.113C425.331 192.684 424.965 192.386 424.379 192.386C423.446 192.386 422.938 193.167 422.938 194.412C422.938 195.657 423.451 196.429 424.423 196.429C424.984 196.429 425.331 196.146 425.644 195.716L426.176 196.214ZM427.309 197V189.583H428.148V197H427.309ZM430.624 190.628H429.677V189.656H430.624V190.628ZM429.73 197V191.814H430.57V197H429.73ZM432.152 197V191.814H432.904L432.953 192.469C433.319 191.985 433.837 191.668 434.423 191.668C434.979 191.668 435.385 191.897 435.634 192.454C436.049 191.951 436.61 191.668 437.177 191.668C438.197 191.668 438.676 192.366 438.676 193.328V197H437.836V193.494C437.836 192.713 437.533 192.42 437.035 192.42C436.562 192.42 436.039 192.83 435.824 193.201C435.834 193.431 435.834 193.362 435.834 193.523V197H434.994V193.494C434.994 192.713 434.691 192.42 434.193 192.42C433.764 192.42 433.334 192.737 432.992 193.211V197H432.152ZM441.493 197.151C440.561 197.151 439.794 196.717 439.794 195.511C439.794 194.217 440.897 193.831 441.757 193.831H443.036V193.46C443.036 192.693 442.597 192.361 441.767 192.361C441.249 192.361 440.81 192.498 440.399 192.664L440.189 191.985C440.727 191.795 441.269 191.668 441.767 191.668C442.987 191.668 443.876 192.186 443.876 193.562V197H443.168L443.104 196.375C442.812 196.741 442.157 197.151 441.493 197.151ZM441.61 196.434C442.167 196.434 442.699 196.048 443.036 195.682V194.5H441.933C441.093 194.5 440.634 194.871 440.634 195.511C440.634 196.15 441.01 196.434 441.61 196.434ZM446.259 197H445.253V195.979H446.259V197Z" fill="white"/>
<path d="M64.2422 139.125C65.7969 139.125 66.9844 139.906 67.6094 141.391L66.3906 141.938C66.0938 140.992 65.3594 140.305 64.2422 140.305C63.0312 140.305 62.2891 140.805 62.2891 141.938C62.2891 142.805 62.8438 143.461 64.4297 143.992C66.5781 144.711 67.8203 145.359 67.8203 147.242C67.8203 149.117 66.5625 150.227 64.2891 150.227C62.6719 150.227 61.5 149.594 60.6875 148.453L61.7812 147.641C62.1094 148.258 62.9766 149.055 64.2891 149.055C65.7812 149.055 66.4062 148.336 66.4062 147.312C66.4062 146.195 65.625 145.828 64.0312 145.273C62.1406 144.633 60.875 143.852 60.875 141.945C60.875 140.438 61.8125 139.125 64.2422 139.125ZM77.2422 139.383V146.375C77.2422 148.773 76.0781 150.227 73.5469 150.227C71.0234 150.227 69.8516 148.773 69.8516 146.375V139.383H71.2109V146.375C71.2109 148.18 71.9844 149.023 73.5469 149.023C75.1172 149.023 75.8828 148.18 75.8828 146.375V139.383H77.2422ZM87.1094 139.383L83.8672 150H82.1484L78.9141 139.383H80.25L83.0156 148.766L85.7734 139.383H87.1094ZM91.8281 140.555L95.0078 139.383H95.8906V148.891H98.0312V150H92.4062V148.891H94.5469V140.812L92.2031 141.641L91.8281 140.555ZM103.141 150.227C100.758 150.227 99.6641 148.336 99.6641 144.812C99.6641 141.297 100.758 139.055 103.141 139.055C105.516 139.055 106.617 141.297 106.617 144.812C106.617 148.336 105.516 150.227 103.141 150.227ZM103.141 149.086C104.484 149.086 105.297 147.984 105.297 144.812C105.297 141.648 104.484 140.195 103.141 140.195C101.797 140.195 100.977 141.648 100.977 144.812C100.977 147.984 101.797 149.086 103.141 149.086ZM111.453 150.227C109.07 150.227 107.977 148.336 107.977 144.812C107.977 141.297 109.07 139.055 111.453 139.055C113.828 139.055 114.93 141.297 114.93 144.812C114.93 148.336 113.828 150.227 111.453 150.227ZM111.453 149.086C112.797 149.086 113.609 147.984 113.609 144.812C113.609 141.648 112.797 140.195 111.453 140.195C110.109 140.195 109.289 141.648 109.289 144.812C109.289 147.984 110.109 149.086 111.453 149.086ZM118.211 143.922C116.82 143.922 116.078 142.695 116.078 141.461C116.078 140.227 116.836 138.992 118.211 138.992C119.602 138.992 120.344 140.227 120.344 141.461C120.344 142.695 119.602 143.922 118.211 143.922ZM123.195 139.297H124.242L118.516 150H117.469L123.195 139.297ZM118.211 142.953C118.945 142.953 119.32 142.312 119.32 141.461C119.32 140.609 118.945 139.969 118.211 139.969C117.484 139.969 117.102 140.609 117.102 141.461C117.102 142.312 117.484 142.953 118.211 142.953ZM123.602 150.227C122.211 150.227 121.469 149 121.469 147.766C121.469 146.531 122.227 145.297 123.602 145.297C124.992 145.297 125.734 146.531 125.734 147.766C125.734 149 124.992 150.227 123.602 150.227ZM123.602 149.25C124.336 149.25 124.711 148.617 124.711 147.766C124.711 146.906 124.336 146.273 123.602 146.273C122.875 146.273 122.492 146.906 122.492 147.766C122.492 148.617 122.875 149.25 123.602 149.25ZM137.289 148.766C136.594 149.602 135.578 150.227 134.219 150.227C131.523 150.227 130.43 148.195 130.43 145.812C130.43 143.523 131.516 141.469 134 141.469C136.492 141.469 137.508 143.516 137.508 146V146.305H131.82C131.883 148.219 132.875 149.086 134.258 149.086C135.172 149.086 135.852 148.656 136.461 147.945L137.289 148.766ZM134 142.617C132.484 142.617 131.883 143.852 131.836 145.227H136.125C136.086 143.852 135.5 142.617 134 142.617ZM139.453 150V138.133H140.797V150H139.453ZM147.281 136.945H148.805L146.539 139.805H145.297L147.281 136.945ZM149.648 148.766C148.953 149.602 147.938 150.227 146.578 150.227C143.883 150.227 142.789 148.195 142.789 145.812C142.789 143.523 143.875 141.469 146.359 141.469C148.852 141.469 149.867 143.516 149.867 146V146.305H144.18C144.242 148.219 145.234 149.086 146.617 149.086C147.531 149.086 148.211 148.656 148.82 147.945L149.648 148.766ZM146.359 142.617C144.844 142.617 144.242 143.852 144.195 145.227H148.484C148.445 143.852 147.859 142.617 146.359 142.617ZM157.797 148.742C157.031 149.734 156.172 150.227 154.898 150.227C152.75 150.227 151.273 148.609 151.273 145.859C151.273 143.367 152.609 141.469 154.922 141.469C156.195 141.469 157.031 141.984 157.797 142.984L156.945 143.781C156.445 143.094 155.859 142.617 154.922 142.617C153.43 142.617 152.617 143.867 152.617 145.859C152.617 147.852 153.438 149.086 154.992 149.086C155.891 149.086 156.445 148.633 156.945 147.945L157.797 148.742ZM159.523 139.383H160.867V141.703H163.938V142.812H160.867V147.242C160.867 148.477 161.266 149.023 162.227 149.023C162.852 149.023 163.57 148.789 164.094 148.531L164.422 149.625C163.445 150.062 162.672 150.227 162.055 150.227C160.094 150.227 159.523 148.922 159.523 147.352V139.383ZM165.859 141.703H167L167.102 142.82C167.852 141.891 168.531 141.469 169.273 141.469C169.703 141.469 170.133 141.578 170.508 141.75L170.109 142.906C169.875 142.805 169.484 142.656 169.133 142.656C168.453 142.656 167.828 143.141 167.203 144.125V150H165.859V141.703ZM173.398 139.805H171.883V138.25H173.398V139.805ZM171.969 150V141.703H173.312V150H171.969ZM181.828 148.742C181.062 149.734 180.203 150.227 178.93 150.227C176.781 150.227 175.305 148.609 175.305 145.859C175.305 143.367 176.641 141.469 178.953 141.469C180.227 141.469 181.062 141.984 181.828 142.984L180.977 143.781C180.477 143.094 179.891 142.617 178.953 142.617C177.461 142.617 176.648 143.867 176.648 145.859C176.648 147.852 177.469 149.086 179.023 149.086C179.922 149.086 180.477 148.633 180.977 147.945L181.828 148.742ZM186.609 150.227C184.438 150.227 183.008 148.461 183.008 145.859C183.008 143.25 184.438 141.469 186.609 141.469C188.773 141.469 190.203 143.25 190.203 145.859C190.203 148.461 188.773 150.227 186.609 150.227ZM186.609 149.086C188.094 149.086 188.859 147.875 188.859 145.859C188.859 143.852 188.094 142.617 186.609 142.617C185.117 142.617 184.352 143.852 184.352 145.859C184.352 147.875 185.117 149.086 186.609 149.086ZM193.367 150H191.758V148.367H193.367V150ZM67.3828 176V171.164H62.7422V176H61.3828V165.383H62.7422V169.984H67.3828V165.383H68.75V176H67.3828ZM73.4609 176.242C71.9688 176.242 70.7422 175.547 70.7422 173.617C70.7422 171.547 72.5078 170.93 73.8828 170.93H75.9297V170.336C75.9297 169.109 75.2266 168.578 73.8984 168.578C73.0703 168.578 72.3672 168.797 71.7109 169.062L71.375 167.977C72.2344 167.672 73.1016 167.469 73.8984 167.469C75.8516 167.469 77.2734 168.297 77.2734 170.5V176H76.1406L76.0391 175C75.5703 175.586 74.5234 176.242 73.4609 176.242ZM73.6484 175.094C74.5391 175.094 75.3906 174.477 75.9297 173.891V172H74.1641C72.8203 172 72.0859 172.594 72.0859 173.617C72.0859 174.641 72.6875 175.094 73.6484 175.094ZM82.1484 167.469C83.3125 167.469 84.3125 167.875 85.1406 168.898L84.25 169.664C83.6719 168.922 82.9766 168.617 82.2109 168.617C81.0938 168.617 80.6172 169.094 80.6172 169.789C80.6172 170.562 81.0703 170.945 82.7734 171.258C84.7891 171.641 85.5703 172.422 85.5703 173.758C85.5703 175.305 84.4453 176.227 82.4297 176.227C80.9609 176.227 79.7891 175.594 79.0469 174.734L79.9062 173.891C80.5469 174.641 81.3672 175.086 82.4297 175.086C83.6484 175.086 84.2266 174.562 84.2266 173.781C84.2266 173.078 83.6797 172.609 82.2109 172.328C79.9219 171.891 79.2734 171.094 79.2734 169.828C79.2734 168.547 80.2344 167.469 82.1484 167.469ZM87.3047 165.383H88.6484V167.703H91.7188V168.812H88.6484V173.242C88.6484 174.477 89.0469 175.023 90.0078 175.023C90.6328 175.023 91.3516 174.789 91.875 174.531L92.2031 175.625C91.2266 176.062 90.4531 176.227 89.8359 176.227C87.875 176.227 87.3047 174.922 87.3047 173.352V165.383ZM95.6953 176.242C94.2031 176.242 92.9766 175.547 92.9766 173.617C92.9766 171.547 94.7422 170.93 96.1172 170.93H98.1641V170.336C98.1641 169.109 97.4609 168.578 96.1328 168.578C95.3047 168.578 94.6016 168.797 93.9453 169.062L93.6094 167.977C94.4688 167.672 95.3359 167.469 96.1328 167.469C98.0859 167.469 99.5078 168.297 99.5078 170.5V176H98.375L98.2734 175C97.8047 175.586 96.7578 176.242 95.6953 176.242ZM95.8828 175.094C96.7734 175.094 97.625 174.477 98.1641 173.891V172H96.3984C95.0547 172 94.3203 172.594 94.3203 173.617C94.3203 174.641 94.9219 175.094 95.8828 175.094ZM110.891 166.406H107.164L106.648 169.617C107.078 169.359 107.656 169.125 108.406 169.125C110.188 169.125 111.469 170.391 111.469 172.5C111.469 174.602 110.328 176.227 108.016 176.227C106.883 176.227 105.953 175.859 105.117 175.172L105.875 174.211C106.438 174.734 107.156 175.086 107.992 175.086C109.383 175.086 110.203 174.07 110.203 172.539C110.203 171.398 109.625 170.312 107.922 170.312C107.25 170.312 106.531 170.656 106.047 171.008L105.406 170.422L106.234 165.297H110.891V166.406ZM116.641 165.07C118.422 165.07 119.648 166.086 119.648 167.961C119.648 169.133 119.055 170 118.148 170.367C119.203 170.742 120.016 171.742 120.016 173.109C120.016 175.312 118.258 176.227 116.641 176.227C115.031 176.227 113.281 175.312 113.281 173.109C113.281 171.672 114.141 170.766 115.164 170.367C114.266 170.008 113.656 169.133 113.656 167.961C113.656 166.086 114.859 165.07 116.641 165.07ZM116.641 169.773C117.641 169.773 118.406 169.07 118.406 167.961C118.406 166.852 117.641 166.141 116.641 166.141C115.641 166.141 114.891 166.852 114.891 167.961C114.891 169.07 115.648 169.773 116.641 169.773ZM116.641 171.016C115.383 171.016 114.609 171.852 114.609 173.055C114.609 174.258 115.383 175.086 116.641 175.086C117.891 175.086 118.695 174.258 118.695 173.055C118.695 171.852 117.891 171.016 116.641 171.016ZM125.703 176V173.648H121.289V172.633L125.258 165.383H126.906V172.602H128.602V173.648H126.906V176H125.703ZM122.586 172.602H125.703V166.711L122.586 172.602ZM135.875 176L133.375 172.258L131.734 174.195V176H130.391V164.133H131.734V172.461L135.578 167.703H137.164L134.195 171.312L137.359 176H135.875ZM138.75 176V167.703H139.953L140.031 168.75C140.617 167.977 141.445 167.469 142.383 167.469C143.273 167.469 143.922 167.836 144.32 168.727C144.984 167.922 145.883 167.469 146.789 167.469C148.422 167.469 149.188 168.586 149.188 170.125V176H147.844V170.391C147.844 169.141 147.359 168.672 146.562 168.672C145.805 168.672 144.969 169.328 144.625 169.922C144.641 170.289 144.641 170.18 144.641 170.438V176H143.297V170.391C143.297 169.141 142.812 168.672 142.016 168.672C141.328 168.672 140.641 169.18 140.094 169.938V176H138.75ZM157.875 167.469C158.805 167.469 159.828 167.828 160.445 169.008V164.039H161.773V176H160.57L160.461 174.75C159.844 175.891 158.789 176.227 157.906 176.227C156.188 176.227 154.625 174.812 154.625 171.836C154.625 168.859 156.148 167.469 157.875 167.469ZM158.211 168.617C156.797 168.617 155.969 169.789 155.969 171.836C155.969 173.875 156.797 175.086 158.211 175.086C159.641 175.086 160.484 173.883 160.484 171.836C160.484 169.789 159.641 168.617 158.211 168.617ZM170.633 174.766C169.938 175.602 168.922 176.227 167.562 176.227C164.867 176.227 163.773 174.195 163.773 171.812C163.773 169.523 164.859 167.469 167.344 167.469C169.836 167.469 170.852 169.516 170.852 172V172.305H165.164C165.227 174.219 166.219 175.086 167.602 175.086C168.516 175.086 169.195 174.656 169.805 173.945L170.633 174.766ZM167.344 168.617C165.828 168.617 165.227 169.852 165.18 171.227H169.469C169.43 169.852 168.844 168.617 167.344 168.617ZM178.352 176.242C176.859 176.242 175.633 175.547 175.633 173.617C175.633 171.547 177.398 170.93 178.773 170.93H180.82V170.336C180.82 169.109 180.117 168.578 178.789 168.578C177.961 168.578 177.258 168.797 176.602 169.062L176.266 167.977C177.125 167.672 177.992 167.469 178.789 167.469C180.742 167.469 182.164 168.297 182.164 170.5V176H181.031L180.93 175C180.461 175.586 179.414 176.242 178.352 176.242ZM178.539 175.094C179.43 175.094 180.281 174.477 180.82 173.891V172H179.055C177.711 172 176.977 172.594 176.977 173.617C176.977 174.641 177.578 175.094 178.539 175.094ZM191.141 167.703V176H189.977L189.883 174.797C189.195 175.539 188.312 176.234 187.109 176.234C185.578 176.234 184.516 175.57 184.516 172.797V167.703H185.859V172.797C185.859 174.539 186.414 175.031 187.352 175.031C188.383 175.031 189.172 174.273 189.797 173.641V167.703H191.141ZM193.586 165.383H194.93V167.703H198V168.812H194.93V173.242C194.93 174.477 195.328 175.023 196.289 175.023C196.914 175.023 197.633 174.789 198.156 174.531L198.484 175.625C197.508 176.062 196.734 176.227 196.117 176.227C194.156 176.227 193.586 174.922 193.586 173.352V165.383ZM202.844 176.227C200.672 176.227 199.242 174.461 199.242 171.859C199.242 169.25 200.672 167.469 202.844 167.469C205.008 167.469 206.438 169.25 206.438 171.859C206.438 174.461 205.008 176.227 202.844 176.227ZM202.844 175.086C204.328 175.086 205.094 173.875 205.094 171.859C205.094 169.852 204.328 168.617 202.844 168.617C201.352 168.617 200.586 169.852 200.586 171.859C200.586 173.875 201.352 175.086 202.844 175.086ZM208.438 176V167.703H209.594L209.688 168.906C210.375 168.164 211.258 167.469 212.461 167.469C213.992 167.469 215.055 168.133 215.055 170.906V176H213.711V170.906C213.711 169.156 213.156 168.672 212.219 168.672C211.195 168.672 210.398 169.43 209.781 170.062V176H208.438ZM220.562 176.227C218.391 176.227 216.961 174.461 216.961 171.859C216.961 169.25 218.391 167.469 220.562 167.469C222.727 167.469 224.156 169.25 224.156 171.859C224.156 174.461 222.727 176.227 220.562 176.227ZM220.562 175.086C222.047 175.086 222.812 173.875 222.812 171.859C222.812 169.852 222.047 168.617 220.562 168.617C219.07 168.617 218.305 169.852 218.305 171.859C218.305 173.875 219.07 175.086 220.562 175.086ZM226.156 176V167.703H227.359L227.438 168.75C228.023 167.977 228.852 167.469 229.789 167.469C230.68 167.469 231.328 167.836 231.727 168.727C232.391 167.922 233.289 167.469 234.195 167.469C235.828 167.469 236.594 168.586 236.594 170.125V176H235.25V170.391C235.25 169.141 234.766 168.672 233.969 168.672C233.211 168.672 232.375 169.328 232.031 169.922C232.047 170.289 232.047 170.18 232.047 170.438V176H230.703V170.391C230.703 169.141 230.219 168.672 229.422 168.672C228.734 168.672 228.047 169.18 227.5 169.938V176H226.156ZM241.031 162.945H242.555L240.289 165.805H239.047L241.031 162.945ZM239.047 176V167.703H240.391V176H239.047ZM244.977 176.242C243.484 176.242 242.258 175.547 242.258 173.617C242.258 171.547 244.023 170.93 245.398 170.93H247.445V170.336C247.445 169.109 246.742 168.578 245.414 168.578C244.586 168.578 243.883 168.797 243.227 169.062L242.891 167.977C243.75 167.672 244.617 167.469 245.414 167.469C247.367 167.469 248.789 168.297 248.789 170.5V176H247.656L247.555 175C247.086 175.586 246.039 176.242 244.977 176.242ZM245.164 175.094C246.055 175.094 246.906 174.477 247.445 173.891V172H245.68C244.336 172 243.602 172.594 243.602 173.617C243.602 174.641 244.203 175.094 245.164 175.094ZM265.484 165.383L263.07 176H261.391L259.586 169.289L257.781 176H256.102L253.711 165.383H255.047L257.023 174.805L258.828 167.703H260.352L262.156 174.812L264.117 165.383H265.484ZM267.383 176V165.383H268.742V174.859H273.57V176H267.383ZM276.07 176V166.523H272.695V165.383H280.797V166.523H277.43V176H276.07ZM289.719 168.664C289.719 170.727 288.531 171.891 285.688 171.891H283.883V176.008H282.523V165.383H285.688C288.531 165.383 289.719 166.602 289.719 168.664ZM283.883 166.523V170.734H285.688C287.461 170.734 288.273 170.078 288.273 168.664C288.273 167.25 287.461 166.523 285.688 166.523H283.883ZM301.008 167.703L296.234 179.383H294.797L296.391 175.453L293.242 167.703H294.688L297.141 173.984L299.617 167.703H301.008ZM309.234 176V173.648H304.82V172.633L308.789 165.383H310.438V172.602H312.133V173.648H310.438V176H309.234ZM306.117 172.602H309.234V166.711L306.117 172.602ZM320.023 176H313.688V174.945L317.016 171.125C317.953 170.055 318.578 169.148 318.578 168.141C318.578 166.695 317.484 166.273 316.602 166.273C315.562 166.273 314.836 166.844 314.242 167.602L313.344 166.789C314.133 165.828 315.18 165.133 316.602 165.133C318.648 165.133 319.852 166.234 319.852 168.141C319.852 169.516 318.945 170.805 317.828 172.008L315.172 174.891H320.023V176ZM325.109 165.07C326.891 165.07 328.117 166.086 328.117 167.961C328.117 169.133 327.523 170 326.617 170.367C327.672 170.742 328.484 171.742 328.484 173.109C328.484 175.312 326.727 176.227 325.109 176.227C323.5 176.227 321.75 175.312 321.75 173.109C321.75 171.672 322.609 170.766 323.633 170.367C322.734 170.008 322.125 169.133 322.125 167.961C322.125 166.086 323.328 165.07 325.109 165.07ZM325.109 169.773C326.109 169.773 326.875 169.07 326.875 167.961C326.875 166.852 326.109 166.141 325.109 166.141C324.109 166.141 323.359 166.852 323.359 167.961C323.359 169.07 324.117 169.773 325.109 169.773ZM325.109 171.016C323.852 171.016 323.078 171.852 323.078 173.055C323.078 174.258 323.852 175.086 325.109 175.086C326.359 175.086 327.164 174.258 327.164 173.055C327.164 171.852 326.359 171.016 325.109 171.016ZM340.961 174.398C340.242 175.641 339.078 176.227 337.742 176.227C334.852 176.227 333.617 173.516 333.617 170.617C333.617 167.719 334.852 165.055 337.742 165.055C339.078 165.055 340.242 165.648 340.961 166.891L340.008 167.711C339.547 166.789 338.703 166.25 337.805 166.25C336.055 166.25 335.031 167.953 335.031 170.617C335.031 173.281 336.055 175.023 337.805 175.023C338.703 175.023 339.555 174.492 340.016 173.578L340.961 174.398ZM350.031 165.383L346.789 176H345.07L341.836 165.383H343.172L345.938 174.766L348.695 165.383H350.031ZM361.18 174.766C360.484 175.602 359.469 176.227 358.109 176.227C355.414 176.227 354.32 174.195 354.32 171.812C354.32 169.523 355.406 167.469 357.891 167.469C360.383 167.469 361.398 169.516 361.398 172V172.305H355.711C355.773 174.219 356.766 175.086 358.148 175.086C359.062 175.086 359.742 174.656 360.352 173.945L361.18 174.766ZM357.891 168.617C356.375 168.617 355.773 169.852 355.727 171.227H360.016C359.977 169.852 359.391 168.617 357.891 168.617ZM363.344 176V167.703H364.5L364.594 168.906C365.281 168.164 366.164 167.469 367.367 167.469C368.898 167.469 369.961 168.133 369.961 170.906V176H368.617V170.906C368.617 169.156 368.062 168.672 367.125 168.672C366.102 168.672 365.305 169.43 364.688 170.062V176H363.344ZM378.336 167.469C379.5 167.469 380.5 167.875 381.328 168.898L380.438 169.664C379.859 168.922 379.164 168.617 378.398 168.617C377.281 168.617 376.805 169.094 376.805 169.789C376.805 170.562 377.258 170.945 378.961 171.258C380.977 171.641 381.758 172.422 381.758 173.758C381.758 175.305 380.633 176.227 378.617 176.227C377.148 176.227 375.977 175.594 375.234 174.734L376.094 173.891C376.734 174.641 377.555 175.086 378.617 175.086C379.836 175.086 380.414 174.562 380.414 173.781C380.414 173.078 379.867 172.609 378.398 172.328C376.109 171.891 375.461 171.094 375.461 169.828C375.461 168.547 376.422 167.469 378.336 167.469ZM390.109 167.703V176H388.945L388.852 174.797C388.164 175.539 387.281 176.234 386.078 176.234C384.547 176.234 383.484 175.57 383.484 172.797V167.703H384.828V172.797C384.828 174.539 385.383 175.031 386.32 175.031C387.352 175.031 388.141 174.273 388.766 173.641V167.703H390.109ZM402.461 167.703L399.422 176H397.883L394.852 167.703H396.219L398.656 174.656L401.078 167.703H402.461ZM410.195 174.766C409.5 175.602 408.484 176.227 407.125 176.227C404.43 176.227 403.336 174.195 403.336 171.812C403.336 169.523 404.422 167.469 406.906 167.469C409.398 167.469 410.414 169.516 410.414 172V172.305H404.727C404.789 174.219 405.781 175.086 407.164 175.086C408.078 175.086 408.758 174.656 409.367 173.945L410.195 174.766ZM406.906 168.617C405.391 168.617 404.789 169.852 404.742 171.227H409.031C408.992 169.852 408.406 168.617 406.906 168.617ZM412.359 167.703H413.5L413.602 168.82C414.352 167.891 415.031 167.469 415.773 167.469C416.203 167.469 416.633 167.578 417.008 167.75L416.609 168.906C416.375 168.805 415.984 168.656 415.633 168.656C414.953 168.656 414.328 169.141 413.703 170.125V176H412.359V167.703ZM420.742 167.469C421.906 167.469 422.906 167.875 423.734 168.898L422.844 169.664C422.266 168.922 421.57 168.617 420.805 168.617C419.688 168.617 419.211 169.094 419.211 169.789C419.211 170.562 419.664 170.945 421.367 171.258C423.383 171.641 424.164 172.422 424.164 173.758C424.164 175.305 423.039 176.227 421.023 176.227C419.555 176.227 418.383 175.594 417.641 174.734L418.5 173.891C419.141 174.641 419.961 175.086 421.023 175.086C422.242 175.086 422.82 174.562 422.82 173.781C422.82 173.078 422.273 172.609 420.805 172.328C418.516 171.891 417.867 171.094 417.867 169.828C417.867 168.547 418.828 167.469 420.742 167.469ZM427.414 165.805H425.898V164.25H427.414V165.805ZM425.984 176V167.703H427.328V176H425.984ZM433.82 162.945H435.344L433.078 165.805H431.836L433.82 162.945ZM432.922 176.227C430.75 176.227 429.32 174.461 429.32 171.859C429.32 169.25 430.75 167.469 432.922 167.469C435.086 167.469 436.516 169.25 436.516 171.859C436.516 174.461 435.086 176.227 432.922 176.227ZM432.922 175.086C434.406 175.086 435.172 173.875 435.172 171.859C435.172 169.852 434.406 168.617 432.922 168.617C431.43 168.617 430.664 169.852 430.664 171.859C430.664 173.875 431.43 175.086 432.922 175.086ZM438.516 176V167.703H439.672L439.766 168.906C440.453 168.164 441.336 167.469 442.539 167.469C444.07 167.469 445.133 168.133 445.133 170.906V176H443.789V170.906C443.789 169.156 443.234 168.672 442.297 168.672C441.273 168.672 440.477 169.43 439.859 170.062V176H438.516ZM451.195 165.383H454.461C456.711 165.383 457.789 166.5 457.789 168.188C457.789 168.977 457.445 170.125 456.461 170.438C457.539 170.727 458.359 171.617 458.359 173.016C458.359 175.055 456.734 176 454.625 176H451.195V165.383ZM452.555 166.523V169.922H454.398C455.805 169.922 456.344 169.25 456.344 168.25C456.344 167.211 455.773 166.523 454.375 166.523H452.555ZM452.555 171.07V174.859H454.539C456.195 174.859 456.914 173.984 456.914 172.953C456.914 171.898 456.188 171.07 454.562 171.07H452.555ZM463.648 171.633H461.867V176.008H460.508V165.383H463.523C466.039 165.383 467.148 166.57 467.148 168.508C467.148 170.141 466.266 171.07 465.008 171.445L467.43 176H465.93L463.648 171.633ZM461.867 166.523V170.484H463.453C464.984 170.484 465.695 169.727 465.695 168.508C465.695 167.281 464.992 166.523 463.453 166.523H461.867ZM474.945 173.531H470.57L469.719 176H468.312L472.109 165.383H473.555L477.156 176H475.773L474.945 173.531ZM470.953 172.391H474.562L472.789 167.102L470.953 172.391ZM478.867 165.383H482.133C484.383 165.383 485.461 166.5 485.461 168.188C485.461 168.977 485.117 170.125 484.133 170.438C485.211 170.727 486.031 171.617 486.031 173.016C486.031 175.055 484.406 176 482.297 176H478.867V165.383ZM480.227 166.523V169.922H482.07C483.477 169.922 484.016 169.25 484.016 168.25C484.016 167.211 483.445 166.523 482.047 166.523H480.227ZM480.227 171.07V174.859H482.211C483.867 174.859 484.586 173.984 484.586 172.953C484.586 171.898 483.859 171.07 482.234 171.07H480.227ZM495.477 165.383V172.375C495.477 174.773 494.312 176.227 491.781 176.227C489.258 176.227 488.086 174.773 488.086 172.375V165.383H489.445V172.375C489.445 174.18 490.219 175.023 491.781 175.023C493.352 175.023 494.117 174.18 494.117 172.375V165.383H495.477ZM501.008 165.125C502.562 165.125 503.75 165.906 504.375 167.391L503.156 167.938C502.859 166.992 502.125 166.305 501.008 166.305C499.797 166.305 499.055 166.805 499.055 167.938C499.055 168.805 499.609 169.461 501.195 169.992C503.344 170.711 504.586 171.359 504.586 173.242C504.586 175.117 503.328 176.227 501.055 176.227C499.438 176.227 498.266 175.594 497.453 174.453L498.547 173.641C498.875 174.258 499.742 175.055 501.055 175.055C502.547 175.055 503.172 174.336 503.172 173.312C503.172 172.195 502.391 171.828 500.797 171.273C498.906 170.633 497.641 169.852 497.641 167.945C497.641 166.438 498.578 165.125 501.008 165.125ZM507.961 176H506.352V174.367H507.961V176Z" fill="white"/>
<defs>
<linearGradient id="paint0_linear_304_45133" x1="721.377" y1="-1.85636e-06" x2="721.377" y2="120" gradientUnits="userSpaceOnUse">
<stop stop-opacity="0"/>
<stop offset="1" stop-opacity="0.6"/>
</linearGradient>
<linearGradient id="paint1_linear_304_45133" x1="721.377" y1="-3.23315e-06" x2="721.377" y2="209" gradientUnits="userSpaceOnUse">
<stop stop-opacity="0.6"/>
<stop offset="1" stop-opacity="0.8"/>
</linearGradient>
</defs>
</svg>
