<svg width="375" height="308" viewBox="0 0 375 308" fill="none" xmlns="http://www.w3.org/2000/svg">
<rect width="375" height="308" fill="white"/>
<path d="M28.6191 56.3359C30.0742 56.3359 31.3242 56.8438 32.3594 58.123L31.2461 59.0801C30.5234 58.1523 29.6543 57.7715 28.6973 57.7715C27.3008 57.7715 26.7051 58.3672 26.7051 59.2363C26.7051 60.2031 27.2715 60.6816 29.4004 61.0723C31.9199 61.5508 32.8965 62.5273 32.8965 64.1973C32.8965 66.1309 31.4902 67.2832 28.9707 67.2832C27.1348 67.2832 25.6699 66.4922 24.7422 65.418L25.8164 64.3633C26.6172 65.3008 27.6426 65.8574 28.9707 65.8574C30.4941 65.8574 31.2168 65.2031 31.2168 64.2266C31.2168 63.3477 30.5332 62.7617 28.6973 62.4102C25.8359 61.8633 25.0254 60.8672 25.0254 59.2852C25.0254 57.6836 26.2266 56.3359 28.6191 56.3359ZM34.9719 67V56.6289H36.4758L36.5734 57.9375C37.3059 56.9707 38.341 56.3359 39.5129 56.3359C40.6262 56.3359 41.4367 56.7949 41.9348 57.9082C42.7648 56.9023 43.8879 56.3359 45.0207 56.3359C47.0617 56.3359 48.0188 57.7324 48.0188 59.6562V67H46.3391V59.9883C46.3391 58.4258 45.7336 57.8398 44.7375 57.8398C43.7902 57.8398 42.7453 58.6602 42.3156 59.4023C42.3352 59.8613 42.3352 59.7246 42.3352 60.0469V67H40.6555V59.9883C40.6555 58.4258 40.05 57.8398 39.0539 57.8398C38.1945 57.8398 37.3352 58.4746 36.6516 59.4219V67H34.9719ZM53.4535 67.3027C51.5883 67.3027 50.0551 66.4336 50.0551 64.0215C50.0551 61.4336 52.2621 60.6621 53.9809 60.6621H56.5395V59.9199C56.5395 58.3867 55.6605 57.7227 54.0004 57.7227C52.9652 57.7227 52.0863 57.9961 51.266 58.3281L50.8461 56.9707C51.9203 56.5898 53.0043 56.3359 54.0004 56.3359C56.4418 56.3359 58.2191 57.3711 58.2191 60.125V67H56.8031L56.6762 65.75C56.0902 66.4824 54.7816 67.3027 53.4535 67.3027ZM53.6879 65.8672C54.8012 65.8672 55.8656 65.0957 56.5395 64.3633V62H54.3324C52.6527 62 51.7348 62.7422 51.7348 64.0215C51.7348 65.3008 52.4867 65.8672 53.6879 65.8672ZM61.0758 56.6289H62.5016L62.6285 58.0254C63.566 56.8633 64.4156 56.3359 65.3434 56.3359C65.8805 56.3359 66.4176 56.4727 66.8863 56.6875L66.3883 58.1328C66.0953 58.0059 65.607 57.8203 65.1676 57.8203C64.318 57.8203 63.5367 58.4258 62.7555 59.6562V67H61.0758V56.6289ZM68.4051 53.7285H70.0848V56.6289H73.9227V58.0156H70.0848V63.5527C70.0848 65.0957 70.5828 65.7793 71.784 65.7793C72.5652 65.7793 73.4637 65.4863 74.118 65.1641L74.5281 66.5312C73.3074 67.0781 72.3406 67.2832 71.5691 67.2832C69.118 67.2832 68.4051 65.6523 68.4051 63.6895V53.7285ZM85.5441 62.8594H83.0148L82.5168 67.2832H81.0324L81.5305 62.8594H79.6555V61.4727H81.6867L82.0871 57.9277H79.6555V56.541H82.2434L82.7414 52.166H84.2258L83.7277 56.541H86.257L86.7551 52.166H88.2395L87.7512 56.541H89.8508V57.9277H87.5949L87.1945 61.4727H89.8508V62.8594H87.0285L86.5305 67.2832H85.0461L85.5441 62.8594ZM83.1711 61.4727H85.7004L86.1105 57.9277H83.5812L83.1711 61.4727ZM92.0336 55.1934L96.0082 53.7285H97.1117V65.6133H99.7875V67H92.7562V65.6133H95.432V55.5156L92.5023 56.5508L92.0336 55.1934Z" fill="#6B747B"/>
<path d="M31.689 88.2891C34.5068 88.2891 36.6592 89.7051 37.792 92.3955L35.583 93.3867C35.0449 91.6733 33.7139 90.4272 31.689 90.4272C29.4941 90.4272 28.1489 91.3335 28.1489 93.3867C28.1489 94.9585 29.1543 96.1479 32.0288 97.1108C35.9229 98.4136 38.1743 99.5889 38.1743 103.001C38.1743 106.4 35.8945 108.411 31.7739 108.411C28.8428 108.411 26.7188 107.264 25.2461 105.196L27.2285 103.724C27.8232 104.842 29.395 106.287 31.7739 106.287C34.4785 106.287 35.6113 104.984 35.6113 103.129C35.6113 101.104 34.1953 100.438 31.3066 99.4331C27.8799 98.272 25.5859 96.856 25.5859 93.4009C25.5859 90.668 27.2852 88.2891 31.689 88.2891ZM53.269 105.763C52.0088 107.278 50.168 108.411 47.7041 108.411C42.8188 108.411 40.8364 104.729 40.8364 100.41C40.8364 96.2612 42.8047 92.5371 47.3076 92.5371C51.8247 92.5371 53.6655 96.2471 53.6655 100.75V101.302H43.3569C43.4702 104.771 45.2686 106.343 47.7749 106.343C49.4316 106.343 50.6636 105.564 51.7681 104.276L53.269 105.763ZM47.3076 94.6187C44.5605 94.6187 43.4702 96.856 43.3853 99.3481H51.1592C51.0884 96.856 50.0264 94.6187 47.3076 94.6187ZM57.1914 108V92.9619H59.2871L59.457 95.1426C60.7031 93.7974 62.3032 92.5371 64.4839 92.5371C67.2593 92.5371 69.1851 93.7407 69.1851 98.7676V108H66.7495V98.7676C66.7495 95.5957 65.7441 94.7178 64.0449 94.7178C62.1899 94.7178 60.7456 96.0913 59.627 97.2383V108H57.1914ZM73.4614 88.7563H75.897V92.9619H81.4619V94.9727H75.897V103.001C75.897 105.239 76.6191 106.23 78.3608 106.23C79.4937 106.23 80.7964 105.805 81.7451 105.338L82.3398 107.32C80.5698 108.113 79.168 108.411 78.0493 108.411C74.4951 108.411 73.4614 106.046 73.4614 103.2V88.7563ZM87.5366 89.521H84.7896V86.7031H87.5366V89.521ZM84.9453 108V92.9619H87.3809V108H84.9453ZM91.813 88.7563H94.2485V92.9619H99.8135V94.9727H94.2485V103.001C94.2485 105.239 94.9707 106.23 96.7124 106.23C97.8452 106.23 99.1479 105.805 100.097 105.338L100.691 107.32C98.9214 108.113 97.5195 108.411 96.4009 108.411C92.8467 108.411 91.813 106.046 91.813 103.2V88.7563ZM114.498 105.763C113.237 107.278 111.396 108.411 108.933 108.411C104.047 108.411 102.065 104.729 102.065 100.41C102.065 96.2612 104.033 92.5371 108.536 92.5371C113.053 92.5371 114.894 96.2471 114.894 100.75V101.302H104.585C104.699 104.771 106.497 106.343 109.003 106.343C110.66 106.343 111.892 105.564 112.997 104.276L114.498 105.763ZM108.536 94.6187C105.789 94.6187 104.699 96.856 104.614 99.3481H112.388C112.317 96.856 111.255 94.6187 108.536 94.6187ZM136.219 105.763C134.959 107.278 133.118 108.411 130.654 108.411C125.769 108.411 123.787 104.729 123.787 100.41C123.787 96.2612 125.755 92.5371 130.258 92.5371C134.775 92.5371 136.616 96.2471 136.616 100.75V101.302H126.307C126.42 104.771 128.219 106.343 130.725 106.343C132.382 106.343 133.614 105.564 134.718 104.276L136.219 105.763ZM130.258 94.6187C127.511 94.6187 126.42 96.856 126.335 99.3481H134.109C134.039 96.856 132.977 94.6187 130.258 94.6187ZM140.142 108V86.4907H142.577V108H140.142ZM161.113 101.996H157.445L156.723 108.411H154.571L155.293 101.996H152.574V99.9854H155.52L156.1 94.8452H152.574V92.8345H156.327L157.049 86.4907H159.201L158.479 92.8345H162.146L162.869 86.4907H165.021L164.313 92.8345H167.357V94.8452H164.086L163.506 99.9854H167.357V101.996H163.265L162.543 108.411H160.391L161.113 101.996ZM157.672 99.9854H161.339L161.934 94.8452H158.267L157.672 99.9854ZM170.812 90.8804L176.576 88.7563H178.176V105.989H182.056V108H171.86V105.989H175.74V91.3477L171.492 92.8486L170.812 90.8804ZM188.555 108H185.638V105.041H188.555V108ZM210.872 105.097C209.569 107.349 207.459 108.411 205.038 108.411C199.798 108.411 197.561 103.497 197.561 98.2437C197.561 92.9902 199.798 88.1616 205.038 88.1616C207.459 88.1616 209.569 89.2378 210.872 91.4893L209.144 92.9761C208.309 91.3052 206.779 90.3281 205.151 90.3281C201.979 90.3281 200.124 93.415 200.124 98.2437C200.124 103.072 201.979 106.23 205.151 106.23C206.779 106.23 208.323 105.267 209.158 103.61L210.872 105.097ZM217.782 108.439C215.077 108.439 212.854 107.179 212.854 103.681C212.854 99.9287 216.054 98.8101 218.546 98.8101H222.256V97.7339C222.256 95.5107 220.982 94.5479 218.575 94.5479C217.074 94.5479 215.799 94.9443 214.61 95.4258L214.001 93.4575C215.559 92.9053 217.13 92.5371 218.575 92.5371C222.115 92.5371 224.692 94.0381 224.692 98.0312V108H222.639L222.455 106.188C221.605 107.25 219.708 108.439 217.782 108.439ZM218.122 106.357C219.736 106.357 221.279 105.239 222.256 104.177V100.75H219.056C216.621 100.75 215.29 101.826 215.29 103.681C215.29 105.536 216.38 106.357 218.122 106.357ZM234.08 92.5371C235.765 92.5371 237.62 93.1885 238.739 95.3267V86.3208H241.146V108H238.965L238.767 105.734C237.648 107.802 235.737 108.411 234.137 108.411C231.021 108.411 228.189 105.848 228.189 100.453C228.189 95.0576 230.951 92.5371 234.08 92.5371ZM234.689 94.6187C232.126 94.6187 230.625 96.7427 230.625 100.453C230.625 104.148 232.126 106.343 234.689 106.343C237.28 106.343 238.81 104.163 238.81 100.453C238.81 96.7427 237.28 94.6187 234.689 94.6187ZM249.472 108.439C246.768 108.439 244.544 107.179 244.544 103.681C244.544 99.9287 247.745 98.8101 250.237 98.8101H253.947V97.7339C253.947 95.5107 252.672 94.5479 250.265 94.5479C248.764 94.5479 247.49 94.9443 246.3 95.4258L245.691 93.4575C247.249 92.9053 248.821 92.5371 250.265 92.5371C253.805 92.5371 256.382 94.0381 256.382 98.0312V108H254.329L254.145 106.188C253.295 107.25 251.398 108.439 249.472 108.439ZM249.812 106.357C251.426 106.357 252.97 105.239 253.947 104.177V100.75H250.747C248.311 100.75 246.98 101.826 246.98 103.681C246.98 105.536 248.07 106.357 249.812 106.357ZM31.25 128.537C32.9351 128.537 34.79 129.188 35.9087 131.327V122.321H38.3159V144H36.1353L35.937 141.734C34.8184 143.802 32.9067 144.411 31.3066 144.411C28.1914 144.411 25.3594 141.848 25.3594 136.453C25.3594 131.058 28.1206 128.537 31.25 128.537ZM31.8589 130.619C29.2959 130.619 27.7949 132.743 27.7949 136.453C27.7949 140.148 29.2959 142.343 31.8589 142.343C34.4502 142.343 35.9795 140.163 35.9795 136.453C35.9795 132.743 34.4502 130.619 31.8589 130.619ZM54.3735 141.763C53.1133 143.278 51.2725 144.411 48.8086 144.411C43.9233 144.411 41.9409 140.729 41.9409 136.41C41.9409 132.261 43.9092 128.537 48.4121 128.537C52.9292 128.537 54.77 132.247 54.77 136.75V137.302H44.4614C44.5747 140.771 46.373 142.343 48.8794 142.343C50.5361 142.343 51.7681 141.564 52.8726 140.276L54.3735 141.763ZM48.4121 130.619C45.665 130.619 44.5747 132.856 44.4897 135.348H52.2637C52.1929 132.856 51.1309 130.619 48.4121 130.619ZM58.1401 124.756H60.5757V128.962H66.1406V130.973H60.5757V139.001C60.5757 141.239 61.2979 142.23 63.0396 142.23C64.1724 142.23 65.4751 141.805 66.4238 141.338L67.0186 143.32C65.2485 144.113 63.8467 144.411 62.728 144.411C59.1738 144.411 58.1401 142.046 58.1401 139.2V124.756ZM73.3481 144.439C70.6436 144.439 68.4204 143.179 68.4204 139.681C68.4204 135.929 71.6206 134.81 74.1128 134.81H77.8228V133.734C77.8228 131.511 76.5483 130.548 74.1411 130.548C72.6401 130.548 71.3657 130.944 70.1763 131.426L69.5674 129.458C71.125 128.905 72.6968 128.537 74.1411 128.537C77.6812 128.537 80.2583 130.038 80.2583 134.031V144H78.2051L78.021 142.188C77.1714 143.25 75.2739 144.439 73.3481 144.439ZM73.688 142.357C75.3022 142.357 76.8457 141.239 77.8228 140.177V136.75H74.6226C72.187 136.75 70.856 137.826 70.856 139.681C70.856 141.536 71.9463 142.357 73.688 142.357ZM84.6904 144V122.491H87.126V144H84.6904ZM91.7139 144V122.491H94.1494V144H91.7139ZM110.193 141.763C108.933 143.278 107.092 144.411 104.628 144.411C99.7427 144.411 97.7603 140.729 97.7603 136.41C97.7603 132.261 99.7285 128.537 104.231 128.537C108.749 128.537 110.589 132.247 110.589 136.75V137.302H100.281C100.394 140.771 102.192 142.343 104.699 142.343C106.355 142.343 107.587 141.564 108.692 140.276L110.193 141.763ZM104.231 130.619C101.484 130.619 100.394 132.856 100.309 135.348H108.083C108.012 132.856 106.95 130.619 104.231 130.619ZM117.075 140.502L113.804 149.551H111.51L114.186 140.502H117.075ZM137.451 141.72C136.063 143.519 134.506 144.411 132.198 144.411C128.304 144.411 125.627 141.479 125.627 136.495C125.627 131.978 128.049 128.537 132.24 128.537C134.548 128.537 136.063 129.472 137.451 131.284L135.908 132.729C135.001 131.482 133.939 130.619 132.24 130.619C129.536 130.619 128.063 132.884 128.063 136.495C128.063 140.106 129.55 142.343 132.368 142.343C133.996 142.343 135.001 141.522 135.908 140.276L137.451 141.72ZM144.46 144.439C141.756 144.439 139.533 143.179 139.533 139.681C139.533 135.929 142.733 134.81 145.225 134.81H148.935V133.734C148.935 131.511 147.661 130.548 145.253 130.548C143.752 130.548 142.478 130.944 141.289 131.426L140.68 129.458C142.237 128.905 143.809 128.537 145.253 128.537C148.793 128.537 151.371 130.038 151.371 134.031V144H149.317L149.133 142.188C148.284 143.25 146.386 144.439 144.46 144.439ZM144.8 142.357C146.415 142.357 147.958 141.239 148.935 140.177V136.75H145.735C143.299 136.75 141.968 137.826 141.968 139.681C141.968 141.536 143.059 142.357 144.8 142.357ZM160.759 128.537C162.444 128.537 164.299 129.188 165.417 131.327V122.321H167.825V144H165.644L165.446 141.734C164.327 143.802 162.416 144.411 160.815 144.411C157.7 144.411 154.868 141.848 154.868 136.453C154.868 131.058 157.629 128.537 160.759 128.537ZM161.368 130.619C158.805 130.619 157.304 132.743 157.304 136.453C157.304 140.148 158.805 142.343 161.368 142.343C163.959 142.343 165.488 140.163 165.488 136.453C165.488 132.743 163.959 130.619 161.368 130.619ZM176.151 144.439C173.446 144.439 171.223 143.179 171.223 139.681C171.223 135.929 174.423 134.81 176.916 134.81H180.625V133.734C180.625 131.511 179.351 130.548 176.944 130.548C175.443 130.548 174.168 130.944 172.979 131.426L172.37 129.458C173.928 128.905 175.5 128.537 176.944 128.537C180.484 128.537 183.061 130.038 183.061 134.031V144H181.008L180.824 142.188C179.974 143.25 178.077 144.439 176.151 144.439ZM176.491 142.357C178.105 142.357 179.648 141.239 180.625 140.177V136.75H177.425C174.99 136.75 173.659 137.826 173.659 139.681C173.659 141.536 174.749 142.357 176.491 142.357ZM193.837 144V122.491H196.272V144H193.837ZM204.457 120.338H207.218L203.112 125.521H200.86L204.457 120.338ZM200.86 144V128.962H203.296V144H200.86ZM207.884 144V128.962H209.979L210.149 131.143C211.396 129.797 212.996 128.537 215.176 128.537C217.952 128.537 219.877 129.741 219.877 134.768V144H217.442V134.768C217.442 131.596 216.437 130.718 214.737 130.718C212.882 130.718 211.438 132.091 210.319 133.238V144H207.884ZM235.765 141.763C234.505 143.278 232.664 144.411 230.2 144.411C225.315 144.411 223.333 140.729 223.333 136.41C223.333 132.261 225.301 128.537 229.804 128.537C234.321 128.537 236.162 132.247 236.162 136.75V137.302H225.853C225.966 140.771 227.765 142.343 230.271 142.343C231.928 142.343 233.16 141.564 234.264 140.276L235.765 141.763ZM229.804 130.619C227.057 130.619 225.966 132.856 225.881 135.348H233.655C233.584 132.856 232.522 130.619 229.804 130.619ZM243.412 144.439C240.707 144.439 238.484 143.179 238.484 139.681C238.484 135.929 241.684 134.81 244.176 134.81H247.886V133.734C247.886 131.511 246.612 130.548 244.205 130.548C242.704 130.548 241.429 130.944 240.24 131.426L239.631 129.458C241.188 128.905 242.76 128.537 244.205 128.537C247.745 128.537 250.322 130.038 250.322 134.031V144H248.269L248.084 142.188C247.235 143.25 245.337 144.439 243.412 144.439ZM243.751 142.357C245.366 142.357 246.909 141.239 247.886 140.177V136.75H244.686C242.25 136.75 240.919 137.826 240.919 139.681C240.919 141.536 242.01 142.357 243.751 142.357ZM257.713 140.502L254.442 149.551H252.148L254.825 140.502H257.713ZM278.09 141.72C276.702 143.519 275.145 144.411 272.836 144.411C268.942 144.411 266.266 141.479 266.266 136.495C266.266 131.978 268.688 128.537 272.879 128.537C275.187 128.537 276.702 129.472 278.09 131.284L276.546 132.729C275.64 131.482 274.578 130.619 272.879 130.619C270.174 130.619 268.702 132.884 268.702 136.495C268.702 140.106 270.188 142.343 273.006 142.343C274.635 142.343 275.64 141.522 276.546 140.276L278.09 141.72ZM285.099 144.439C282.395 144.439 280.171 143.179 280.171 139.681C280.171 135.929 283.372 134.81 285.864 134.81H289.574V133.734C289.574 131.511 288.299 130.548 285.892 130.548C284.391 130.548 283.117 130.944 281.927 131.426L281.318 129.458C282.876 128.905 284.448 128.537 285.892 128.537C289.432 128.537 292.009 130.038 292.009 134.031V144H289.956L289.772 142.188C288.922 143.25 287.025 144.439 285.099 144.439ZM285.439 142.357C287.053 142.357 288.597 141.239 289.574 140.177V136.75H286.374C283.938 136.75 282.607 137.826 282.607 139.681C282.607 141.536 283.697 142.357 285.439 142.357ZM301.397 128.537C303.083 128.537 304.938 129.188 306.056 131.327V122.321H308.463V144H306.283L306.084 141.734C304.966 143.802 303.054 144.411 301.454 144.411C298.339 144.411 295.507 141.848 295.507 136.453C295.507 131.058 298.268 128.537 301.397 128.537ZM302.006 130.619C299.443 130.619 297.942 132.743 297.942 136.453C297.942 140.148 299.443 142.343 302.006 142.343C304.598 142.343 306.127 140.163 306.127 136.453C306.127 132.743 304.598 130.619 302.006 130.619ZM316.79 144.439C314.085 144.439 311.862 143.179 311.862 139.681C311.862 135.929 315.062 134.81 317.554 134.81H321.264V133.734C321.264 131.511 319.99 130.548 317.583 130.548C316.082 130.548 314.807 130.944 313.618 131.426L313.009 129.458C314.566 128.905 316.138 128.537 317.583 128.537C321.123 128.537 323.7 130.038 323.7 134.031V144H321.646L321.462 142.188C320.613 143.25 318.715 144.439 316.79 144.439ZM317.129 142.357C318.744 142.357 320.287 141.239 321.264 140.177V136.75H318.064C315.628 136.75 314.297 137.826 314.297 139.681C314.297 141.536 315.388 142.357 317.129 142.357ZM36.2344 180L31.7031 173.217L28.7295 176.729V180H26.2939V158.491H28.7295V173.585L35.6963 164.962H38.5708L33.1899 171.504L38.9248 180H36.2344ZM44.0366 161.521H41.2896V158.703H44.0366V161.521ZM41.4453 180V164.962H43.8809V180H41.4453ZM48.4688 180V158.491H50.9043V180H48.4688ZM62.6714 156.338H65.4326L61.3262 161.521H59.0747L62.6714 156.338ZM61.043 180.411C57.1064 180.411 54.5151 177.21 54.5151 172.495C54.5151 167.766 57.1064 164.537 61.043 164.537C64.9653 164.537 67.5566 167.766 67.5566 172.495C67.5566 177.21 64.9653 180.411 61.043 180.411ZM61.043 178.343C63.7334 178.343 65.1211 176.148 65.1211 172.495C65.1211 168.856 63.7334 166.619 61.043 166.619C58.3384 166.619 56.9507 168.856 56.9507 172.495C56.9507 176.148 58.3384 178.343 61.043 178.343ZM71.1816 180V164.962H73.3623L73.5039 166.859C74.5659 165.458 76.0669 164.537 77.7661 164.537C79.3804 164.537 80.5557 165.203 81.2778 166.817C82.4814 165.358 84.1099 164.537 85.7524 164.537C88.7119 164.537 90.0996 166.562 90.0996 169.352V180H87.6641V169.833C87.6641 167.567 86.7861 166.718 85.3418 166.718C83.9683 166.718 82.4531 167.907 81.8301 168.983C81.8584 169.649 81.8584 169.451 81.8584 169.918V180H79.4229V169.833C79.4229 167.567 78.5449 166.718 77.1006 166.718C75.8545 166.718 74.6084 167.638 73.6172 169.012V180H71.1816ZM106.001 177.763C104.741 179.278 102.9 180.411 100.437 180.411C95.5513 180.411 93.5688 176.729 93.5688 172.41C93.5688 168.261 95.5371 164.537 100.04 164.537C104.557 164.537 106.398 168.247 106.398 172.75V173.302H96.0894C96.2026 176.771 98.001 178.343 100.507 178.343C102.164 178.343 103.396 177.564 104.5 176.276L106.001 177.763ZM100.04 166.619C97.293 166.619 96.2026 168.856 96.1177 171.348H103.892C103.821 168.856 102.759 166.619 100.04 166.619ZM109.768 160.756H112.204V164.962H117.769V166.973H112.204V175.001C112.204 177.239 112.926 178.23 114.667 178.23C115.8 178.23 117.103 177.805 118.052 177.338L118.646 179.32C116.876 180.113 115.475 180.411 114.356 180.411C110.802 180.411 109.768 178.046 109.768 175.2V160.756ZM121.252 164.962H123.319L123.503 166.987C124.863 165.302 126.095 164.537 127.44 164.537C128.219 164.537 128.998 164.735 129.677 165.047L128.955 167.143C128.53 166.958 127.822 166.689 127.185 166.689C125.953 166.689 124.82 167.567 123.688 169.352V180H121.252V164.962ZM137.338 180.411C133.401 180.411 130.81 177.21 130.81 172.495C130.81 167.766 133.401 164.537 137.338 164.537C141.26 164.537 143.852 167.766 143.852 172.495C143.852 177.21 141.26 180.411 137.338 180.411ZM137.338 178.343C140.028 178.343 141.416 176.148 141.416 172.495C141.416 168.856 140.028 166.619 137.338 166.619C134.633 166.619 133.246 168.856 133.246 172.495C133.246 176.148 134.633 178.343 137.338 178.343ZM153.82 164.962H155.888L156.072 166.987C157.431 165.302 158.663 164.537 160.008 164.537C160.787 164.537 161.566 164.735 162.246 165.047L161.523 167.143C161.099 166.958 160.391 166.689 159.753 166.689C158.521 166.689 157.389 167.567 156.256 169.352V180H153.82V164.962ZM175.811 177.763C174.551 179.278 172.71 180.411 170.246 180.411C165.361 180.411 163.378 176.729 163.378 172.41C163.378 168.261 165.347 164.537 169.85 164.537C174.367 164.537 176.208 168.247 176.208 172.75V173.302H165.899C166.012 176.771 167.811 178.343 170.317 178.343C171.974 178.343 173.206 177.564 174.31 176.276L175.811 177.763ZM169.85 166.619C167.103 166.619 166.012 168.856 165.927 171.348H173.701C173.63 168.856 172.568 166.619 169.85 166.619ZM190.58 177.72C189.192 179.519 187.635 180.411 185.327 180.411C181.433 180.411 178.756 177.479 178.756 172.495C178.756 167.978 181.178 164.537 185.369 164.537C187.677 164.537 189.192 165.472 190.58 167.284L189.037 168.729C188.13 167.482 187.068 166.619 185.369 166.619C182.665 166.619 181.192 168.884 181.192 172.495C181.192 176.106 182.679 178.343 185.497 178.343C187.125 178.343 188.13 177.522 189.037 176.276L190.58 177.72ZM199.246 180.411C195.31 180.411 192.718 177.21 192.718 172.495C192.718 167.766 195.31 164.537 199.246 164.537C203.168 164.537 205.76 167.766 205.76 172.495C205.76 177.21 203.168 180.411 199.246 180.411ZM199.246 178.343C201.937 178.343 203.324 176.148 203.324 172.495C203.324 168.856 201.937 166.619 199.246 166.619C196.542 166.619 195.154 168.856 195.154 172.495C195.154 176.148 196.542 178.343 199.246 178.343ZM209.385 164.962H211.452L211.636 166.987C212.996 165.302 214.228 164.537 215.573 164.537C216.352 164.537 217.13 164.735 217.81 165.047L217.088 167.143C216.663 166.958 215.955 166.689 215.318 166.689C214.086 166.689 212.953 167.567 211.82 169.352V180H209.385V164.962ZM220.458 164.962H222.525L222.709 166.987C224.069 165.302 225.301 164.537 226.646 164.537C227.425 164.537 228.204 164.735 228.883 165.047L228.161 167.143C227.736 166.958 227.028 166.689 226.391 166.689C225.159 166.689 224.026 167.567 222.894 169.352V180H220.458V164.962ZM234.123 161.521H231.375V158.703H234.123V161.521ZM231.531 180V164.962H233.967V180H231.531ZM243.511 164.537C245.196 164.537 247.051 165.188 248.169 167.327V158.321H250.577V180H248.396L248.198 177.734C247.079 179.802 245.167 180.411 243.567 180.411C240.452 180.411 237.62 177.848 237.62 172.453C237.62 167.058 240.381 164.537 243.511 164.537ZM244.12 166.619C241.557 166.619 240.056 168.743 240.056 172.453C240.056 176.148 241.557 178.343 244.12 178.343C246.711 178.343 248.24 176.163 248.24 172.453C248.24 168.743 246.711 166.619 244.12 166.619ZM260.729 180.411C256.793 180.411 254.202 177.21 254.202 172.495C254.202 167.766 256.793 164.537 260.729 164.537C264.652 164.537 267.243 167.766 267.243 172.495C267.243 177.21 264.652 180.411 260.729 180.411ZM260.729 178.343C263.42 178.343 264.808 176.148 264.808 172.495C264.808 168.856 263.42 166.619 260.729 166.619C258.025 166.619 256.637 168.856 256.637 172.495C256.637 176.148 258.025 178.343 260.729 178.343ZM282.168 164.537C283.853 164.537 285.708 165.188 286.827 167.327V158.321H289.234V180H287.053L286.855 177.734C285.736 179.802 283.825 180.411 282.225 180.411C279.109 180.411 276.277 177.848 276.277 172.453C276.277 167.058 279.039 164.537 282.168 164.537ZM282.777 166.619C280.214 166.619 278.713 168.743 278.713 172.453C278.713 176.148 280.214 178.343 282.777 178.343C285.368 178.343 286.897 176.163 286.897 172.453C286.897 168.743 285.368 166.619 282.777 166.619ZM305.292 177.763C304.031 179.278 302.19 180.411 299.727 180.411C294.841 180.411 292.859 176.729 292.859 172.41C292.859 168.261 294.827 164.537 299.33 164.537C303.847 164.537 305.688 168.247 305.688 172.75V173.302H295.379C295.493 176.771 297.291 178.343 299.797 178.343C301.454 178.343 302.686 177.564 303.791 176.276L305.292 177.763ZM299.33 166.619C296.583 166.619 295.493 168.856 295.408 171.348H303.182C303.111 168.856 302.049 166.619 299.33 166.619ZM38.1318 200.962V216H36.022L35.8521 213.819C34.606 215.165 33.0059 216.425 30.8252 216.425C28.0498 216.425 26.124 215.221 26.124 210.194V200.962H28.5596V210.194C28.5596 213.352 29.5649 214.244 31.2642 214.244C33.1333 214.244 34.5635 212.871 35.6963 211.724V200.962H38.1318ZM42.7197 216V200.962H44.8154L44.9854 203.143C46.2314 201.797 47.8315 200.537 50.0122 200.537C52.7876 200.537 54.7134 201.741 54.7134 206.768V216H52.2778V206.768C52.2778 203.596 51.2725 202.718 49.5732 202.718C47.7183 202.718 46.2739 204.091 45.1553 205.238V216H42.7197ZM62.8696 216.439C60.165 216.439 57.9419 215.179 57.9419 211.681C57.9419 207.929 61.1421 206.81 63.6343 206.81H67.3442V205.734C67.3442 203.511 66.0698 202.548 63.6626 202.548C62.1616 202.548 60.8872 202.944 59.6978 203.426L59.0889 201.458C60.6465 200.905 62.2183 200.537 63.6626 200.537C67.2026 200.537 69.7798 202.038 69.7798 206.031V216H67.7266L67.5425 214.188C66.6929 215.25 64.7954 216.439 62.8696 216.439ZM63.2095 214.357C64.8237 214.357 66.3672 213.239 67.3442 212.177V208.75H64.144C61.7085 208.75 60.3774 209.826 60.3774 211.681C60.3774 213.536 61.4678 214.357 63.2095 214.357ZM79.0264 200.962H81.1646V199.107C81.1646 196.53 82.4106 194.491 85.625 194.491C86.5171 194.491 87.5649 194.632 88.5986 194.831L88.2163 196.884C87.1968 196.657 86.5029 196.558 85.625 196.558C84.4355 196.558 83.6001 197.309 83.6001 199.064V200.962H87.126V202.973H83.6001V216H81.1646V202.973H79.0264V200.962ZM95.2539 216.411C91.3174 216.411 88.7261 213.21 88.7261 208.495C88.7261 203.766 91.3174 200.537 95.2539 200.537C99.1763 200.537 101.768 203.766 101.768 208.495C101.768 213.21 99.1763 216.411 95.2539 216.411ZM95.2539 214.343C97.9443 214.343 99.332 212.148 99.332 208.495C99.332 204.856 97.9443 202.619 95.2539 202.619C92.5493 202.619 91.1616 204.856 91.1616 208.495C91.1616 212.148 92.5493 214.343 95.2539 214.343ZM105.393 200.962H107.46L107.644 202.987C109.003 201.302 110.235 200.537 111.581 200.537C112.359 200.537 113.138 200.735 113.818 201.047L113.096 203.143C112.671 202.958 111.963 202.689 111.326 202.689C110.094 202.689 108.961 203.567 107.828 205.352V216H105.393V200.962ZM116.466 216V200.962H118.646L118.788 202.859C119.85 201.458 121.351 200.537 123.05 200.537C124.665 200.537 125.84 201.203 126.562 202.817C127.766 201.358 129.394 200.537 131.037 200.537C133.996 200.537 135.384 202.562 135.384 205.352V216H132.948V205.833C132.948 203.567 132.07 202.718 130.626 202.718C129.252 202.718 127.737 203.907 127.114 204.983C127.143 205.649 127.143 205.451 127.143 205.918V216H124.707V205.833C124.707 203.567 123.829 202.718 122.385 202.718C121.139 202.718 119.893 203.638 118.901 205.012V216H116.466ZM143.554 216.439C140.85 216.439 138.626 215.179 138.626 211.681C138.626 207.929 141.827 206.81 144.319 206.81H148.029V205.734C148.029 203.511 146.754 202.548 144.347 202.548C142.846 202.548 141.572 202.944 140.382 203.426L139.773 201.458C141.331 200.905 142.903 200.537 144.347 200.537C147.887 200.537 150.464 202.038 150.464 206.031V216H148.411L148.227 214.188C147.377 215.25 145.48 216.439 143.554 216.439ZM143.894 214.357C145.508 214.357 147.052 213.239 148.029 212.177V208.75H144.829C142.393 208.75 141.062 209.826 141.062 211.681C141.062 213.536 142.152 214.357 143.894 214.357ZM166.196 200.537C167.881 200.537 169.736 201.188 170.855 203.327V194.321H173.262V216H171.082L170.883 213.734C169.765 215.802 167.853 216.411 166.253 216.411C163.138 216.411 160.306 213.848 160.306 208.453C160.306 203.058 163.067 200.537 166.196 200.537ZM166.805 202.619C164.242 202.619 162.741 204.743 162.741 208.453C162.741 212.148 164.242 214.343 166.805 214.343C169.396 214.343 170.926 212.163 170.926 208.453C170.926 204.743 169.396 202.619 166.805 202.619ZM180.456 197.521H177.708V194.703H180.456V197.521ZM177.864 216V200.962H180.3V216H177.864ZM189.292 200.537C191.401 200.537 193.214 201.273 194.715 203.128L193.101 204.516C192.053 203.171 190.792 202.619 189.405 202.619C187.38 202.619 186.516 203.482 186.516 204.743C186.516 206.145 187.337 206.838 190.424 207.405C194.078 208.099 195.494 209.515 195.494 211.936C195.494 214.74 193.455 216.411 189.801 216.411C187.139 216.411 185.015 215.264 183.67 213.706L185.228 212.177C186.389 213.536 187.875 214.343 189.801 214.343C192.01 214.343 193.058 213.395 193.058 211.979C193.058 210.704 192.067 209.854 189.405 209.345C185.256 208.552 184.081 207.107 184.081 204.813C184.081 202.491 185.822 200.537 189.292 200.537ZM198.637 196.756H201.073V200.962H206.638V202.973H201.073V211.001C201.073 213.239 201.795 214.23 203.537 214.23C204.669 214.23 205.972 213.805 206.921 213.338L207.516 215.32C205.746 216.113 204.344 216.411 203.225 216.411C199.671 216.411 198.637 214.046 198.637 211.2V196.756ZM212.712 197.521H209.965V194.703H212.712V197.521ZM210.121 216V200.962H212.557V216H210.121ZM217.145 216V200.962H219.24L219.41 203.143C220.656 201.797 222.256 200.537 224.437 200.537C227.212 200.537 229.138 201.741 229.138 206.768V216H226.703V206.768C226.703 203.596 225.697 202.718 223.998 202.718C222.143 202.718 220.699 204.091 219.58 205.238V216H217.145ZM233.415 196.756H235.85V200.962H241.415V202.973H235.85V211.001C235.85 213.239 236.572 214.23 238.314 214.23C239.447 214.23 240.75 213.805 241.698 213.338L242.293 215.32C240.523 216.113 239.121 216.411 238.002 216.411C234.448 216.411 233.415 214.046 233.415 211.2V196.756ZM248.623 216.439C245.918 216.439 243.695 215.179 243.695 211.681C243.695 207.929 246.895 206.81 249.387 206.81H253.097V205.734C253.097 203.511 251.823 202.548 249.416 202.548C247.915 202.548 246.64 202.944 245.451 203.426L244.842 201.458C246.399 200.905 247.971 200.537 249.416 200.537C252.956 200.537 255.533 202.038 255.533 206.031V216H253.479L253.295 214.188C252.446 215.25 250.548 216.439 248.623 216.439ZM248.962 214.357C250.577 214.357 252.12 213.239 253.097 212.177V208.75H249.897C247.461 208.75 246.13 209.826 246.13 211.681C246.13 213.536 247.221 214.357 248.962 214.357ZM262.443 216H259.526V213.041H262.443V216ZM31.689 232.289C34.5068 232.289 36.6592 233.705 37.792 236.396L35.583 237.387C35.0449 235.673 33.7139 234.427 31.689 234.427C29.4941 234.427 28.1489 235.333 28.1489 237.387C28.1489 238.958 29.1543 240.148 32.0288 241.111C35.9229 242.414 38.1743 243.589 38.1743 247.001C38.1743 250.4 35.8945 252.411 31.7739 252.411C28.8428 252.411 26.7188 251.264 25.2461 249.196L27.2285 247.724C27.8232 248.842 29.395 250.287 31.7739 250.287C34.4785 250.287 35.6113 248.984 35.6113 247.129C35.6113 245.104 34.1953 244.438 31.3066 243.433C27.8799 242.272 25.5859 240.856 25.5859 237.401C25.5859 234.668 27.2852 232.289 31.689 232.289ZM53.269 249.763C52.0088 251.278 50.168 252.411 47.7041 252.411C42.8188 252.411 40.8364 248.729 40.8364 244.41C40.8364 240.261 42.8047 236.537 47.3076 236.537C51.8247 236.537 53.6655 240.247 53.6655 244.75V245.302H43.3569C43.4702 248.771 45.2686 250.343 47.7749 250.343C49.4316 250.343 50.6636 249.564 51.7681 248.276L53.269 249.763ZM47.3076 238.619C44.5605 238.619 43.4702 240.856 43.3853 243.348H51.1592C51.0884 240.856 50.0264 238.619 47.3076 238.619ZM57.1914 252V236.962H59.2871L59.457 239.143C60.7031 237.797 62.3032 236.537 64.4839 236.537C67.2593 236.537 69.1851 237.741 69.1851 242.768V252H66.7495V242.768C66.7495 239.596 65.7441 238.718 64.0449 238.718C62.1899 238.718 60.7456 240.091 59.627 241.238V252H57.1914ZM73.4614 232.756H75.897V236.962H81.4619V238.973H75.897V247.001C75.897 249.239 76.6191 250.23 78.3608 250.23C79.4937 250.23 80.7964 249.805 81.7451 249.338L82.3398 251.32C80.5698 252.113 79.168 252.411 78.0493 252.411C74.4951 252.411 73.4614 250.046 73.4614 247.2V232.756ZM87.5366 233.521H84.7896V230.703H87.5366V233.521ZM84.9453 252V236.962H87.3809V252H84.9453ZM91.813 232.756H94.2485V236.962H99.8135V238.973H94.2485V247.001C94.2485 249.239 94.9707 250.23 96.7124 250.23C97.8452 250.23 99.1479 249.805 100.097 249.338L100.691 251.32C98.9214 252.113 97.5195 252.411 96.4009 252.411C92.8467 252.411 91.813 250.046 91.813 247.2V232.756ZM114.498 249.763C113.237 251.278 111.396 252.411 108.933 252.411C104.047 252.411 102.065 248.729 102.065 244.41C102.065 240.261 104.033 236.537 108.536 236.537C113.053 236.537 114.894 240.247 114.894 244.75V245.302H104.585C104.699 248.771 106.497 250.343 109.003 250.343C110.66 250.343 111.892 249.564 112.997 248.276L114.498 249.763ZM108.536 238.619C105.789 238.619 104.699 240.856 104.614 243.348H112.388C112.317 240.856 111.255 238.619 108.536 238.619ZM129.72 236.537C131.405 236.537 133.26 237.188 134.378 239.327V230.321H136.786V252H134.605L134.407 249.734C133.288 251.802 131.376 252.411 129.776 252.411C126.661 252.411 123.829 249.848 123.829 244.453C123.829 239.058 126.59 236.537 129.72 236.537ZM130.329 238.619C127.766 238.619 126.265 240.743 126.265 244.453C126.265 248.148 127.766 250.343 130.329 250.343C132.92 250.343 134.449 248.163 134.449 244.453C134.449 240.743 132.92 238.619 130.329 238.619ZM143.979 233.521H141.232V230.703H143.979V233.521ZM141.388 252V236.962H143.823V252H141.388ZM146.882 236.962H149.02V235.107C149.02 232.53 150.266 230.491 153.48 230.491C154.373 230.491 155.42 230.632 156.454 230.831L156.072 232.884C155.052 232.657 154.358 232.558 153.48 232.558C152.291 232.558 151.456 233.309 151.456 235.064V236.962H154.981V238.973H151.456V252H149.02V238.973H146.882V236.962ZM169.014 249.763C167.754 251.278 165.913 252.411 163.449 252.411C158.564 252.411 156.582 248.729 156.582 244.41C156.582 240.261 158.55 236.537 163.053 236.537C167.57 236.537 169.411 240.247 169.411 244.75V245.302H159.102C159.215 248.771 161.014 250.343 163.52 250.343C165.177 250.343 166.409 249.564 167.513 248.276L169.014 249.763ZM163.053 238.619C160.306 238.619 159.215 240.856 159.13 243.348H166.904C166.833 240.856 165.771 238.619 163.053 238.619ZM172.937 236.962H175.004L175.188 238.987C176.547 237.302 177.779 236.537 179.125 236.537C179.903 236.537 180.682 236.735 181.362 237.047L180.64 239.143C180.215 238.958 179.507 238.689 178.87 238.689C177.638 238.689 176.505 239.567 175.372 241.352V252H172.937V236.962ZM194.927 249.763C193.667 251.278 191.826 252.411 189.362 252.411C184.477 252.411 182.495 248.729 182.495 244.41C182.495 240.261 184.463 236.537 188.966 236.537C193.483 236.537 195.324 240.247 195.324 244.75V245.302H185.015C185.128 248.771 186.927 250.343 189.433 250.343C191.09 250.343 192.322 249.564 193.426 248.276L194.927 249.763ZM188.966 238.619C186.219 238.619 185.128 240.856 185.043 243.348H192.817C192.747 240.856 191.685 238.619 188.966 238.619ZM198.85 252V236.962H200.945L201.115 239.143C202.361 237.797 203.961 236.537 206.142 236.537C208.917 236.537 210.843 237.741 210.843 242.768V252H208.408V242.768C208.408 239.596 207.402 238.718 205.703 238.718C203.848 238.718 202.404 240.091 201.285 241.238V252H198.85ZM215.12 232.756H217.555V236.962H223.12V238.973H217.555V247.001C217.555 249.239 218.277 250.23 220.019 250.23C221.152 250.23 222.455 249.805 223.403 249.338L223.998 251.32C222.228 252.113 220.826 252.411 219.708 252.411C216.153 252.411 215.12 250.046 215.12 247.2V232.756ZM237.804 249.763C236.544 251.278 234.703 252.411 232.239 252.411C227.354 252.411 225.372 248.729 225.372 244.41C225.372 240.261 227.34 236.537 231.843 236.537C236.36 236.537 238.201 240.247 238.201 244.75V245.302H227.892C228.005 248.771 229.804 250.343 232.31 250.343C233.967 250.343 235.199 249.564 236.303 248.276L237.804 249.763ZM231.843 238.619C229.096 238.619 228.005 240.856 227.92 243.348H235.694C235.624 240.856 234.562 238.619 231.843 238.619ZM244.205 252H241.288V249.041H244.205V252Z" fill="#141413"/>
</svg>
