<svg width="1440" height="209" viewBox="0 0 1440 209" fill="none" xmlns="http://www.w3.org/2000/svg">

<path d="M83.3477 70.5391V68.8398H88.5156C92.6055 68.8398 95.5 71.7344 95.5 76.832C95.5 82.1875 92.6055 85 88.5156 85H83.3477V83.3359H84.9297V70.5391H83.3477ZM88.4453 70.5391H86.8281V83.3359H88.4453C90.9297 83.3359 93.4844 82.2578 93.4844 76.832C93.4844 71.9805 90.9297 70.5391 88.4453 70.5391ZM97.5508 85V83.3945H99.4492V74.1602H97.5508V72.5547H101.289V83.3945H103.176V85H97.5508ZM101.395 67.293V69.707H99.168V67.293H101.395ZM112.41 72.5547H113.617V76.1172H112.27C112.188 75.707 112.035 75.332 111.789 75.0039C111.391 74.4531 110.629 73.8789 109.305 73.8789C107.195 73.8789 106.996 75.0977 106.996 75.6602C106.996 77.3125 108.238 77.5703 110.16 77.875C112.176 78.2266 114.285 78.8477 114.285 81.5547C114.285 84.25 112.516 85.3398 110.266 85.3398C108.051 85.3398 106.891 84.0977 106.48 83.5L106.34 85H105.156V81.2383H106.492C106.621 81.6953 106.832 82.1172 107.137 82.4805C107.641 83.1133 108.543 83.7109 110.055 83.7109C111.566 83.7109 112.445 83.0781 112.445 81.7539C112.445 80.3008 111.32 80.0195 109.539 79.6797C107.512 79.3047 105.227 78.7656 105.227 75.7773C105.227 74.5938 105.695 72.2383 109.094 72.2383C111.051 72.2383 112.023 73.1523 112.281 73.7852L112.41 72.5547ZM124.949 82.0117L126.086 83.1836C125.066 84.3906 123.531 85.3398 121.621 85.3398C117.121 85.3398 116.137 81.4375 116.137 78.5312C116.137 75.8828 117.262 72.2383 121.281 72.2383C125.582 72.2383 126.156 76.832 126.156 78.9297V79.3984H118.094C118.129 81.8359 119.418 83.6758 121.703 83.6758C122.816 83.6758 124.012 83.0781 124.949 82.0117ZM121.281 73.9023C118.891 73.9023 118.094 76.0586 118.094 77.8398H124.234C124.234 76.0586 123.531 73.9023 121.281 73.9023ZM128.137 85V83.3945H129.73V74.1602H128.137V72.5547H131.312L131.453 74.3594C132.414 73.2109 133.621 72.2383 135.215 72.2383C137.688 72.2383 138.707 73.375 138.707 77.4414V83.3945H140.312V85H135.402V83.3945H136.867V77.4414C136.867 75.0977 136.562 74.0195 134.793 74.0195C133.316 74.0195 132.32 75.1094 131.57 75.918V83.3945H133.035V85H128.137ZM130.785 70.0469H129.367C129.367 68.4062 130.082 66.6602 131.992 66.6602C133.867 66.6602 134.512 68.5586 135.789 68.5586C136.598 68.5586 136.996 67.7383 136.996 66.6602H138.379C138.379 68.3008 137.688 70.0469 135.789 70.0469C133.914 70.0469 133.176 68.1602 131.992 68.1602C131.184 68.1602 130.785 68.9688 130.785 70.0469ZM147.227 73.9023C145.164 73.9023 143.898 75.7773 143.898 78.7891C143.898 81.8125 145.164 83.6758 147.227 83.6758C149.289 83.6758 150.555 81.8125 150.555 78.7891C150.555 75.7773 149.289 73.9023 147.227 73.9023ZM147.227 72.2383C150.344 72.2383 152.395 75.0508 152.395 78.7891C152.395 82.5273 150.344 85.3398 147.227 85.3398C144.098 85.3398 142.059 82.5273 142.059 78.7891C142.059 75.0508 144.098 72.2383 147.227 72.2383ZM165.637 85.3398C163.727 85.3398 160.902 83.8867 160.902 78.7891C160.902 73.6445 163.773 72.2383 165.602 72.2383C166.961 72.2383 168.555 72.918 169.363 74.7344V72.5547H172.809V74.1602H171.203V88.5039H172.809V90.1211H167.547V88.5039H169.363V82.9258C168.52 84.9766 166.727 85.3398 165.637 85.3398ZM166.047 83.6758C167.629 83.6758 169.422 82.5039 169.422 78.7891C169.422 75.0859 167.512 73.9023 166.012 73.9023C164.688 73.9023 162.742 74.9805 162.742 78.7891C162.742 82.4805 164.547 83.6758 166.047 83.6758ZM185.02 72.5547V83.3945H186.613V85H183.426L183.309 83.0195C182.559 84.0508 181.27 85.3398 179.488 85.3398C176.863 85.3398 176.043 83.3945 176.043 80.3125V74.1602H174.449V72.5547H177.883V80.4297C177.883 81.7773 177.906 83.6758 179.875 83.6758C180.836 83.6758 181.668 83.125 182.254 82.5742C182.594 82.2578 182.91 81.8828 183.18 81.4609V74.1602H181.539V72.5547H185.02ZM197.16 82.0117L198.297 83.1836C197.277 84.3906 195.742 85.3398 193.832 85.3398C189.332 85.3398 188.348 81.4375 188.348 78.5312C188.348 75.8828 189.473 72.2383 193.492 72.2383C197.793 72.2383 198.367 76.832 198.367 78.9297V79.3984H190.305C190.34 81.8359 191.629 83.6758 193.914 83.6758C195.027 83.6758 196.223 83.0781 197.16 82.0117ZM193.492 73.9023C191.102 73.9023 190.305 76.0586 190.305 77.8398H196.445C196.445 76.0586 195.742 73.9023 193.492 73.9023ZM207.051 85V83.3945H208.645V74.1602H207.051V72.5547H210.227L210.367 74.3594C211.328 73.2109 212.535 72.2383 214.129 72.2383C216.602 72.2383 217.621 73.375 217.621 77.4414V83.3945H219.227V85H214.316V83.3945H215.781V77.4414C215.781 75.0977 215.477 74.0195 213.707 74.0195C212.23 74.0195 211.234 75.1094 210.484 75.918V83.3945H211.949V85H207.051ZM226.141 73.9023C224.078 73.9023 222.812 75.7773 222.812 78.7891C222.812 81.8125 224.078 83.6758 226.141 83.6758C228.203 83.6758 229.469 81.8125 229.469 78.7891C229.469 75.7773 228.203 73.9023 226.141 73.9023ZM226.141 72.2383C229.258 72.2383 231.309 75.0508 231.309 78.7891C231.309 82.5273 229.258 85.3398 226.141 85.3398C223.012 85.3398 220.973 82.5273 220.973 78.7891C220.973 75.0508 223.012 72.2383 226.141 72.2383ZM239.957 85V83.3945H241.551V74.1602H239.957V72.5547H243.133L243.273 74.3594C244.234 73.2109 245.441 72.2383 247.035 72.2383C249.508 72.2383 250.527 73.375 250.527 77.4414V83.3945H252.133V85H247.223V83.3945H248.688V77.4414C248.688 75.0977 248.383 74.0195 246.613 74.0195C245.137 74.0195 244.141 75.1094 243.391 75.918V83.3945H244.855V85H239.957ZM262.715 82.0117L263.852 83.1836C262.832 84.3906 261.297 85.3398 259.387 85.3398C254.887 85.3398 253.902 81.4375 253.902 78.5312C253.902 75.8828 255.027 72.2383 259.047 72.2383C263.348 72.2383 263.922 76.832 263.922 78.9297V79.3984H255.859C255.895 81.8359 257.184 83.6758 259.469 83.6758C260.582 83.6758 261.777 83.0781 262.715 82.0117ZM259.047 73.9023C256.656 73.9023 255.859 76.0586 255.859 77.8398H262C262 76.0586 261.297 73.9023 259.047 73.9023ZM274.164 82.0117L275.301 83.1602C274.375 84.4258 272.957 85.3398 270.895 85.3398C267.742 85.3398 265.727 82.5273 265.727 78.7891C265.727 75.3086 267.543 72.2383 270.766 72.2383C272.219 72.2383 273.309 72.918 273.859 74.043L273.965 72.5547H275.172V76.9844H273.777C273.73 76.4922 273.297 73.9023 270.941 73.9023C268.82 73.9023 267.566 75.8828 267.566 78.7891C267.566 81.6953 268.844 83.6758 271.07 83.6758C272.277 83.6758 273.355 83.0898 274.164 82.0117ZM285.918 82.0117L287.055 83.1836C286.035 84.3906 284.5 85.3398 282.59 85.3398C278.09 85.3398 277.105 81.4375 277.105 78.5312C277.105 75.8828 278.23 72.2383 282.25 72.2383C286.551 72.2383 287.125 76.832 287.125 78.9297V79.3984H279.062C279.098 81.8359 280.387 83.6758 282.672 83.6758C283.785 83.6758 284.98 83.0781 285.918 82.0117ZM282.25 73.9023C279.859 73.9023 279.062 76.0586 279.062 77.8398H285.203C285.203 76.0586 284.5 73.9023 282.25 73.9023ZM296.441 72.5547H297.648V76.1172H296.301C296.219 75.707 296.066 75.332 295.82 75.0039C295.422 74.4531 294.66 73.8789 293.336 73.8789C291.227 73.8789 291.027 75.0977 291.027 75.6602C291.027 77.3125 292.27 77.5703 294.191 77.875C296.207 78.2266 298.316 78.8477 298.316 81.5547C298.316 84.25 296.547 85.3398 294.297 85.3398C292.082 85.3398 290.922 84.0977 290.512 83.5L290.371 85H289.188V81.2383H290.523C290.652 81.6953 290.863 82.1172 291.168 82.4805C291.672 83.1133 292.574 83.7109 294.086 83.7109C295.598 83.7109 296.477 83.0781 296.477 81.7539C296.477 80.3008 295.352 80.0195 293.57 79.6797C291.543 79.3047 289.258 78.7656 289.258 75.7773C289.258 74.5938 289.727 72.2383 293.125 72.2383C295.082 72.2383 296.055 73.1523 296.312 73.7852L296.441 72.5547ZM300.332 85V83.3945H302.23V74.1602H300.332V72.5547H304.07V83.3945H305.957V85H300.332ZM304.176 67.293V69.707H301.949V67.293H304.176ZM308.535 81.0273V68.8398H310.375V72.5547H314.535V74.1602H310.375V80.8281C310.375 82.5273 310.762 83.5586 312.121 83.5586C312.766 83.5586 313.352 83.4062 313.809 83.2305C314.066 83.1367 314.312 83.0195 314.535 82.8906L314.969 84.4375C314.652 84.6133 314.312 84.7656 313.973 84.8945C313.375 85.1172 312.602 85.3398 311.852 85.3398C309.004 85.3398 308.535 83.2422 308.535 81.0273ZM327.098 83.3945V85H323.91L323.781 83.418C322.961 84.3672 321.66 85.3398 319.961 85.3398C318.086 85.3398 316.281 84.2734 316.281 81.4023C316.281 78.625 318.203 77.3945 321.109 77.3945H323.652V76.457C323.652 74.6758 322.527 73.8438 320.723 73.8438C319.785 73.8438 319.023 74.0078 318.473 74.1602C318.156 74.2539 317.863 74.3594 317.594 74.4766L317.148 72.9297C317.488 72.8008 317.863 72.6953 318.25 72.5898C318.918 72.4141 319.832 72.2383 320.816 72.2383C323.523 72.2383 325.492 73.5625 325.492 76.7734V83.3945H327.098ZM320.301 83.7109C321.613 83.7109 322.867 82.7148 323.652 81.8125V79H321.109C319.551 79 318.121 79.457 318.121 81.4023C318.121 83.2188 319.305 83.7109 320.301 83.7109ZM342.59 85.3398C341.348 85.3398 339.707 84.707 338.828 82.7617V88.5039H340.645V90.1211H335.395V88.5039H336.988V74.1602H335.395V72.5547H338.828V74.793C339.672 72.8711 341.23 72.2383 342.59 72.2383C344.559 72.2383 347.289 73.5156 347.289 78.7305C347.289 83.9805 344.512 85.3398 342.59 85.3398ZM342.168 83.6758C343.445 83.6758 345.461 82.6094 345.461 78.7305C345.461 74.8516 343.445 73.9023 342.168 73.9023C340.727 73.9023 338.781 74.9922 338.781 78.7305C338.781 82.3516 340.727 83.6758 342.168 83.6758ZM349.293 74.1602V72.5547H352.492L352.621 74.3008C353.676 73.0938 354.719 72.2383 356.184 72.2383C356.641 72.2383 357.027 72.3555 357.32 72.4609C357.496 72.5195 357.648 72.5898 357.789 72.6719L357.203 74.3242C357.062 74.2656 356.922 74.207 356.781 74.1602C356.535 74.0781 356.207 73.9961 355.914 73.9961C354.227 73.9961 353.289 75.5547 352.727 76.1758V83.3945H356.043V85H349.293V83.3945H350.887V74.1602H349.293ZM367.41 82.0117L368.547 83.1836C367.527 84.3906 365.992 85.3398 364.082 85.3398C359.582 85.3398 358.598 81.4375 358.598 78.5312C358.598 75.8828 359.723 72.2383 363.742 72.2383C368.043 72.2383 368.617 76.832 368.617 78.9297V79.3984H360.555C360.59 81.8359 361.879 83.6758 364.164 83.6758C365.277 83.6758 366.473 83.0781 367.41 82.0117ZM363.742 73.9023C361.352 73.9023 360.555 76.0586 360.555 77.8398H366.695C366.695 76.0586 365.992 73.9023 363.742 73.9023ZM377.934 72.5547H379.141V76.1172H377.793C377.711 75.707 377.559 75.332 377.312 75.0039C376.914 74.4531 376.152 73.8789 374.828 73.8789C372.719 73.8789 372.52 75.0977 372.52 75.6602C372.52 77.3125 373.762 77.5703 375.684 77.875C377.699 78.2266 379.809 78.8477 379.809 81.5547C379.809 84.25 378.039 85.3398 375.789 85.3398C373.574 85.3398 372.414 84.0977 372.004 83.5L371.863 85H370.68V81.2383H372.016C372.145 81.6953 372.355 82.1172 372.66 82.4805C373.164 83.1133 374.066 83.7109 375.578 83.7109C377.09 83.7109 377.969 83.0781 377.969 81.7539C377.969 80.3008 376.844 80.0195 375.062 79.6797C373.035 79.3047 370.75 78.7656 370.75 75.7773C370.75 74.5938 371.219 72.2383 374.617 72.2383C376.574 72.2383 377.547 73.1523 377.805 73.7852L377.934 72.5547ZM390.473 82.0117L391.609 83.1836C390.59 84.3906 389.055 85.3398 387.145 85.3398C382.645 85.3398 381.66 81.4375 381.66 78.5312C381.66 75.8828 382.785 72.2383 386.805 72.2383C391.105 72.2383 391.68 76.832 391.68 78.9297V79.3984H383.617C383.652 81.8359 384.941 83.6758 387.227 83.6758C388.34 83.6758 389.535 83.0781 390.473 82.0117ZM386.805 73.9023C384.414 73.9023 383.617 76.0586 383.617 77.8398H389.758C389.758 76.0586 389.055 73.9023 386.805 73.9023ZM393.66 85V83.3945H395.254V74.1602H393.66V72.5547H396.836L396.977 74.3594C397.938 73.2109 399.145 72.2383 400.738 72.2383C403.211 72.2383 404.23 73.375 404.23 77.4414V83.3945H405.836V85H400.926V83.3945H402.391V77.4414C402.391 75.0977 402.086 74.0195 400.316 74.0195C398.84 74.0195 397.844 75.1094 397.094 75.918V83.3945H398.559V85H393.66ZM408.449 81.0273V68.8398H410.289V72.5547H414.449V74.1602H410.289V80.8281C410.289 82.5273 410.676 83.5586 412.035 83.5586C412.68 83.5586 413.266 83.4062 413.723 83.2305C413.98 83.1367 414.227 83.0195 414.449 82.8906L414.883 84.4375C414.566 84.6133 414.227 84.7656 413.887 84.8945C413.289 85.1172 412.516 85.3398 411.766 85.3398C408.918 85.3398 408.449 83.2422 408.449 81.0273ZM427.012 83.3945V85H423.824L423.695 83.418C422.875 84.3672 421.574 85.3398 419.875 85.3398C418 85.3398 416.195 84.2734 416.195 81.4023C416.195 78.625 418.117 77.3945 421.023 77.3945H423.566V76.457C423.566 74.6758 422.441 73.8438 420.637 73.8438C419.699 73.8438 418.938 74.0078 418.387 74.1602C418.07 74.2539 417.777 74.3594 417.508 74.4766L417.062 72.9297C417.402 72.8008 417.777 72.6953 418.164 72.5898C418.832 72.4141 419.746 72.2383 420.73 72.2383C423.438 72.2383 425.406 73.5625 425.406 76.7734V83.3945H427.012ZM420.215 83.7109C421.527 83.7109 422.781 82.7148 423.566 81.8125V79H421.023C419.465 79 418.035 79.457 418.035 81.4023C418.035 83.2188 419.219 83.7109 420.215 83.7109ZM437.125 82.0117L438.262 83.1602C437.336 84.4258 435.918 85.3398 433.855 85.3398C430.703 85.3398 428.688 82.5273 428.688 78.7891C428.688 75.3086 430.504 72.2383 433.727 72.2383C435.18 72.2383 436.27 72.918 436.82 74.043L436.926 72.5547H438.133V76.9844H436.738C436.691 76.4922 436.258 73.9023 433.902 73.9023C431.781 73.9023 430.527 75.8828 430.527 78.7891C430.527 81.6953 431.805 83.6758 434.031 83.6758C435.238 83.6758 436.316 83.0898 437.125 82.0117ZM440.23 85V83.3945H442.129V74.1602H440.23V72.5547H443.969V83.3945H445.855V85H440.23ZM444.074 67.293V69.707H441.848V67.293H444.074ZM452.734 73.9023C450.672 73.9023 449.406 75.7773 449.406 78.7891C449.406 81.8125 450.672 83.6758 452.734 83.6758C454.797 83.6758 456.062 81.8125 456.062 78.7891C456.062 75.7773 454.797 73.9023 452.734 73.9023ZM452.734 72.2383C455.852 72.2383 457.902 75.0508 457.902 78.7891C457.902 82.5273 455.852 85.3398 452.734 85.3398C449.605 85.3398 447.566 82.5273 447.566 78.7891C447.566 75.0508 449.605 72.2383 452.734 72.2383ZM451.035 69.707L453.977 65.3945H455.957L452.711 69.707H451.035ZM459.848 85V83.3945H461.441V74.1602H459.848V72.5547H463.023L463.164 74.3594C464.125 73.2109 465.332 72.2383 466.926 72.2383C469.398 72.2383 470.418 73.375 470.418 77.4414V83.3945H472.023V85H467.113V83.3945H468.578V77.4414C468.578 75.0977 468.273 74.0195 466.504 74.0195C465.027 74.0195 464.031 75.1094 463.281 75.918V83.3945H464.746V85H459.848ZM476.781 82.4453V85H474.414V82.4453H476.781ZM95.8867 115.336V117H93.0742L89.5586 110.039C89.3125 110.074 89.0898 110.074 88.8438 110.074H86.8281V115.336H88.7148V117H83.3828V115.336H84.9297V102.539H83.3828V100.84H88.8555C91.9023 100.84 94.6914 101.848 94.6914 105.469C94.6914 107.672 93.4375 109.195 91.4336 109.723L94.3398 115.336H95.8867ZM88.8555 102.539H86.8281V108.375H89.2539C91.5391 108.375 92.7695 107.355 92.7695 105.445C92.7695 103.57 91.5391 102.539 88.8555 102.539ZM106.059 114.012L107.195 115.184C106.176 116.391 104.641 117.34 102.73 117.34C98.2305 117.34 97.2461 113.438 97.2461 110.531C97.2461 107.883 98.3711 104.238 102.391 104.238C106.691 104.238 107.266 108.832 107.266 110.93V111.398H99.2031C99.2383 113.836 100.527 115.676 102.812 115.676C103.926 115.676 105.121 115.078 106.059 114.012ZM102.391 105.902C100 105.902 99.2031 108.059 99.2031 109.84H105.344C105.344 108.059 104.641 105.902 102.391 105.902ZM109.246 117V115.395H110.84V106.16H109.246V104.555H112.422L112.562 106.359C113.523 105.211 114.73 104.238 116.324 104.238C118.797 104.238 119.816 105.375 119.816 109.441V115.395H121.422V117H116.512V115.395H117.977V109.441C117.977 107.098 117.672 106.02 115.902 106.02C114.426 106.02 113.43 107.109 112.68 107.918V115.395H114.145V117H109.246ZM127.949 104.238C129.039 104.238 130.832 104.777 131.676 106.734V100.734L129.238 100.875L129.121 99.2578L133.516 98.9531V115.395H135.121V117H131.805L131.676 114.926C130.973 116.531 129.719 117.34 127.914 117.34C126.086 117.34 123.215 115.898 123.215 110.789C123.215 105.703 126.039 104.238 127.949 104.238ZM128.359 105.902C126.859 105.902 125.055 107.109 125.055 110.789C125.055 114.586 127 115.676 128.324 115.676C129.824 115.676 131.734 114.645 131.734 110.789C131.734 107.25 129.953 105.902 128.359 105.902ZM137.02 117V115.395H138.918V106.16H137.02V104.555H140.758V115.395H142.645V117H137.02ZM140.863 99.293V101.707H138.637V99.293H140.863ZM144.66 117V115.395H146.254V106.16H144.66V104.555H147.953L148.047 105.645C148.738 104.977 150.145 104.238 151.562 104.238C152.77 104.238 153.367 104.883 153.742 105.504C154.211 105.129 155.641 104.238 157.387 104.238C159.625 104.238 160.422 106.102 160.422 107.859V115.395H161.887V117H158.582V108.41C158.582 107.227 158.453 105.902 157 105.902C155.852 105.902 154.422 106.781 154.199 106.91C154.328 107.461 154.328 107.777 154.328 108.234V115.395H156.016V117H152.488V108.234C152.488 107.086 152.277 105.902 150.906 105.902C150.25 105.902 149.559 106.207 149.008 106.5C148.691 106.676 148.387 106.863 148.094 107.086V115.395H149.793V117H144.66ZM163.949 117V115.395H165.848V106.16H163.949V104.555H167.688V115.395H169.574V117H163.949ZM167.793 99.293V101.707H165.566V99.293H167.793ZM180.121 114.012L181.258 115.184C180.238 116.391 178.703 117.34 176.793 117.34C172.293 117.34 171.309 113.438 171.309 110.531C171.309 107.883 172.434 104.238 176.453 104.238C180.754 104.238 181.328 108.832 181.328 110.93V111.398H173.266C173.301 113.836 174.59 115.676 176.875 115.676C177.988 115.676 179.184 115.078 180.121 114.012ZM176.453 105.902C174.062 105.902 173.266 108.059 173.266 109.84H179.406C179.406 108.059 178.703 105.902 176.453 105.902ZM183.309 117V115.395H184.902V106.16H183.309V104.555H186.484L186.625 106.359C187.586 105.211 188.793 104.238 190.387 104.238C192.859 104.238 193.879 105.375 193.879 109.441V115.395H195.484V117H190.574V115.395H192.039V109.441C192.039 107.098 191.734 106.02 189.965 106.02C188.488 106.02 187.492 107.109 186.742 107.918V115.395H188.207V117H183.309ZM198.098 113.027V100.84H199.938V104.555H204.098V106.16H199.938V112.828C199.938 114.527 200.324 115.559 201.684 115.559C202.328 115.559 202.914 115.406 203.371 115.23C203.629 115.137 203.875 115.02 204.098 114.891L204.531 116.438C204.215 116.613 203.875 116.766 203.535 116.895C202.938 117.117 202.164 117.34 201.414 117.34C198.566 117.34 198.098 115.242 198.098 113.027ZM210.859 105.902C208.797 105.902 207.531 107.777 207.531 110.789C207.531 113.812 208.797 115.676 210.859 115.676C212.922 115.676 214.188 113.812 214.188 110.789C214.188 107.777 212.922 105.902 210.859 105.902ZM210.859 104.238C213.977 104.238 216.027 107.051 216.027 110.789C216.027 114.527 213.977 117.34 210.859 117.34C207.73 117.34 205.691 114.527 205.691 110.789C205.691 107.051 207.73 104.238 210.859 104.238ZM229.27 117.34C227.359 117.34 224.535 115.887 224.535 110.789C224.535 105.645 227.406 104.238 229.234 104.238C230.594 104.238 232.188 104.918 232.996 106.734V104.555H236.441V106.16H234.836V120.504H236.441V122.121H231.18V120.504H232.996V114.926C232.152 116.977 230.359 117.34 229.27 117.34ZM229.68 115.676C231.262 115.676 233.055 114.504 233.055 110.789C233.055 107.086 231.145 105.902 229.645 105.902C228.32 105.902 226.375 106.98 226.375 110.789C226.375 114.48 228.18 115.676 229.68 115.676ZM248.652 104.555V115.395H250.246V117H247.059L246.941 115.02C246.191 116.051 244.902 117.34 243.121 117.34C240.496 117.34 239.676 115.395 239.676 112.312V106.16H238.082V104.555H241.516V112.43C241.516 113.777 241.539 115.676 243.508 115.676C244.469 115.676 245.301 115.125 245.887 114.574C246.227 114.258 246.543 113.883 246.812 113.461V106.16H245.172V104.555H248.652ZM260.793 114.012L261.93 115.184C260.91 116.391 259.375 117.34 257.465 117.34C252.965 117.34 251.98 113.438 251.98 110.531C251.98 107.883 253.105 104.238 257.125 104.238C261.426 104.238 262 108.832 262 110.93V111.398H253.938C253.973 113.836 255.262 115.676 257.547 115.676C258.66 115.676 259.855 115.078 260.793 114.012ZM257.125 105.902C254.734 105.902 253.938 108.059 253.938 109.84H260.078C260.078 108.059 259.375 105.902 257.125 105.902ZM278.02 104.555H279.227V108.117H277.879C277.797 107.707 277.645 107.332 277.398 107.004C277 106.453 276.238 105.879 274.914 105.879C272.805 105.879 272.605 107.098 272.605 107.66C272.605 109.312 273.848 109.57 275.77 109.875C277.785 110.227 279.895 110.848 279.895 113.555C279.895 116.25 278.125 117.34 275.875 117.34C273.66 117.34 272.5 116.098 272.09 115.5L271.949 117H270.766V113.238H272.102C272.23 113.695 272.441 114.117 272.746 114.48C273.25 115.113 274.152 115.711 275.664 115.711C277.176 115.711 278.055 115.078 278.055 113.754C278.055 112.301 276.93 112.02 275.148 111.68C273.121 111.305 270.836 110.766 270.836 107.777C270.836 106.594 271.305 104.238 274.703 104.238C276.66 104.238 277.633 105.152 277.891 105.785L278.02 104.555ZM290.559 114.012L291.695 115.184C290.676 116.391 289.141 117.34 287.23 117.34C282.73 117.34 281.746 113.438 281.746 110.531C281.746 107.883 282.871 104.238 286.891 104.238C291.191 104.238 291.766 108.832 291.766 110.93V111.398H283.703C283.738 113.836 285.027 115.676 287.312 115.676C288.426 115.676 289.621 115.078 290.559 114.012ZM286.891 105.902C284.5 105.902 283.703 108.059 283.703 109.84H289.844C289.844 108.059 289.141 105.902 286.891 105.902ZM307.785 104.555H308.992V108.117H307.645C307.562 107.707 307.41 107.332 307.164 107.004C306.766 106.453 306.004 105.879 304.68 105.879C302.57 105.879 302.371 107.098 302.371 107.66C302.371 109.312 303.613 109.57 305.535 109.875C307.551 110.227 309.66 110.848 309.66 113.555C309.66 116.25 307.891 117.34 305.641 117.34C303.426 117.34 302.266 116.098 301.855 115.5L301.715 117H300.531V113.238H301.867C301.996 113.695 302.207 114.117 302.512 114.48C303.016 115.113 303.918 115.711 305.43 115.711C306.941 115.711 307.82 115.078 307.82 113.754C307.82 112.301 306.695 112.02 304.914 111.68C302.887 111.305 300.602 110.766 300.602 107.777C300.602 106.594 301.07 104.238 304.469 104.238C306.426 104.238 307.398 105.152 307.656 105.785L307.785 104.555ZM311.676 117V115.395H313.574V106.16H311.676V104.555H315.414V115.395H317.301V117H311.676ZM315.52 99.293V101.707H313.293V99.293H315.52ZM327.848 114.012L328.984 115.184C327.965 116.391 326.43 117.34 324.52 117.34C320.02 117.34 319.035 113.438 319.035 110.531C319.035 107.883 320.16 104.238 324.18 104.238C328.48 104.238 329.055 108.832 329.055 110.93V111.398H320.992C321.027 113.836 322.316 115.676 324.602 115.676C325.715 115.676 326.91 115.078 327.848 114.012ZM324.18 105.902C321.789 105.902 320.992 108.059 320.992 109.84H327.133C327.133 108.059 326.43 105.902 324.18 105.902ZM331.035 117V115.395H332.629V106.16H331.035V104.555H334.211L334.352 106.359C335.312 105.211 336.52 104.238 338.113 104.238C340.586 104.238 341.605 105.375 341.605 109.441V115.395H343.211V117H338.301V115.395H339.766V109.441C339.766 107.098 339.461 106.02 337.691 106.02C336.215 106.02 335.219 107.109 334.469 107.918V115.395H335.934V117H331.035ZM345.824 113.027V100.84H347.664V104.555H351.824V106.16H347.664V112.828C347.664 114.527 348.051 115.559 349.41 115.559C350.055 115.559 350.641 115.406 351.098 115.23C351.355 115.137 351.602 115.02 351.824 114.891L352.258 116.438C351.941 116.613 351.602 116.766 351.262 116.895C350.664 117.117 349.891 117.34 349.141 117.34C346.293 117.34 345.824 115.242 345.824 113.027ZM362.254 114.012L363.391 115.184C362.371 116.391 360.836 117.34 358.926 117.34C354.426 117.34 353.441 113.438 353.441 110.531C353.441 107.883 354.566 104.238 358.586 104.238C362.887 104.238 363.461 108.832 363.461 110.93V111.398H355.398C355.434 113.836 356.723 115.676 359.008 115.676C360.121 115.676 361.316 115.078 362.254 114.012ZM358.586 105.902C356.195 105.902 355.398 108.059 355.398 109.84H361.539C361.539 108.059 360.836 105.902 358.586 105.902ZM382.809 115.395V117H379.621L379.492 115.418C378.672 116.367 377.371 117.34 375.672 117.34C373.797 117.34 371.992 116.273 371.992 113.402C371.992 110.625 373.914 109.395 376.82 109.395H379.363V108.457C379.363 106.676 378.238 105.844 376.434 105.844C375.496 105.844 374.734 106.008 374.184 106.16C373.867 106.254 373.574 106.359 373.305 106.477L372.859 104.93C373.199 104.801 373.574 104.695 373.961 104.59C374.629 104.414 375.543 104.238 376.527 104.238C379.234 104.238 381.203 105.562 381.203 108.773V115.395H382.809ZM376.012 115.711C377.324 115.711 378.578 114.715 379.363 113.812V111H376.82C375.262 111 373.832 111.457 373.832 113.402C373.832 115.219 375.016 115.711 376.012 115.711ZM384.66 117V115.395H386.254V106.16H384.66V104.555H387.836L387.977 106.359C388.938 105.211 390.145 104.238 391.738 104.238C394.211 104.238 395.23 105.375 395.23 109.441V115.395H396.836V117H391.926V115.395H393.391V109.441C393.391 107.098 393.086 106.02 391.316 106.02C389.84 106.02 388.844 107.109 388.094 107.918V115.395H389.559V117H384.66ZM399.449 113.027V100.84H401.289V104.555H405.449V106.16H401.289V112.828C401.289 114.527 401.676 115.559 403.035 115.559C403.68 115.559 404.266 115.406 404.723 115.23C404.98 115.137 405.227 115.02 405.449 114.891L405.883 116.438C405.566 116.613 405.227 116.766 404.887 116.895C404.289 117.117 403.516 117.34 402.766 117.34C399.918 117.34 399.449 115.242 399.449 113.027ZM415.879 114.012L417.016 115.184C415.996 116.391 414.461 117.34 412.551 117.34C408.051 117.34 407.066 113.438 407.066 110.531C407.066 107.883 408.191 104.238 412.211 104.238C416.512 104.238 417.086 108.832 417.086 110.93V111.398H409.023C409.059 113.836 410.348 115.676 412.633 115.676C413.746 115.676 414.941 115.078 415.879 114.012ZM412.211 105.902C409.82 105.902 409.023 108.059 409.023 109.84H415.164C415.164 108.059 414.461 105.902 412.211 105.902ZM426.402 104.555H427.609V108.117H426.262C426.18 107.707 426.027 107.332 425.781 107.004C425.383 106.453 424.621 105.879 423.297 105.879C421.188 105.879 420.988 107.098 420.988 107.66C420.988 109.312 422.23 109.57 424.152 109.875C426.168 110.227 428.277 110.848 428.277 113.555C428.277 116.25 426.508 117.34 424.258 117.34C422.043 117.34 420.883 116.098 420.473 115.5L420.332 117H419.148V113.238H420.484C420.613 113.695 420.824 114.117 421.129 114.48C421.633 115.113 422.535 115.711 424.047 115.711C425.559 115.711 426.438 115.078 426.438 113.754C426.438 112.301 425.312 112.02 423.531 111.68C421.504 111.305 419.219 110.766 419.219 107.777C419.219 106.594 419.688 104.238 423.086 104.238C425.043 104.238 426.016 105.152 426.273 105.785L426.402 104.555ZM87.6602 127.238C88.75 127.238 90.543 127.777 91.3867 129.734V123.734L88.9492 123.875L88.832 122.258L93.2266 121.953V138.395H94.832V140H91.5156L91.3867 137.926C90.6836 139.531 89.4297 140.34 87.625 140.34C85.7969 140.34 82.9258 138.898 82.9258 133.789C82.9258 128.703 85.75 127.238 87.6602 127.238ZM88.0703 128.902C86.5703 128.902 84.7656 130.109 84.7656 133.789C84.7656 137.586 86.7109 138.676 88.0352 138.676C89.5352 138.676 91.4453 137.645 91.4453 133.789C91.4453 130.25 89.6641 128.902 88.0703 128.902ZM105.379 137.012L106.516 138.184C105.496 139.391 103.961 140.34 102.051 140.34C97.5508 140.34 96.5664 136.438 96.5664 133.531C96.5664 130.883 97.6914 127.238 101.711 127.238C106.012 127.238 106.586 131.832 106.586 133.93V134.398H98.5234C98.5586 136.836 99.8477 138.676 102.133 138.676C103.246 138.676 104.441 138.078 105.379 137.012ZM101.711 128.902C99.3203 128.902 98.5234 131.059 98.5234 132.84H104.664C104.664 131.059 103.961 128.902 101.711 128.902ZM119.863 140.34C117.953 140.34 115.129 138.887 115.129 133.789C115.129 128.645 118 127.238 119.828 127.238C121.188 127.238 122.781 127.918 123.59 129.734V127.555H127.035V129.16H125.43V143.504H127.035V145.121H121.773V143.504H123.59V137.926C122.746 139.977 120.953 140.34 119.863 140.34ZM120.273 138.676C121.855 138.676 123.648 137.504 123.648 133.789C123.648 130.086 121.738 128.902 120.238 128.902C118.914 128.902 116.969 129.98 116.969 133.789C116.969 137.48 118.773 138.676 120.273 138.676ZM139.246 127.555V138.395H140.84V140H137.652L137.535 138.02C136.785 139.051 135.496 140.34 133.715 140.34C131.09 140.34 130.27 138.395 130.27 135.312V129.16H128.676V127.555H132.109V135.43C132.109 136.777 132.133 138.676 134.102 138.676C135.062 138.676 135.895 138.125 136.48 137.574C136.82 137.258 137.137 136.883 137.406 136.461V129.16H135.766V127.555H139.246ZM151.387 137.012L152.523 138.184C151.504 139.391 149.969 140.34 148.059 140.34C143.559 140.34 142.574 136.438 142.574 133.531C142.574 130.883 143.699 127.238 147.719 127.238C152.02 127.238 152.594 131.832 152.594 133.93V134.398H144.531C144.566 136.836 145.855 138.676 148.141 138.676C149.254 138.676 150.449 138.078 151.387 137.012ZM147.719 128.902C145.328 128.902 144.531 131.059 144.531 132.84H150.672C150.672 131.059 149.969 128.902 147.719 128.902ZM164.898 138.395H166.879V140H161.066V138.395H163.059V123.676L161.066 123.828L160.961 122.281L164.898 121.953V138.395ZM173.664 128.902C171.602 128.902 170.336 130.777 170.336 133.789C170.336 136.812 171.602 138.676 173.664 138.676C175.727 138.676 176.992 136.812 176.992 133.789C176.992 130.777 175.727 128.902 173.664 128.902ZM173.664 127.238C176.781 127.238 178.832 130.051 178.832 133.789C178.832 137.527 176.781 140.34 173.664 140.34C170.535 140.34 168.496 137.527 168.496 133.789C168.496 130.051 170.535 127.238 173.664 127.238ZM195.742 137.012L196.879 138.16C195.953 139.426 194.535 140.34 192.473 140.34C189.32 140.34 187.305 137.527 187.305 133.789C187.305 130.309 189.121 127.238 192.344 127.238C193.797 127.238 194.887 127.918 195.438 129.043L195.543 127.555H196.75V131.984H195.355C195.309 131.492 194.875 128.902 192.52 128.902C190.398 128.902 189.145 130.883 189.145 133.789C189.145 136.695 190.422 138.676 192.648 138.676C193.855 138.676 194.934 138.09 195.742 137.012ZM209.184 127.555V138.395H210.777V140H207.59L207.473 138.02C206.723 139.051 205.434 140.34 203.652 140.34C201.027 140.34 200.207 138.395 200.207 135.312V129.16H198.613V127.555H202.047V135.43C202.047 136.777 202.07 138.676 204.039 138.676C205 138.676 205.832 138.125 206.418 137.574C206.758 137.258 207.074 136.883 207.344 136.461V129.16H205.703V127.555H209.184ZM221.324 137.012L222.461 138.184C221.441 139.391 219.906 140.34 217.996 140.34C213.496 140.34 212.512 136.438 212.512 133.531C212.512 130.883 213.637 127.238 217.656 127.238C221.957 127.238 222.531 131.832 222.531 133.93V134.398H214.469C214.504 136.836 215.793 138.676 218.078 138.676C219.191 138.676 220.387 138.078 221.324 137.012ZM217.656 128.902C215.266 128.902 214.469 131.059 214.469 132.84H220.609C220.609 131.059 219.906 128.902 217.656 128.902ZM224.512 140V138.395H226.105V129.16H224.512V127.555H227.688L227.828 129.359C228.789 128.211 229.996 127.238 231.59 127.238C234.062 127.238 235.082 128.375 235.082 132.441V138.395H236.688V140H231.777V138.395H233.242V132.441C233.242 130.098 232.938 129.02 231.168 129.02C229.691 129.02 228.695 130.109 227.945 130.918V138.395H229.41V140H224.512ZM239.301 136.027V123.84H241.141V127.555H245.301V129.16H241.141V135.828C241.141 137.527 241.527 138.559 242.887 138.559C243.531 138.559 244.117 138.406 244.574 138.23C244.832 138.137 245.078 138.02 245.301 137.891L245.734 139.438C245.418 139.613 245.078 139.766 244.738 139.895C244.141 140.117 243.367 140.34 242.617 140.34C239.77 140.34 239.301 138.242 239.301 136.027ZM255.73 137.012L256.867 138.184C255.848 139.391 254.312 140.34 252.402 140.34C247.902 140.34 246.918 136.438 246.918 133.531C246.918 130.883 248.043 127.238 252.062 127.238C256.363 127.238 256.938 131.832 256.938 133.93V134.398H248.875C248.91 136.836 250.199 138.676 252.484 138.676C253.598 138.676 254.793 138.078 255.73 137.012ZM252.062 128.902C249.672 128.902 248.875 131.059 248.875 132.84H255.016C255.016 131.059 254.312 128.902 252.062 128.902ZM266.254 127.555H267.461V131.117H266.113C266.031 130.707 265.879 130.332 265.633 130.004C265.234 129.453 264.473 128.879 263.148 128.879C261.039 128.879 260.84 130.098 260.84 130.66C260.84 132.312 262.082 132.57 264.004 132.875C266.02 133.227 268.129 133.848 268.129 136.555C268.129 139.25 266.359 140.34 264.109 140.34C261.895 140.34 260.734 139.098 260.324 138.5L260.184 140H259V136.238H260.336C260.465 136.695 260.676 137.117 260.98 137.48C261.484 138.113 262.387 138.711 263.898 138.711C265.41 138.711 266.289 138.078 266.289 136.754C266.289 135.301 265.164 135.02 263.383 134.68C261.355 134.305 259.07 133.766 259.07 130.777C259.07 129.594 259.539 127.238 262.938 127.238C264.895 127.238 265.867 128.152 266.125 128.785L266.254 127.555ZM272.969 137.445V140H270.602V137.445H272.969Z" fill="white"/>

</svg>
