<svg width="1440" height="329" viewBox="0 0 1440 329" fill="none" xmlns="http://www.w3.org/2000/svg">
<rect width="1440" height="120" fill="url(#paint0_linear_304_48331)"/>
<rect width="1440" height="209" transform="translate(0 120)" fill="url(#paint1_linear_304_48331)"/>
<path d="M83.3477 190.539V188.84H88.5156C92.6055 188.84 95.5 191.734 95.5 196.832C95.5 202.188 92.6055 205 88.5156 205H83.3477V203.336H84.9297V190.539H83.3477ZM88.4453 190.539H86.8281V203.336H88.4453C90.9297 203.336 93.4844 202.258 93.4844 196.832C93.4844 191.98 90.9297 190.539 88.4453 190.539ZM97.5508 205V203.395H99.4492V194.16H97.5508V192.555H101.289V203.395H103.176V205H97.5508ZM101.395 187.293V189.707H99.168V187.293H101.395ZM112.41 192.555H113.617V196.117H112.27C112.188 195.707 112.035 195.332 111.789 195.004C111.391 194.453 110.629 193.879 109.305 193.879C107.195 193.879 106.996 195.098 106.996 195.66C106.996 197.312 108.238 197.57 110.16 197.875C112.176 198.227 114.285 198.848 114.285 201.555C114.285 204.25 112.516 205.34 110.266 205.34C108.051 205.34 106.891 204.098 106.48 203.5L106.34 205H105.156V201.238H106.492C106.621 201.695 106.832 202.117 107.137 202.48C107.641 203.113 108.543 203.711 110.055 203.711C111.566 203.711 112.445 203.078 112.445 201.754C112.445 200.301 111.32 200.02 109.539 199.68C107.512 199.305 105.227 198.766 105.227 195.777C105.227 194.594 105.695 192.238 109.094 192.238C111.051 192.238 112.023 193.152 112.281 193.785L112.41 192.555ZM124.949 202.012L126.086 203.184C125.066 204.391 123.531 205.34 121.621 205.34C117.121 205.34 116.137 201.438 116.137 198.531C116.137 195.883 117.262 192.238 121.281 192.238C125.582 192.238 126.156 196.832 126.156 198.93V199.398H118.094C118.129 201.836 119.418 203.676 121.703 203.676C122.816 203.676 124.012 203.078 124.949 202.012ZM121.281 193.902C118.891 193.902 118.094 196.059 118.094 197.84H124.234C124.234 196.059 123.531 193.902 121.281 193.902ZM128.137 205V203.395H129.73V194.16H128.137V192.555H131.312L131.453 194.359C132.414 193.211 133.621 192.238 135.215 192.238C137.688 192.238 138.707 193.375 138.707 197.441V203.395H140.312V205H135.402V203.395H136.867V197.441C136.867 195.098 136.562 194.02 134.793 194.02C133.316 194.02 132.32 195.109 131.57 195.918V203.395H133.035V205H128.137ZM130.785 190.047H129.367C129.367 188.406 130.082 186.66 131.992 186.66C133.867 186.66 134.512 188.559 135.789 188.559C136.598 188.559 136.996 187.738 136.996 186.66H138.379C138.379 188.301 137.688 190.047 135.789 190.047C133.914 190.047 133.176 188.16 131.992 188.16C131.184 188.16 130.785 188.969 130.785 190.047ZM147.227 193.902C145.164 193.902 143.898 195.777 143.898 198.789C143.898 201.812 145.164 203.676 147.227 203.676C149.289 203.676 150.555 201.812 150.555 198.789C150.555 195.777 149.289 193.902 147.227 193.902ZM147.227 192.238C150.344 192.238 152.395 195.051 152.395 198.789C152.395 202.527 150.344 205.34 147.227 205.34C144.098 205.34 142.059 202.527 142.059 198.789C142.059 195.051 144.098 192.238 147.227 192.238ZM165.637 205.34C163.727 205.34 160.902 203.887 160.902 198.789C160.902 193.645 163.773 192.238 165.602 192.238C166.961 192.238 168.555 192.918 169.363 194.734V192.555H172.809V194.16H171.203V208.504H172.809V210.121H167.547V208.504H169.363V202.926C168.52 204.977 166.727 205.34 165.637 205.34ZM166.047 203.676C167.629 203.676 169.422 202.504 169.422 198.789C169.422 195.086 167.512 193.902 166.012 193.902C164.688 193.902 162.742 194.98 162.742 198.789C162.742 202.48 164.547 203.676 166.047 203.676ZM185.02 192.555V203.395H186.613V205H183.426L183.309 203.02C182.559 204.051 181.27 205.34 179.488 205.34C176.863 205.34 176.043 203.395 176.043 200.312V194.16H174.449V192.555H177.883V200.43C177.883 201.777 177.906 203.676 179.875 203.676C180.836 203.676 181.668 203.125 182.254 202.574C182.594 202.258 182.91 201.883 183.18 201.461V194.16H181.539V192.555H185.02ZM197.16 202.012L198.297 203.184C197.277 204.391 195.742 205.34 193.832 205.34C189.332 205.34 188.348 201.438 188.348 198.531C188.348 195.883 189.473 192.238 193.492 192.238C197.793 192.238 198.367 196.832 198.367 198.93V199.398H190.305C190.34 201.836 191.629 203.676 193.914 203.676C195.027 203.676 196.223 203.078 197.16 202.012ZM193.492 193.902C191.102 193.902 190.305 196.059 190.305 197.84H196.445C196.445 196.059 195.742 193.902 193.492 193.902ZM207.051 205V203.395H208.645V194.16H207.051V192.555H210.227L210.367 194.359C211.328 193.211 212.535 192.238 214.129 192.238C216.602 192.238 217.621 193.375 217.621 197.441V203.395H219.227V205H214.316V203.395H215.781V197.441C215.781 195.098 215.477 194.02 213.707 194.02C212.23 194.02 211.234 195.109 210.484 195.918V203.395H211.949V205H207.051ZM226.141 193.902C224.078 193.902 222.812 195.777 222.812 198.789C222.812 201.812 224.078 203.676 226.141 203.676C228.203 203.676 229.469 201.812 229.469 198.789C229.469 195.777 228.203 193.902 226.141 193.902ZM226.141 192.238C229.258 192.238 231.309 195.051 231.309 198.789C231.309 202.527 229.258 205.34 226.141 205.34C223.012 205.34 220.973 202.527 220.973 198.789C220.973 195.051 223.012 192.238 226.141 192.238ZM239.957 205V203.395H241.551V194.16H239.957V192.555H243.133L243.273 194.359C244.234 193.211 245.441 192.238 247.035 192.238C249.508 192.238 250.527 193.375 250.527 197.441V203.395H252.133V205H247.223V203.395H248.688V197.441C248.688 195.098 248.383 194.02 246.613 194.02C245.137 194.02 244.141 195.109 243.391 195.918V203.395H244.855V205H239.957ZM262.715 202.012L263.852 203.184C262.832 204.391 261.297 205.34 259.387 205.34C254.887 205.34 253.902 201.438 253.902 198.531C253.902 195.883 255.027 192.238 259.047 192.238C263.348 192.238 263.922 196.832 263.922 198.93V199.398H255.859C255.895 201.836 257.184 203.676 259.469 203.676C260.582 203.676 261.777 203.078 262.715 202.012ZM259.047 193.902C256.656 193.902 255.859 196.059 255.859 197.84H262C262 196.059 261.297 193.902 259.047 193.902ZM274.164 202.012L275.301 203.16C274.375 204.426 272.957 205.34 270.895 205.34C267.742 205.34 265.727 202.527 265.727 198.789C265.727 195.309 267.543 192.238 270.766 192.238C272.219 192.238 273.309 192.918 273.859 194.043L273.965 192.555H275.172V196.984H273.777C273.73 196.492 273.297 193.902 270.941 193.902C268.82 193.902 267.566 195.883 267.566 198.789C267.566 201.695 268.844 203.676 271.07 203.676C272.277 203.676 273.355 203.09 274.164 202.012ZM285.918 202.012L287.055 203.184C286.035 204.391 284.5 205.34 282.59 205.34C278.09 205.34 277.105 201.438 277.105 198.531C277.105 195.883 278.23 192.238 282.25 192.238C286.551 192.238 287.125 196.832 287.125 198.93V199.398H279.062C279.098 201.836 280.387 203.676 282.672 203.676C283.785 203.676 284.98 203.078 285.918 202.012ZM282.25 193.902C279.859 193.902 279.062 196.059 279.062 197.84H285.203C285.203 196.059 284.5 193.902 282.25 193.902ZM296.441 192.555H297.648V196.117H296.301C296.219 195.707 296.066 195.332 295.82 195.004C295.422 194.453 294.66 193.879 293.336 193.879C291.227 193.879 291.027 195.098 291.027 195.66C291.027 197.312 292.27 197.57 294.191 197.875C296.207 198.227 298.316 198.848 298.316 201.555C298.316 204.25 296.547 205.34 294.297 205.34C292.082 205.34 290.922 204.098 290.512 203.5L290.371 205H289.188V201.238H290.523C290.652 201.695 290.863 202.117 291.168 202.48C291.672 203.113 292.574 203.711 294.086 203.711C295.598 203.711 296.477 203.078 296.477 201.754C296.477 200.301 295.352 200.02 293.57 199.68C291.543 199.305 289.258 198.766 289.258 195.777C289.258 194.594 289.727 192.238 293.125 192.238C295.082 192.238 296.055 193.152 296.312 193.785L296.441 192.555ZM300.332 205V203.395H302.23V194.16H300.332V192.555H304.07V203.395H305.957V205H300.332ZM304.176 187.293V189.707H301.949V187.293H304.176ZM308.535 201.027V188.84H310.375V192.555H314.535V194.16H310.375V200.828C310.375 202.527 310.762 203.559 312.121 203.559C312.766 203.559 313.352 203.406 313.809 203.23C314.066 203.137 314.312 203.02 314.535 202.891L314.969 204.438C314.652 204.613 314.312 204.766 313.973 204.895C313.375 205.117 312.602 205.34 311.852 205.34C309.004 205.34 308.535 203.242 308.535 201.027ZM327.098 203.395V205H323.91L323.781 203.418C322.961 204.367 321.66 205.34 319.961 205.34C318.086 205.34 316.281 204.273 316.281 201.402C316.281 198.625 318.203 197.395 321.109 197.395H323.652V196.457C323.652 194.676 322.527 193.844 320.723 193.844C319.785 193.844 319.023 194.008 318.473 194.16C318.156 194.254 317.863 194.359 317.594 194.477L317.148 192.93C317.488 192.801 317.863 192.695 318.25 192.59C318.918 192.414 319.832 192.238 320.816 192.238C323.523 192.238 325.492 193.562 325.492 196.773V203.395H327.098ZM320.301 203.711C321.613 203.711 322.867 202.715 323.652 201.812V199H321.109C319.551 199 318.121 199.457 318.121 201.402C318.121 203.219 319.305 203.711 320.301 203.711ZM342.59 205.34C341.348 205.34 339.707 204.707 338.828 202.762V208.504H340.645V210.121H335.395V208.504H336.988V194.16H335.395V192.555H338.828V194.793C339.672 192.871 341.23 192.238 342.59 192.238C344.559 192.238 347.289 193.516 347.289 198.73C347.289 203.98 344.512 205.34 342.59 205.34ZM342.168 203.676C343.445 203.676 345.461 202.609 345.461 198.73C345.461 194.852 343.445 193.902 342.168 193.902C340.727 193.902 338.781 194.992 338.781 198.73C338.781 202.352 340.727 203.676 342.168 203.676ZM349.293 194.16V192.555H352.492L352.621 194.301C353.676 193.094 354.719 192.238 356.184 192.238C356.641 192.238 357.027 192.355 357.32 192.461C357.496 192.52 357.648 192.59 357.789 192.672L357.203 194.324C357.062 194.266 356.922 194.207 356.781 194.16C356.535 194.078 356.207 193.996 355.914 193.996C354.227 193.996 353.289 195.555 352.727 196.176V203.395H356.043V205H349.293V203.395H350.887V194.16H349.293ZM367.41 202.012L368.547 203.184C367.527 204.391 365.992 205.34 364.082 205.34C359.582 205.34 358.598 201.438 358.598 198.531C358.598 195.883 359.723 192.238 363.742 192.238C368.043 192.238 368.617 196.832 368.617 198.93V199.398H360.555C360.59 201.836 361.879 203.676 364.164 203.676C365.277 203.676 366.473 203.078 367.41 202.012ZM363.742 193.902C361.352 193.902 360.555 196.059 360.555 197.84H366.695C366.695 196.059 365.992 193.902 363.742 193.902ZM377.934 192.555H379.141V196.117H377.793C377.711 195.707 377.559 195.332 377.312 195.004C376.914 194.453 376.152 193.879 374.828 193.879C372.719 193.879 372.52 195.098 372.52 195.66C372.52 197.312 373.762 197.57 375.684 197.875C377.699 198.227 379.809 198.848 379.809 201.555C379.809 204.25 378.039 205.34 375.789 205.34C373.574 205.34 372.414 204.098 372.004 203.5L371.863 205H370.68V201.238H372.016C372.145 201.695 372.355 202.117 372.66 202.48C373.164 203.113 374.066 203.711 375.578 203.711C377.09 203.711 377.969 203.078 377.969 201.754C377.969 200.301 376.844 200.02 375.062 199.68C373.035 199.305 370.75 198.766 370.75 195.777C370.75 194.594 371.219 192.238 374.617 192.238C376.574 192.238 377.547 193.152 377.805 193.785L377.934 192.555ZM390.473 202.012L391.609 203.184C390.59 204.391 389.055 205.34 387.145 205.34C382.645 205.34 381.66 201.438 381.66 198.531C381.66 195.883 382.785 192.238 386.805 192.238C391.105 192.238 391.68 196.832 391.68 198.93V199.398H383.617C383.652 201.836 384.941 203.676 387.227 203.676C388.34 203.676 389.535 203.078 390.473 202.012ZM386.805 193.902C384.414 193.902 383.617 196.059 383.617 197.84H389.758C389.758 196.059 389.055 193.902 386.805 193.902ZM393.66 205V203.395H395.254V194.16H393.66V192.555H396.836L396.977 194.359C397.938 193.211 399.145 192.238 400.738 192.238C403.211 192.238 404.23 193.375 404.23 197.441V203.395H405.836V205H400.926V203.395H402.391V197.441C402.391 195.098 402.086 194.02 400.316 194.02C398.84 194.02 397.844 195.109 397.094 195.918V203.395H398.559V205H393.66ZM408.449 201.027V188.84H410.289V192.555H414.449V194.16H410.289V200.828C410.289 202.527 410.676 203.559 412.035 203.559C412.68 203.559 413.266 203.406 413.723 203.23C413.98 203.137 414.227 203.02 414.449 202.891L414.883 204.438C414.566 204.613 414.227 204.766 413.887 204.895C413.289 205.117 412.516 205.34 411.766 205.34C408.918 205.34 408.449 203.242 408.449 201.027ZM427.012 203.395V205H423.824L423.695 203.418C422.875 204.367 421.574 205.34 419.875 205.34C418 205.34 416.195 204.273 416.195 201.402C416.195 198.625 418.117 197.395 421.023 197.395H423.566V196.457C423.566 194.676 422.441 193.844 420.637 193.844C419.699 193.844 418.938 194.008 418.387 194.16C418.07 194.254 417.777 194.359 417.508 194.477L417.062 192.93C417.402 192.801 417.777 192.695 418.164 192.59C418.832 192.414 419.746 192.238 420.73 192.238C423.438 192.238 425.406 193.562 425.406 196.773V203.395H427.012ZM420.215 203.711C421.527 203.711 422.781 202.715 423.566 201.812V199H421.023C419.465 199 418.035 199.457 418.035 201.402C418.035 203.219 419.219 203.711 420.215 203.711ZM437.125 202.012L438.262 203.16C437.336 204.426 435.918 205.34 433.855 205.34C430.703 205.34 428.688 202.527 428.688 198.789C428.688 195.309 430.504 192.238 433.727 192.238C435.18 192.238 436.27 192.918 436.82 194.043L436.926 192.555H438.133V196.984H436.738C436.691 196.492 436.258 193.902 433.902 193.902C431.781 193.902 430.527 195.883 430.527 198.789C430.527 201.695 431.805 203.676 434.031 203.676C435.238 203.676 436.316 203.09 437.125 202.012ZM440.23 205V203.395H442.129V194.16H440.23V192.555H443.969V203.395H445.855V205H440.23ZM444.074 187.293V189.707H441.848V187.293H444.074ZM452.734 193.902C450.672 193.902 449.406 195.777 449.406 198.789C449.406 201.812 450.672 203.676 452.734 203.676C454.797 203.676 456.062 201.812 456.062 198.789C456.062 195.777 454.797 193.902 452.734 193.902ZM452.734 192.238C455.852 192.238 457.902 195.051 457.902 198.789C457.902 202.527 455.852 205.34 452.734 205.34C449.605 205.34 447.566 202.527 447.566 198.789C447.566 195.051 449.605 192.238 452.734 192.238ZM451.035 189.707L453.977 185.395H455.957L452.711 189.707H451.035ZM459.848 205V203.395H461.441V194.16H459.848V192.555H463.023L463.164 194.359C464.125 193.211 465.332 192.238 466.926 192.238C469.398 192.238 470.418 193.375 470.418 197.441V203.395H472.023V205H467.113V203.395H468.578V197.441C468.578 195.098 468.273 194.02 466.504 194.02C465.027 194.02 464.031 195.109 463.281 195.918V203.395H464.746V205H459.848ZM476.781 202.445V205H474.414V202.445H476.781ZM95.8867 235.336V237H93.0742L89.5586 230.039C89.3125 230.074 89.0898 230.074 88.8438 230.074H86.8281V235.336H88.7148V237H83.3828V235.336H84.9297V222.539H83.3828V220.84H88.8555C91.9023 220.84 94.6914 221.848 94.6914 225.469C94.6914 227.672 93.4375 229.195 91.4336 229.723L94.3398 235.336H95.8867ZM88.8555 222.539H86.8281V228.375H89.2539C91.5391 228.375 92.7695 227.355 92.7695 225.445C92.7695 223.57 91.5391 222.539 88.8555 222.539ZM106.059 234.012L107.195 235.184C106.176 236.391 104.641 237.34 102.73 237.34C98.2305 237.34 97.2461 233.438 97.2461 230.531C97.2461 227.883 98.3711 224.238 102.391 224.238C106.691 224.238 107.266 228.832 107.266 230.93V231.398H99.2031C99.2383 233.836 100.527 235.676 102.812 235.676C103.926 235.676 105.121 235.078 106.059 234.012ZM102.391 225.902C100 225.902 99.2031 228.059 99.2031 229.84H105.344C105.344 228.059 104.641 225.902 102.391 225.902ZM109.246 237V235.395H110.84V226.16H109.246V224.555H112.422L112.562 226.359C113.523 225.211 114.73 224.238 116.324 224.238C118.797 224.238 119.816 225.375 119.816 229.441V235.395H121.422V237H116.512V235.395H117.977V229.441C117.977 227.098 117.672 226.02 115.902 226.02C114.426 226.02 113.43 227.109 112.68 227.918V235.395H114.145V237H109.246ZM127.949 224.238C129.039 224.238 130.832 224.777 131.676 226.734V220.734L129.238 220.875L129.121 219.258L133.516 218.953V235.395H135.121V237H131.805L131.676 234.926C130.973 236.531 129.719 237.34 127.914 237.34C126.086 237.34 123.215 235.898 123.215 230.789C123.215 225.703 126.039 224.238 127.949 224.238ZM128.359 225.902C126.859 225.902 125.055 227.109 125.055 230.789C125.055 234.586 127 235.676 128.324 235.676C129.824 235.676 131.734 234.645 131.734 230.789C131.734 227.25 129.953 225.902 128.359 225.902ZM137.02 237V235.395H138.918V226.16H137.02V224.555H140.758V235.395H142.645V237H137.02ZM140.863 219.293V221.707H138.637V219.293H140.863ZM144.66 237V235.395H146.254V226.16H144.66V224.555H147.953L148.047 225.645C148.738 224.977 150.145 224.238 151.562 224.238C152.77 224.238 153.367 224.883 153.742 225.504C154.211 225.129 155.641 224.238 157.387 224.238C159.625 224.238 160.422 226.102 160.422 227.859V235.395H161.887V237H158.582V228.41C158.582 227.227 158.453 225.902 157 225.902C155.852 225.902 154.422 226.781 154.199 226.91C154.328 227.461 154.328 227.777 154.328 228.234V235.395H156.016V237H152.488V228.234C152.488 227.086 152.277 225.902 150.906 225.902C150.25 225.902 149.559 226.207 149.008 226.5C148.691 226.676 148.387 226.863 148.094 227.086V235.395H149.793V237H144.66ZM163.949 237V235.395H165.848V226.16H163.949V224.555H167.688V235.395H169.574V237H163.949ZM167.793 219.293V221.707H165.566V219.293H167.793ZM180.121 234.012L181.258 235.184C180.238 236.391 178.703 237.34 176.793 237.34C172.293 237.34 171.309 233.438 171.309 230.531C171.309 227.883 172.434 224.238 176.453 224.238C180.754 224.238 181.328 228.832 181.328 230.93V231.398H173.266C173.301 233.836 174.59 235.676 176.875 235.676C177.988 235.676 179.184 235.078 180.121 234.012ZM176.453 225.902C174.062 225.902 173.266 228.059 173.266 229.84H179.406C179.406 228.059 178.703 225.902 176.453 225.902ZM183.309 237V235.395H184.902V226.16H183.309V224.555H186.484L186.625 226.359C187.586 225.211 188.793 224.238 190.387 224.238C192.859 224.238 193.879 225.375 193.879 229.441V235.395H195.484V237H190.574V235.395H192.039V229.441C192.039 227.098 191.734 226.02 189.965 226.02C188.488 226.02 187.492 227.109 186.742 227.918V235.395H188.207V237H183.309ZM198.098 233.027V220.84H199.938V224.555H204.098V226.16H199.938V232.828C199.938 234.527 200.324 235.559 201.684 235.559C202.328 235.559 202.914 235.406 203.371 235.23C203.629 235.137 203.875 235.02 204.098 234.891L204.531 236.438C204.215 236.613 203.875 236.766 203.535 236.895C202.938 237.117 202.164 237.34 201.414 237.34C198.566 237.34 198.098 235.242 198.098 233.027ZM210.859 225.902C208.797 225.902 207.531 227.777 207.531 230.789C207.531 233.812 208.797 235.676 210.859 235.676C212.922 235.676 214.188 233.812 214.188 230.789C214.188 227.777 212.922 225.902 210.859 225.902ZM210.859 224.238C213.977 224.238 216.027 227.051 216.027 230.789C216.027 234.527 213.977 237.34 210.859 237.34C207.73 237.34 205.691 234.527 205.691 230.789C205.691 227.051 207.73 224.238 210.859 224.238ZM229.27 237.34C227.359 237.34 224.535 235.887 224.535 230.789C224.535 225.645 227.406 224.238 229.234 224.238C230.594 224.238 232.188 224.918 232.996 226.734V224.555H236.441V226.16H234.836V240.504H236.441V242.121H231.18V240.504H232.996V234.926C232.152 236.977 230.359 237.34 229.27 237.34ZM229.68 235.676C231.262 235.676 233.055 234.504 233.055 230.789C233.055 227.086 231.145 225.902 229.645 225.902C228.32 225.902 226.375 226.98 226.375 230.789C226.375 234.48 228.18 235.676 229.68 235.676ZM248.652 224.555V235.395H250.246V237H247.059L246.941 235.02C246.191 236.051 244.902 237.34 243.121 237.34C240.496 237.34 239.676 235.395 239.676 232.312V226.16H238.082V224.555H241.516V232.43C241.516 233.777 241.539 235.676 243.508 235.676C244.469 235.676 245.301 235.125 245.887 234.574C246.227 234.258 246.543 233.883 246.812 233.461V226.16H245.172V224.555H248.652ZM260.793 234.012L261.93 235.184C260.91 236.391 259.375 237.34 257.465 237.34C252.965 237.34 251.98 233.438 251.98 230.531C251.98 227.883 253.105 224.238 257.125 224.238C261.426 224.238 262 228.832 262 230.93V231.398H253.938C253.973 233.836 255.262 235.676 257.547 235.676C258.66 235.676 259.855 235.078 260.793 234.012ZM257.125 225.902C254.734 225.902 253.938 228.059 253.938 229.84H260.078C260.078 228.059 259.375 225.902 257.125 225.902ZM278.02 224.555H279.227V228.117H277.879C277.797 227.707 277.645 227.332 277.398 227.004C277 226.453 276.238 225.879 274.914 225.879C272.805 225.879 272.605 227.098 272.605 227.66C272.605 229.312 273.848 229.57 275.77 229.875C277.785 230.227 279.895 230.848 279.895 233.555C279.895 236.25 278.125 237.34 275.875 237.34C273.66 237.34 272.5 236.098 272.09 235.5L271.949 237H270.766V233.238H272.102C272.23 233.695 272.441 234.117 272.746 234.48C273.25 235.113 274.152 235.711 275.664 235.711C277.176 235.711 278.055 235.078 278.055 233.754C278.055 232.301 276.93 232.02 275.148 231.68C273.121 231.305 270.836 230.766 270.836 227.777C270.836 226.594 271.305 224.238 274.703 224.238C276.66 224.238 277.633 225.152 277.891 225.785L278.02 224.555ZM290.559 234.012L291.695 235.184C290.676 236.391 289.141 237.34 287.23 237.34C282.73 237.34 281.746 233.438 281.746 230.531C281.746 227.883 282.871 224.238 286.891 224.238C291.191 224.238 291.766 228.832 291.766 230.93V231.398H283.703C283.738 233.836 285.027 235.676 287.312 235.676C288.426 235.676 289.621 235.078 290.559 234.012ZM286.891 225.902C284.5 225.902 283.703 228.059 283.703 229.84H289.844C289.844 228.059 289.141 225.902 286.891 225.902ZM307.785 224.555H308.992V228.117H307.645C307.562 227.707 307.41 227.332 307.164 227.004C306.766 226.453 306.004 225.879 304.68 225.879C302.57 225.879 302.371 227.098 302.371 227.66C302.371 229.312 303.613 229.57 305.535 229.875C307.551 230.227 309.66 230.848 309.66 233.555C309.66 236.25 307.891 237.34 305.641 237.34C303.426 237.34 302.266 236.098 301.855 235.5L301.715 237H300.531V233.238H301.867C301.996 233.695 302.207 234.117 302.512 234.48C303.016 235.113 303.918 235.711 305.43 235.711C306.941 235.711 307.82 235.078 307.82 233.754C307.82 232.301 306.695 232.02 304.914 231.68C302.887 231.305 300.602 230.766 300.602 227.777C300.602 226.594 301.07 224.238 304.469 224.238C306.426 224.238 307.398 225.152 307.656 225.785L307.785 224.555ZM311.676 237V235.395H313.574V226.16H311.676V224.555H315.414V235.395H317.301V237H311.676ZM315.52 219.293V221.707H313.293V219.293H315.52ZM327.848 234.012L328.984 235.184C327.965 236.391 326.43 237.34 324.52 237.34C320.02 237.34 319.035 233.438 319.035 230.531C319.035 227.883 320.16 224.238 324.18 224.238C328.48 224.238 329.055 228.832 329.055 230.93V231.398H320.992C321.027 233.836 322.316 235.676 324.602 235.676C325.715 235.676 326.91 235.078 327.848 234.012ZM324.18 225.902C321.789 225.902 320.992 228.059 320.992 229.84H327.133C327.133 228.059 326.43 225.902 324.18 225.902ZM331.035 237V235.395H332.629V226.16H331.035V224.555H334.211L334.352 226.359C335.312 225.211 336.52 224.238 338.113 224.238C340.586 224.238 341.605 225.375 341.605 229.441V235.395H343.211V237H338.301V235.395H339.766V229.441C339.766 227.098 339.461 226.02 337.691 226.02C336.215 226.02 335.219 227.109 334.469 227.918V235.395H335.934V237H331.035ZM345.824 233.027V220.84H347.664V224.555H351.824V226.16H347.664V232.828C347.664 234.527 348.051 235.559 349.41 235.559C350.055 235.559 350.641 235.406 351.098 235.23C351.355 235.137 351.602 235.02 351.824 234.891L352.258 236.438C351.941 236.613 351.602 236.766 351.262 236.895C350.664 237.117 349.891 237.34 349.141 237.34C346.293 237.34 345.824 235.242 345.824 233.027ZM362.254 234.012L363.391 235.184C362.371 236.391 360.836 237.34 358.926 237.34C354.426 237.34 353.441 233.438 353.441 230.531C353.441 227.883 354.566 224.238 358.586 224.238C362.887 224.238 363.461 228.832 363.461 230.93V231.398H355.398C355.434 233.836 356.723 235.676 359.008 235.676C360.121 235.676 361.316 235.078 362.254 234.012ZM358.586 225.902C356.195 225.902 355.398 228.059 355.398 229.84H361.539C361.539 228.059 360.836 225.902 358.586 225.902ZM382.809 235.395V237H379.621L379.492 235.418C378.672 236.367 377.371 237.34 375.672 237.34C373.797 237.34 371.992 236.273 371.992 233.402C371.992 230.625 373.914 229.395 376.82 229.395H379.363V228.457C379.363 226.676 378.238 225.844 376.434 225.844C375.496 225.844 374.734 226.008 374.184 226.16C373.867 226.254 373.574 226.359 373.305 226.477L372.859 224.93C373.199 224.801 373.574 224.695 373.961 224.59C374.629 224.414 375.543 224.238 376.527 224.238C379.234 224.238 381.203 225.562 381.203 228.773V235.395H382.809ZM376.012 235.711C377.324 235.711 378.578 234.715 379.363 233.812V231H376.82C375.262 231 373.832 231.457 373.832 233.402C373.832 235.219 375.016 235.711 376.012 235.711ZM384.66 237V235.395H386.254V226.16H384.66V224.555H387.836L387.977 226.359C388.938 225.211 390.145 224.238 391.738 224.238C394.211 224.238 395.23 225.375 395.23 229.441V235.395H396.836V237H391.926V235.395H393.391V229.441C393.391 227.098 393.086 226.02 391.316 226.02C389.84 226.02 388.844 227.109 388.094 227.918V235.395H389.559V237H384.66ZM399.449 233.027V220.84H401.289V224.555H405.449V226.16H401.289V232.828C401.289 234.527 401.676 235.559 403.035 235.559C403.68 235.559 404.266 235.406 404.723 235.23C404.98 235.137 405.227 235.02 405.449 234.891L405.883 236.438C405.566 236.613 405.227 236.766 404.887 236.895C404.289 237.117 403.516 237.34 402.766 237.34C399.918 237.34 399.449 235.242 399.449 233.027ZM415.879 234.012L417.016 235.184C415.996 236.391 414.461 237.34 412.551 237.34C408.051 237.34 407.066 233.438 407.066 230.531C407.066 227.883 408.191 224.238 412.211 224.238C416.512 224.238 417.086 228.832 417.086 230.93V231.398H409.023C409.059 233.836 410.348 235.676 412.633 235.676C413.746 235.676 414.941 235.078 415.879 234.012ZM412.211 225.902C409.82 225.902 409.023 228.059 409.023 229.84H415.164C415.164 228.059 414.461 225.902 412.211 225.902ZM426.402 224.555H427.609V228.117H426.262C426.18 227.707 426.027 227.332 425.781 227.004C425.383 226.453 424.621 225.879 423.297 225.879C421.188 225.879 420.988 227.098 420.988 227.66C420.988 229.312 422.23 229.57 424.152 229.875C426.168 230.227 428.277 230.848 428.277 233.555C428.277 236.25 426.508 237.34 424.258 237.34C422.043 237.34 420.883 236.098 420.473 235.5L420.332 237H419.148V233.238H420.484C420.613 233.695 420.824 234.117 421.129 234.48C421.633 235.113 422.535 235.711 424.047 235.711C425.559 235.711 426.438 235.078 426.438 233.754C426.438 232.301 425.312 232.02 423.531 231.68C421.504 231.305 419.219 230.766 419.219 227.777C419.219 226.594 419.688 224.238 423.086 224.238C425.043 224.238 426.016 225.152 426.273 225.785L426.402 224.555ZM87.6602 247.238C88.75 247.238 90.543 247.777 91.3867 249.734V243.734L88.9492 243.875L88.832 242.258L93.2266 241.953V258.395H94.832V260H91.5156L91.3867 257.926C90.6836 259.531 89.4297 260.34 87.625 260.34C85.7969 260.34 82.9258 258.898 82.9258 253.789C82.9258 248.703 85.75 247.238 87.6602 247.238ZM88.0703 248.902C86.5703 248.902 84.7656 250.109 84.7656 253.789C84.7656 257.586 86.7109 258.676 88.0352 258.676C89.5352 258.676 91.4453 257.645 91.4453 253.789C91.4453 250.25 89.6641 248.902 88.0703 248.902ZM105.379 257.012L106.516 258.184C105.496 259.391 103.961 260.34 102.051 260.34C97.5508 260.34 96.5664 256.438 96.5664 253.531C96.5664 250.883 97.6914 247.238 101.711 247.238C106.012 247.238 106.586 251.832 106.586 253.93V254.398H98.5234C98.5586 256.836 99.8477 258.676 102.133 258.676C103.246 258.676 104.441 258.078 105.379 257.012ZM101.711 248.902C99.3203 248.902 98.5234 251.059 98.5234 252.84H104.664C104.664 251.059 103.961 248.902 101.711 248.902ZM119.863 260.34C117.953 260.34 115.129 258.887 115.129 253.789C115.129 248.645 118 247.238 119.828 247.238C121.188 247.238 122.781 247.918 123.59 249.734V247.555H127.035V249.16H125.43V263.504H127.035V265.121H121.773V263.504H123.59V257.926C122.746 259.977 120.953 260.34 119.863 260.34ZM120.273 258.676C121.855 258.676 123.648 257.504 123.648 253.789C123.648 250.086 121.738 248.902 120.238 248.902C118.914 248.902 116.969 249.98 116.969 253.789C116.969 257.48 118.773 258.676 120.273 258.676ZM139.246 247.555V258.395H140.84V260H137.652L137.535 258.02C136.785 259.051 135.496 260.34 133.715 260.34C131.09 260.34 130.27 258.395 130.27 255.312V249.16H128.676V247.555H132.109V255.43C132.109 256.777 132.133 258.676 134.102 258.676C135.062 258.676 135.895 258.125 136.48 257.574C136.82 257.258 137.137 256.883 137.406 256.461V249.16H135.766V247.555H139.246ZM151.387 257.012L152.523 258.184C151.504 259.391 149.969 260.34 148.059 260.34C143.559 260.34 142.574 256.438 142.574 253.531C142.574 250.883 143.699 247.238 147.719 247.238C152.02 247.238 152.594 251.832 152.594 253.93V254.398H144.531C144.566 256.836 145.855 258.676 148.141 258.676C149.254 258.676 150.449 258.078 151.387 257.012ZM147.719 248.902C145.328 248.902 144.531 251.059 144.531 252.84H150.672C150.672 251.059 149.969 248.902 147.719 248.902ZM164.898 258.395H166.879V260H161.066V258.395H163.059V243.676L161.066 243.828L160.961 242.281L164.898 241.953V258.395ZM173.664 248.902C171.602 248.902 170.336 250.777 170.336 253.789C170.336 256.812 171.602 258.676 173.664 258.676C175.727 258.676 176.992 256.812 176.992 253.789C176.992 250.777 175.727 248.902 173.664 248.902ZM173.664 247.238C176.781 247.238 178.832 250.051 178.832 253.789C178.832 257.527 176.781 260.34 173.664 260.34C170.535 260.34 168.496 257.527 168.496 253.789C168.496 250.051 170.535 247.238 173.664 247.238ZM195.742 257.012L196.879 258.16C195.953 259.426 194.535 260.34 192.473 260.34C189.32 260.34 187.305 257.527 187.305 253.789C187.305 250.309 189.121 247.238 192.344 247.238C193.797 247.238 194.887 247.918 195.438 249.043L195.543 247.555H196.75V251.984H195.355C195.309 251.492 194.875 248.902 192.52 248.902C190.398 248.902 189.145 250.883 189.145 253.789C189.145 256.695 190.422 258.676 192.648 258.676C193.855 258.676 194.934 258.09 195.742 257.012ZM209.184 247.555V258.395H210.777V260H207.59L207.473 258.02C206.723 259.051 205.434 260.34 203.652 260.34C201.027 260.34 200.207 258.395 200.207 255.312V249.16H198.613V247.555H202.047V255.43C202.047 256.777 202.07 258.676 204.039 258.676C205 258.676 205.832 258.125 206.418 257.574C206.758 257.258 207.074 256.883 207.344 256.461V249.16H205.703V247.555H209.184ZM221.324 257.012L222.461 258.184C221.441 259.391 219.906 260.34 217.996 260.34C213.496 260.34 212.512 256.438 212.512 253.531C212.512 250.883 213.637 247.238 217.656 247.238C221.957 247.238 222.531 251.832 222.531 253.93V254.398H214.469C214.504 256.836 215.793 258.676 218.078 258.676C219.191 258.676 220.387 258.078 221.324 257.012ZM217.656 248.902C215.266 248.902 214.469 251.059 214.469 252.84H220.609C220.609 251.059 219.906 248.902 217.656 248.902ZM224.512 260V258.395H226.105V249.16H224.512V247.555H227.688L227.828 249.359C228.789 248.211 229.996 247.238 231.59 247.238C234.062 247.238 235.082 248.375 235.082 252.441V258.395H236.688V260H231.777V258.395H233.242V252.441C233.242 250.098 232.938 249.02 231.168 249.02C229.691 249.02 228.695 250.109 227.945 250.918V258.395H229.41V260H224.512ZM239.301 256.027V243.84H241.141V247.555H245.301V249.16H241.141V255.828C241.141 257.527 241.527 258.559 242.887 258.559C243.531 258.559 244.117 258.406 244.574 258.23C244.832 258.137 245.078 258.02 245.301 257.891L245.734 259.438C245.418 259.613 245.078 259.766 244.738 259.895C244.141 260.117 243.367 260.34 242.617 260.34C239.77 260.34 239.301 258.242 239.301 256.027ZM255.73 257.012L256.867 258.184C255.848 259.391 254.312 260.34 252.402 260.34C247.902 260.34 246.918 256.438 246.918 253.531C246.918 250.883 248.043 247.238 252.062 247.238C256.363 247.238 256.938 251.832 256.938 253.93V254.398H248.875C248.91 256.836 250.199 258.676 252.484 258.676C253.598 258.676 254.793 258.078 255.73 257.012ZM252.062 248.902C249.672 248.902 248.875 251.059 248.875 252.84H255.016C255.016 251.059 254.312 248.902 252.062 248.902ZM266.254 247.555H267.461V251.117H266.113C266.031 250.707 265.879 250.332 265.633 250.004C265.234 249.453 264.473 248.879 263.148 248.879C261.039 248.879 260.84 250.098 260.84 250.66C260.84 252.312 262.082 252.57 264.004 252.875C266.02 253.227 268.129 253.848 268.129 256.555C268.129 259.25 266.359 260.34 264.109 260.34C261.895 260.34 260.734 259.098 260.324 258.5L260.184 260H259V256.238H260.336C260.465 256.695 260.676 257.117 260.98 257.48C261.484 258.113 262.387 258.711 263.898 258.711C265.41 258.711 266.289 258.078 266.289 256.754C266.289 255.301 265.164 255.02 263.383 254.68C261.355 254.305 259.07 253.766 259.07 250.777C259.07 249.594 259.539 247.238 262.938 247.238C264.895 247.238 265.867 248.152 266.125 248.785L266.254 247.555ZM272.969 257.445V260H270.602V257.445H272.969Z" fill="white"/>
<defs>
<linearGradient id="paint0_linear_304_48331" x1="721.377" y1="-1.85636e-06" x2="721.377" y2="120" gradientUnits="userSpaceOnUse">
<stop stop-opacity="0"/>
<stop offset="1" stop-opacity="0.6"/>
</linearGradient>
<linearGradient id="paint1_linear_304_48331" x1="721.377" y1="-3.23315e-06" x2="721.377" y2="209" gradientUnits="userSpaceOnUse">
<stop stop-opacity="0.6"/>
<stop offset="1" stop-opacity="0.8"/>
</linearGradient>
</defs>
</svg>
