<svg width="261" height="23" viewBox="0 0 261 23" fill="none" xmlns="http://www.w3.org/2000/svg">
<path d="M-0.000865599 22.418V20.3507H2.61962V4.4531H-0.000865599V2.34216H7.59853V4.4531H4.97805V20.3507H7.59853V22.418H-0.000865599ZM9.81896 22.418V20.4235H11.7989V8.9516H9.81896V6.95712H13.7642L13.9389 9.19909C15.1327 7.77238 16.6322 6.56405 18.6121 6.56405C21.6839 6.56405 22.9505 7.9762 22.9505 13.0279V20.4235H24.945V22.418H18.8451V20.4235H20.6648V13.0279C20.6648 10.1163 20.2863 8.7769 18.088 8.7769C16.2537 8.7769 15.0162 10.1308 14.0845 11.1353V20.4235H15.9043V22.418H9.81896ZM37.3125 18.7056L38.7246 20.1323C37.5745 21.7046 35.813 22.8402 33.2507 22.8402C29.3346 22.8402 26.8305 19.3462 26.8305 14.7021C26.8305 10.3783 29.0871 6.56405 33.0906 6.56405C34.8958 6.56405 36.2497 7.40843 36.934 8.80602L37.065 6.95712H38.5645V12.4601H36.8321C36.7738 11.8487 36.2352 8.63132 33.309 8.63132C30.6739 8.63132 29.1162 11.0917 29.1162 14.7021C29.1162 18.3125 30.703 20.7729 33.4691 20.7729C34.9686 20.7729 36.308 20.045 37.3125 18.7056ZM47.0595 8.63132C44.4973 8.63132 42.925 10.9606 42.925 14.7021C42.925 18.4581 44.4973 20.7729 47.0595 20.7729C49.6218 20.7729 51.194 18.4581 51.194 14.7021C51.194 10.9606 49.6218 8.63132 47.0595 8.63132ZM47.0595 6.56405C50.932 6.56405 53.4797 10.058 53.4797 14.7021C53.4797 19.3462 50.932 22.8402 47.0595 22.8402C43.1725 22.8402 40.6393 19.3462 40.6393 14.7021C40.6393 10.058 43.1725 6.56405 47.0595 6.56405ZM55.5982 22.418V20.4235H57.5781V8.9516H55.5982V6.95712H59.5435L59.7182 9.19909C60.912 7.77238 62.4115 6.56405 64.3914 6.56405C67.4632 6.56405 68.7297 7.9762 68.7297 13.0279V20.4235H70.7242V22.418H64.6243V20.4235H66.4441V13.0279C66.4441 10.1163 66.0656 8.7769 63.8673 8.7769C62.0329 8.7769 60.7955 10.1308 59.8638 11.1353V20.4235H61.6836V22.418H55.5982ZM72.7408 8.9516V6.95712H74.9973V4.70059C74.9973 1.67248 76.5988 -0.00171774 79.3794 -0.00171774C80.7624 -0.00171774 82.3784 0.333122 82.5676 0.376796L82.2474 2.31304C81.665 2.21113 80.777 1.99276 79.3357 1.99276C77.9963 1.99276 77.283 3.08463 77.283 4.70059V6.95712H80.8352V8.9516H77.283V20.4235H80.8206V22.418H72.7408V20.4235H74.9973V8.9516H72.7408ZM95.7359 6.95712V20.4235H97.7158V22.418H93.7559L93.6103 19.9576C92.6786 21.2388 91.0772 22.8402 88.8644 22.8402C85.6033 22.8402 84.5842 20.4235 84.5842 16.5947V8.9516H82.6043V6.95712H86.8699V16.7403C86.8699 18.4145 86.899 20.7729 89.3448 20.7729C90.5386 20.7729 91.5722 20.0887 92.3001 19.4044C92.7223 19.0113 93.1154 18.5455 93.4502 18.0214V8.9516H91.4121V6.95712H95.7359ZM99.7761 22.418V20.4235H101.756V8.9516H99.7761V6.95712H103.721L103.896 9.19909C105.09 7.77238 106.589 6.56405 108.569 6.56405C111.641 6.56405 112.908 7.9762 112.908 13.0279V20.4235H114.902V22.418H108.802V20.4235H110.622V13.0279C110.622 10.1163 110.243 8.7769 108.045 8.7769C106.211 8.7769 104.973 10.1308 104.042 11.1353V20.4235H105.861V22.418H99.7761ZM122.713 6.56405C124.067 6.56405 126.294 7.23373 127.342 9.66495V2.21113L124.314 2.38583L124.169 0.376796L129.628 -0.00171774V20.4235H131.622V22.418H127.503L127.342 19.8412C126.469 21.8356 124.911 22.8402 122.669 22.8402C120.398 22.8402 116.831 21.0495 116.831 14.7021C116.831 8.38383 120.34 6.56405 122.713 6.56405ZM123.222 8.63132C121.359 8.63132 119.117 10.1308 119.117 14.7021C119.117 19.419 121.534 20.7729 123.179 20.7729C125.042 20.7729 127.415 19.4918 127.415 14.7021C127.415 10.3055 125.202 8.63132 123.222 8.63132ZM133.683 22.418V20.4235H136.041V8.9516H133.683V6.95712H138.327V20.4235H140.671V22.418H133.683ZM138.458 0.420471V3.41947H135.692V0.420471H138.458ZM151.349 6.56405C153.766 6.56405 157.231 8.16545 157.231 14.6293C157.231 21.0932 153.766 22.8402 151.349 22.8402C149.806 22.8402 147.739 22.1705 146.691 19.9576L146.516 22.418H142.411V20.4235H144.434V2.13834L142.265 2.31304L142.134 0.376796L146.72 -0.00171774V9.66495C147.797 7.23373 149.966 6.56405 151.349 6.56405ZM150.84 8.63132C149.035 8.63132 146.647 9.98523 146.647 14.6293C146.647 19.5209 149.035 20.7729 150.84 20.7729C152.601 20.7729 154.945 19.3316 154.945 14.6293C154.945 9.95612 152.601 8.63132 150.84 8.63132ZM163.906 20.4235H166.367V22.418H159.146V20.4235H161.621V2.13834L159.146 2.3276L159.015 0.405913L163.906 -0.00171774V20.4235ZM179.054 18.7056L180.467 20.1614C179.2 21.6609 177.293 22.8402 174.92 22.8402C169.329 22.8402 168.107 17.9923 168.107 14.3818C168.107 11.0917 169.504 6.56405 174.498 6.56405C179.841 6.56405 180.554 12.2709 180.554 14.8768V15.4591H170.538C170.581 18.4872 172.183 20.7729 175.022 20.7729C176.405 20.7729 177.89 20.0304 179.054 18.7056ZM174.498 8.63132C171.528 8.63132 170.538 11.31 170.538 13.5229H178.166C178.166 11.31 177.293 8.63132 174.498 8.63132ZM182.862 22.418V20.4235H184.842V8.9516H182.862V6.95712H186.953L187.069 8.31104C187.928 7.48122 189.675 6.56405 191.436 6.56405C192.936 6.56405 193.678 7.36475 194.144 8.13634C194.727 7.67047 196.503 6.56405 198.672 6.56405C201.453 6.56405 202.442 8.87881 202.442 11.0625V20.4235H204.262V22.418H200.157V11.7468C200.157 10.2764 199.997 8.63132 198.191 8.63132C196.765 8.63132 194.989 9.72319 194.712 9.88333C194.872 10.5676 194.872 10.9606 194.872 11.5284V20.4235H196.969V22.418H192.587V11.5284C192.587 10.1017 192.325 8.63132 190.621 8.63132C189.806 8.63132 188.947 9.00983 188.263 9.37379C187.87 9.59216 187.491 9.82509 187.127 10.1017V20.4235H189.238V22.418H182.862ZM217.27 18.7056L218.682 20.1614C217.416 21.6609 215.509 22.8402 213.136 22.8402C207.545 22.8402 206.323 17.9923 206.323 14.3818C206.323 11.0917 207.72 6.56405 212.714 6.56405C218.056 6.56405 218.77 12.2709 218.77 14.8768V15.4591H208.754C208.797 18.4872 210.399 20.7729 213.238 20.7729C214.621 20.7729 216.106 20.0304 217.27 18.7056ZM212.714 8.63132C209.744 8.63132 208.754 11.31 208.754 13.5229H216.382C216.382 11.31 215.509 8.63132 212.714 8.63132ZM220.932 22.418V20.4235H222.912V8.9516H220.932V6.95712H224.877L225.052 9.19909C226.246 7.77238 227.745 6.56405 229.725 6.56405C232.797 6.56405 234.064 7.9762 234.064 13.0279V20.4235H236.058V22.418H229.958V20.4235H231.778V13.0279C231.778 10.1163 231.399 8.7769 229.201 8.7769C227.367 8.7769 226.129 10.1308 225.198 11.1353V20.4235H227.017V22.418H220.932ZM239.006 17.4827V2.34216H241.292V6.95712H246.46V8.9516H241.292V17.2352C241.292 19.3462 241.772 20.6273 243.461 20.6273C244.262 20.6273 244.99 20.438 245.558 20.2197C245.878 20.1032 246.184 19.9576 246.46 19.7975L246.999 21.7192C246.606 21.9375 246.184 22.1268 245.761 22.2869C245.019 22.5636 244.058 22.8402 243.126 22.8402C239.589 22.8402 239.006 20.2342 239.006 17.4827ZM259.119 18.7056L260.531 20.1614C259.264 21.6609 257.357 22.8402 254.984 22.8402C249.394 22.8402 248.171 17.9923 248.171 14.3818C248.171 11.0917 249.569 6.56405 254.562 6.56405C259.905 6.56405 260.618 12.2709 260.618 14.8768V15.4591H250.602C250.646 18.4872 252.247 20.7729 255.086 20.7729C256.469 20.7729 257.954 20.0304 259.119 18.7056ZM254.562 8.63132C251.592 8.63132 250.602 11.31 250.602 13.5229H258.231C258.231 11.31 257.357 8.63132 254.562 8.63132Z" fill="white"/>
</svg>
