<svg width="304" height="237" viewBox="0 0 304 237" fill="none" xmlns="http://www.w3.org/2000/svg">
<path d="M5.32062 58.8632H3.22545V64.0092H1.62651V51.5117H5.17359C8.13255 51.5117 9.43744 52.9085 9.43744 55.1874C9.43744 57.108 8.39905 58.2015 6.91956 58.6426L9.76825 64H8.0039L5.32062 58.8632ZM3.22545 52.8533V57.5123H5.09089C6.892 57.5123 7.72822 56.621 7.72822 55.1874C7.72822 53.7447 6.90118 52.8533 5.09089 52.8533H3.22545ZM19.6832 62.5481C18.8653 63.5313 17.6707 64.2665 16.0718 64.2665C12.9014 64.2665 11.6149 61.8773 11.6149 59.0745C11.6149 56.382 12.8923 53.9653 15.8145 53.9653C18.7459 53.9653 19.9405 56.3729 19.9405 59.2951V59.6534H13.2506C13.3242 61.9048 14.4912 62.9248 16.1177 62.9248C17.1929 62.9248 17.9923 62.4194 18.7091 61.5832L19.6832 62.5481ZM15.8145 55.3161C14.0317 55.3161 13.3242 56.768 13.269 58.3853H18.314C18.268 56.768 17.5788 55.3161 15.8145 55.3161ZM22.605 67.9514V54.2409H24.0294L24.1672 55.702C24.9023 54.3972 26.0602 53.9653 27.1537 53.9653C29.2305 53.9653 31.0132 55.6377 31.0132 59.1388C31.0132 62.6308 29.2305 64.2665 27.1537 64.2665C26.0602 64.2665 24.8932 63.8438 24.1764 62.4562V67.9514H22.605ZM26.777 62.9157C28.4494 62.9157 29.4327 61.5373 29.4327 59.1388C29.4327 56.7312 28.4494 55.3069 26.777 55.3069C25.1045 55.3069 24.1212 56.7221 24.1212 59.1388C24.1212 61.5373 25.1045 62.9157 26.777 62.9157ZM33.7697 54.2409H35.1113L35.2308 55.555C36.113 54.4615 36.9124 53.9653 37.7854 53.9653C38.2908 53.9653 38.7962 54.0939 39.2373 54.2961L38.7687 55.6561C38.493 55.5366 38.0335 55.362 37.62 55.362C36.8205 55.362 36.0854 55.9318 35.3502 57.0896V64H33.7697V54.2409ZM48.4171 62.5481C47.5992 63.5313 46.4046 64.2665 44.8057 64.2665C41.6354 64.2665 40.3489 61.8773 40.3489 59.0745C40.3489 56.382 41.6262 53.9653 44.5484 53.9653C47.4798 53.9653 48.6744 56.3729 48.6744 59.2951V59.6534H41.9846C42.0581 61.9048 43.2251 62.9248 44.8516 62.9248C45.9268 62.9248 46.7263 62.4194 47.443 61.5832L48.4171 62.5481ZM44.5484 55.3161C42.7657 55.3161 42.0581 56.768 42.0029 58.3853H47.0479C47.0019 56.768 46.3127 55.3161 44.5484 55.3161ZM54.1968 53.9653C55.566 53.9653 56.7423 54.4431 57.7163 55.6469L56.6687 56.5475C55.9887 55.6745 55.1709 55.3161 54.2703 55.3161C52.9563 55.3161 52.3957 55.8766 52.3957 56.6945C52.3957 57.6042 52.9287 58.0545 54.932 58.4221C57.3028 58.8724 58.2217 59.7913 58.2217 61.3627C58.2217 63.1821 56.8985 64.2665 54.5276 64.2665C52.8 64.2665 51.4216 63.5222 50.5487 62.5113L51.5595 61.5189C52.313 62.4011 53.2779 62.9248 54.5276 62.9248C55.9612 62.9248 56.6412 62.3092 56.6412 61.3902C56.6412 60.5632 55.9979 60.0118 54.2703 59.681C51.5779 59.1664 50.8151 58.2291 50.8151 56.7404C50.8151 55.2334 51.9454 53.9653 54.1968 53.9653ZM68.1734 62.5481C67.3556 63.5313 66.161 64.2665 64.562 64.2665C61.3917 64.2665 60.1052 61.8773 60.1052 59.0745C60.1052 56.382 61.3825 53.9653 64.3047 53.9653C67.2361 53.9653 68.4307 56.3729 68.4307 59.2951V59.6534H61.7409C61.8144 61.9048 62.9814 62.9248 64.608 62.9248C65.6831 62.9248 66.4826 62.4194 67.1993 61.5832L68.1734 62.5481ZM64.3047 55.3161C62.522 55.3161 61.8144 56.768 61.7593 58.3853H66.8042C66.7583 56.768 66.0691 55.3161 64.3047 55.3161ZM71.0953 64V54.2409H72.4553L72.5655 55.6561C73.3742 54.7831 74.4126 53.9653 75.8278 53.9653C77.6289 53.9653 78.8786 54.7463 78.8786 58.0086V64H77.298V58.0086C77.298 55.9501 76.6456 55.3804 75.5429 55.3804C74.3391 55.3804 73.4018 56.2718 72.6758 57.0161V64H71.0953ZM82.0302 51.5117H83.6107V54.2409H87.2222V55.5458H83.6107V60.7562C83.6107 62.2081 84.0794 62.8513 85.2097 62.8513C85.9448 62.8513 86.7903 62.5757 87.4059 62.2724L87.7919 63.5589C86.6432 64.0735 85.7335 64.2665 85.0075 64.2665C82.701 64.2665 82.0302 62.7319 82.0302 60.8848V51.5117ZM92.2759 64.2849C90.5208 64.2849 89.078 63.467 89.078 61.1973C89.078 58.7621 91.1548 58.0361 92.7721 58.0361H95.1797V57.3377C95.1797 55.895 94.3527 55.2701 92.7905 55.2701C91.8165 55.2701 90.9894 55.5274 90.2175 55.8399L89.8224 54.5626C90.8332 54.2042 91.8532 53.9653 92.7905 53.9653C95.0879 53.9653 96.7603 54.9393 96.7603 57.5307V64H95.4279L95.3084 62.8238C94.757 63.513 93.5257 64.2849 92.2759 64.2849ZM92.4965 62.934C93.544 62.934 94.5457 62.2081 95.1797 61.5189V59.2951H93.103C91.5224 59.2951 90.6586 59.9935 90.6586 61.1973C90.6586 62.4011 91.3662 62.934 92.4965 62.934ZM104.506 64V50.0414H106.087V64H104.506ZM111.857 64.2849C110.102 64.2849 108.659 63.467 108.659 61.1973C108.659 58.7621 110.736 58.0361 112.353 58.0361H114.761V57.3377C114.761 55.895 113.934 55.2701 112.372 55.2701C111.398 55.2701 110.571 55.5274 109.799 55.8399L109.404 54.5626C110.415 54.2042 111.435 53.9653 112.372 53.9653C114.669 53.9653 116.342 54.9393 116.342 57.5307V64H115.009L114.89 62.8238C114.338 63.513 113.107 64.2849 111.857 64.2849ZM112.078 62.934C113.125 62.934 114.127 62.2081 114.761 61.5189V59.2951H112.684C111.104 59.2951 110.24 59.9935 110.24 61.1973C110.24 62.4011 110.948 62.934 112.078 62.934ZM124.088 64V54.2409H125.503L125.595 55.4723C126.284 54.5626 127.258 53.9653 128.361 53.9653C129.408 53.9653 130.171 54.3972 130.64 55.4447C131.421 54.4982 132.477 53.9653 133.543 53.9653C135.464 53.9653 136.364 55.2793 136.364 57.0896V64H134.784V57.4021C134.784 55.9318 134.214 55.3804 133.277 55.3804C132.385 55.3804 131.402 56.1523 130.998 56.8507C131.016 57.2826 131.016 57.154 131.016 57.4572V64H129.436V57.4021C129.436 55.9318 128.866 55.3804 127.929 55.3804C127.12 55.3804 126.311 55.9777 125.668 56.8691V64H124.088ZM143.743 48.6446H145.535L142.87 52.0079H141.409L143.743 48.6446ZM142.043 64.2849C140.288 64.2849 138.845 63.467 138.845 61.1973C138.845 58.7621 140.922 58.0361 142.539 58.0361H144.947V57.3377C144.947 55.895 144.12 55.2701 142.558 55.2701C141.584 55.2701 140.757 55.5274 139.985 55.8399L139.59 54.5626C140.6 54.2042 141.62 53.9653 142.558 53.9653C144.855 53.9653 146.527 54.9393 146.527 57.5307V64H145.195L145.076 62.8238C144.524 63.513 143.293 64.2849 142.043 64.2849ZM142.264 62.934C143.311 62.934 144.313 62.2081 144.947 61.5189V59.2951H142.87C141.29 59.2951 140.426 59.9935 140.426 61.1973C140.426 62.4011 141.133 62.934 142.264 62.934ZM155.505 64L152.95 60.1497L150.405 64H148.622L152.004 59.1113L148.622 54.2409H150.405L152.95 58.0361L155.505 54.2409H157.288L153.925 59.0837L157.288 64H155.505ZM161.175 52.0079H159.392V50.1793H161.175V52.0079ZM159.493 64V54.2409H161.073V64H159.493ZM164.427 64V54.2409H165.842L165.934 55.4723C166.623 54.5626 167.598 53.9653 168.7 53.9653C169.748 53.9653 170.511 54.3972 170.979 55.4447C171.76 54.4982 172.817 53.9653 173.883 53.9653C175.804 53.9653 176.704 55.2793 176.704 57.0896V64H175.124V57.4021C175.124 55.9318 174.554 55.3804 173.617 55.3804C172.725 55.3804 171.742 56.1523 171.338 56.8507C171.356 57.2826 171.356 57.154 171.356 57.4572V64H169.775V57.4021C169.775 55.9318 169.206 55.3804 168.268 55.3804C167.46 55.3804 166.651 55.9777 166.008 56.8691V64H164.427ZM182.383 64.2849C180.628 64.2849 179.185 63.467 179.185 61.1973C179.185 58.7621 181.262 58.0361 182.879 58.0361H185.287V57.3377C185.287 55.895 184.46 55.2701 182.897 55.2701C181.923 55.2701 181.096 55.5274 180.324 55.8399L179.929 54.5626C180.94 54.2042 181.96 53.9653 182.897 53.9653C185.195 53.9653 186.867 54.9393 186.867 57.5307V64H185.535L185.415 62.8238C184.864 63.513 183.633 64.2849 182.383 64.2849ZM182.603 62.934C183.651 62.934 184.653 62.2081 185.287 61.5189V59.2951H183.21C181.629 59.2951 180.765 59.9935 180.765 61.1973C180.765 62.4011 181.473 62.934 182.603 62.934ZM202.047 62.5481C201.229 63.5313 200.035 64.2665 198.436 64.2665C195.265 64.2665 193.979 61.8773 193.979 59.0745C193.979 56.382 195.256 53.9653 198.179 53.9653C201.11 53.9653 202.305 56.3729 202.305 59.2951V59.6534H195.615C195.688 61.9048 196.855 62.9248 198.482 62.9248C199.557 62.9248 200.356 62.4194 201.073 61.5832L202.047 62.5481ZM198.179 55.3161C196.396 55.3161 195.688 56.768 195.633 58.3853H200.678C200.632 56.768 199.943 55.3161 198.179 55.3161ZM210.473 64L207.919 60.1497L205.373 64H203.591L206.972 59.1113L203.591 54.2409H205.373L207.919 58.0361L210.473 54.2409H212.256L208.893 59.0837L212.256 64H210.473ZM214.461 67.9514V54.2409H215.886L216.023 55.702C216.759 54.3972 217.916 53.9653 219.01 53.9653C221.087 53.9653 222.869 55.6377 222.869 59.1388C222.869 62.6308 221.087 64.2665 219.01 64.2665C217.916 64.2665 216.749 63.8438 216.033 62.4562V67.9514H214.461ZM218.633 62.9157C220.306 62.9157 221.289 61.5373 221.289 59.1388C221.289 56.7312 220.306 55.3069 218.633 55.3069C216.961 55.3069 215.977 56.7221 215.977 59.1388C215.977 61.5373 216.961 62.9157 218.633 62.9157ZM225.626 54.2409H226.968L227.087 55.555C227.969 54.4615 228.769 53.9653 229.642 53.9653C230.147 53.9653 230.652 54.0939 231.094 54.2961L230.625 55.6561C230.349 55.5366 229.89 55.362 229.476 55.362C228.677 55.362 227.942 55.9318 227.206 57.0896V64H225.626V54.2409ZM240.273 62.5481C239.455 63.5313 238.261 64.2665 236.662 64.2665C233.492 64.2665 232.205 61.8773 232.205 59.0745C232.205 56.382 233.482 53.9653 236.405 53.9653C239.336 53.9653 240.531 56.3729 240.531 59.2951V59.6534H233.841C233.914 61.9048 235.081 62.9248 236.708 62.9248C237.783 62.9248 238.582 62.4194 239.299 61.5832L240.273 62.5481ZM236.405 55.3161C234.622 55.3161 233.914 56.768 233.859 58.3853H238.904C238.858 56.768 238.169 55.3161 236.405 55.3161ZM246.053 53.9653C247.422 53.9653 248.598 54.4431 249.573 55.6469L248.525 56.5475C247.845 55.6745 247.027 55.3161 246.127 55.3161C244.812 55.3161 244.252 55.8766 244.252 56.6945C244.252 57.6042 244.785 58.0545 246.788 58.4221C249.159 58.8724 250.078 59.7913 250.078 61.3627C250.078 63.1821 248.755 64.2665 246.384 64.2665C244.656 64.2665 243.278 63.5222 242.405 62.5113L243.416 61.5189C244.169 62.4011 245.134 62.9248 246.384 62.9248C247.817 62.9248 248.497 62.3092 248.497 61.3902C248.497 60.5632 247.854 60.0118 246.127 59.681C243.434 59.1664 242.671 58.2291 242.671 56.7404C242.671 55.2334 243.802 53.9653 246.053 53.9653ZM254.277 52.0079H252.494V50.1793H254.277V52.0079ZM252.595 64V54.2409H254.176V64H252.595ZM262.189 48.6446H263.981L261.316 52.0079H259.855L262.189 48.6446ZM261.132 64.2665C258.577 64.2665 256.896 62.1897 256.896 59.1297C256.896 56.0604 258.577 53.9653 261.132 53.9653C263.677 53.9653 265.359 56.0604 265.359 59.1297C265.359 62.1897 263.677 64.2665 261.132 64.2665ZM261.132 62.9248C262.878 62.9248 263.779 61.5005 263.779 59.1297C263.779 56.768 262.878 55.3161 261.132 55.3161C259.377 55.3161 258.476 56.768 258.476 59.1297C258.476 61.5005 259.377 62.9248 261.132 62.9248ZM268.088 64V54.2409H269.448L269.558 55.6561C270.367 54.7831 271.405 53.9653 272.82 53.9653C274.622 53.9653 275.871 54.7463 275.871 58.0086V64H274.291V58.0086C274.291 55.9501 273.638 55.3804 272.536 55.3804C271.332 55.3804 270.394 56.2718 269.669 57.0161V64H268.088ZM286.833 53.9653C287.927 53.9653 289.131 54.388 289.857 55.7756V49.9311H291.419V64H290.004L289.875 62.5297C289.149 63.8713 287.909 64.2665 286.87 64.2665C284.849 64.2665 283.011 62.6032 283.011 59.1021C283.011 55.601 284.803 53.9653 286.833 53.9653ZM287.229 55.3161C285.565 55.3161 284.591 56.6945 284.591 59.1021C284.591 61.5005 285.565 62.9248 287.229 62.9248C288.91 62.9248 289.903 61.5097 289.903 59.1021C289.903 56.6945 288.91 55.3161 287.229 55.3161ZM302.216 62.5481C301.398 63.5313 300.204 64.2665 298.605 64.2665C295.434 64.2665 294.148 61.8773 294.148 59.0745C294.148 56.382 295.425 53.9653 298.347 53.9653C301.279 53.9653 302.473 56.3729 302.473 59.2951V59.6534H295.783C295.857 61.9048 297.024 62.9248 298.651 62.9248C299.726 62.9248 300.525 62.4194 301.242 61.5832L302.216 62.5481ZM298.347 55.3161C296.565 55.3161 295.857 56.768 295.802 58.3853H300.847C300.801 56.768 300.112 55.3161 298.347 55.3161ZM4.70494 77.9653C5.79847 77.9653 7.00227 78.388 7.72822 79.7756V73.9311H9.29041V88H7.87525L7.7466 86.5297C7.02065 87.8713 5.78009 88.2665 4.74169 88.2665C2.72004 88.2665 0.882175 86.6032 0.882175 83.1021C0.882175 79.601 2.67409 77.9653 4.70494 77.9653ZM5.10008 79.3161C3.43681 79.3161 2.46274 80.6945 2.46274 83.1021C2.46274 85.5005 3.43681 86.9248 5.10008 86.9248C6.78172 86.9248 7.77417 85.5097 7.77417 83.1021C7.77417 80.6945 6.78172 79.3161 5.10008 79.3161ZM20.0875 86.5481C19.2697 87.5313 18.075 88.2665 16.4761 88.2665C13.3058 88.2665 12.0193 85.8773 12.0193 83.0745C12.0193 80.382 13.2966 77.9653 16.2188 77.9653C19.1502 77.9653 20.3448 80.3729 20.3448 83.2951V83.6534H13.655C13.7285 85.9048 14.8955 86.9248 16.522 86.9248C17.5972 86.9248 18.3967 86.4194 19.1134 85.5832L20.0875 86.5481ZM16.2188 79.3161C14.4361 79.3161 13.7285 80.768 13.6734 82.3853H18.7183C18.6723 80.768 17.9831 79.3161 16.2188 79.3161ZM25.8672 77.9653C27.2364 77.9653 28.4127 78.4431 29.3867 79.6469L28.3392 80.5475C27.6591 79.6745 26.8413 79.3161 25.9407 79.3161C24.6267 79.3161 24.0661 79.8766 24.0661 80.6945C24.0661 81.6042 24.5991 82.0545 26.6024 82.4221C28.9732 82.8724 29.8921 83.7913 29.8921 85.3627C29.8921 87.1821 28.5689 88.2665 26.198 88.2665C24.4704 88.2665 23.092 87.5222 22.2191 86.5113L23.2299 85.5189C23.9834 86.4011 24.9483 86.9248 26.198 86.9248C27.6316 86.9248 28.3116 86.3092 28.3116 85.3902C28.3116 84.5632 27.6683 84.0118 25.9407 83.681C23.2483 83.1664 22.4855 82.2291 22.4855 80.7404C22.4855 79.2334 23.6158 77.9653 25.8672 77.9653ZM39.8438 86.5481C39.026 87.5313 37.8314 88.2665 36.2324 88.2665C33.0621 88.2665 31.7756 85.8773 31.7756 83.0745C31.7756 80.382 33.0529 77.9653 35.9751 77.9653C38.9065 77.9653 40.1011 80.3729 40.1011 83.2951V83.6534H33.4113C33.4848 85.9048 34.6518 86.9248 36.2784 86.9248C37.3535 86.9248 38.153 86.4194 38.8698 85.5832L39.8438 86.5481ZM35.9751 79.3161C34.1924 79.3161 33.4848 80.768 33.4297 82.3853H38.4746C38.4287 80.768 37.7395 79.3161 35.9751 79.3161ZM42.7657 88V78.2409H44.1808L44.2727 79.4723C44.9619 78.5626 45.936 77.9653 47.0387 77.9653C48.0863 77.9653 48.849 78.3972 49.3177 79.4447C50.0987 78.4982 51.1555 77.9653 52.2215 77.9653C54.142 77.9653 55.0426 79.2793 55.0426 81.0896V88H53.462V81.4021C53.462 79.9318 52.8923 79.3804 51.955 79.3804C51.0636 79.3804 50.0804 80.1523 49.676 80.8507C49.6944 81.2826 49.6944 81.154 49.6944 81.4572V88H48.1138V81.4021C48.1138 79.9318 47.5441 79.3804 46.6068 79.3804C45.7981 79.3804 44.9895 79.9777 44.3462 80.8691V88H42.7657ZM58.3044 91.9514V78.2409H59.7288L59.8666 79.702C60.6018 78.3972 61.7596 77.9653 62.8532 77.9653C64.9299 77.9653 66.7127 79.6377 66.7127 83.1388C66.7127 86.6308 64.9299 88.2665 62.8532 88.2665C61.7596 88.2665 60.5926 87.8438 59.8758 86.4562V91.9514H58.3044ZM62.4764 86.9157C64.1489 86.9157 65.1321 85.5373 65.1321 83.1388C65.1321 80.7312 64.1489 79.3069 62.4764 79.3069C60.8039 79.3069 59.8207 80.7221 59.8207 83.1388C59.8207 85.5373 60.8039 86.9157 62.4764 86.9157ZM76.9033 86.5481C76.0854 87.5313 74.8908 88.2665 73.2919 88.2665C70.1216 88.2665 68.835 85.8773 68.835 83.0745C68.835 80.382 70.1124 77.9653 73.0346 77.9653C75.966 77.9653 77.1606 80.3729 77.1606 83.2951V83.6534H70.4707C70.5443 85.9048 71.7113 86.9248 73.3378 86.9248C74.413 86.9248 75.2124 86.4194 75.9292 85.5832L76.9033 86.5481ZM73.0346 79.3161C71.2518 79.3161 70.5443 80.768 70.4891 82.3853H75.5341C75.4881 80.768 74.7989 79.3161 73.0346 79.3161ZM80.1559 76.0079C80.1559 74.3906 80.9186 73.2879 82.2695 73.2879C82.8392 73.2879 83.3538 73.5728 83.896 74.0965C84.4933 74.6663 84.8057 74.8225 85.0906 74.8225C85.6971 74.8225 86.0187 74.2528 86.0187 73.3338H87.2777C87.2777 74.9512 86.5333 76.0539 85.1825 76.0539C84.6403 76.0539 84.1717 75.8333 83.5284 75.2268C82.9954 74.7306 82.6922 74.5193 82.3614 74.5193C81.7549 74.5193 81.4241 75.089 81.4241 76.0079H80.1559ZM79.8251 88V78.2409H81.1851L81.2954 79.6561C82.1041 78.7831 83.1425 77.9653 84.5576 77.9653C86.3587 77.9653 87.6085 78.7463 87.6085 82.0086V88H86.0279V82.0086C86.0279 79.9501 85.3755 79.3804 84.2727 79.3804C83.0689 79.3804 82.1316 80.2718 81.4057 81.0161V88H79.8251ZM94.4633 88.2665C91.9087 88.2665 90.2271 86.1897 90.2271 83.1297C90.2271 80.0604 91.9087 77.9653 94.4633 77.9653C97.0088 77.9653 98.6904 80.0604 98.6904 83.1297C98.6904 86.1897 97.0088 88.2665 94.4633 88.2665ZM94.4633 86.9248C96.2093 86.9248 97.1099 85.5005 97.1099 83.1297C97.1099 80.768 96.2093 79.3161 94.4633 79.3161C92.7082 79.3161 91.8076 80.768 91.8076 83.1297C91.8076 85.5005 92.7082 86.9248 94.4633 86.9248ZM109.129 77.9653C110.222 77.9653 111.426 78.388 112.152 79.7756V73.9311H113.714V88H112.299L112.17 86.5297C111.444 87.8713 110.204 88.2665 109.166 88.2665C107.144 88.2665 105.306 86.6032 105.306 83.1021C105.306 79.601 107.098 77.9653 109.129 77.9653ZM109.524 79.3161C107.861 79.3161 106.887 80.6945 106.887 83.1021C106.887 85.5005 107.861 86.9248 109.524 86.9248C111.206 86.9248 112.198 85.5097 112.198 83.1021C112.198 80.6945 111.206 79.3161 109.524 79.3161ZM124.511 86.5481C123.693 87.5313 122.499 88.2665 120.9 88.2665C117.73 88.2665 116.443 85.8773 116.443 83.0745C116.443 80.382 117.72 77.9653 120.643 77.9653C123.574 77.9653 124.769 80.3729 124.769 83.2951V83.6534H118.079C118.152 85.9048 119.319 86.9248 120.946 86.9248C122.021 86.9248 122.821 86.4194 123.537 85.5832L124.511 86.5481ZM120.643 79.3161C118.86 79.3161 118.152 80.768 118.097 82.3853H123.142C123.096 80.768 122.407 79.3161 120.643 79.3161ZM127.433 88V78.2409H128.793L128.903 79.6561C129.712 78.7831 130.751 77.9653 132.166 77.9653C133.967 77.9653 135.217 78.7463 135.217 82.0086V88H133.636V82.0086C133.636 79.9501 132.984 79.3804 131.881 79.3804C130.677 79.3804 129.74 80.2718 129.014 81.0161V88H127.433ZM138.368 75.5117H139.949V78.2409H143.56V79.5458H139.949V84.7562C139.949 86.2081 140.417 86.8513 141.548 86.8513C142.283 86.8513 143.128 86.5757 143.744 86.2724L144.13 87.5589C142.981 88.0735 142.071 88.2665 141.345 88.2665C139.039 88.2665 138.368 86.7319 138.368 84.8848V75.5117ZM146.197 78.2409H147.539L147.658 79.555C148.54 78.4615 149.34 77.9653 150.213 77.9653C150.718 77.9653 151.224 78.0939 151.665 78.2961L151.196 79.6561C150.92 79.5366 150.461 79.362 150.047 79.362C149.248 79.362 148.513 79.9318 147.778 81.0896V88H146.197V78.2409ZM157.013 88.2665C154.458 88.2665 152.776 86.1897 152.776 83.1297C152.776 80.0604 154.458 77.9653 157.013 77.9653C159.558 77.9653 161.24 80.0604 161.24 83.1297C161.24 86.1897 159.558 88.2665 157.013 88.2665ZM157.013 86.9248C158.758 86.9248 159.659 85.5005 159.659 83.1297C159.659 80.768 158.758 79.3161 157.013 79.3161C155.257 79.3161 154.357 80.768 154.357 83.1297C154.357 85.5005 155.257 86.9248 157.013 86.9248ZM171.678 77.9653C172.771 77.9653 173.975 78.388 174.701 79.7756V73.9311H176.263V88H174.848L174.72 86.5297C173.994 87.8713 172.753 88.2665 171.715 88.2665C169.693 88.2665 167.855 86.6032 167.855 83.1021C167.855 79.601 169.647 77.9653 171.678 77.9653ZM172.073 79.3161C170.41 79.3161 169.436 80.6945 169.436 83.1021C169.436 85.5005 170.41 86.9248 172.073 86.9248C173.755 86.9248 174.747 85.5097 174.747 83.1021C174.747 80.6945 173.755 79.3161 172.073 79.3161ZM187.061 86.5481C186.243 87.5313 185.048 88.2665 183.449 88.2665C180.279 88.2665 178.992 85.8773 178.992 83.0745C178.992 80.382 180.27 77.9653 183.192 77.9653C186.123 77.9653 187.318 80.3729 187.318 83.2951V83.6534H180.628C180.702 85.9048 181.869 86.9248 183.495 86.9248C184.57 86.9248 185.37 86.4194 186.086 85.5832L187.061 86.5481ZM183.192 79.3161C181.409 79.3161 180.702 80.768 180.646 82.3853H185.691C185.645 80.768 184.956 79.3161 183.192 79.3161ZM194.476 88V74.0414H196.056V88H194.476ZM201.827 88.2849C200.072 88.2849 198.629 87.467 198.629 85.1973C198.629 82.7621 200.706 82.0361 202.323 82.0361H204.73V81.3377C204.73 79.895 203.903 79.2701 202.341 79.2701C201.367 79.2701 200.54 79.5274 199.768 79.8399L199.373 78.5626C200.384 78.2042 201.404 77.9653 202.341 77.9653C204.639 77.9653 206.311 78.9393 206.311 81.5307V88H204.979L204.859 86.8238C204.308 87.513 203.076 88.2849 201.827 88.2849ZM202.047 86.934C203.095 86.934 204.096 86.2081 204.73 85.5189V83.2951H202.654C201.073 83.2951 200.209 83.9935 200.209 85.1973C200.209 86.4011 200.917 86.934 202.047 86.934ZM217.338 77.9653C218.569 77.9653 219.626 78.4982 220.306 79.7756V78.2409H221.804V88.0092C221.804 90.7568 220.002 91.9606 217.255 91.9606H214.801V90.6557H217.282C219.286 90.6557 220.223 89.6908 220.223 87.8897V86.4562C219.69 87.5957 218.688 88.147 217.282 88.147C215.325 88.147 213.45 86.5481 213.45 83.0745C213.45 79.601 215.252 77.9653 217.338 77.9653ZM217.705 79.3161C215.95 79.3161 215.013 80.7772 215.013 83.0745C215.013 85.3627 215.95 86.7594 217.705 86.7594C219.46 86.7594 220.352 85.381 220.352 83.0745C220.352 80.7864 219.469 79.3161 217.705 79.3161ZM227.565 88.2849C225.81 88.2849 224.367 87.467 224.367 85.1973C224.367 82.7621 226.444 82.0361 228.061 82.0361H230.469V81.3377C230.469 79.895 229.642 79.2701 228.079 79.2701C227.105 79.2701 226.278 79.5274 225.506 79.8399L225.111 78.5626C226.122 78.2042 227.142 77.9653 228.079 77.9653C230.377 77.9653 232.049 78.9393 232.049 81.5307V88H230.717L230.597 86.8238C230.046 87.513 228.815 88.2849 227.565 88.2849ZM227.785 86.934C228.833 86.934 229.835 86.2081 230.469 85.5189V83.2951H228.392C226.811 83.2951 225.948 83.9935 225.948 85.1973C225.948 86.4011 226.655 86.934 227.785 86.934ZM235.302 88V78.2409H236.717L236.809 79.4723C237.498 78.5626 238.472 77.9653 239.575 77.9653C240.623 77.9653 241.385 78.3972 241.854 79.4447C242.635 78.4982 243.692 77.9653 244.758 77.9653C246.678 77.9653 247.579 79.2793 247.579 81.0896V88H245.998V81.4021C245.998 79.9318 245.429 79.3804 244.491 79.3804C243.6 79.3804 242.617 80.1523 242.212 80.8507C242.231 81.2826 242.231 81.154 242.231 81.4572V88H240.65V81.4021C240.65 79.9318 240.08 79.3804 239.143 79.3804C238.334 79.3804 237.526 79.9777 236.882 80.8691V88H235.302ZM253.257 88.2849C251.502 88.2849 250.06 87.467 250.06 85.1973C250.06 82.7621 252.136 82.0361 253.754 82.0361H256.161V81.3377C256.161 79.895 255.334 79.2701 253.772 79.2701C252.798 79.2701 251.971 79.5274 251.199 79.8399L250.804 78.5626C251.815 78.2042 252.835 77.9653 253.772 77.9653C256.069 77.9653 257.742 78.9393 257.742 81.5307V88H256.409L256.29 86.8238C255.739 87.513 254.507 88.2849 253.257 88.2849ZM253.478 86.934C254.526 86.934 255.527 86.2081 256.161 85.5189V83.2951H254.085C252.504 83.2951 251.64 83.9935 251.64 85.1973C251.64 86.4011 252.348 86.934 253.478 86.934ZM4.34655 101.965C5.71576 101.965 6.892 102.443 7.86606 103.647L6.81848 104.547C6.13847 103.674 5.32062 103.316 4.42007 103.316C3.10599 103.316 2.54544 103.877 2.54544 104.694C2.54544 105.604 3.07842 106.055 5.0817 106.422C7.45254 106.872 8.37148 107.791 8.37148 109.363C8.37148 111.182 7.04821 112.266 4.67737 112.266C2.94977 112.266 1.57137 111.522 0.698389 110.511L1.70921 109.519C2.46274 110.401 3.42762 110.925 4.67737 110.925C6.1109 110.925 6.79091 110.309 6.79091 109.39C6.79091 108.563 6.14766 108.012 4.42007 107.681C1.72759 107.166 0.964879 106.229 0.964879 104.74C0.964879 103.233 2.09517 101.965 4.34655 101.965ZM10.889 112V102.241H12.3041L12.396 103.472C13.0852 102.563 14.0593 101.965 15.162 101.965C16.2096 101.965 16.9723 102.397 17.441 103.445C18.2221 102.498 19.2788 101.965 20.3448 101.965C22.2654 101.965 23.1659 103.279 23.1659 105.09V112H21.5854V105.402C21.5854 103.932 21.0156 103.38 20.0783 103.38C19.1869 103.38 18.2037 104.152 17.7994 104.851C17.8177 105.283 17.8177 105.154 17.8177 105.457V112H16.2372V105.402C16.2372 103.932 15.6674 103.38 14.7301 103.38C13.9215 103.38 13.1128 103.978 12.4695 104.869V112H10.889ZM28.8446 112.285C27.0894 112.285 25.6467 111.467 25.6467 109.197C25.6467 106.762 27.7235 106.036 29.3408 106.036H31.7484V105.338C31.7484 103.895 30.9214 103.27 29.3592 103.27C28.3851 103.27 27.5581 103.527 26.7862 103.84L26.391 102.563C27.4018 102.204 28.4219 101.965 29.3592 101.965C31.6565 101.965 33.329 102.939 33.329 105.531V112H31.9965L31.877 110.824C31.3257 111.513 30.0943 112.285 28.8446 112.285ZM29.0651 110.934C30.1127 110.934 31.1143 110.208 31.7484 109.519V107.295H29.6716C28.091 107.295 27.2272 107.993 27.2272 109.197C27.2272 110.401 27.9348 110.934 29.0651 110.934ZM36.5816 102.241H37.9233L38.0427 103.555C38.9249 102.461 39.7244 101.965 40.5973 101.965C41.1028 101.965 41.6082 102.094 42.0493 102.296L41.5806 103.656C41.3049 103.537 40.8455 103.362 40.4319 103.362C39.6325 103.362 38.8973 103.932 38.1622 105.09V112H36.5816V102.241ZM44.043 99.5117H45.6235V102.241H49.2349V103.546H45.6235V108.756C45.6235 110.208 46.0922 110.851 47.2225 110.851C47.9576 110.851 48.803 110.576 49.4187 110.272L49.8047 111.559C48.656 112.074 47.7463 112.266 47.0203 112.266C44.7138 112.266 44.043 110.732 44.043 108.885V99.5117ZM53.48 112H51.587V110.079H53.48V112ZM60.7205 99.5117H63.9735C67.8882 99.5117 69.625 102.425 69.625 105.687C69.625 108.968 67.8882 112 63.9735 112H60.7205V99.5117ZM62.3194 100.853V110.658H63.9735C66.5741 110.658 67.9249 108.664 67.9249 105.687C67.9249 102.71 66.5741 100.853 63.9735 100.853H62.3194ZM79.8983 110.548C79.0804 111.531 77.8858 112.266 76.2868 112.266C73.1165 112.266 71.83 109.877 71.83 107.075C71.83 104.382 73.1073 101.965 76.0295 101.965C78.9609 101.965 80.1556 104.373 80.1556 107.295V107.653H73.4657C73.5392 109.905 74.7063 110.925 76.3328 110.925C77.4079 110.925 78.2074 110.419 78.9242 109.583L79.8983 110.548ZM76.0295 103.316C74.2468 103.316 73.5392 104.768 73.4841 106.385H78.529C78.4831 104.768 77.7939 103.316 76.0295 103.316ZM85.678 101.965C87.0472 101.965 88.2234 102.443 89.1975 103.647L88.1499 104.547C87.4699 103.674 86.652 103.316 85.7515 103.316C84.4374 103.316 83.8769 103.877 83.8769 104.694C83.8769 105.604 84.4099 106.055 86.4131 106.422C88.784 106.872 89.7029 107.791 89.7029 109.363C89.7029 111.182 88.3796 112.266 86.0088 112.266C84.2812 112.266 82.9028 111.522 82.0298 110.511L83.0406 109.519C83.7942 110.401 84.759 110.925 86.0088 110.925C87.4423 110.925 88.1223 110.309 88.1223 109.39C88.1223 108.563 87.4791 108.012 85.7515 107.681C83.059 107.166 82.2963 106.229 82.2963 104.74C82.2963 103.233 83.4266 101.965 85.678 101.965ZM94.6372 112.285C92.882 112.285 91.4393 111.467 91.4393 109.197C91.4393 106.762 93.5161 106.036 95.1334 106.036H97.541V105.338C97.541 103.895 96.714 103.27 95.1518 103.27C94.1777 103.27 93.3507 103.527 92.5788 103.84L92.1837 102.563C93.1945 102.204 94.2145 101.965 95.1518 101.965C97.4491 101.965 99.1216 102.939 99.1216 105.531V112H97.7891L97.6697 110.824C97.1183 111.513 95.887 112.285 94.6372 112.285ZM94.8578 110.934C95.9053 110.934 96.907 110.208 97.541 109.519V107.295H95.4642C93.8837 107.295 93.0199 107.993 93.0199 109.197C93.0199 110.401 93.7275 110.934 94.8578 110.934ZM102.374 102.241H103.716L103.835 103.555C104.718 102.461 105.517 101.965 106.39 101.965C106.895 101.965 107.401 102.094 107.842 102.296L107.373 103.656C107.098 103.537 106.638 103.362 106.225 103.362C105.425 103.362 104.69 103.932 103.955 105.09V112H102.374V102.241ZM109.937 102.241H111.278L111.398 103.555C112.28 102.461 113.079 101.965 113.952 101.965C114.458 101.965 114.963 102.094 115.404 102.296L114.936 103.656C114.66 103.537 114.201 103.362 113.787 103.362C112.988 103.362 112.252 103.932 111.517 105.09V112H109.937V102.241ZM120.752 112.266C118.198 112.266 116.516 110.19 116.516 107.13C116.516 104.06 118.198 101.965 120.752 101.965C123.298 101.965 124.979 104.06 124.979 107.13C124.979 110.19 123.298 112.266 120.752 112.266ZM120.752 110.925C122.498 110.925 123.399 109.501 123.399 107.13C123.399 104.768 122.498 103.316 120.752 103.316C118.997 103.316 118.096 104.768 118.096 107.13C118.096 109.501 118.997 110.925 120.752 110.925ZM127.708 112V98.0414H129.289V112H127.708ZM132.642 112V98.0414H134.223V112H132.642ZM139.994 112.285C138.238 112.285 136.796 111.467 136.796 109.197C136.796 106.762 138.872 106.036 140.49 106.036H142.897V105.338C142.897 103.895 142.07 103.27 140.508 103.27C139.534 103.27 138.707 103.527 137.935 103.84L137.54 102.563C138.551 102.204 139.571 101.965 140.508 101.965C142.805 101.965 144.478 102.939 144.478 105.531V112H143.145L143.026 110.824C142.475 111.513 141.243 112.285 139.994 112.285ZM140.214 110.934C141.262 110.934 142.263 110.208 142.897 109.519V107.295H140.821C139.24 107.295 138.376 107.993 138.376 109.197C138.376 110.401 139.084 110.934 140.214 110.934ZM150.947 101.965C152.04 101.965 153.244 102.388 153.97 103.776V97.9311H155.532V112H154.117L153.989 110.53C153.263 111.871 152.022 112.266 150.984 112.266C148.962 112.266 147.124 110.603 147.124 107.102C147.124 103.601 148.916 101.965 150.947 101.965ZM151.342 103.316C149.679 103.316 148.705 104.694 148.705 107.102C148.705 109.501 149.679 110.925 151.342 110.925C153.024 110.925 154.016 109.51 154.016 107.102C154.016 104.694 153.024 103.316 151.342 103.316ZM162.497 112.266C159.943 112.266 158.261 110.19 158.261 107.13C158.261 104.06 159.943 101.965 162.497 101.965C165.043 101.965 166.725 104.06 166.725 107.13C166.725 110.19 165.043 112.266 162.497 112.266ZM162.497 110.925C164.243 110.925 165.144 109.501 165.144 107.13C165.144 104.768 164.243 103.316 162.497 103.316C160.742 103.316 159.842 104.768 159.842 107.13C159.842 109.501 160.742 110.925 162.497 110.925ZM181.381 110.548C180.563 111.531 179.368 112.266 177.769 112.266C174.599 112.266 173.313 109.877 173.313 107.075C173.313 104.382 174.59 101.965 177.512 101.965C180.443 101.965 181.638 104.373 181.638 107.295V107.653H174.948C175.022 109.905 176.189 110.925 177.815 110.925C178.89 110.925 179.69 110.419 180.407 109.583L181.381 110.548ZM177.512 103.316C175.729 103.316 175.022 104.768 174.967 106.385H180.012C179.966 104.768 179.276 103.316 177.512 103.316ZM184.303 112V102.241H185.663L185.773 103.656C186.582 102.783 187.62 101.965 189.035 101.965C190.836 101.965 192.086 102.746 192.086 106.009V112H190.505V106.009C190.505 103.95 189.853 103.38 188.75 103.38C187.546 103.38 186.609 104.272 185.883 105.016V112H184.303ZM8.5277 134.521C7.62714 135.688 6.61632 136.266 5.11846 136.266C2.59139 136.266 0.854607 134.364 0.854607 131.13C0.854607 128.198 2.42598 125.965 5.14602 125.965C6.64388 125.965 7.62714 126.572 8.5277 127.748L7.52606 128.685C6.93794 127.877 6.24874 127.316 5.14602 127.316C3.39086 127.316 2.43517 128.786 2.43517 131.13C2.43517 133.473 3.40005 134.925 5.22873 134.925C6.2855 134.925 6.93794 134.392 7.52606 133.583L8.5277 134.521ZM14.528 136.266C11.9733 136.266 10.2917 134.19 10.2917 131.13C10.2917 128.06 11.9733 125.965 14.528 125.965C17.0734 125.965 18.755 128.06 18.755 131.13C18.755 134.19 17.0734 136.266 14.528 136.266ZM14.528 134.925C16.2739 134.925 17.1745 133.501 17.1745 131.13C17.1745 128.768 16.2739 127.316 14.528 127.316C12.7728 127.316 11.8722 128.768 11.8722 131.13C11.8722 133.501 12.7728 134.925 14.528 134.925ZM21.4839 136V122.041H23.0645V136H21.4839ZM28.835 136.285C27.0798 136.285 25.6371 135.467 25.6371 133.197C25.6371 130.762 27.7139 130.036 29.3312 130.036H31.7388V129.338C31.7388 127.895 30.9118 127.27 29.3496 127.27C28.3755 127.27 27.5485 127.527 26.7766 127.84L26.3815 126.563C27.3923 126.204 28.4123 125.965 29.3496 125.965C31.6469 125.965 33.3194 126.939 33.3194 129.531V136H31.9869L31.8675 134.824C31.3161 135.513 30.0848 136.285 28.835 136.285ZM29.0555 134.934C30.1031 134.934 31.1048 134.208 31.7388 133.519V131.295H29.662C28.0815 131.295 27.2177 131.993 27.2177 133.197C27.2177 134.401 27.9253 134.934 29.0555 134.934ZM41.1575 125.965C43.1884 125.965 44.9803 127.601 44.9803 131.102C44.9803 134.603 43.1516 136.266 41.1208 136.266C40.0916 136.266 38.8418 135.871 38.1159 134.53L37.9964 136H36.5721V121.931H38.1434V127.776C38.8602 126.388 40.064 125.965 41.1575 125.965ZM40.7624 127.316C39.0807 127.316 38.0883 128.694 38.0883 131.102C38.0883 133.51 39.0807 134.925 40.7624 134.925C42.4348 134.925 43.3997 133.501 43.3997 131.102C43.3997 128.694 42.4348 127.316 40.7624 127.316ZM51.3389 136.266C48.7843 136.266 47.1027 134.19 47.1027 131.13C47.1027 128.06 48.7843 125.965 51.3389 125.965C53.8844 125.965 55.566 128.06 55.566 131.13C55.566 134.19 53.8844 136.266 51.3389 136.266ZM51.3389 134.925C53.0849 134.925 53.9855 133.501 53.9855 131.13C53.9855 128.768 53.0849 127.316 51.3389 127.316C49.5838 127.316 48.6832 128.768 48.6832 131.13C48.6832 133.501 49.5838 134.925 51.3389 134.925ZM58.2949 126.241H59.6365L59.756 127.555C60.6382 126.461 61.4376 125.965 62.3106 125.965C62.816 125.965 63.3214 126.094 63.7625 126.296L63.2939 127.656C63.0182 127.537 62.5587 127.362 62.1452 127.362C61.3457 127.362 60.6106 127.932 59.8754 129.09V136H58.2949V126.241ZM67.9801 136.285C66.2249 136.285 64.7822 135.467 64.7822 133.197C64.7822 130.762 66.859 130.036 68.4763 130.036H70.8839V129.338C70.8839 127.895 70.0569 127.27 68.4947 127.27C67.5206 127.27 66.6936 127.527 65.9217 127.84L65.5265 126.563C66.5373 126.204 67.5574 125.965 68.4947 125.965C70.792 125.965 72.4645 126.939 72.4645 129.531V136H71.132L71.0125 134.824C70.4612 135.513 69.2298 136.285 67.9801 136.285ZM68.2006 134.934C69.2482 134.934 70.2498 134.208 70.8839 133.519V131.295H68.8071C67.2265 131.295 66.3628 131.993 66.3628 133.197C66.3628 134.401 67.0703 134.934 68.2006 134.934ZM82.7561 134.521C81.8556 135.688 80.8448 136.266 79.3469 136.266C76.8198 136.266 75.083 134.364 75.083 131.13C75.083 128.198 76.6544 125.965 79.3745 125.965C80.8723 125.965 81.8556 126.572 82.7561 127.748L81.7545 128.685C81.1664 127.877 80.4772 127.316 79.3745 127.316C77.6193 127.316 76.6636 128.786 76.6636 131.13C76.6636 133.473 77.6285 134.925 79.4572 134.925C80.5139 134.925 81.1664 134.392 81.7545 133.583L82.7561 134.521ZM86.9461 124.008H85.1634V122.179H86.9461V124.008ZM85.2645 136V126.241H86.845V136H85.2645ZM94.8578 120.645H96.6497L93.9848 124.008H92.5237L94.8578 120.645ZM93.801 136.266C91.2463 136.266 89.5647 134.19 89.5647 131.13C89.5647 128.06 91.2463 125.965 93.801 125.965C96.3464 125.965 98.0281 128.06 98.0281 131.13C98.0281 134.19 96.3464 136.266 93.801 136.266ZM93.801 134.925C95.547 134.925 96.4475 133.501 96.4475 131.13C96.4475 128.768 95.547 127.316 93.801 127.316C92.0458 127.316 91.1453 128.768 91.1453 131.13C91.1453 133.501 92.0458 134.925 93.801 134.925ZM100.757 136V126.241H102.117L102.227 127.656C103.036 126.783 104.074 125.965 105.489 125.965C107.291 125.965 108.54 126.746 108.54 130.009V136H106.96V130.009C106.96 127.95 106.307 127.38 105.205 127.38C104.001 127.38 103.063 128.272 102.337 129.016V136H100.757ZM123.325 134.521C122.425 135.688 121.414 136.266 119.916 136.266C117.389 136.266 115.652 134.364 115.652 131.13C115.652 128.198 117.223 125.965 119.944 125.965C121.441 125.965 122.425 126.572 123.325 127.748L122.324 128.685C121.735 127.877 121.046 127.316 119.944 127.316C118.188 127.316 117.233 128.786 117.233 131.13C117.233 133.473 118.198 134.925 120.026 134.925C121.083 134.925 121.735 134.392 122.324 133.583L123.325 134.521ZM129.325 136.266C126.771 136.266 125.089 134.19 125.089 131.13C125.089 128.06 126.771 125.965 129.325 125.965C131.871 125.965 133.553 128.06 133.553 131.13C133.553 134.19 131.871 136.266 129.325 136.266ZM129.325 134.925C131.071 134.925 131.972 133.501 131.972 131.13C131.972 128.768 131.071 127.316 129.325 127.316C127.57 127.316 126.67 128.768 126.67 131.13C126.67 133.501 127.57 134.925 129.325 134.925ZM136.281 136V126.241H137.641L137.752 127.656C138.56 126.783 139.599 125.965 141.014 125.965C142.815 125.965 144.065 126.746 144.065 130.009V136H142.484V130.009C142.484 127.95 141.832 127.38 140.729 127.38C139.525 127.38 138.588 128.272 137.862 129.016V136H136.281ZM151.948 123.512H155.79C158.436 123.512 159.704 124.826 159.704 126.811C159.704 127.739 159.3 129.09 158.142 129.457C159.41 129.797 160.375 130.845 160.375 132.49C160.375 134.888 158.464 136 155.983 136H151.948V123.512ZM153.547 124.853V128.851H155.716C157.37 128.851 158.004 128.06 158.004 126.884C158.004 125.662 157.333 124.853 155.689 124.853H153.547ZM153.547 130.202V134.658H155.881C157.83 134.658 158.675 133.629 158.675 132.416C158.675 131.176 157.82 130.202 155.909 130.202H153.547ZM166.973 130.863H164.877V136.009H163.279V123.512H166.826C169.785 123.512 171.089 124.908 171.089 127.187C171.089 129.108 170.051 130.202 168.572 130.643L171.42 136H169.656L166.973 130.863ZM164.877 124.853V129.512H166.743C168.544 129.512 169.38 128.621 169.38 127.187C169.38 125.745 168.553 124.853 166.743 124.853H164.877ZM180.637 133.096H175.491L174.489 136H172.835L177.301 123.512H179.001L183.237 136H181.611L180.637 133.096ZM175.941 131.755H180.187L178.101 125.533L175.941 131.755ZM185.626 123.512H189.467C192.114 123.512 193.382 124.826 193.382 126.811C193.382 127.739 192.978 129.09 191.82 129.457C193.088 129.797 194.053 130.845 194.053 132.49C194.053 134.888 192.141 136 189.66 136H185.626V123.512ZM187.225 124.853V128.851H189.394C191.048 128.851 191.682 128.06 191.682 126.884C191.682 125.662 191.011 124.853 189.366 124.853H187.225ZM187.225 130.202V134.658H189.559C191.507 134.658 192.353 133.629 192.353 132.416C192.353 131.176 191.498 130.202 189.587 130.202H187.225ZM205.539 123.512V131.736C205.539 134.557 204.17 136.266 201.193 136.266C198.224 136.266 196.846 134.557 196.846 131.736V123.512H198.445V131.736C198.445 133.859 199.355 134.851 201.193 134.851C203.04 134.851 203.94 133.859 203.94 131.736V123.512H205.539ZM212.422 123.208C214.25 123.208 215.647 124.127 216.382 125.873L214.949 126.517C214.599 125.405 213.736 124.596 212.422 124.596C210.997 124.596 210.124 125.184 210.124 126.517C210.124 127.537 210.777 128.309 212.642 128.933C215.169 129.779 216.63 130.542 216.63 132.756C216.63 134.962 215.151 136.266 212.477 136.266C210.575 136.266 209.196 135.522 208.24 134.181L209.527 133.225C209.913 133.951 210.933 134.888 212.477 134.888C214.232 134.888 214.967 134.043 214.967 132.839C214.967 131.525 214.048 131.093 212.173 130.44C209.95 129.687 208.461 128.768 208.461 126.526C208.461 124.752 209.564 123.208 212.422 123.208ZM221.289 133.73L219.166 139.602H217.678L219.414 133.73H221.289ZM235.265 134.521C234.365 135.688 233.354 136.266 231.856 136.266C229.329 136.266 227.592 134.364 227.592 131.13C227.592 128.198 229.163 125.965 231.883 125.965C233.381 125.965 234.365 126.572 235.265 127.748L234.264 128.685C233.675 127.877 232.986 127.316 231.883 127.316C230.128 127.316 229.173 128.786 229.173 131.13C229.173 133.473 230.138 134.925 231.966 134.925C233.023 134.925 233.675 134.392 234.264 133.583L235.265 134.521ZM241.265 136.266C238.711 136.266 237.029 134.19 237.029 131.13C237.029 128.06 238.711 125.965 241.265 125.965C243.811 125.965 245.493 128.06 245.493 131.13C245.493 134.19 243.811 136.266 241.265 136.266ZM241.265 134.925C243.011 134.925 243.912 133.501 243.912 131.13C243.912 128.768 243.011 127.316 241.265 127.316C239.51 127.316 238.61 128.768 238.61 131.13C238.61 133.501 239.51 134.925 241.265 134.925ZM248.221 136V126.241H249.637L249.728 127.472C250.418 126.563 251.392 125.965 252.494 125.965C253.542 125.965 254.305 126.397 254.773 127.445C255.554 126.498 256.611 125.965 257.677 125.965C259.598 125.965 260.498 127.279 260.498 129.09V136H258.918V129.402C258.918 127.932 258.348 127.38 257.411 127.38C256.519 127.38 255.536 128.152 255.132 128.851C255.15 129.283 255.15 129.154 255.15 129.457V136H253.57V129.402C253.57 127.932 253 127.38 252.063 127.38C251.254 127.38 250.445 127.978 249.802 128.869V136H248.221ZM268.346 125.965C270.376 125.965 272.168 127.601 272.168 131.102C272.168 134.603 270.34 136.266 268.309 136.266C267.28 136.266 266.03 135.871 265.304 134.53L265.185 136H263.76V121.931H265.332V127.776C266.048 126.388 267.252 125.965 268.346 125.965ZM267.95 127.316C266.269 127.316 265.276 128.694 265.276 131.102C265.276 133.51 266.269 134.925 267.95 134.925C269.623 134.925 270.588 133.501 270.588 131.102C270.588 128.694 269.623 127.316 267.95 127.316ZM276.606 124.008H274.824V122.179H276.606V124.008ZM274.925 136V126.241H276.505V136H274.925ZM279.859 136V126.241H281.219L281.329 127.656C282.138 126.783 283.176 125.965 284.592 125.965C286.393 125.965 287.642 126.746 287.642 130.009V136H286.062V130.009C286.062 127.95 285.409 127.38 284.307 127.38C283.103 127.38 282.166 128.272 281.44 129.016V136H279.859ZM293.312 136.285C291.557 136.285 290.114 135.467 290.114 133.197C290.114 130.762 292.191 130.036 293.808 130.036H296.216V129.338C296.216 127.895 295.389 127.27 293.827 127.27C292.852 127.27 292.025 127.527 291.254 127.84L290.858 126.563C291.869 126.204 292.889 125.965 293.827 125.965C296.124 125.965 297.796 126.939 297.796 129.531V136H296.464L296.344 134.824C295.793 135.513 294.562 136.285 293.312 136.285ZM293.532 134.934C294.58 134.934 295.582 134.208 296.216 133.519V131.295H294.139C292.558 131.295 291.695 131.993 291.695 133.197C291.695 134.401 292.402 134.934 293.532 134.934ZM1.48867 160V146.041H3.06924V160H1.48867ZM8.83976 160.285C7.0846 160.285 5.64188 159.467 5.64188 157.197C5.64188 154.762 7.71867 154.036 9.33599 154.036H11.7436V153.338C11.7436 151.895 10.9166 151.27 9.35437 151.27C8.3803 151.27 7.55326 151.527 6.78136 151.84L6.38621 150.563C7.39704 150.204 8.41706 149.965 9.35437 149.965C11.6517 149.965 13.3242 150.939 13.3242 153.531V160H11.9917L11.8722 158.824C11.3209 159.513 10.0895 160.285 8.83976 160.285ZM9.06031 158.934C10.1079 158.934 11.1095 158.208 11.7436 157.519V155.295H9.6668C8.08624 155.295 7.22244 155.993 7.22244 157.197C7.22244 158.401 7.93002 158.934 9.06031 158.934ZM21.07 160V150.241H22.4852L22.5771 151.472C23.2663 150.563 24.2403 149.965 25.3431 149.965C26.3906 149.965 27.1534 150.397 27.622 151.445C28.4031 150.498 29.4599 149.965 30.5258 149.965C32.4464 149.965 33.347 151.279 33.347 153.09V160H31.7664V153.402C31.7664 151.932 31.1967 151.38 30.2594 151.38C29.368 151.38 28.3847 152.152 27.9804 152.851C27.9988 153.283 27.9988 153.154 27.9988 153.457V160H26.4182V153.402C26.4182 151.932 25.8485 151.38 24.9112 151.38C24.1025 151.38 23.2938 151.978 22.6506 152.869V160H21.07ZM40.211 160.266C37.6564 160.266 35.9747 158.19 35.9747 155.13C35.9747 152.06 37.6564 149.965 40.211 149.965C42.7565 149.965 44.4381 152.06 44.4381 155.13C44.4381 158.19 42.7565 160.266 40.211 160.266ZM40.211 158.925C41.957 158.925 42.8575 157.501 42.8575 155.13C42.8575 152.768 41.957 151.316 40.211 151.316C38.4559 151.316 37.5553 152.768 37.5553 155.13C37.5553 157.501 38.4559 158.925 40.211 158.925ZM54.8033 150.241L51.2287 160H49.4184L45.8529 150.241H47.461L50.3281 158.419L53.1768 150.241H54.8033ZM58.6533 148.008H56.8705V146.179H58.6533V148.008ZM56.9716 160V150.241H58.5522V160H56.9716ZM61.9059 160V146.041H63.4865V160H61.9059ZM68.5219 148.008H66.7391V146.179H68.5219V148.008ZM66.8402 160V150.241H68.4208V160H66.8402ZM74.9908 149.965C76.0843 149.965 77.2881 150.388 78.0141 151.776V145.931H79.5763V160H78.1611L78.0325 158.53C77.3065 159.871 76.0659 160.266 75.0276 160.266C73.0059 160.266 71.168 158.603 71.168 155.102C71.168 151.601 72.96 149.965 74.9908 149.965ZM75.3859 151.316C73.7227 151.316 72.7486 152.694 72.7486 155.102C72.7486 157.501 73.7227 158.925 75.3859 158.925C77.0676 158.925 78.06 157.51 78.06 155.102C78.06 152.694 77.0676 151.316 75.3859 151.316ZM85.356 160.285C83.6008 160.285 82.1581 159.467 82.1581 157.197C82.1581 154.762 84.2349 154.036 85.8522 154.036H88.2598V153.338C88.2598 151.895 87.4328 151.27 85.8706 151.27C84.8965 151.27 84.0695 151.527 83.2976 151.84L82.9024 150.563C83.9133 150.204 84.9333 149.965 85.8706 149.965C88.1679 149.965 89.8404 150.939 89.8404 153.531V160H88.5079L88.3885 158.824C87.8371 159.513 86.6057 160.285 85.356 160.285ZM85.5765 158.934C86.6241 158.934 87.6257 158.208 88.2598 157.519V155.295H86.183C84.6025 155.295 83.7387 155.993 83.7387 157.197C83.7387 158.401 84.4462 158.934 85.5765 158.934ZM96.3093 149.965C97.4028 149.965 98.6066 150.388 99.3326 151.776V145.931H100.895V160H99.4796L99.351 158.53C98.625 159.871 97.3844 160.266 96.346 160.266C94.3244 160.266 92.4865 158.603 92.4865 155.102C92.4865 151.601 94.2784 149.965 96.3093 149.965ZM96.7044 151.316C95.0412 151.316 94.0671 152.694 94.0671 155.102C94.0671 157.501 95.0412 158.925 96.7044 158.925C98.3861 158.925 99.3785 157.51 99.3785 155.102C99.3785 152.694 98.3861 151.316 96.7044 151.316ZM108.622 148.89L112.362 147.512H113.401V158.695H115.919V160H109.302V158.695H111.82V149.193L109.063 150.167L108.622 148.89ZM122.305 160.266C119.502 160.266 118.216 158.043 118.216 153.898C118.216 149.763 119.502 147.126 122.305 147.126C125.098 147.126 126.394 149.763 126.394 153.898C126.394 158.043 125.098 160.266 122.305 160.266ZM122.305 158.925C123.885 158.925 124.841 157.629 124.841 153.898C124.841 150.177 123.885 148.467 122.305 148.467C120.724 148.467 119.759 150.177 119.759 153.898C119.759 157.629 120.724 158.925 122.305 158.925ZM132.459 160.266C129.656 160.266 128.369 158.043 128.369 153.898C128.369 149.763 129.656 147.126 132.459 147.126C135.252 147.126 136.548 149.763 136.548 153.898C136.548 158.043 135.252 160.266 132.459 160.266ZM132.459 158.925C134.039 158.925 134.995 157.629 134.995 153.898C134.995 150.177 134.039 148.467 132.459 148.467C130.878 148.467 129.913 150.177 129.913 153.898C129.913 157.629 130.878 158.925 132.459 158.925ZM140.784 152.851C139.148 152.851 138.275 151.408 138.275 149.956C138.275 148.504 139.166 147.052 140.784 147.052C142.42 147.052 143.292 148.504 143.292 149.956C143.292 151.408 142.42 152.851 140.784 152.851ZM146.647 147.411H147.878L141.142 160H139.911L146.647 147.411ZM140.784 151.711C141.648 151.711 142.089 150.958 142.089 149.956C142.089 148.954 141.648 148.201 140.784 148.201C139.929 148.201 139.479 148.954 139.479 149.956C139.479 150.958 139.929 151.711 140.784 151.711ZM147.124 160.266C145.489 160.266 144.616 158.824 144.616 157.372C144.616 155.92 145.507 154.468 147.124 154.468C148.76 154.468 149.633 155.92 149.633 157.372C149.633 158.824 148.76 160.266 147.124 160.266ZM147.124 159.118C147.988 159.118 148.429 158.373 148.429 157.372C148.429 156.361 147.988 155.617 147.124 155.617C146.27 155.617 145.82 156.361 145.82 157.372C145.82 158.373 146.27 159.118 147.124 159.118ZM163.977 158.548C163.159 159.531 161.964 160.266 160.366 160.266C157.195 160.266 155.909 157.877 155.909 155.075C155.909 152.382 157.186 149.965 160.108 149.965C163.04 149.965 164.234 152.373 164.234 155.295V155.653H157.544C157.618 157.905 158.785 158.925 160.411 158.925C161.487 158.925 162.286 158.419 163.003 157.583L163.977 158.548ZM160.108 151.316C158.325 151.316 157.618 152.768 157.563 154.385H162.608C162.562 152.768 161.873 151.316 160.108 151.316ZM166.899 160V146.041H168.479V160H166.899ZM176.483 144.645H178.275L175.61 148.008H174.149L176.483 144.645ZM179.267 158.548C178.449 159.531 177.255 160.266 175.656 160.266C172.486 160.266 171.199 157.877 171.199 155.075C171.199 152.382 172.476 149.965 175.399 149.965C178.33 149.965 179.525 152.373 179.525 155.295V155.653H172.835C172.908 157.905 174.075 158.925 175.702 158.925C176.777 158.925 177.576 158.419 178.293 157.583L179.267 158.548ZM175.399 151.316C173.616 151.316 172.908 152.768 172.853 154.385H177.898C177.852 152.768 177.163 151.316 175.399 151.316ZM189.228 158.521C188.328 159.688 187.317 160.266 185.819 160.266C183.292 160.266 181.555 158.364 181.555 155.13C181.555 152.198 183.126 149.965 185.846 149.965C187.344 149.965 188.328 150.572 189.228 151.748L188.226 152.685C187.638 151.877 186.949 151.316 185.846 151.316C184.091 151.316 183.136 152.786 183.136 155.13C183.136 157.473 184.1 158.925 185.929 158.925C186.986 158.925 187.638 158.392 188.226 157.583L189.228 158.521ZM191.635 147.512H193.216V150.241H196.827V151.546H193.216V156.756C193.216 158.208 193.685 158.851 194.815 158.851C195.55 158.851 196.395 158.576 197.011 158.272L197.397 159.559C196.248 160.074 195.339 160.266 194.613 160.266C192.306 160.266 191.635 158.732 191.635 156.885V147.512ZM199.464 150.241H200.806L200.925 151.555C201.808 150.461 202.607 149.965 203.48 149.965C203.985 149.965 204.491 150.094 204.932 150.296L204.463 151.656C204.188 151.537 203.728 151.362 203.315 151.362C202.515 151.362 201.78 151.932 201.045 153.09V160H199.464V150.241ZM208.708 148.008H206.926V146.179H208.708V148.008ZM207.027 160V150.241H208.607V160H207.027ZM219 158.521C218.099 159.688 217.089 160.266 215.591 160.266C213.064 160.266 211.327 158.364 211.327 155.13C211.327 152.198 212.898 149.965 215.618 149.965C217.116 149.965 218.099 150.572 219 151.748L217.998 152.685C217.41 151.877 216.721 151.316 215.618 151.316C213.863 151.316 212.908 152.786 212.908 155.13C212.908 157.473 213.872 158.925 215.701 158.925C216.758 158.925 217.41 158.392 217.998 157.583L219 158.521ZM223.925 160.285C222.17 160.285 220.727 159.467 220.727 157.197C220.727 154.762 222.804 154.036 224.421 154.036H226.829V153.338C226.829 151.895 226.002 151.27 224.44 151.27C223.466 151.27 222.639 151.527 221.867 151.84L221.472 150.563C222.482 150.204 223.502 149.965 224.44 149.965C226.737 149.965 228.41 150.939 228.41 153.531V160H227.077L226.958 158.824C226.406 159.513 225.175 160.285 223.925 160.285ZM224.146 158.934C225.193 158.934 226.195 158.208 226.829 157.519V155.295H224.752C223.172 155.295 222.308 155.993 222.308 157.197C222.308 158.401 223.015 158.934 224.146 158.934ZM243.194 158.521C242.294 159.688 241.283 160.266 239.785 160.266C237.258 160.266 235.521 158.364 235.521 155.13C235.521 152.198 237.093 149.965 239.813 149.965C241.311 149.965 242.294 150.572 243.194 151.748L242.193 152.685C241.605 151.877 240.915 151.316 239.813 151.316C238.058 151.316 237.102 152.786 237.102 155.13C237.102 157.473 238.067 158.925 239.895 158.925C240.952 158.925 241.605 158.392 242.193 157.583L243.194 158.521ZM249.195 160.266C246.64 160.266 244.958 158.19 244.958 155.13C244.958 152.06 246.64 149.965 249.195 149.965C251.74 149.965 253.422 152.06 253.422 155.13C253.422 158.19 251.74 160.266 249.195 160.266ZM249.195 158.925C250.941 158.925 251.841 157.501 251.841 155.13C251.841 152.768 250.941 151.316 249.195 151.316C247.44 151.316 246.539 152.768 246.539 155.13C246.539 157.501 247.44 158.925 249.195 158.925ZM256.151 160V150.241H257.511L257.621 151.656C258.43 150.783 259.468 149.965 260.883 149.965C262.684 149.965 263.934 150.746 263.934 154.009V160H262.353V154.009C262.353 151.95 261.701 151.38 260.598 151.38C259.394 151.38 258.457 152.272 257.731 153.016V160H256.151ZM279.362 150.241V160H277.993L277.883 158.585C277.074 159.458 276.036 160.276 274.62 160.276C272.819 160.276 271.57 159.495 271.57 156.232V150.241H273.15V156.232C273.15 158.282 273.803 158.861 274.905 158.861C276.118 158.861 277.046 157.969 277.782 157.225V150.241H279.362ZM282.716 160V150.241H284.076L284.186 151.656C284.995 150.783 286.033 149.965 287.448 149.965C289.25 149.965 290.499 150.746 290.499 154.009V160H288.919V154.009C288.919 151.95 288.266 151.38 287.164 151.38C285.96 151.38 285.022 152.272 284.296 153.016V160H282.716ZM4.70494 173.965C5.79847 173.965 7.00227 174.388 7.72822 175.776V169.931H9.29041V184H7.87525L7.7466 182.53C7.02065 183.871 5.78009 184.266 4.74169 184.266C2.72004 184.266 0.882175 182.603 0.882175 179.102C0.882175 175.601 2.67409 173.965 4.70494 173.965ZM5.10008 175.316C3.43681 175.316 2.46274 176.694 2.46274 179.102C2.46274 181.501 3.43681 182.925 5.10008 182.925C6.78172 182.925 7.77417 181.51 7.77417 179.102C7.77417 176.694 6.78172 175.316 5.10008 175.316ZM14.335 172.008H12.5523V170.179H14.335V172.008ZM12.6533 184V174.241H14.2339V184H12.6533ZM20.4455 173.965C21.8147 173.965 22.991 174.443 23.965 175.647L22.9174 176.547C22.2374 175.674 21.4196 175.316 20.519 175.316C19.205 175.316 18.6444 175.877 18.6444 176.694C18.6444 177.604 19.1774 178.055 21.1807 178.422C23.5515 178.872 24.4704 179.791 24.4704 181.363C24.4704 183.182 23.1472 184.266 20.7763 184.266C19.0487 184.266 17.6703 183.522 16.7974 182.511L17.8082 181.519C18.5617 182.401 19.5266 182.925 20.7763 182.925C22.2099 182.925 22.8899 182.309 22.8899 181.39C22.8899 180.563 22.2466 180.012 20.519 179.681C17.8266 179.166 17.0638 178.229 17.0638 176.74C17.0638 175.233 18.1941 173.965 20.4455 173.965ZM34.4221 182.548C33.6043 183.531 32.4097 184.266 30.8107 184.266C27.6404 184.266 26.3539 181.877 26.3539 179.075C26.3539 176.382 27.6312 173.965 30.5534 173.965C33.4848 173.965 34.6794 176.373 34.6794 179.295V179.653H27.9896C28.0631 181.905 29.2301 182.925 30.8567 182.925C31.9318 182.925 32.7313 182.419 33.448 181.583L34.4221 182.548ZM30.5534 175.316C28.7707 175.316 28.0631 176.768 28.008 178.385H33.0529C33.007 176.768 32.3178 175.316 30.5534 175.316ZM37.6748 172.008C37.6748 170.391 38.4375 169.288 39.7883 169.288C40.3581 169.288 40.8727 169.573 41.4148 170.097C42.0121 170.666 42.3246 170.823 42.6094 170.823C43.2159 170.823 43.5376 170.253 43.5376 169.334H44.7965C44.7965 170.951 44.0522 172.054 42.7013 172.054C42.1592 172.054 41.6905 171.833 41.0473 171.227C40.5143 170.731 40.211 170.519 39.8802 170.519C39.2737 170.519 38.9429 171.089 38.9429 172.008H37.6748ZM37.344 184V174.241H38.704L38.8142 175.656C39.6229 174.783 40.6613 173.965 42.0765 173.965C43.8776 173.965 45.1273 174.746 45.1273 178.009V184H43.5468V178.009C43.5468 175.95 42.8943 175.38 41.7916 175.38C40.5878 175.38 39.6505 176.272 38.9245 177.016V184H37.344ZM51.9822 184.266C49.4276 184.266 47.7459 182.19 47.7459 179.13C47.7459 176.06 49.4276 173.965 51.9822 173.965C54.5276 173.965 56.2093 176.06 56.2093 179.13C56.2093 182.19 54.5276 184.266 51.9822 184.266ZM51.9822 182.925C53.7282 182.925 54.6287 181.501 54.6287 179.13C54.6287 176.768 53.7282 175.316 51.9822 175.316C50.227 175.316 49.3265 176.768 49.3265 179.13C49.3265 181.501 50.227 182.925 51.9822 182.925ZM66.6476 173.965C67.7411 173.965 68.9449 174.388 69.6709 175.776V169.931H71.2331V184H69.8179L69.6893 182.53C68.9633 183.871 67.7228 184.266 66.6844 184.266C64.6627 184.266 62.8249 182.603 62.8249 179.102C62.8249 175.601 64.6168 173.965 66.6476 173.965ZM67.0428 175.316C65.3795 175.316 64.4054 176.694 64.4054 179.102C64.4054 181.501 65.3795 182.925 67.0428 182.925C68.7244 182.925 69.7169 181.51 69.7169 179.102C69.7169 176.694 68.7244 175.316 67.0428 175.316ZM76.2777 172.008H74.4949V170.179H76.2777V172.008ZM74.596 184V174.241H76.1766V184H74.596ZM82.3882 173.965C83.7574 173.965 84.9336 174.443 85.9077 175.647L84.8601 176.547C84.1801 175.674 83.3623 175.316 82.4617 175.316C81.1476 175.316 80.5871 175.877 80.5871 176.694C80.5871 177.604 81.1201 178.055 83.1233 178.422C85.4942 178.872 86.4131 179.791 86.4131 181.363C86.4131 183.182 85.0899 184.266 82.719 184.266C80.9914 184.266 79.613 183.522 78.74 182.511L79.7509 181.519C80.5044 182.401 81.4693 182.925 82.719 182.925C84.1526 182.925 84.8326 182.309 84.8326 181.39C84.8326 180.563 84.1893 180.012 82.4617 179.681C79.7692 179.166 79.0065 178.229 79.0065 176.74C79.0065 175.233 80.1368 173.965 82.3882 173.965ZM88.8296 171.512H90.4101V174.241H94.0215V175.546H90.4101V180.756C90.4101 182.208 90.8788 182.851 92.0091 182.851C92.7442 182.851 93.5896 182.576 94.2053 182.272L94.5913 183.559C93.4426 184.074 92.5329 184.266 91.8069 184.266C89.5004 184.266 88.8296 182.732 88.8296 180.885V171.512ZM98.3401 172.008H96.5574V170.179H98.3401V172.008ZM96.6585 184V174.241H98.2391V184H96.6585ZM101.593 184V174.241H102.953L103.063 175.656C103.872 174.783 104.91 173.965 106.325 173.965C108.126 173.965 109.376 174.746 109.376 178.009V184H107.796V178.009C107.796 175.95 107.143 175.38 106.04 175.38C104.837 175.38 103.899 176.272 103.173 177.016V184H101.593ZM112.528 171.512H114.108V174.241H117.72V175.546H114.108V180.756C114.108 182.208 114.577 182.851 115.707 182.851C116.442 182.851 117.288 182.576 117.903 182.272L118.289 183.559C117.141 184.074 116.231 184.266 115.505 184.266C113.199 184.266 112.528 182.732 112.528 180.885V171.512ZM122.038 172.008H120.256V170.179H122.038V172.008ZM120.357 184V174.241H121.937V184H120.357ZM133.056 174.241L129.481 184H127.671L124.106 174.241H125.714L128.581 182.419L131.429 174.241H133.056ZM138.698 184.266C136.143 184.266 134.462 182.19 134.462 179.13C134.462 176.06 136.143 173.965 138.698 173.965C141.243 173.965 142.925 176.06 142.925 179.13C142.925 182.19 141.243 184.266 138.698 184.266ZM138.698 182.925C140.444 182.925 141.344 181.501 141.344 179.13C141.344 176.768 140.444 175.316 138.698 175.316C136.943 175.316 136.042 176.768 136.042 179.13C136.042 181.501 136.943 182.925 138.698 182.925ZM147.335 181.73L145.213 187.602H143.724L145.461 181.73H147.335ZM154.273 187.951V174.241H155.697L155.835 175.702C156.57 174.397 157.728 173.965 158.821 173.965C160.898 173.965 162.681 175.638 162.681 179.139C162.681 182.631 160.898 184.266 158.821 184.266C157.728 184.266 156.561 183.844 155.844 182.456V187.951H154.273ZM158.445 182.916C160.117 182.916 161.1 181.537 161.1 179.139C161.1 176.731 160.117 175.307 158.445 175.307C156.772 175.307 155.789 176.722 155.789 179.139C155.789 181.537 156.772 182.916 158.445 182.916ZM165.437 174.241H166.779L166.898 175.555C167.781 174.461 168.58 173.965 169.453 173.965C169.958 173.965 170.464 174.094 170.905 174.296L170.436 175.656C170.161 175.537 169.701 175.362 169.288 175.362C168.488 175.362 167.753 175.932 167.018 177.09V184H165.437V174.241ZM180.085 182.548C179.267 183.531 178.072 184.266 176.473 184.266C173.303 184.266 172.016 181.877 172.016 179.075C172.016 176.382 173.294 173.965 176.216 173.965C179.147 173.965 180.342 176.373 180.342 179.295V179.653H173.652C173.726 181.905 174.893 182.925 176.519 182.925C177.594 182.925 178.394 182.419 179.111 181.583L180.085 182.548ZM176.216 175.316C174.433 175.316 173.726 176.768 173.671 178.385H178.716C178.67 176.768 177.98 175.316 176.216 175.316ZM185.864 173.965C187.234 173.965 188.41 174.443 189.384 175.647L188.336 176.547C187.656 175.674 186.839 175.316 185.938 175.316C184.624 175.316 184.063 175.877 184.063 176.694C184.063 177.604 184.596 178.055 186.6 178.422C188.97 178.872 189.889 179.791 189.889 181.363C189.889 183.182 188.566 184.266 186.195 184.266C184.468 184.266 183.089 183.522 182.216 182.511L183.227 181.519C183.981 182.401 184.946 182.925 186.195 182.925C187.629 182.925 188.309 182.309 188.309 181.39C188.309 180.563 187.666 180.012 185.938 179.681C183.245 179.166 182.483 178.229 182.483 176.74C182.483 175.233 183.613 173.965 185.864 173.965ZM192.306 171.512H193.886V174.241H197.498V175.546H193.886V180.756C193.886 182.208 194.355 182.851 195.485 182.851C196.22 182.851 197.066 182.576 197.682 182.272L198.067 183.559C196.919 184.074 196.009 184.266 195.283 184.266C192.977 184.266 192.306 182.732 192.306 180.885V171.512ZM202.552 184.285C200.796 184.285 199.354 183.467 199.354 181.197C199.354 178.762 201.43 178.036 203.048 178.036H205.455V177.338C205.455 175.895 204.628 175.27 203.066 175.27C202.092 175.27 201.265 175.527 200.493 175.84L200.098 174.563C201.109 174.204 202.129 173.965 203.066 173.965C205.363 173.965 207.036 174.939 207.036 177.531V184H205.703L205.584 182.824C205.033 183.513 203.801 184.285 202.552 184.285ZM202.772 182.934C203.82 182.934 204.821 182.208 205.455 181.519V179.295H203.379C201.798 179.295 200.934 179.993 200.934 181.197C200.934 182.401 201.642 182.934 202.772 182.934ZM217.328 182.521C216.427 183.688 215.416 184.266 213.918 184.266C211.391 184.266 209.655 182.364 209.655 179.13C209.655 176.198 211.226 173.965 213.946 173.965C215.444 173.965 216.427 174.572 217.328 175.748L216.326 176.685C215.738 175.877 215.049 175.316 213.946 175.316C212.191 175.316 211.235 176.786 211.235 179.13C211.235 181.473 212.2 182.925 214.029 182.925C215.085 182.925 215.738 182.392 216.326 181.583L217.328 182.521ZM221.518 172.008H219.735V170.179H221.518V172.008ZM219.836 184V174.241H221.416V184H219.836ZM228.372 184.266C225.818 184.266 224.136 182.19 224.136 179.13C224.136 176.06 225.818 173.965 228.372 173.965C230.918 173.965 232.6 176.06 232.6 179.13C232.6 182.19 230.918 184.266 228.372 184.266ZM228.372 182.925C230.118 182.925 231.019 181.501 231.019 179.13C231.019 176.768 230.118 175.316 228.372 175.316C226.617 175.316 225.717 176.768 225.717 179.13C225.717 181.501 226.617 182.925 228.372 182.925ZM235.328 184V174.241H236.688L236.799 175.656C237.607 174.783 238.646 173.965 240.061 173.965C241.862 173.965 243.112 174.746 243.112 178.009V184H241.531V178.009C241.531 175.95 240.879 175.38 239.776 175.38C238.572 175.38 237.635 176.272 236.909 177.016V184H235.328ZM253.799 182.548C252.981 183.531 251.786 184.266 250.187 184.266C247.017 184.266 245.73 181.877 245.73 179.075C245.73 176.382 247.008 173.965 249.93 173.965C252.861 173.965 254.056 176.373 254.056 179.295V179.653H247.366C247.44 181.905 248.607 182.925 250.233 182.925C251.308 182.925 252.108 182.419 252.824 181.583L253.799 182.548ZM249.93 175.316C248.147 175.316 247.44 176.768 247.384 178.385H252.429C252.383 176.768 251.694 175.316 249.93 175.316ZM259.578 173.965C260.947 173.965 262.124 174.443 263.098 175.647L262.05 176.547C261.37 175.674 260.552 175.316 259.652 175.316C258.338 175.316 257.777 175.877 257.777 176.694C257.777 177.604 258.31 178.055 260.313 178.422C262.684 178.872 263.603 179.791 263.603 181.363C263.603 183.182 262.28 184.266 259.909 184.266C258.181 184.266 256.803 183.522 255.93 182.511L256.941 181.519C257.694 182.401 258.659 182.925 259.909 182.925C261.343 182.925 262.023 182.309 262.023 181.39C262.023 180.563 261.379 180.012 259.652 179.681C256.959 179.166 256.197 178.229 256.197 176.74C256.197 175.233 257.327 173.965 259.578 173.965ZM4.70494 197.965C5.79847 197.965 7.00227 198.388 7.72822 199.776V193.931H9.29041V208H7.87525L7.7466 206.53C7.02065 207.871 5.78009 208.266 4.74169 208.266C2.72004 208.266 0.882175 206.603 0.882175 203.102C0.882175 199.601 2.67409 197.965 4.70494 197.965ZM5.10008 199.316C3.43681 199.316 2.46274 200.694 2.46274 203.102C2.46274 205.501 3.43681 206.925 5.10008 206.925C6.78172 206.925 7.77417 205.51 7.77417 203.102C7.77417 200.694 6.78172 199.316 5.10008 199.316ZM20.0875 206.548C19.2697 207.531 18.075 208.266 16.4761 208.266C13.3058 208.266 12.0193 205.877 12.0193 203.075C12.0193 200.382 13.2966 197.965 16.2188 197.965C19.1502 197.965 20.3448 200.373 20.3448 203.295V203.653H13.655C13.7285 205.905 14.8955 206.925 16.522 206.925C17.5972 206.925 18.3967 206.419 19.1134 205.583L20.0875 206.548ZM16.2188 199.316C14.4361 199.316 13.7285 200.768 13.6734 202.385H18.7183C18.6723 200.768 17.9831 199.316 16.2188 199.316ZM23.0093 211.951V198.241H24.4337L24.5715 199.702C25.3067 198.397 26.4645 197.965 27.5581 197.965C29.6348 197.965 31.4176 199.638 31.4176 203.139C31.4176 206.631 29.6348 208.266 27.5581 208.266C26.4645 208.266 25.2975 207.844 24.5807 206.456V211.951H23.0093ZM27.1813 206.916C28.8538 206.916 29.837 205.537 29.837 203.139C29.837 200.731 28.8538 199.307 27.1813 199.307C25.5088 199.307 24.5256 200.722 24.5256 203.139C24.5256 205.537 25.5088 206.916 27.1813 206.916ZM37.7762 208.266C35.2216 208.266 33.5399 206.19 33.5399 203.13C33.5399 200.06 35.2216 197.965 37.7762 197.965C40.3217 197.965 42.0033 200.06 42.0033 203.13C42.0033 206.19 40.3217 208.266 37.7762 208.266ZM37.7762 206.925C39.5222 206.925 40.4227 205.501 40.4227 203.13C40.4227 200.768 39.5222 199.316 37.7762 199.316C36.0211 199.316 35.1205 200.768 35.1205 203.13C35.1205 205.501 36.0211 206.925 37.7762 206.925ZM44.7322 198.241H46.0738L46.1933 199.555C47.0755 198.461 47.8749 197.965 48.7479 197.965C49.2533 197.965 49.7587 198.094 50.1998 198.296L49.7312 199.656C49.4555 199.537 48.996 199.362 48.5825 199.362C47.783 199.362 47.0479 199.932 46.3127 201.09V208H44.7322V198.241ZM52.1935 195.512H53.7741V198.241H57.3855V199.546H53.7741V204.756C53.7741 206.208 54.2428 206.851 55.373 206.851C56.1082 206.851 56.9536 206.576 57.5693 206.272L57.9552 207.559C56.8066 208.074 55.8968 208.266 55.1709 208.266C52.8644 208.266 52.1935 206.732 52.1935 204.885V195.512ZM61.7041 196.008H59.9214V194.179H61.7041V196.008ZM60.0225 208V198.241H61.603V208H60.0225ZM72.7218 198.241L69.1471 208H67.3368L63.7714 198.241H65.3795L68.2466 206.419L71.0953 198.241H72.7218ZM77.1415 208.285C75.3863 208.285 73.9436 207.467 73.9436 205.197C73.9436 202.762 76.0204 202.036 77.6377 202.036H80.0453V201.338C80.0453 199.895 79.2183 199.27 77.6561 199.27C76.682 199.27 75.855 199.527 75.0831 199.84L74.6879 198.563C75.6987 198.204 76.7188 197.965 77.6561 197.965C79.9534 197.965 81.6259 198.939 81.6259 201.531V208H80.2934L80.1739 206.824C79.6226 207.513 78.3912 208.285 77.1415 208.285ZM77.362 206.934C78.4096 206.934 79.4112 206.208 80.0453 205.519V203.295H77.9685C76.3879 203.295 75.5241 203.993 75.5241 205.197C75.5241 206.401 76.2317 206.934 77.362 206.934ZM87.7364 197.965C89.1056 197.965 90.2818 198.443 91.2559 199.647L90.2083 200.547C89.5283 199.674 88.7105 199.316 87.8099 199.316C86.4958 199.316 85.9353 199.877 85.9353 200.694C85.9353 201.604 86.4683 202.055 88.4715 202.422C90.8424 202.872 91.7613 203.791 91.7613 205.363C91.7613 207.182 90.4381 208.266 88.0672 208.266C86.3396 208.266 84.9612 207.522 84.0882 206.511L85.0991 205.519C85.8526 206.401 86.8175 206.925 88.0672 206.925C89.5007 206.925 90.1808 206.309 90.1808 205.39C90.1808 204.563 89.5375 204.012 87.8099 203.681C85.1174 203.166 84.3547 202.229 84.3547 200.74C84.3547 199.233 85.485 197.965 87.7364 197.965ZM106.261 198.241L100.647 211.979H98.9558L100.83 207.357L97.1271 198.241H98.8272L101.713 205.629L104.626 198.241H106.261ZM120.109 198.241V208H118.74L118.629 206.585C117.821 207.458 116.782 208.276 115.367 208.276C113.566 208.276 112.316 207.495 112.316 204.232V198.241H113.897V204.232C113.897 206.282 114.549 206.861 115.652 206.861C116.865 206.861 117.793 205.969 118.528 205.225V198.241H120.109ZM123.463 208V198.241H124.823L124.933 199.656C125.742 198.783 126.78 197.965 128.195 197.965C129.996 197.965 131.246 198.746 131.246 202.009V208H129.665V202.009C129.665 199.95 129.013 199.38 127.91 199.38C126.706 199.38 125.769 200.272 125.043 201.016V208H123.463ZM136.915 208.285C135.16 208.285 133.718 207.467 133.718 205.197C133.718 202.762 135.794 202.036 137.412 202.036H139.819V201.338C139.819 199.895 138.992 199.27 137.43 199.27C136.456 199.27 135.629 199.527 134.857 199.84L134.462 198.563C135.473 198.204 136.493 197.965 137.43 197.965C139.727 197.965 141.4 198.939 141.4 201.531V208H140.067L139.948 206.824C139.397 207.513 138.165 208.285 136.915 208.285ZM137.136 206.934C138.184 206.934 139.185 206.208 139.819 205.519V203.295H137.742C136.162 203.295 135.298 203.993 135.298 205.197C135.298 206.401 136.006 206.934 137.136 206.934ZM156.58 206.548C155.762 207.531 154.567 208.266 152.968 208.266C149.798 208.266 148.512 205.877 148.512 203.075C148.512 200.382 149.789 197.965 152.711 197.965C155.643 197.965 156.837 200.373 156.837 203.295V203.653H150.147C150.221 205.905 151.388 206.925 153.014 206.925C154.09 206.925 154.889 206.419 155.606 205.583L156.58 206.548ZM152.711 199.316C150.928 199.316 150.221 200.768 150.166 202.385H155.211C155.165 200.768 154.476 199.316 152.711 199.316ZM165.006 208L162.451 204.15L159.906 208H158.123L161.505 203.111L158.123 198.241H159.906L162.451 202.036L165.006 198.241H166.789L163.426 203.084L166.789 208H165.006ZM168.994 211.951V198.241H170.418L170.556 199.702C171.291 198.397 172.449 197.965 173.543 197.965C175.619 197.965 177.402 199.638 177.402 203.139C177.402 206.631 175.619 208.266 173.543 208.266C172.449 208.266 171.282 207.844 170.565 206.456V211.951H168.994ZM173.166 206.916C174.838 206.916 175.822 205.537 175.822 203.139C175.822 200.731 174.838 199.307 173.166 199.307C171.493 199.307 170.51 200.722 170.51 203.139C170.51 205.537 171.493 206.916 173.166 206.916ZM187.593 206.548C186.775 207.531 185.58 208.266 183.981 208.266C180.811 208.266 179.525 205.877 179.525 203.075C179.525 200.382 180.802 197.965 183.724 197.965C186.655 197.965 187.85 200.373 187.85 203.295V203.653H181.16C181.234 205.905 182.401 206.925 184.027 206.925C185.102 206.925 185.902 206.419 186.619 205.583L187.593 206.548ZM183.724 199.316C181.941 199.316 181.234 200.768 181.179 202.385H186.224C186.178 200.768 185.488 199.316 183.724 199.316ZM190.515 198.241H191.856L191.976 199.555C192.858 198.461 193.657 197.965 194.53 197.965C195.036 197.965 195.541 198.094 195.982 198.296L195.514 199.656C195.238 199.537 194.778 199.362 194.365 199.362C193.565 199.362 192.83 199.932 192.095 201.09V208H190.515V198.241ZM199.759 196.008H197.976V194.179H199.759V196.008ZM198.077 208V198.241H199.658V208H198.077ZM210.446 206.548C209.628 207.531 208.433 208.266 206.834 208.266C203.664 208.266 202.377 205.877 202.377 203.075C202.377 200.382 203.655 197.965 206.577 197.965C209.508 197.965 210.703 200.373 210.703 203.295V203.653H204.013C204.086 205.905 205.254 206.925 206.88 206.925C207.955 206.925 208.755 206.419 209.471 205.583L210.446 206.548ZM206.577 199.316C204.794 199.316 204.086 200.768 204.031 202.385H209.076C209.03 200.768 208.341 199.316 206.577 199.316ZM213.367 208V198.241H214.727L214.838 199.656C215.646 198.783 216.685 197.965 218.1 197.965C219.901 197.965 221.151 198.746 221.151 202.009V208H219.57V202.009C219.57 199.95 218.918 199.38 217.815 199.38C216.611 199.38 215.674 200.272 214.948 201.016V208H213.367ZM231.442 206.521C230.542 207.688 229.531 208.266 228.033 208.266C225.506 208.266 223.769 206.364 223.769 203.13C223.769 200.198 225.341 197.965 228.061 197.965C229.559 197.965 230.542 198.572 231.442 199.748L230.441 200.685C229.853 199.877 229.163 199.316 228.061 199.316C226.306 199.316 225.35 200.786 225.35 203.13C225.35 205.473 226.315 206.925 228.143 206.925C229.2 206.925 229.853 206.392 230.441 205.583L231.442 206.521ZM235.632 196.008H233.85V194.179H235.632V196.008ZM233.951 208V198.241H235.531V208H233.951ZM241.302 208.285C239.547 208.285 238.104 207.467 238.104 205.197C238.104 202.762 240.181 202.036 241.798 202.036H244.206V201.338C244.206 199.895 243.379 199.27 241.816 199.27C240.842 199.27 240.015 199.527 239.243 199.84L238.848 198.563C239.859 198.204 240.879 197.965 241.816 197.965C244.114 197.965 245.786 198.939 245.786 201.531V208H244.454L244.334 206.824C243.783 207.513 242.552 208.285 241.302 208.285ZM241.522 206.934C242.57 206.934 243.572 206.208 244.206 205.519V203.295H242.129C240.548 203.295 239.684 203.993 239.684 205.197C239.684 206.401 240.392 206.934 241.522 206.934ZM256.748 197.965C257.842 197.965 259.046 198.388 259.772 199.776V193.931H261.334V208H259.919L259.79 206.53C259.064 207.871 257.823 208.266 256.785 208.266C254.763 208.266 252.926 206.603 252.926 203.102C252.926 199.601 254.717 197.965 256.748 197.965ZM257.143 199.316C255.48 199.316 254.506 200.694 254.506 203.102C254.506 205.501 255.48 206.925 257.143 206.925C258.825 206.925 259.818 205.51 259.818 203.102C259.818 200.694 258.825 199.316 257.143 199.316ZM272.131 206.548C271.313 207.531 270.118 208.266 268.519 208.266C265.349 208.266 264.063 205.877 264.063 203.075C264.063 200.382 265.34 197.965 268.262 197.965C271.194 197.965 272.388 200.373 272.388 203.295V203.653H265.698C265.772 205.905 266.939 206.925 268.565 206.925C269.641 206.925 270.44 206.419 271.157 205.583L272.131 206.548ZM268.262 199.316C266.479 199.316 265.772 200.768 265.717 202.385H270.762C270.716 200.768 270.027 199.316 268.262 199.316ZM8.5277 230.521C7.62714 231.688 6.61632 232.266 5.11846 232.266C2.59139 232.266 0.854607 230.364 0.854607 227.13C0.854607 224.198 2.42598 221.965 5.14602 221.965C6.64388 221.965 7.62714 222.572 8.5277 223.748L7.52606 224.685C6.93794 223.877 6.24874 223.316 5.14602 223.316C3.39086 223.316 2.43517 224.786 2.43517 227.13C2.43517 229.473 3.40005 230.925 5.22873 230.925C6.2855 230.925 6.93794 230.392 7.52606 229.583L8.5277 230.521ZM14.528 232.266C11.9733 232.266 10.2917 230.19 10.2917 227.13C10.2917 224.06 11.9733 221.965 14.528 221.965C17.0734 221.965 18.755 224.06 18.755 227.13C18.755 230.19 17.0734 232.266 14.528 232.266ZM14.528 230.925C16.2739 230.925 17.1745 229.501 17.1745 227.13C17.1745 224.768 16.2739 223.316 14.528 223.316C12.7728 223.316 11.8722 224.768 11.8722 227.13C11.8722 229.501 12.7728 230.925 14.528 230.925ZM21.4839 232V222.241H22.8439L22.9542 223.656C23.7629 222.783 24.8013 221.965 26.2164 221.965C28.0175 221.965 29.2673 222.746 29.2673 226.009V232H27.6867V226.009C27.6867 223.95 27.0343 223.38 25.9315 223.38C24.7277 223.38 23.7904 224.272 23.0645 225.016V232H21.4839ZM35.7362 221.965C36.8297 221.965 38.0335 222.388 38.7595 223.776V217.931H40.3217V232H38.9065L38.7779 230.53C38.0519 231.871 36.8113 232.266 35.7729 232.266C33.7513 232.266 31.9134 230.603 31.9134 227.102C31.9134 223.601 33.7053 221.965 35.7362 221.965ZM36.1313 223.316C34.4681 223.316 33.494 224.694 33.494 227.102C33.494 229.501 34.4681 230.925 36.1313 230.925C37.813 230.925 38.8054 229.51 38.8054 227.102C38.8054 224.694 37.813 223.316 36.1313 223.316ZM51.3669 222.241V232H49.9977L49.8874 230.585C49.0787 231.458 48.0403 232.276 46.6252 232.276C44.8241 232.276 43.5743 231.495 43.5743 228.232V222.241H45.1549V228.232C45.1549 230.282 45.8073 230.861 46.91 230.861C48.123 230.861 49.0512 229.969 49.7863 229.225V222.241H51.3669ZM61.7596 230.521C60.8591 231.688 59.8482 232.266 58.3504 232.266C55.8233 232.266 54.0865 230.364 54.0865 227.13C54.0865 224.198 55.6579 221.965 58.378 221.965C59.8758 221.965 60.8591 222.572 61.7596 223.748L60.758 224.685C60.1699 223.877 59.4807 223.316 58.378 223.316C56.6228 223.316 55.6671 224.786 55.6671 227.13C55.6671 229.473 56.632 230.925 58.4607 230.925C59.5174 230.925 60.1699 230.392 60.758 229.583L61.7596 230.521ZM71.1967 230.521C70.2961 231.688 69.2853 232.266 67.7875 232.266C65.2604 232.266 63.5236 230.364 63.5236 227.13C63.5236 224.198 65.095 221.965 67.815 221.965C69.3129 221.965 70.2961 222.572 71.1967 223.748L70.1951 224.685C69.6069 223.877 68.9177 223.316 67.815 223.316C66.0599 223.316 65.1042 224.786 65.1042 227.13C65.1042 229.473 66.0691 230.925 67.8977 230.925C68.9545 230.925 69.6069 230.392 70.1951 229.583L71.1967 230.521ZM75.3867 220.008H73.6039V218.179H75.3867V220.008ZM73.705 232V222.241H75.2856V232H73.705ZM83.2983 216.645H85.0902L82.4253 220.008H80.9642L83.2983 216.645ZM82.2415 232.266C79.6869 232.266 78.0053 230.19 78.0053 227.13C78.0053 224.06 79.6869 221.965 82.2415 221.965C84.787 221.965 86.4686 224.06 86.4686 227.13C86.4686 230.19 84.787 232.266 82.2415 232.266ZM82.2415 230.925C83.9875 230.925 84.8881 229.501 84.8881 227.13C84.8881 224.768 83.9875 223.316 82.2415 223.316C80.4864 223.316 79.5858 224.768 79.5858 227.13C79.5858 229.501 80.4864 230.925 82.2415 230.925ZM89.1975 232V222.241H90.5575L90.6678 223.656C91.4764 222.783 92.5148 221.965 93.93 221.965C95.7311 221.965 96.9808 222.746 96.9808 226.009V232H95.4003V226.009C95.4003 223.95 94.7478 223.38 93.6451 223.38C92.4413 223.38 91.504 224.272 90.7781 225.016V232H89.1975ZM112.161 230.548C111.343 231.531 110.148 232.266 108.549 232.266C105.379 232.266 104.093 229.877 104.093 227.075C104.093 224.382 105.37 221.965 108.292 221.965C111.224 221.965 112.418 224.373 112.418 227.295V227.653H105.728C105.802 229.905 106.969 230.925 108.595 230.925C109.671 230.925 110.47 230.419 111.187 229.583L112.161 230.548ZM108.292 223.316C106.509 223.316 105.802 224.768 105.747 226.385H110.792C110.746 224.768 110.057 223.316 108.292 223.316ZM115.083 232V222.241H116.498L116.59 223.472C117.279 222.563 118.253 221.965 119.356 221.965C120.403 221.965 121.166 222.397 121.635 223.445C122.416 222.498 123.473 221.965 124.539 221.965C126.459 221.965 127.36 223.279 127.36 225.09V232H125.779V225.402C125.779 223.932 125.209 223.38 124.272 223.38C123.381 223.38 122.397 224.152 121.993 224.851C122.011 225.283 122.011 225.154 122.011 225.457V232H120.431V225.402C120.431 223.932 119.861 223.38 118.924 223.38C118.115 223.38 117.307 223.978 116.663 224.869V232H115.083ZM134.224 232.266C131.669 232.266 129.987 230.19 129.987 227.13C129.987 224.06 131.669 221.965 134.224 221.965C136.769 221.965 138.451 224.06 138.451 227.13C138.451 230.19 136.769 232.266 134.224 232.266ZM134.224 230.925C135.97 230.925 136.87 229.501 136.87 227.13C136.87 224.768 135.97 223.316 134.224 223.316C132.469 223.316 131.568 224.768 131.568 227.13C131.568 229.501 132.469 230.925 134.224 230.925ZM148.219 230.521C147.318 231.688 146.307 232.266 144.809 232.266C142.282 232.266 140.546 230.364 140.546 227.13C140.546 224.198 142.117 221.965 144.837 221.965C146.335 221.965 147.318 222.572 148.219 223.748L147.217 224.685C146.629 223.877 145.94 223.316 144.837 223.316C143.082 223.316 142.126 224.786 142.126 227.13C142.126 229.473 143.091 230.925 144.92 230.925C145.977 230.925 146.629 230.392 147.217 229.583L148.219 230.521ZM152.409 220.008H150.626V218.179H152.409V220.008ZM150.727 232V222.241H152.308V232H150.727ZM159.264 232.266C156.709 232.266 155.027 230.19 155.027 227.13C155.027 224.06 156.709 221.965 159.264 221.965C161.809 221.965 163.491 224.06 163.491 227.13C163.491 230.19 161.809 232.266 159.264 232.266ZM159.264 230.925C161.01 230.925 161.91 229.501 161.91 227.13C161.91 224.768 161.01 223.316 159.264 223.316C157.508 223.316 156.608 224.768 156.608 227.13C156.608 229.501 157.508 230.925 159.264 230.925ZM166.219 232V222.241H167.58L167.69 223.656C168.498 222.783 169.537 221.965 170.952 221.965C172.753 221.965 174.003 222.746 174.003 226.009V232H172.422V226.009C172.422 223.95 171.77 223.38 170.667 223.38C169.463 223.38 168.526 224.272 167.8 225.016V232H166.219ZM179.672 232.285C177.917 232.285 176.474 231.467 176.474 229.197C176.474 226.762 178.551 226.036 180.169 226.036H182.576V225.338C182.576 223.895 181.749 223.27 180.187 223.27C179.213 223.27 178.386 223.527 177.614 223.84L177.219 222.563C178.23 222.204 179.25 221.965 180.187 221.965C182.484 221.965 184.157 222.939 184.157 225.531V232H182.824L182.705 230.824C182.153 231.513 180.922 232.285 179.672 232.285ZM179.893 230.934C180.94 230.934 181.942 230.208 182.576 229.519V227.295H180.499C178.919 227.295 178.055 227.993 178.055 229.197C178.055 230.401 178.763 230.934 179.893 230.934ZM187.409 232V222.241H188.769L188.88 223.656C189.688 222.783 190.727 221.965 192.142 221.965C193.943 221.965 195.193 222.746 195.193 226.009V232H193.612V226.009C193.612 223.95 192.96 223.38 191.857 223.38C190.653 223.38 189.716 224.272 188.99 225.016V232H187.409ZM198.344 219.512H199.925V222.241H203.536V223.546H199.925V228.756C199.925 230.208 200.393 230.851 201.524 230.851C202.259 230.851 203.104 230.576 203.72 230.272L204.106 231.559C202.957 232.074 202.048 232.266 201.322 232.266C199.015 232.266 198.344 230.732 198.344 228.885V219.512ZM213.442 230.548C212.624 231.531 211.43 232.266 209.831 232.266C206.66 232.266 205.374 229.877 205.374 227.075C205.374 224.382 206.651 221.965 209.573 221.965C212.505 221.965 213.699 224.373 213.699 227.295V227.653H207.009C207.083 229.905 208.25 230.925 209.877 230.925C210.952 230.925 211.751 230.419 212.468 229.583L213.442 230.548ZM209.573 223.316C207.791 223.316 207.083 224.768 207.028 226.385H212.073C212.027 224.768 211.338 223.316 209.573 223.316ZM217.972 232H216.079V230.079H217.972V232Z" fill="#141413"/>
<path d="M11.4254 14.077H13.0667V18.9213H11.2342C11.1226 18.3635 10.9155 17.8536 10.5809 17.4074C10.0391 16.6585 9.00329 15.8777 7.20263 15.8777C4.33433 15.8777 4.06343 17.5349 4.06343 18.2998C4.06343 20.5466 5.75254 20.8972 8.36588 21.3115C11.1067 21.7896 13.975 22.6341 13.975 26.3151C13.975 29.9802 11.5688 31.4621 8.5093 31.4621C5.49758 31.4621 3.92001 29.773 3.36229 28.9603L3.17107 31H1.56163V25.8849H3.37822C3.55351 26.5063 3.84034 27.08 4.25465 27.574C4.93986 28.4345 6.16685 29.2471 8.22247 29.2471C10.2781 29.2471 11.4732 28.3867 11.4732 26.586C11.4732 24.6101 9.94345 24.2276 7.52133 23.7655C4.76457 23.2556 1.65724 22.5226 1.65724 18.4591C1.65724 16.8497 2.29464 13.6468 6.9158 13.6468C9.57695 13.6468 10.8996 14.8897 11.2501 15.7502L11.4254 14.077ZM16.2225 31V28.8169H18.3896V16.2601H16.2225V14.077H20.7002L20.8277 15.559C21.7679 14.6507 23.6801 13.6468 25.6082 13.6468C27.2495 13.6468 28.0622 14.5232 28.5721 15.3677C29.2095 14.8578 31.1536 13.6468 33.5279 13.6468C36.5715 13.6468 37.6551 16.1804 37.6551 18.5707V28.8169H39.647V31H35.1533V19.3196C35.1533 17.7102 34.978 15.9095 33.0021 15.9095C31.4404 15.9095 29.4964 17.1047 29.1936 17.2799C29.3689 18.0289 29.3689 18.4591 29.3689 19.0806V28.8169H31.6635V31H26.8671V19.0806C26.8671 17.519 26.5802 15.9095 24.7159 15.9095C23.8235 15.9095 22.8833 16.3238 22.1344 16.7222C21.7041 16.9612 21.2898 17.2162 20.8914 17.519V28.8169H23.202V31H16.2225ZM56.2997 28.8169V31H51.9654L51.7901 28.8488C50.6746 30.1395 48.9058 31.4621 46.5953 31.4621C44.0457 31.4621 41.5917 30.012 41.5917 26.1079C41.5917 22.3313 44.205 20.6582 48.1569 20.6582H51.6148V19.3834C51.6148 16.9612 50.085 15.8299 47.631 15.8299C46.3562 15.8299 45.3205 16.053 44.5715 16.2601C44.1413 16.3876 43.7429 16.531 43.3764 16.6904L42.7709 14.5869C43.233 14.4116 43.7429 14.2682 44.2688 14.1248C45.1771 13.8858 46.42 13.6468 47.7585 13.6468C51.4395 13.6468 54.1166 15.4474 54.1166 19.8136V28.8169H56.2997ZM47.0574 29.2471C48.8421 29.2471 50.5472 27.8927 51.6148 26.6657V22.8413H48.1569C46.0375 22.8413 44.0935 23.4627 44.0935 26.1079C44.0935 28.5779 45.7029 29.2471 47.0574 29.2471ZM58.1647 16.2601V14.077H62.515L62.6903 16.4513C64.1244 14.81 65.5426 13.6468 67.5345 13.6468C68.156 13.6468 68.6818 13.8061 69.0802 13.9495C69.3192 14.0292 69.5264 14.1248 69.7176 14.2364L68.9209 16.4832C68.7296 16.4035 68.5384 16.3238 68.3472 16.2601C68.0126 16.1486 67.5664 16.037 67.168 16.037C64.8734 16.037 63.5986 18.1564 62.8337 19.0009V28.8169H67.3433V31H58.1647V28.8169H60.3319V16.2601H58.1647ZM71.5986 25.598V9.02561H74.1004V14.077H79.7573V16.2601H74.1004V25.3271C74.1004 27.6377 74.6262 29.04 76.4747 29.04C77.3511 29.04 78.1479 28.8328 78.7693 28.5938C79.1199 28.4663 79.4546 28.307 79.7573 28.1317L80.3469 30.2351C79.9167 30.4741 79.4546 30.6813 78.9924 30.8566C78.1798 31.1594 77.128 31.4621 76.1082 31.4621C72.236 31.4621 71.5986 28.6097 71.5986 25.598ZM104.123 28.8169V31H98.5619V28.8169H100.426L96.8887 23.4946L93.2874 28.8169H95.2156V31H89.6702V28.8169H90.69L95.2156 22.4748L90.9131 16.2601H89.957V14.077H95.2156V16.2601H93.4786L96.8887 21.2637L100.379 16.2601H98.8966V14.077H103.836V16.2601H102.944L98.546 22.3951L103.024 28.8169H104.123ZM114.753 11.3362V9.02561H122.593C125.557 9.02561 128.967 10.3642 128.967 14.7782C128.967 17.025 128.123 18.9053 126.195 19.5427C128.17 20.1004 130.146 21.5505 130.146 24.9447C130.146 29.1675 127.087 31 123.103 31H114.753V28.7372H116.904V11.3362H114.753ZM123.199 20.8335H119.486V28.7372H122.976C126.035 28.7372 127.565 27.2871 127.565 24.7853C127.565 21.933 125.43 20.8335 123.199 20.8335ZM122.338 11.3362H119.486V18.5229H122.848C125.35 18.5229 126.402 17.1684 126.402 14.9375C126.402 12.5313 125.047 11.3362 122.338 11.3362ZM149.763 28.7372V31H145.939L141.158 21.5346C140.824 21.5824 140.521 21.5824 140.186 21.5824H137.445V28.7372H140.011V31H132.76V28.7372H134.864V11.3362H132.76V9.02561H140.202C144.345 9.02561 148.138 10.396 148.138 15.3199C148.138 18.3157 146.433 20.3873 143.708 21.1044L147.66 28.7372H149.763ZM140.202 11.3362H137.445V19.2718H140.744C143.851 19.2718 145.524 17.8855 145.524 15.2881C145.524 12.7385 143.851 11.3362 140.202 11.3362ZM155.166 11.3362V9.02561H160.95L167.452 28.7372H169.013V31H162.671V28.7372H165.061L163.388 23.654H156.201L154.544 28.7372H156.934V31H150.545V28.7372H152.138L158.034 11.3362H155.166ZM159.787 12.7066L156.934 21.5824H162.671L159.787 12.7066ZM170.639 11.3362V9.02561H178.479C181.443 9.02561 184.853 10.3642 184.853 14.7782C184.853 17.025 184.009 18.9053 182.081 19.5427C184.056 20.1004 186.032 21.5505 186.032 24.9447C186.032 29.1675 182.973 31 178.989 31H170.639V28.7372H172.79V11.3362H170.639ZM179.085 20.8335H175.372V28.7372H178.862C181.921 28.7372 183.451 27.2871 183.451 24.7853C183.451 21.933 181.316 20.8335 179.085 20.8335ZM178.224 11.3362H175.372V18.5229H178.734C181.236 18.5229 182.288 17.1684 182.288 14.9375C182.288 12.5313 180.933 11.3362 178.224 11.3362ZM198.893 11.3362V9.02561H206.095V11.3362H203.928V23.5265C203.928 27.7971 202.223 31.4621 196.949 31.4621C191.674 31.4621 189.969 27.7971 189.969 23.5265V11.3362H187.802V9.02561H195.004V11.3362H192.55V23.5265C192.55 27.08 193.969 29.04 196.949 29.04C199.928 29.04 201.347 27.08 201.347 23.5265V11.3362H198.893ZM219.322 9.02561H221.234V15.6705H219.003C218.86 14.826 218.621 14.0611 218.27 13.4077C217.633 12.2604 216.549 11.145 214.557 11.145C211.88 11.145 210.94 12.6747 210.94 14.4276C210.94 16.5629 212.47 17.6146 214.414 18.3635C214.733 18.4751 215.051 18.6026 215.386 18.73L216.422 19.1125C219.179 20.1323 221.919 21.3912 221.919 25.3749C221.919 29.3746 219.449 31.4621 215.832 31.4621C212.518 31.4621 210.765 29.279 210.462 28.4185L210.255 31H208.279V24.865H210.494C210.733 25.6618 211.068 26.3788 211.514 27.0003C212.279 28.052 213.522 29.1197 215.482 29.1197C217.728 29.1197 219.21 27.8289 219.21 25.5343C219.21 23.4787 217.681 22.4429 215.737 21.7577L214.812 21.4231L213.713 21.0087C210.956 19.9411 208.215 18.5866 208.215 14.4595C208.215 11.7027 209.872 8.80252 214.159 8.80252C216.9 8.80252 218.78 10.5554 219.115 11.5752L219.322 9.02561ZM227.88 27.5262V31H224.661V27.5262H227.88Z" fill="#141413"/>
</svg>
