<svg width="112" height="22" viewBox="0 0 112 22" fill="none" xmlns="http://www.w3.org/2000/svg">
<rect x="0.0665764" y="0.0665764" width="111.715" height="21.1713" rx="10.5856" fill="white" stroke="#141413" stroke-width="0.133153"/>
<rect x="1.06641" y="1.33203" width="51.397" height="18.6414" rx="9.32069" fill="#141413"/>
<path d="M10.3278 8.68115C11.0253 8.68115 11.6245 8.92457 12.1207 9.5378L11.587 9.99655C11.2406 9.55184 10.824 9.36928 10.3652 9.36928C9.69582 9.36928 9.41027 9.65483 9.41027 10.0715C9.41027 10.5349 9.68177 10.7643 10.7023 10.9515C11.91 11.1809 12.3781 11.649 12.3781 12.4495C12.3781 13.3763 11.704 13.9287 10.4963 13.9287C9.61624 13.9287 8.91407 13.5495 8.46936 13.0346L8.98428 12.5291C9.36814 12.9784 9.85966 13.2453 10.4963 13.2453C11.2266 13.2453 11.573 12.9316 11.573 12.4635C11.573 12.0422 11.2453 11.7613 10.3652 11.5928C8.99364 11.3307 8.60511 10.8532 8.60511 10.0949C8.60511 9.32715 9.18089 8.68115 10.3278 8.68115ZM13.4688 13.793V8.82159H14.1897L14.2365 9.44886C14.5876 8.98543 15.0838 8.68115 15.6456 8.68115C16.1792 8.68115 16.5677 8.90116 16.8065 9.43482C17.2044 8.95266 17.7427 8.68115 18.2857 8.68115C19.2641 8.68115 19.7228 9.35056 19.7228 10.2727V13.793H18.9177V10.4319C18.9177 9.68292 18.6275 9.40205 18.15 9.40205C17.6959 9.40205 17.195 9.79526 16.9891 10.151C16.9984 10.371 16.9984 10.3055 16.9984 10.46V13.793H16.1933V10.4319C16.1933 9.68292 15.903 9.40205 15.4255 9.40205C15.0136 9.40205 14.6017 9.70632 14.274 10.1604V13.793H13.4688ZM22.4239 13.9381C21.5298 13.9381 20.7948 13.5215 20.7948 12.3652C20.7948 11.1247 21.8528 10.7549 22.6767 10.7549H23.9031V10.3991C23.9031 9.66419 23.4818 9.34587 22.686 9.34587C22.1898 9.34587 21.7685 9.47695 21.3753 9.63611L21.174 8.98543C21.6889 8.80286 22.2085 8.68115 22.686 8.68115C23.8563 8.68115 24.7083 9.17735 24.7083 10.4974V13.793H24.0295L23.9687 13.1938C23.6878 13.5449 23.0605 13.9381 22.4239 13.9381ZM22.5362 13.25C23.0699 13.25 23.5801 12.8801 23.9031 12.5291V11.3962H22.8452C22.04 11.3962 21.6 11.752 21.6 12.3652C21.6 12.9784 21.9604 13.25 22.5362 13.25ZM26.1735 8.82159H26.8569L26.9178 9.49099C27.3672 8.93393 27.7744 8.68115 28.2191 8.68115C28.4766 8.68115 28.7341 8.74669 28.9588 8.84967L28.72 9.54248C28.5796 9.48163 28.3455 9.39269 28.1349 9.39269C27.7276 9.39269 27.3531 9.68292 26.9786 10.2727V13.793H26.1735V8.82159ZM29.7826 7.43128H30.5878V8.82159H32.4275V9.48631H30.5878V12.1405C30.5878 12.8801 30.8265 13.2078 31.4023 13.2078C31.7768 13.2078 32.2075 13.0674 32.5211 12.9129L32.7177 13.5683C32.1326 13.8304 31.6691 13.9287 31.2993 13.9287C30.1244 13.9287 29.7826 13.147 29.7826 12.2061V7.43128ZM38.19 11.8082H36.9776L36.7388 13.9287H36.0273L36.266 11.8082H35.3673V11.1434H36.3409L36.5329 9.44418H35.3673V8.77945H36.6078L36.8465 6.6823H37.558L37.3193 8.77945H38.5317L38.7705 6.6823H39.482L39.2479 8.77945H40.2544V9.44418H39.173L38.9811 11.1434H40.2544V11.8082H38.9015L38.6628 13.9287H37.9513L38.19 11.8082ZM37.0525 11.1434H38.2649L38.4615 9.44418H37.2491L37.0525 11.1434ZM41.3966 8.13346L43.3018 7.43128H43.8308V13.1282H45.1134V13.793H41.743V13.1282H43.0256V8.28793L41.6213 8.78414L41.3966 8.13346Z" fill="white"/>
<path d="M65.984 8.68115C66.6815 8.68115 67.2807 8.92457 67.7769 9.5378L67.2433 9.99655C66.8968 9.55184 66.4802 9.36928 66.0215 9.36928C65.3521 9.36928 65.0665 9.65483 65.0665 10.0715C65.0665 10.5349 65.338 10.7643 66.3585 10.9515C67.5663 11.1809 68.0344 11.649 68.0344 12.4495C68.0344 13.3763 67.3603 13.9287 66.1525 13.9287C65.2725 13.9287 64.5703 13.5495 64.1256 13.0346L64.6405 12.5291C65.0244 12.9784 65.5159 13.2453 66.1525 13.2453C66.8828 13.2453 67.2292 12.9316 67.2292 12.4635C67.2292 12.0422 66.9015 11.7613 66.0215 11.5928C64.6499 11.3307 64.2614 10.8532 64.2614 10.0949C64.2614 9.32715 64.8371 8.68115 65.984 8.68115ZM69.1251 13.793V8.82159H69.846L69.8928 9.44886C70.2439 8.98543 70.7401 8.68115 71.3018 8.68115C71.8355 8.68115 72.224 8.90116 72.4627 9.43482C72.8606 8.95266 73.399 8.68115 73.942 8.68115C74.9203 8.68115 75.3791 9.35056 75.3791 10.2727V13.793H74.5739V10.4319C74.5739 9.68292 74.2837 9.40205 73.8062 9.40205C73.3522 9.40205 72.8513 9.79526 72.6453 10.151C72.6547 10.371 72.6547 10.3055 72.6547 10.46V13.793H71.8495V10.4319C71.8495 9.68292 71.5593 9.40205 71.0818 9.40205C70.6699 9.40205 70.2579 9.70632 69.9302 10.1604V13.793H69.1251ZM78.0801 13.9381C77.186 13.9381 76.4511 13.5215 76.4511 12.3652C76.4511 11.1247 77.509 10.7549 78.3329 10.7549H79.5594V10.3991C79.5594 9.66419 79.1381 9.34587 78.3423 9.34587C77.8461 9.34587 77.4248 9.47695 77.0315 9.63611L76.8303 8.98543C77.3452 8.80286 77.8648 8.68115 78.3423 8.68115C79.5126 8.68115 80.3645 9.17735 80.3645 10.4974V13.793H79.6858L79.6249 13.1938C79.344 13.5449 78.7168 13.9381 78.0801 13.9381ZM78.1925 13.25C78.7261 13.25 79.2364 12.8801 79.5594 12.5291V11.3962H78.5014C77.6963 11.3962 77.2562 11.752 77.2562 12.3652C77.2562 12.9784 77.6167 13.25 78.1925 13.25ZM81.8297 8.82159H82.5132L82.574 9.49099C83.0234 8.93393 83.4307 8.68115 83.8754 8.68115C84.1329 8.68115 84.3903 8.74669 84.615 8.84967L84.3763 9.54248C84.2358 9.48163 84.0018 9.39269 83.7911 9.39269C83.3839 9.39269 83.0094 9.68292 82.6349 10.2727V13.793H81.8297V8.82159ZM85.4389 7.43128H86.2441V8.82159H88.0837V9.48631H86.2441V12.1405C86.2441 12.8801 86.4828 13.2078 87.0586 13.2078C87.4331 13.2078 87.8637 13.0674 88.1774 12.9129L88.374 13.5683C87.7888 13.8304 87.3254 13.9287 86.9556 13.9287C85.7806 13.9287 85.4389 13.147 85.4389 12.2061V7.43128ZM93.8462 11.8082H92.6338L92.3951 13.9287H91.6835L91.9223 11.8082H91.0235V11.1434H91.9972L92.1891 9.44418H91.0235V8.77945H92.264L92.5028 6.6823H93.2143L92.9755 8.77945H94.188L94.4267 6.6823H95.1382L94.9042 8.77945H95.9106V9.44418H94.8293L94.6374 11.1434H95.9106V11.8082H94.5578L94.319 13.9287H93.6075L93.8462 11.8082ZM92.7087 11.1434H93.9211L94.1177 9.44418H92.9053L92.7087 11.1434ZM97.3009 12.735C97.6286 13.0346 98.0967 13.2453 98.6632 13.2453C99.5198 13.2453 99.9083 12.721 99.9083 12.0516C99.9083 11.2792 99.3138 10.8719 98.4431 10.8719H98.1108V10.2072H98.4431C99.1781 10.2072 99.7024 9.79995 99.7024 9.06032C99.7024 8.23644 99.1313 7.91812 98.5461 7.91812C98.0967 7.91812 97.6661 8.11005 97.329 8.44241L96.8703 7.89004C97.3712 7.44533 97.9563 7.23467 98.6163 7.23467C99.9271 7.23467 100.451 8.08664 100.451 8.98543C100.451 9.53312 100.217 10.2681 99.5058 10.5115C100.217 10.7268 100.681 11.3213 100.681 12.089C100.681 13.3857 99.7913 13.9287 98.7427 13.9287C97.8908 13.9287 97.3103 13.704 96.8515 13.2968L97.3009 12.735Z" fill="#141413"/>
</svg>
