<svg width="262" height="190" viewBox="0 0 262 190" fill="none" xmlns="http://www.w3.org/2000/svg">
<path d="M0.739258 14.6875V2.74316H2.26855V13.4043H7.7002V14.6875H0.739258ZM11.7607 14.96C10.082 14.96 8.70215 14.1777 8.70215 12.0068C8.70215 9.67773 10.6885 8.9834 12.2354 8.9834H14.5381V8.31543C14.5381 6.93555 13.7471 6.33789 12.2529 6.33789C11.3213 6.33789 10.5303 6.58398 9.79199 6.88281L9.41406 5.66113C10.3809 5.31836 11.3564 5.08984 12.2529 5.08984C14.4502 5.08984 16.0498 6.02148 16.0498 8.5V14.6875H14.7754L14.6611 13.5625C14.1338 14.2217 12.9561 14.96 11.7607 14.96ZM11.9717 13.668C12.9736 13.668 13.9316 12.9736 14.5381 12.3145V10.1875H12.5518C11.04 10.1875 10.2139 10.8555 10.2139 12.0068C10.2139 13.1582 10.8906 13.668 11.9717 13.668ZM98.9658 189.688H97.1553V187.851H98.9658V189.688Z" fill="black"/>
</svg>
