<svg width="263" height="72" viewBox="0 0 263 72" fill="none" xmlns="http://www.w3.org/2000/svg">
<path d="M0.28125 3.42969V2.29688H3.72656C6.45312 2.29688 8.38281 4.22656 8.38281 7.625C8.38281 11.1953 6.45312 13.0703 3.72656 13.0703H0.28125V11.9609H1.33594V3.42969H0.28125ZM3.67969 3.42969H2.60156V11.9609H3.67969C5.33594 11.9609 7.03906 11.2422 7.03906 7.625C7.03906 4.39062 5.33594 3.42969 3.67969 3.42969ZM9.75 13.0703V12H11.0156V5.84375H9.75V4.77344H12.2422V12H13.5V13.0703H9.75ZM12.3125 1.26562V2.875H10.8281V1.26562H12.3125ZM19.6562 4.77344H20.4609V7.14844H19.5625C19.5078 6.875 19.4062 6.625 19.2422 6.40625C18.9766 6.03906 18.4688 5.65625 17.5859 5.65625C16.1797 5.65625 16.0469 6.46875 16.0469 6.84375C16.0469 7.94531 16.875 8.11719 18.1562 8.32031C19.5 8.55469 20.9062 8.96875 20.9062 10.7734C20.9062 12.5703 19.7266 13.2969 18.2266 13.2969C16.75 13.2969 15.9766 12.4688 15.7031 12.0703L15.6094 13.0703H14.8203V10.5625H15.7109C15.7969 10.8672 15.9375 11.1484 16.1406 11.3906C16.4766 11.8125 17.0781 12.2109 18.0859 12.2109C19.0938 12.2109 19.6797 11.7891 19.6797 10.9062C19.6797 9.9375 18.9297 9.75 17.7422 9.52344C16.3906 9.27344 14.8672 8.91406 14.8672 6.92188C14.8672 6.13281 15.1797 4.5625 17.4453 4.5625C18.75 4.5625 19.3984 5.17188 19.5703 5.59375L19.6562 4.77344ZM28.0156 11.0781L28.7734 11.8594C28.0938 12.6641 27.0703 13.2969 25.7969 13.2969C22.7969 13.2969 22.1406 10.6953 22.1406 8.75781C22.1406 6.99219 22.8906 4.5625 25.5703 4.5625C28.4375 4.5625 28.8203 7.625 28.8203 9.02344V9.33594H23.4453C23.4688 10.9609 24.3281 12.1875 25.8516 12.1875C26.5938 12.1875 27.3906 11.7891 28.0156 11.0781ZM25.5703 5.67188C23.9766 5.67188 23.4453 7.10938 23.4453 8.29688H27.5391C27.5391 7.10938 27.0703 5.67188 25.5703 5.67188ZM30.1406 13.0703V12H31.2031V5.84375H30.1406V4.77344H32.2578L32.3516 5.97656C32.9922 5.21094 33.7969 4.5625 34.8594 4.5625C36.5078 4.5625 37.1875 5.32031 37.1875 8.03125V12H38.2578V13.0703H34.9844V12H35.9609V8.03125C35.9609 6.46875 35.7578 5.75 34.5781 5.75C33.5938 5.75 32.9297 6.47656 32.4297 7.01562V12H33.4062V13.0703H30.1406ZM31.9062 3.10156H30.9609C30.9609 2.00781 31.4375 0.84375 32.7109 0.84375C33.9609 0.84375 34.3906 2.10938 35.2422 2.10938C35.7812 2.10938 36.0469 1.5625 36.0469 0.84375H36.9688C36.9688 1.9375 36.5078 3.10156 35.2422 3.10156C33.9922 3.10156 33.5 1.84375 32.7109 1.84375C32.1719 1.84375 31.9062 2.38281 31.9062 3.10156ZM42.8672 5.67188C41.4922 5.67188 40.6484 6.92188 40.6484 8.92969C40.6484 10.9453 41.4922 12.1875 42.8672 12.1875C44.2422 12.1875 45.0859 10.9453 45.0859 8.92969C45.0859 6.92188 44.2422 5.67188 42.8672 5.67188ZM42.8672 4.5625C44.9453 4.5625 46.3125 6.4375 46.3125 8.92969C46.3125 11.4219 44.9453 13.2969 42.8672 13.2969C40.7812 13.2969 39.4219 11.4219 39.4219 8.92969C39.4219 6.4375 40.7812 4.5625 42.8672 4.5625ZM55.1406 13.2969C53.8672 13.2969 51.9844 12.3281 51.9844 8.92969C51.9844 5.5 53.8984 4.5625 55.1172 4.5625C56.0234 4.5625 57.0859 5.01562 57.625 6.22656V4.77344H59.9219V5.84375H58.8516V15.4062H59.9219V16.4844H56.4141V15.4062H57.625V11.6875C57.0625 13.0547 55.8672 13.2969 55.1406 13.2969ZM55.4141 12.1875C56.4688 12.1875 57.6641 11.4062 57.6641 8.92969C57.6641 6.46094 56.3906 5.67188 55.3906 5.67188C54.5078 5.67188 53.2109 6.39062 53.2109 8.92969C53.2109 11.3906 54.4141 12.1875 55.4141 12.1875ZM68.0625 4.77344V12H69.125V13.0703H67L66.9219 11.75C66.4219 12.4375 65.5625 13.2969 64.375 13.2969C62.625 13.2969 62.0781 12 62.0781 9.94531V5.84375H61.0156V4.77344H63.3047V10.0234C63.3047 10.9219 63.3203 12.1875 64.6328 12.1875C65.2734 12.1875 65.8281 11.8203 66.2188 11.4531C66.4453 11.2422 66.6562 10.9922 66.8359 10.7109V5.84375H65.7422V4.77344H68.0625ZM76.1562 11.0781L76.9141 11.8594C76.2344 12.6641 75.2109 13.2969 73.9375 13.2969C70.9375 13.2969 70.2812 10.6953 70.2812 8.75781C70.2812 6.99219 71.0312 4.5625 73.7109 4.5625C76.5781 4.5625 76.9609 7.625 76.9609 9.02344V9.33594H71.5859C71.6094 10.9609 72.4688 12.1875 73.9922 12.1875C74.7344 12.1875 75.5312 11.7891 76.1562 11.0781ZM73.7109 5.67188C72.1172 5.67188 71.5859 7.10938 71.5859 8.29688H75.6797C75.6797 7.10938 75.2109 5.67188 73.7109 5.67188ZM82.75 13.0703V12H83.8125V5.84375H82.75V4.77344H84.8672L84.9609 5.97656C85.6016 5.21094 86.4062 4.5625 87.4688 4.5625C89.1172 4.5625 89.7969 5.32031 89.7969 8.03125V12H90.8672V13.0703H87.5938V12H88.5703V8.03125C88.5703 6.46875 88.3672 5.75 87.1875 5.75C86.2031 5.75 85.5391 6.47656 85.0391 7.01562V12H86.0156V13.0703H82.75ZM95.4766 5.67188C94.1016 5.67188 93.2578 6.92188 93.2578 8.92969C93.2578 10.9453 94.1016 12.1875 95.4766 12.1875C96.8516 12.1875 97.6953 10.9453 97.6953 8.92969C97.6953 6.92188 96.8516 5.67188 95.4766 5.67188ZM95.4766 4.5625C97.5547 4.5625 98.9219 6.4375 98.9219 8.92969C98.9219 11.4219 97.5547 13.2969 95.4766 13.2969C93.3906 13.2969 92.0312 11.4219 92.0312 8.92969C92.0312 6.4375 93.3906 4.5625 95.4766 4.5625ZM104.688 13.0703V12H105.75V5.84375H104.688V4.77344H106.805L106.898 5.97656C107.539 5.21094 108.344 4.5625 109.406 4.5625C111.055 4.5625 111.734 5.32031 111.734 8.03125V12H112.805V13.0703H109.531V12H110.508V8.03125C110.508 6.46875 110.305 5.75 109.125 5.75C108.141 5.75 107.477 6.47656 106.977 7.01562V12H107.953V13.0703H104.688ZM119.859 11.0781L120.617 11.8594C119.938 12.6641 118.914 13.2969 117.641 13.2969C114.641 13.2969 113.984 10.6953 113.984 8.75781C113.984 6.99219 114.734 4.5625 117.414 4.5625C120.281 4.5625 120.664 7.625 120.664 9.02344V9.33594H115.289C115.312 10.9609 116.172 12.1875 117.695 12.1875C118.438 12.1875 119.234 11.7891 119.859 11.0781ZM117.414 5.67188C115.82 5.67188 115.289 7.10938 115.289 8.29688H119.383C119.383 7.10938 118.914 5.67188 117.414 5.67188ZM127.492 11.0781L128.25 11.8438C127.633 12.6875 126.688 13.2969 125.312 13.2969C123.211 13.2969 121.867 11.4219 121.867 8.92969C121.867 6.60938 123.078 4.5625 125.227 4.5625C126.195 4.5625 126.922 5.01562 127.289 5.76562L127.359 4.77344H128.164V7.72656H127.234C127.203 7.39844 126.914 5.67188 125.344 5.67188C123.93 5.67188 123.094 6.99219 123.094 8.92969C123.094 10.8672 123.945 12.1875 125.43 12.1875C126.234 12.1875 126.953 11.7969 127.492 11.0781ZM135.328 11.0781L136.086 11.8594C135.406 12.6641 134.383 13.2969 133.109 13.2969C130.109 13.2969 129.453 10.6953 129.453 8.75781C129.453 6.99219 130.203 4.5625 132.883 4.5625C135.75 4.5625 136.133 7.625 136.133 9.02344V9.33594H130.758C130.781 10.9609 131.641 12.1875 133.164 12.1875C133.906 12.1875 134.703 11.7891 135.328 11.0781ZM132.883 5.67188C131.289 5.67188 130.758 7.10938 130.758 8.29688H134.852C134.852 7.10938 134.383 5.67188 132.883 5.67188ZM142.344 4.77344H143.148V7.14844H142.25C142.195 6.875 142.094 6.625 141.93 6.40625C141.664 6.03906 141.156 5.65625 140.273 5.65625C138.867 5.65625 138.734 6.46875 138.734 6.84375C138.734 7.94531 139.562 8.11719 140.844 8.32031C142.188 8.55469 143.594 8.96875 143.594 10.7734C143.594 12.5703 142.414 13.2969 140.914 13.2969C139.438 13.2969 138.664 12.4688 138.391 12.0703L138.297 13.0703H137.508V10.5625H138.398C138.484 10.8672 138.625 11.1484 138.828 11.3906C139.164 11.8125 139.766 12.2109 140.773 12.2109C141.781 12.2109 142.367 11.7891 142.367 10.9062C142.367 9.9375 141.617 9.75 140.43 9.52344C139.078 9.27344 137.555 8.91406 137.555 6.92188C137.555 6.13281 137.867 4.5625 140.133 4.5625C141.438 4.5625 142.086 5.17188 142.258 5.59375L142.344 4.77344ZM144.938 13.0703V12H146.203V5.84375H144.938V4.77344H147.43V12H148.688V13.0703H144.938ZM147.5 1.26562V2.875H146.016V1.26562H147.5ZM150.406 10.4219V2.29688H151.633V4.77344H154.406V5.84375H151.633V10.2891C151.633 11.4219 151.891 12.1094 152.797 12.1094C153.227 12.1094 153.617 12.0078 153.922 11.8906C154.094 11.8281 154.258 11.75 154.406 11.6641L154.695 12.6953C154.484 12.8125 154.258 12.9141 154.031 13C153.633 13.1484 153.117 13.2969 152.617 13.2969C150.719 13.2969 150.406 11.8984 150.406 10.4219ZM162.781 12V13.0703H160.656L160.57 12.0156C160.023 12.6484 159.156 13.2969 158.023 13.2969C156.773 13.2969 155.57 12.5859 155.57 10.6719C155.57 8.82031 156.852 8 158.789 8H160.484V7.375C160.484 6.1875 159.734 5.63281 158.531 5.63281C157.906 5.63281 157.398 5.74219 157.031 5.84375C156.82 5.90625 156.625 5.97656 156.445 6.05469L156.148 5.02344C156.375 4.9375 156.625 4.86719 156.883 4.79688C157.328 4.67969 157.938 4.5625 158.594 4.5625C160.398 4.5625 161.711 5.44531 161.711 7.58594V12H162.781ZM158.25 12.2109C159.125 12.2109 159.961 11.5469 160.484 10.9453V9.07031H158.789C157.75 9.07031 156.797 9.375 156.797 10.6719C156.797 11.8828 157.586 12.2109 158.25 12.2109ZM173.109 13.2969C172.281 13.2969 171.188 12.875 170.602 11.5781V15.4062H171.812V16.4844H168.312V15.4062H169.375V5.84375H168.312V4.77344H170.602V6.26562C171.164 4.98438 172.203 4.5625 173.109 4.5625C174.422 4.5625 176.242 5.41406 176.242 8.89062C176.242 12.3906 174.391 13.2969 173.109 13.2969ZM172.828 12.1875C173.68 12.1875 175.023 11.4766 175.023 8.89062C175.023 6.30469 173.68 5.67188 172.828 5.67188C171.867 5.67188 170.57 6.39844 170.57 8.89062C170.57 11.3047 171.867 12.1875 172.828 12.1875ZM177.578 5.84375V4.77344H179.711L179.797 5.9375C180.5 5.13281 181.195 4.5625 182.172 4.5625C182.477 4.5625 182.734 4.64062 182.93 4.71094C183.047 4.75 183.148 4.79688 183.242 4.85156L182.852 5.95312C182.758 5.91406 182.664 5.875 182.57 5.84375C182.406 5.78906 182.188 5.73438 181.992 5.73438C180.867 5.73438 180.242 6.77344 179.867 7.1875V12H182.078V13.0703H177.578V12H178.641V5.84375H177.578ZM189.656 11.0781L190.414 11.8594C189.734 12.6641 188.711 13.2969 187.438 13.2969C184.438 13.2969 183.781 10.6953 183.781 8.75781C183.781 6.99219 184.531 4.5625 187.211 4.5625C190.078 4.5625 190.461 7.625 190.461 9.02344V9.33594H185.086C185.109 10.9609 185.969 12.1875 187.492 12.1875C188.234 12.1875 189.031 11.7891 189.656 11.0781ZM187.211 5.67188C185.617 5.67188 185.086 7.10938 185.086 8.29688H189.18C189.18 7.10938 188.711 5.67188 187.211 5.67188ZM196.672 4.77344H197.477V7.14844H196.578C196.523 6.875 196.422 6.625 196.258 6.40625C195.992 6.03906 195.484 5.65625 194.602 5.65625C193.195 5.65625 193.062 6.46875 193.062 6.84375C193.062 7.94531 193.891 8.11719 195.172 8.32031C196.516 8.55469 197.922 8.96875 197.922 10.7734C197.922 12.5703 196.742 13.2969 195.242 13.2969C193.766 13.2969 192.992 12.4688 192.719 12.0703L192.625 13.0703H191.836V10.5625H192.727C192.812 10.8672 192.953 11.1484 193.156 11.3906C193.492 11.8125 194.094 12.2109 195.102 12.2109C196.109 12.2109 196.695 11.7891 196.695 10.9062C196.695 9.9375 195.945 9.75 194.758 9.52344C193.406 9.27344 191.883 8.91406 191.883 6.92188C191.883 6.13281 192.195 4.5625 194.461 4.5625C195.766 4.5625 196.414 5.17188 196.586 5.59375L196.672 4.77344ZM205.031 11.0781L205.789 11.8594C205.109 12.6641 204.086 13.2969 202.812 13.2969C199.812 13.2969 199.156 10.6953 199.156 8.75781C199.156 6.99219 199.906 4.5625 202.586 4.5625C205.453 4.5625 205.836 7.625 205.836 9.02344V9.33594H200.461C200.484 10.9609 201.344 12.1875 202.867 12.1875C203.609 12.1875 204.406 11.7891 205.031 11.0781ZM202.586 5.67188C200.992 5.67188 200.461 7.10938 200.461 8.29688H204.555C204.555 7.10938 204.086 5.67188 202.586 5.67188ZM207.156 13.0703V12H208.219V5.84375H207.156V4.77344H209.273L209.367 5.97656C210.008 5.21094 210.812 4.5625 211.875 4.5625C213.523 4.5625 214.203 5.32031 214.203 8.03125V12H215.273V13.0703H212V12H212.977V8.03125C212.977 6.46875 212.773 5.75 211.594 5.75C210.609 5.75 209.945 6.47656 209.445 7.01562V12H210.422V13.0703H207.156ZM217.016 10.4219V2.29688H218.242V4.77344H221.016V5.84375H218.242V10.2891C218.242 11.4219 218.5 12.1094 219.406 12.1094C219.836 12.1094 220.227 12.0078 220.531 11.8906C220.703 11.8281 220.867 11.75 221.016 11.6641L221.305 12.6953C221.094 12.8125 220.867 12.9141 220.641 13C220.242 13.1484 219.727 13.2969 219.227 13.2969C217.328 13.2969 217.016 11.8984 217.016 10.4219ZM229.391 12V13.0703H227.266L227.18 12.0156C226.633 12.6484 225.766 13.2969 224.633 13.2969C223.383 13.2969 222.18 12.5859 222.18 10.6719C222.18 8.82031 223.461 8 225.398 8H227.094V7.375C227.094 6.1875 226.344 5.63281 225.141 5.63281C224.516 5.63281 224.008 5.74219 223.641 5.84375C223.43 5.90625 223.234 5.97656 223.055 6.05469L222.758 5.02344C222.984 4.9375 223.234 4.86719 223.492 4.79688C223.938 4.67969 224.547 4.5625 225.203 4.5625C227.008 4.5625 228.32 5.44531 228.32 7.58594V12H229.391ZM224.859 12.2109C225.734 12.2109 226.57 11.5469 227.094 10.9453V9.07031H225.398C224.359 9.07031 223.406 9.375 223.406 10.6719C223.406 11.8828 224.195 12.2109 224.859 12.2109ZM236.133 11.0781L236.891 11.8438C236.273 12.6875 235.328 13.2969 233.953 13.2969C231.852 13.2969 230.508 11.4219 230.508 8.92969C230.508 6.60938 231.719 4.5625 233.867 4.5625C234.836 4.5625 235.562 5.01562 235.93 5.76562L236 4.77344H236.805V7.72656H235.875C235.844 7.39844 235.555 5.67188 233.984 5.67188C232.57 5.67188 231.734 6.99219 231.734 8.92969C231.734 10.8672 232.586 12.1875 234.07 12.1875C234.875 12.1875 235.594 11.7969 236.133 11.0781ZM238.203 13.0703V12H239.469V5.84375H238.203V4.77344H240.695V12H241.953V13.0703H238.203ZM240.766 1.26562V2.875H239.281V1.26562H240.766ZM246.539 5.67188C245.164 5.67188 244.32 6.92188 244.32 8.92969C244.32 10.9453 245.164 12.1875 246.539 12.1875C247.914 12.1875 248.758 10.9453 248.758 8.92969C248.758 6.92188 247.914 5.67188 246.539 5.67188ZM246.539 4.5625C248.617 4.5625 249.984 6.4375 249.984 8.92969C249.984 11.4219 248.617 13.2969 246.539 13.2969C244.453 13.2969 243.094 11.4219 243.094 8.92969C243.094 6.4375 244.453 4.5625 246.539 4.5625ZM245.406 2.875L247.367 0H248.688L246.523 2.875H245.406ZM251.281 13.0703V12H252.344V5.84375H251.281V4.77344H253.398L253.492 5.97656C254.133 5.21094 254.938 4.5625 256 4.5625C257.648 4.5625 258.328 5.32031 258.328 8.03125V12H259.398V13.0703H256.125V12H257.102V8.03125C257.102 6.46875 256.898 5.75 255.719 5.75C254.734 5.75 254.07 6.47656 253.57 7.01562V12H254.547V13.0703H251.281ZM262.57 11.3672V13.0703H260.992V11.3672H262.57ZM8.64062 43.9609V45.0703H6.76562L4.42188 40.4297C4.25781 40.4531 4.10938 40.4531 3.94531 40.4531H2.60156V43.9609H3.85938V45.0703H0.304688V43.9609H1.33594V35.4297H0.304688V34.2969H3.95312C5.98438 34.2969 7.84375 34.9688 7.84375 37.3828C7.84375 38.8516 7.00781 39.8672 5.67188 40.2188L7.60938 43.9609H8.64062ZM3.95312 35.4297H2.60156V39.3203H4.21875C5.74219 39.3203 6.5625 38.6406 6.5625 37.3672C6.5625 36.1172 5.74219 35.4297 3.95312 35.4297ZM15.4219 43.0781L16.1797 43.8594C15.5 44.6641 14.4766 45.2969 13.2031 45.2969C10.2031 45.2969 9.54688 42.6953 9.54688 40.7578C9.54688 38.9922 10.2969 36.5625 12.9766 36.5625C15.8438 36.5625 16.2266 39.625 16.2266 41.0234V41.3359H10.8516C10.875 42.9609 11.7344 44.1875 13.2578 44.1875C14 44.1875 14.7969 43.7891 15.4219 43.0781ZM12.9766 37.6719C11.3828 37.6719 10.8516 39.1094 10.8516 40.2969H14.9453C14.9453 39.1094 14.4766 37.6719 12.9766 37.6719ZM17.5469 45.0703V44H18.6094V37.8438H17.5469V36.7734H19.6641L19.7578 37.9766C20.3984 37.2109 21.2031 36.5625 22.2656 36.5625C23.9141 36.5625 24.5938 37.3203 24.5938 40.0312V44H25.6641V45.0703H22.3906V44H23.3672V40.0312C23.3672 38.4688 23.1641 37.75 21.9844 37.75C21 37.75 20.3359 38.4766 19.8359 39.0156V44H20.8125V45.0703H17.5469ZM30.0156 36.5625C30.7422 36.5625 31.9375 36.9219 32.5 38.2266V34.2266L30.875 34.3203L30.7969 33.2422L33.7266 33.0391V44H34.7969V45.0703H32.5859L32.5 43.6875C32.0312 44.7578 31.1953 45.2969 29.9922 45.2969C28.7734 45.2969 26.8594 44.3359 26.8594 40.9297C26.8594 37.5391 28.7422 36.5625 30.0156 36.5625ZM30.2891 37.6719C29.2891 37.6719 28.0859 38.4766 28.0859 40.9297C28.0859 43.4609 29.3828 44.1875 30.2656 44.1875C31.2656 44.1875 32.5391 43.5 32.5391 40.9297C32.5391 38.5703 31.3516 37.6719 30.2891 37.6719ZM36.0625 45.0703V44H37.3281V37.8438H36.0625V36.7734H38.5547V44H39.8125V45.0703H36.0625ZM38.625 33.2656V34.875H37.1406V33.2656H38.625ZM41.1562 45.0703V44H42.2188V37.8438H41.1562V36.7734H43.3516L43.4141 37.5C43.875 37.0547 44.8125 36.5625 45.7578 36.5625C46.5625 36.5625 46.9609 36.9922 47.2109 37.4062C47.5234 37.1562 48.4766 36.5625 49.6406 36.5625C51.1328 36.5625 51.6641 37.8047 51.6641 38.9766V44H52.6406V45.0703H50.4375V39.3438C50.4375 38.5547 50.3516 37.6719 49.3828 37.6719C48.6172 37.6719 47.6641 38.2578 47.5156 38.3438C47.6016 38.7109 47.6016 38.9219 47.6016 39.2266V44H48.7266V45.0703H46.375V39.2266C46.375 38.4609 46.2344 37.6719 45.3203 37.6719C44.8828 37.6719 44.4219 37.875 44.0547 38.0703C43.8438 38.1875 43.6406 38.3125 43.4453 38.4609V44H44.5781V45.0703H41.1562ZM54.0156 45.0703V44H55.2812V37.8438H54.0156V36.7734H56.5078V44H57.7656V45.0703H54.0156ZM56.5781 33.2656V34.875H55.0938V33.2656H56.5781ZM64.7969 43.0781L65.5547 43.8594C64.875 44.6641 63.8516 45.2969 62.5781 45.2969C59.5781 45.2969 58.9219 42.6953 58.9219 40.7578C58.9219 38.9922 59.6719 36.5625 62.3516 36.5625C65.2188 36.5625 65.6016 39.625 65.6016 41.0234V41.3359H60.2266C60.25 42.9609 61.1094 44.1875 62.6328 44.1875C63.375 44.1875 64.1719 43.7891 64.7969 43.0781ZM62.3516 37.6719C60.7578 37.6719 60.2266 39.1094 60.2266 40.2969H64.3203C64.3203 39.1094 63.8516 37.6719 62.3516 37.6719ZM66.9219 45.0703V44H67.9844V37.8438H66.9219V36.7734H69.0391L69.1328 37.9766C69.7734 37.2109 70.5781 36.5625 71.6406 36.5625C73.2891 36.5625 73.9688 37.3203 73.9688 40.0312V44H75.0391V45.0703H71.7656V44H72.7422V40.0312C72.7422 38.4688 72.5391 37.75 71.3594 37.75C70.375 37.75 69.7109 38.4766 69.2109 39.0156V44H70.1875V45.0703H66.9219ZM76.7812 42.4219V34.2969H78.0078V36.7734H80.7812V37.8438H78.0078V42.2891C78.0078 43.4219 78.2656 44.1094 79.1719 44.1094C79.6016 44.1094 79.9922 44.0078 80.2969 43.8906C80.4688 43.8281 80.6328 43.75 80.7812 43.6641L81.0703 44.6953C80.8594 44.8125 80.6328 44.9141 80.4062 45C80.0078 45.1484 79.4922 45.2969 78.9922 45.2969C77.0938 45.2969 76.7812 43.8984 76.7812 42.4219ZM85.2891 37.6719C83.9141 37.6719 83.0703 38.9219 83.0703 40.9297C83.0703 42.9453 83.9141 44.1875 85.2891 44.1875C86.6641 44.1875 87.5078 42.9453 87.5078 40.9297C87.5078 38.9219 86.6641 37.6719 85.2891 37.6719ZM85.2891 36.5625C87.3672 36.5625 88.7344 38.4375 88.7344 40.9297C88.7344 43.4219 87.3672 45.2969 85.2891 45.2969C83.2031 45.2969 81.8438 43.4219 81.8438 40.9297C81.8438 38.4375 83.2031 36.5625 85.2891 36.5625ZM97.5625 45.2969C96.2891 45.2969 94.4062 44.3281 94.4062 40.9297C94.4062 37.5 96.3203 36.5625 97.5391 36.5625C98.4453 36.5625 99.5078 37.0156 100.047 38.2266V36.7734H102.344V37.8438H101.273V47.4062H102.344V48.4844H98.8359V47.4062H100.047V43.6875C99.4844 45.0547 98.2891 45.2969 97.5625 45.2969ZM97.8359 44.1875C98.8906 44.1875 100.086 43.4062 100.086 40.9297C100.086 38.4609 98.8125 37.6719 97.8125 37.6719C96.9297 37.6719 95.6328 38.3906 95.6328 40.9297C95.6328 43.3906 96.8359 44.1875 97.8359 44.1875ZM110.484 36.7734V44H111.547V45.0703H109.422L109.344 43.75C108.844 44.4375 107.984 45.2969 106.797 45.2969C105.047 45.2969 104.5 44 104.5 41.9453V37.8438H103.438V36.7734H105.727V42.0234C105.727 42.9219 105.742 44.1875 107.055 44.1875C107.695 44.1875 108.25 43.8203 108.641 43.4531C108.867 43.2422 109.078 42.9922 109.258 42.7109V37.8438H108.164V36.7734H110.484ZM118.578 43.0781L119.336 43.8594C118.656 44.6641 117.633 45.2969 116.359 45.2969C113.359 45.2969 112.703 42.6953 112.703 40.7578C112.703 38.9922 113.453 36.5625 116.133 36.5625C119 36.5625 119.383 39.625 119.383 41.0234V41.3359H114.008C114.031 42.9609 114.891 44.1875 116.414 44.1875C117.156 44.1875 117.953 43.7891 118.578 43.0781ZM116.133 37.6719C114.539 37.6719 114.008 39.1094 114.008 40.2969H118.102C118.102 39.1094 117.633 37.6719 116.133 37.6719ZM130.062 36.7734H130.867V39.1484H129.969C129.914 38.875 129.812 38.625 129.648 38.4062C129.383 38.0391 128.875 37.6562 127.992 37.6562C126.586 37.6562 126.453 38.4688 126.453 38.8438C126.453 39.9453 127.281 40.1172 128.562 40.3203C129.906 40.5547 131.312 40.9688 131.312 42.7734C131.312 44.5703 130.133 45.2969 128.633 45.2969C127.156 45.2969 126.383 44.4688 126.109 44.0703L126.016 45.0703H125.227V42.5625H126.117C126.203 42.8672 126.344 43.1484 126.547 43.3906C126.883 43.8125 127.484 44.2109 128.492 44.2109C129.5 44.2109 130.086 43.7891 130.086 42.9062C130.086 41.9375 129.336 41.75 128.148 41.5234C126.797 41.2734 125.273 40.9141 125.273 38.9219C125.273 38.1328 125.586 36.5625 127.852 36.5625C129.156 36.5625 129.805 37.1719 129.977 37.5938L130.062 36.7734ZM138.422 43.0781L139.18 43.8594C138.5 44.6641 137.477 45.2969 136.203 45.2969C133.203 45.2969 132.547 42.6953 132.547 40.7578C132.547 38.9922 133.297 36.5625 135.977 36.5625C138.844 36.5625 139.227 39.625 139.227 41.0234V41.3359H133.852C133.875 42.9609 134.734 44.1875 136.258 44.1875C137 44.1875 137.797 43.7891 138.422 43.0781ZM135.977 37.6719C134.383 37.6719 133.852 39.1094 133.852 40.2969H137.945C137.945 39.1094 137.477 37.6719 135.977 37.6719ZM149.906 36.7734H150.711V39.1484H149.812C149.758 38.875 149.656 38.625 149.492 38.4062C149.227 38.0391 148.719 37.6562 147.836 37.6562C146.43 37.6562 146.297 38.4688 146.297 38.8438C146.297 39.9453 147.125 40.1172 148.406 40.3203C149.75 40.5547 151.156 40.9688 151.156 42.7734C151.156 44.5703 149.977 45.2969 148.477 45.2969C147 45.2969 146.227 44.4688 145.953 44.0703L145.859 45.0703H145.07V42.5625H145.961C146.047 42.8672 146.188 43.1484 146.391 43.3906C146.727 43.8125 147.328 44.2109 148.336 44.2109C149.344 44.2109 149.93 43.7891 149.93 42.9062C149.93 41.9375 149.18 41.75 147.992 41.5234C146.641 41.2734 145.117 40.9141 145.117 38.9219C145.117 38.1328 145.43 36.5625 147.695 36.5625C149 36.5625 149.648 37.1719 149.82 37.5938L149.906 36.7734ZM152.5 45.0703V44H153.766V37.8438H152.5V36.7734H154.992V44H156.25V45.0703H152.5ZM155.062 33.2656V34.875H153.578V33.2656H155.062ZM163.281 43.0781L164.039 43.8594C163.359 44.6641 162.336 45.2969 161.062 45.2969C158.062 45.2969 157.406 42.6953 157.406 40.7578C157.406 38.9922 158.156 36.5625 160.836 36.5625C163.703 36.5625 164.086 39.625 164.086 41.0234V41.3359H158.711C158.734 42.9609 159.594 44.1875 161.117 44.1875C161.859 44.1875 162.656 43.7891 163.281 43.0781ZM160.836 37.6719C159.242 37.6719 158.711 39.1094 158.711 40.2969H162.805C162.805 39.1094 162.336 37.6719 160.836 37.6719ZM165.406 45.0703V44H166.469V37.8438H165.406V36.7734H167.523L167.617 37.9766C168.258 37.2109 169.062 36.5625 170.125 36.5625C171.773 36.5625 172.453 37.3203 172.453 40.0312V44H173.523V45.0703H170.25V44H171.227V40.0312C171.227 38.4688 171.023 37.75 169.844 37.75C168.859 37.75 168.195 38.4766 167.695 39.0156V44H168.672V45.0703H165.406ZM175.266 42.4219V34.2969H176.492V36.7734H179.266V37.8438H176.492V42.2891C176.492 43.4219 176.75 44.1094 177.656 44.1094C178.086 44.1094 178.477 44.0078 178.781 43.8906C178.953 43.8281 179.117 43.75 179.266 43.6641L179.555 44.6953C179.344 44.8125 179.117 44.9141 178.891 45C178.492 45.1484 177.977 45.2969 177.477 45.2969C175.578 45.2969 175.266 43.8984 175.266 42.4219ZM186.219 43.0781L186.977 43.8594C186.297 44.6641 185.273 45.2969 184 45.2969C181 45.2969 180.344 42.6953 180.344 40.7578C180.344 38.9922 181.094 36.5625 183.773 36.5625C186.641 36.5625 187.023 39.625 187.023 41.0234V41.3359H181.648C181.672 42.9609 182.531 44.1875 184.055 44.1875C184.797 44.1875 185.594 43.7891 186.219 43.0781ZM183.773 37.6719C182.18 37.6719 181.648 39.1094 181.648 40.2969H185.742C185.742 39.1094 185.273 37.6719 183.773 37.6719ZM199.922 44V45.0703H197.797L197.711 44.0156C197.164 44.6484 196.297 45.2969 195.164 45.2969C193.914 45.2969 192.711 44.5859 192.711 42.6719C192.711 40.8203 193.992 40 195.93 40H197.625V39.375C197.625 38.1875 196.875 37.6328 195.672 37.6328C195.047 37.6328 194.539 37.7422 194.172 37.8438C193.961 37.9062 193.766 37.9766 193.586 38.0547L193.289 37.0234C193.516 36.9375 193.766 36.8672 194.023 36.7969C194.469 36.6797 195.078 36.5625 195.734 36.5625C197.539 36.5625 198.852 37.4453 198.852 39.5859V44H199.922ZM195.391 44.2109C196.266 44.2109 197.102 43.5469 197.625 42.9453V41.0703H195.93C194.891 41.0703 193.938 41.375 193.938 42.6719C193.938 43.8828 194.727 44.2109 195.391 44.2109ZM201.156 45.0703V44H202.219V37.8438H201.156V36.7734H203.273L203.367 37.9766C204.008 37.2109 204.812 36.5625 205.875 36.5625C207.523 36.5625 208.203 37.3203 208.203 40.0312V44H209.273V45.0703H206V44H206.977V40.0312C206.977 38.4688 206.773 37.75 205.594 37.75C204.609 37.75 203.945 38.4766 203.445 39.0156V44H204.422V45.0703H201.156ZM211.016 42.4219V34.2969H212.242V36.7734H215.016V37.8438H212.242V42.2891C212.242 43.4219 212.5 44.1094 213.406 44.1094C213.836 44.1094 214.227 44.0078 214.531 43.8906C214.703 43.8281 214.867 43.75 215.016 43.6641L215.305 44.6953C215.094 44.8125 214.867 44.9141 214.641 45C214.242 45.1484 213.727 45.2969 213.227 45.2969C211.328 45.2969 211.016 43.8984 211.016 42.4219ZM221.969 43.0781L222.727 43.8594C222.047 44.6641 221.023 45.2969 219.75 45.2969C216.75 45.2969 216.094 42.6953 216.094 40.7578C216.094 38.9922 216.844 36.5625 219.523 36.5625C222.391 36.5625 222.773 39.625 222.773 41.0234V41.3359H217.398C217.422 42.9609 218.281 44.1875 219.805 44.1875C220.547 44.1875 221.344 43.7891 221.969 43.0781ZM219.523 37.6719C217.93 37.6719 217.398 39.1094 217.398 40.2969H221.492C221.492 39.1094 221.023 37.6719 219.523 37.6719ZM228.984 36.7734H229.789V39.1484H228.891C228.836 38.875 228.734 38.625 228.57 38.4062C228.305 38.0391 227.797 37.6562 226.914 37.6562C225.508 37.6562 225.375 38.4688 225.375 38.8438C225.375 39.9453 226.203 40.1172 227.484 40.3203C228.828 40.5547 230.234 40.9688 230.234 42.7734C230.234 44.5703 229.055 45.2969 227.555 45.2969C226.078 45.2969 225.305 44.4688 225.031 44.0703L224.938 45.0703H224.148V42.5625H225.039C225.125 42.8672 225.266 43.1484 225.469 43.3906C225.805 43.8125 226.406 44.2109 227.414 44.2109C228.422 44.2109 229.008 43.7891 229.008 42.9062C229.008 41.9375 228.258 41.75 227.07 41.5234C225.719 41.2734 224.195 40.9141 224.195 38.9219C224.195 38.1328 224.508 36.5625 226.773 36.5625C228.078 36.5625 228.727 37.1719 228.898 37.5938L228.984 36.7734ZM3.15625 59.5625C3.88281 59.5625 5.07812 59.9219 5.64062 61.2266V57.2266L4.01562 57.3203L3.9375 56.2422L6.86719 56.0391V67H7.9375V68.0703H5.72656L5.64062 66.6875C5.17188 67.7578 4.33594 68.2969 3.13281 68.2969C1.91406 68.2969 0 67.3359 0 63.9297C0 60.5391 1.88281 59.5625 3.15625 59.5625ZM3.42969 60.6719C2.42969 60.6719 1.22656 61.4766 1.22656 63.9297C1.22656 66.4609 2.52344 67.1875 3.40625 67.1875C4.40625 67.1875 5.67969 66.5 5.67969 63.9297C5.67969 61.5703 4.49219 60.6719 3.42969 60.6719ZM14.9688 66.0781L15.7266 66.8594C15.0469 67.6641 14.0234 68.2969 12.75 68.2969C9.75 68.2969 9.09375 65.6953 9.09375 63.7578C9.09375 61.9922 9.84375 59.5625 12.5234 59.5625C15.3906 59.5625 15.7734 62.625 15.7734 64.0234V64.3359H10.3984C10.4219 65.9609 11.2812 67.1875 12.8047 67.1875C13.5469 67.1875 14.3438 66.7891 14.9688 66.0781ZM12.5234 60.6719C10.9297 60.6719 10.3984 62.1094 10.3984 63.2969H14.4922C14.4922 62.1094 14.0234 60.6719 12.5234 60.6719ZM24.625 68.2969C23.3516 68.2969 21.4688 67.3281 21.4688 63.9297C21.4688 60.5 23.3828 59.5625 24.6016 59.5625C25.5078 59.5625 26.5703 60.0156 27.1094 61.2266V59.7734H29.4062V60.8438H28.3359V70.4062H29.4062V71.4844H25.8984V70.4062H27.1094V66.6875C26.5469 68.0547 25.3516 68.2969 24.625 68.2969ZM24.8984 67.1875C25.9531 67.1875 27.1484 66.4062 27.1484 63.9297C27.1484 61.4609 25.875 60.6719 24.875 60.6719C23.9922 60.6719 22.6953 61.3906 22.6953 63.9297C22.6953 66.3906 23.8984 67.1875 24.8984 67.1875ZM37.5469 59.7734V67H38.6094V68.0703H36.4844L36.4062 66.75C35.9062 67.4375 35.0469 68.2969 33.8594 68.2969C32.1094 68.2969 31.5625 67 31.5625 64.9453V60.8438H30.5V59.7734H32.7891V65.0234C32.7891 65.9219 32.8047 67.1875 34.1172 67.1875C34.7578 67.1875 35.3125 66.8203 35.7031 66.4531C35.9297 66.2422 36.1406 65.9922 36.3203 65.7109V60.8438H35.2266V59.7734H37.5469ZM45.6406 66.0781L46.3984 66.8594C45.7188 67.6641 44.6953 68.2969 43.4219 68.2969C40.4219 68.2969 39.7656 65.6953 39.7656 63.7578C39.7656 61.9922 40.5156 59.5625 43.1953 59.5625C46.0625 59.5625 46.4453 62.625 46.4453 64.0234V64.3359H41.0703C41.0938 65.9609 41.9531 67.1875 43.4766 67.1875C44.2188 67.1875 45.0156 66.7891 45.6406 66.0781ZM43.1953 60.6719C41.6016 60.6719 41.0703 62.1094 41.0703 63.2969H45.1641C45.1641 62.1094 44.6953 60.6719 43.1953 60.6719ZM54.6484 67H55.9688V68.0703H52.0938V67H53.4219V57.1875L52.0938 57.2891L52.0234 56.2578L54.6484 56.0391V67ZM60.4922 60.6719C59.1172 60.6719 58.2734 61.9219 58.2734 63.9297C58.2734 65.9453 59.1172 67.1875 60.4922 67.1875C61.8672 67.1875 62.7109 65.9453 62.7109 63.9297C62.7109 61.9219 61.8672 60.6719 60.4922 60.6719ZM60.4922 59.5625C62.5703 59.5625 63.9375 61.4375 63.9375 63.9297C63.9375 66.4219 62.5703 68.2969 60.4922 68.2969C58.4062 68.2969 57.0469 66.4219 57.0469 63.9297C57.0469 61.4375 58.4062 59.5625 60.4922 59.5625ZM75.2109 66.0781L75.9688 66.8438C75.3516 67.6875 74.4062 68.2969 73.0312 68.2969C70.9297 68.2969 69.5859 66.4219 69.5859 63.9297C69.5859 61.6094 70.7969 59.5625 72.9453 59.5625C73.9141 59.5625 74.6406 60.0156 75.0078 60.7656L75.0781 59.7734H75.8828V62.7266H74.9531C74.9219 62.3984 74.6328 60.6719 73.0625 60.6719C71.6484 60.6719 70.8125 61.9922 70.8125 63.9297C70.8125 65.8672 71.6641 67.1875 73.1484 67.1875C73.9531 67.1875 74.6719 66.7969 75.2109 66.0781ZM84.1719 59.7734V67H85.2344V68.0703H83.1094L83.0312 66.75C82.5312 67.4375 81.6719 68.2969 80.4844 68.2969C78.7344 68.2969 78.1875 67 78.1875 64.9453V60.8438H77.125V59.7734H79.4141V65.0234C79.4141 65.9219 79.4297 67.1875 80.7422 67.1875C81.3828 67.1875 81.9375 66.8203 82.3281 66.4531C82.5547 66.2422 82.7656 65.9922 82.9453 65.7109V60.8438H81.8516V59.7734H84.1719ZM92.2656 66.0781L93.0234 66.8594C92.3438 67.6641 91.3203 68.2969 90.0469 68.2969C87.0469 68.2969 86.3906 65.6953 86.3906 63.7578C86.3906 61.9922 87.1406 59.5625 89.8203 59.5625C92.6875 59.5625 93.0703 62.625 93.0703 64.0234V64.3359H87.6953C87.7188 65.9609 88.5781 67.1875 90.1016 67.1875C90.8438 67.1875 91.6406 66.7891 92.2656 66.0781ZM89.8203 60.6719C88.2266 60.6719 87.6953 62.1094 87.6953 63.2969H91.7891C91.7891 62.1094 91.3203 60.6719 89.8203 60.6719ZM94.3906 68.0703V67H95.4531V60.8438H94.3906V59.7734H96.5078L96.6016 60.9766C97.2422 60.2109 98.0469 59.5625 99.1094 59.5625C100.758 59.5625 101.438 60.3203 101.438 63.0312V67H102.508V68.0703H99.2344V67H100.211V63.0312C100.211 61.4688 100.008 60.75 98.8281 60.75C97.8438 60.75 97.1797 61.4766 96.6797 62.0156V67H97.6562V68.0703H94.3906ZM104.25 65.4219V57.2969H105.477V59.7734H108.25V60.8438H105.477V65.2891C105.477 66.4219 105.734 67.1094 106.641 67.1094C107.07 67.1094 107.461 67.0078 107.766 66.8906C107.938 66.8281 108.102 66.75 108.25 66.6641L108.539 67.6953C108.328 67.8125 108.102 67.9141 107.875 68C107.477 68.1484 106.961 68.2969 106.461 68.2969C104.562 68.2969 104.25 66.8984 104.25 65.4219ZM115.203 66.0781L115.961 66.8594C115.281 67.6641 114.258 68.2969 112.984 68.2969C109.984 68.2969 109.328 65.6953 109.328 63.7578C109.328 61.9922 110.078 59.5625 112.758 59.5625C115.625 59.5625 116.008 62.625 116.008 64.0234V64.3359H110.633C110.656 65.9609 111.516 67.1875 113.039 67.1875C113.781 67.1875 114.578 66.7891 115.203 66.0781ZM112.758 60.6719C111.164 60.6719 110.633 62.1094 110.633 63.2969H114.727C114.727 62.1094 114.258 60.6719 112.758 60.6719ZM122.219 59.7734H123.023V62.1484H122.125C122.07 61.875 121.969 61.625 121.805 61.4062C121.539 61.0391 121.031 60.6562 120.148 60.6562C118.742 60.6562 118.609 61.4688 118.609 61.8438C118.609 62.9453 119.438 63.1172 120.719 63.3203C122.062 63.5547 123.469 63.9688 123.469 65.7734C123.469 67.5703 122.289 68.2969 120.789 68.2969C119.312 68.2969 118.539 67.4688 118.266 67.0703L118.172 68.0703H117.383V65.5625H118.273C118.359 65.8672 118.5 66.1484 118.703 66.3906C119.039 66.8125 119.641 67.2109 120.648 67.2109C121.656 67.2109 122.242 66.7891 122.242 65.9062C122.242 64.9375 121.492 64.75 120.305 64.5234C118.953 64.2734 117.43 63.9141 117.43 61.9219C117.43 61.1328 117.742 59.5625 120.008 59.5625C121.312 59.5625 121.961 60.1719 122.133 60.5938L122.219 59.7734ZM126.695 66.3672V68.0703H125.117V66.3672H126.695Z" fill="white"/>
</svg>
