<svg fill="none" height="96" viewBox="0 0 96 96" width="96" xmlns="http://www.w3.org/2000/svg" xmlns:xlink="http://www.w3.org/1999/xlink"><clipPath id="a"><path d="m0 0h96v96h-96z"/></clipPath><g clip-path="url(#a)"><circle cx="48" cy="48" fill="#fff" r="48"/><g fill="#141413"><path d="m67.1133 78.7436c11.0108-6.8497 22.2862-26.3485 22.2862-30.7369s-11.2754-23.8735-22.2862-30.7369c-.1114-.0822-.2431-.1326-.381-.1455s-.2766.012-.4014.0721-.2308.1531-.3067.269c-.0759.116-.1189.2504-.1242.3889v30.1387 30.1387c.0004.1408.0398.2788.1138.3986.0739.1199.1796.2168.3053.2802.1256.0634.2663.0907.4065.0789.1402-.0119.2744-.0623.3877-.1458z"/><path d="m46.971 83.9996h.9122c4.4624.0203 8.8885-.8039 13.0452-2.4293.2421-.0903.4505-.2532.5966-.4666.1461-.2133.2229-.4666.2198-.7253v-17.9781c-.0014-.105-.0273-.2083-.0758-.3014s-.1181-.1736-.2033-.2349-.1835-.1017-.2872-.118c-.1036-.0163-.2096-.0081-.3094.0241-3.8771 1.58-7.1475 3.0869-12.7715 3.0869-4.4638 0-8.7449-1.7753-11.9013-4.9353s-4.9296-7.446-4.9296-11.9149c0-4.469 1.7732-8.7549 4.9296-11.915 3.1564-3.16 7.4375-4.9353 11.9013-4.9353 5.624 0 8.8944 1.5069 12.7715 3.0824.1008.0343.2085.0439.3138.028.1054-.0159.2054-.0569.2916-.1196.0863-.0626.1562-.145.2041-.2403.0478-.0954.0721-.2008.0708-.3074v-17.9645c.0027-.2592-.0747-.5129-.2217-.7263s-.3564-.376-.5993-.4656c-4.1515-1.6284-8.5728-2.4572-13.0315-2.443-.3041 0-.6082 0-.9122 0-9.3612.2417-18.2577 4.1347-24.793 10.849-6.5353 6.7142-10.1924 15.7187-10.1917 25.0936v.1005c-.0044 9.375 3.6493 18.3809 10.182 25.0978 6.5328 6.7168 15.4279 10.6132 24.789 10.8585z"/></g></g></svg>