<svg width="1320" height="128" viewBox="0 0 1320 128" fill="none" xmlns="http://www.w3.org/2000/svg">
<path d="M4.61914 8.33594C6.07422 8.33594 7.32422 8.84375 8.35938 10.123L7.24609 11.0801C6.52344 10.1523 5.6543 9.77148 4.69727 9.77148C3.30078 9.77148 2.70508 10.3672 2.70508 11.2363C2.70508 12.2031 3.27148 12.6816 5.40039 13.0723C7.91992 13.5508 8.89648 14.5273 8.89648 16.1973C8.89648 18.1309 7.49023 19.2832 4.9707 19.2832C3.13477 19.2832 1.66992 18.4922 0.742188 17.418L1.81641 16.3633C2.61719 17.3008 3.64258 17.8574 4.9707 17.8574C6.49414 17.8574 7.2168 17.2031 7.2168 16.2266C7.2168 15.3477 6.5332 14.7617 4.69727 14.4102C1.83594 13.8633 1.02539 12.8672 1.02539 11.2852C1.02539 9.68359 2.22656 8.33594 4.61914 8.33594ZM10.9719 19V8.62891H12.4758L12.5734 9.9375C13.3059 8.9707 14.341 8.33594 15.5129 8.33594C16.6262 8.33594 17.4367 8.79492 17.9348 9.9082C18.7648 8.90234 19.8879 8.33594 21.0207 8.33594C23.0617 8.33594 24.0188 9.73242 24.0188 11.6562V19H22.3391V11.9883C22.3391 10.4258 21.7336 9.83984 20.7375 9.83984C19.7902 9.83984 18.7453 10.6602 18.3156 11.4023C18.3352 11.8613 18.3352 11.7246 18.3352 12.0469V19H16.6555V11.9883C16.6555 10.4258 16.05 9.83984 15.0539 9.83984C14.1945 9.83984 13.3352 10.4746 12.6516 11.4219V19H10.9719ZM29.4535 19.3027C27.5883 19.3027 26.0551 18.4336 26.0551 16.0215C26.0551 13.4336 28.2621 12.6621 29.9809 12.6621H32.5395V11.9199C32.5395 10.3867 31.6605 9.72266 30.0004 9.72266C28.9652 9.72266 28.0863 9.99609 27.266 10.3281L26.8461 8.9707C27.9203 8.58984 29.0043 8.33594 30.0004 8.33594C32.4418 8.33594 34.2191 9.37109 34.2191 12.125V19H32.8031L32.6762 17.75C32.0902 18.4824 30.7816 19.3027 29.4535 19.3027ZM29.6879 17.8672C30.8012 17.8672 31.8656 17.0957 32.5395 16.3633V14H30.3324C28.6527 14 27.7348 14.7422 27.7348 16.0215C27.7348 17.3008 28.4867 17.8672 29.6879 17.8672ZM37.0758 8.62891H38.5016L38.6285 10.0254C39.566 8.86328 40.4156 8.33594 41.3434 8.33594C41.8805 8.33594 42.4176 8.47266 42.8863 8.6875L42.3883 10.1328C42.0953 10.0059 41.607 9.82031 41.1676 9.82031C40.318 9.82031 39.5367 10.4258 38.7555 11.6562V19H37.0758V8.62891ZM44.4051 5.72852H46.0848V8.62891H49.9227V10.0156H46.0848V15.5527C46.0848 17.0957 46.5828 17.7793 47.784 17.7793C48.5652 17.7793 49.4637 17.4863 50.118 17.1641L50.5281 18.5312C49.3074 19.0781 48.3406 19.2832 47.5691 19.2832C45.118 19.2832 44.4051 17.6523 44.4051 15.6895V5.72852ZM61.5441 14.8594H59.0148L58.5168 19.2832H57.0324L57.5305 14.8594H55.6555V13.4727H57.6867L58.0871 9.92773H55.6555V8.54102H58.2434L58.7414 4.16602H60.2258L59.7277 8.54102H62.257L62.7551 4.16602H64.2395L63.7512 8.54102H65.8508V9.92773H63.5949L63.1945 13.4727H65.8508V14.8594H63.0285L62.5305 19.2832H61.0461L61.5441 14.8594ZM59.1711 13.4727H61.7004L62.1105 9.92773H59.5812L59.1711 13.4727ZM68.5512 16.793C69.2348 17.418 70.2113 17.8574 71.393 17.8574C73.1801 17.8574 73.9906 16.7637 73.9906 15.3672C73.9906 13.7559 72.7504 12.9062 70.934 12.9062H70.2406V11.5195H70.934C72.4672 11.5195 73.5609 10.6699 73.5609 9.12695C73.5609 7.4082 72.3695 6.74414 71.1488 6.74414C70.2113 6.74414 69.3129 7.14453 68.6098 7.83789L67.6527 6.68555C68.6977 5.75781 69.9184 5.31836 71.2953 5.31836C74.0297 5.31836 75.1234 7.0957 75.1234 8.9707C75.1234 10.1133 74.6352 11.6465 73.1508 12.1543C74.6352 12.6035 75.602 13.8438 75.602 15.4453C75.602 18.1504 73.7465 19.2832 71.559 19.2832C69.7816 19.2832 68.5707 18.8145 67.6137 17.9648L68.5512 16.793Z" fill="#6B747B"/>
<path d="M18.457 70V57.9102H6.85547V70H3.45703V43.457H6.85547V54.9609H18.457V43.457H21.875V70H18.457ZM32.8523 70.6055C29.1219 70.6055 26.0555 68.8672 26.0555 64.043C26.0555 58.8672 30.4695 57.3242 33.907 57.3242H39.0242V55.8398C39.0242 52.7734 37.2664 51.4453 33.9461 51.4453C31.8758 51.4453 30.118 51.9922 28.4773 52.6562L27.6375 49.9414C29.7859 49.1797 31.9539 48.6719 33.9461 48.6719C38.8289 48.6719 42.3836 50.7422 42.3836 56.25V70H39.5516L39.2977 67.5C38.1258 68.9648 35.5086 70.6055 32.8523 70.6055ZM33.3211 67.7344C35.5477 67.7344 37.6766 66.1914 39.0242 64.7266V60H34.6102C31.2508 60 29.4148 61.4844 29.4148 64.043C29.4148 66.6016 30.9188 67.7344 33.3211 67.7344ZM62.6578 66.8555C60.7438 69.3359 58.5953 70.5664 55.4117 70.5664C50.0406 70.5664 46.3492 66.5234 46.3492 59.6484C46.3492 53.418 49.6891 48.6719 55.4703 48.6719C58.6539 48.6719 60.7438 49.9609 62.6578 52.4609L60.5289 54.4531C59.2789 52.7344 57.8141 51.543 55.4703 51.543C51.7398 51.543 49.7086 54.668 49.7086 59.6484C49.7086 64.6289 51.7594 67.7148 55.6461 67.7148C57.8922 67.7148 59.2789 66.582 60.5289 64.8633L62.6578 66.8555ZM76.0375 37.3633H79.8461L74.182 44.5117H71.0766L76.0375 37.3633ZM81.9555 66.9141C80.2172 69.0039 77.6781 70.5664 74.2797 70.5664C67.5414 70.5664 64.807 65.4883 64.807 59.5312C64.807 53.8086 67.5219 48.6719 73.7328 48.6719C79.9633 48.6719 82.5023 53.7891 82.5023 60V60.7617H68.2836C68.4398 65.5469 70.9203 67.7148 74.3773 67.7148C76.6625 67.7148 78.3617 66.6406 79.8852 64.8633L81.9555 66.9141ZM73.7328 51.543C69.9437 51.543 68.4398 54.6289 68.3227 58.0664H79.0453C78.9477 54.6289 77.4828 51.543 73.7328 51.543ZM94.5156 70V40.332H97.875V70H94.5156ZM108.54 70.6055C104.809 70.6055 101.743 68.8672 101.743 64.043C101.743 58.8672 106.157 57.3242 109.595 57.3242H114.712V55.8398C114.712 52.7734 112.954 51.4453 109.634 51.4453C107.563 51.4453 105.805 51.9922 104.165 52.6562L103.325 49.9414C105.473 49.1797 107.641 48.6719 109.634 48.6719C114.516 48.6719 118.071 50.7422 118.071 56.25V70H115.239L114.985 67.5C113.813 68.9648 111.196 70.6055 108.54 70.6055ZM109.009 67.7344C111.235 67.7344 113.364 66.1914 114.712 64.7266V60H110.298C106.938 60 105.102 61.4844 105.102 64.043C105.102 66.6016 106.606 67.7344 109.009 67.7344ZM138.17 48.6719C140.495 48.6719 143.053 49.5703 144.596 52.5195V40.0977H147.916V70H144.909L144.635 66.875C143.092 69.7266 140.455 70.5664 138.248 70.5664C133.952 70.5664 130.045 67.0312 130.045 59.5898C130.045 52.1484 133.854 48.6719 138.17 48.6719ZM139.01 51.543C135.475 51.543 133.405 54.4727 133.405 59.5898C133.405 64.6875 135.475 67.7148 139.01 67.7148C142.584 67.7148 144.694 64.707 144.694 59.5898C144.694 54.4727 142.584 51.543 139.01 51.543ZM157.038 44.5117H153.249V40.625H157.038V44.5117ZM153.464 70V49.2578H156.823V70H153.464ZM160.242 49.2578H163.191V46.6992C163.191 43.1445 164.91 40.332 169.344 40.332C170.574 40.332 172.02 40.5273 173.445 40.8008L172.918 43.6328C171.512 43.3203 170.555 43.1836 169.344 43.1836C167.703 43.1836 166.551 44.2188 166.551 46.6406V49.2578H171.414V52.0312H166.551V70H163.191V52.0312H160.242V49.2578ZM189.97 66.9141C188.231 69.0039 185.692 70.5664 182.294 70.5664C175.555 70.5664 172.821 65.4883 172.821 59.5312C172.821 53.8086 175.536 48.6719 181.747 48.6719C187.977 48.6719 190.516 53.7891 190.516 60V60.7617H176.298C176.454 65.5469 178.934 67.7148 182.391 67.7148C184.677 67.7148 186.376 66.6406 187.899 64.8633L189.97 66.9141ZM181.747 51.543C177.958 51.543 176.454 54.6289 176.337 58.0664H187.059C186.962 54.6289 185.497 51.543 181.747 51.543ZM194.58 49.2578H197.431L197.685 52.0508C199.56 49.7266 201.259 48.6719 203.115 48.6719C204.189 48.6719 205.263 48.9453 206.201 49.375L205.205 52.2656C204.619 52.0117 203.642 51.6406 202.763 51.6406C201.064 51.6406 199.502 52.8516 197.939 55.3125V70H194.58V49.2578ZM224.112 66.9141C222.373 69.0039 219.834 70.5664 216.436 70.5664C209.698 70.5664 206.963 65.4883 206.963 59.5312C206.963 53.8086 209.678 48.6719 215.889 48.6719C222.12 48.6719 224.659 53.7891 224.659 60V60.7617H210.44C210.596 65.5469 213.077 67.7148 216.534 67.7148C218.819 67.7148 220.518 66.6406 222.041 64.8633L224.112 66.9141ZM215.889 51.543C212.1 51.543 210.596 54.6289 210.479 58.0664H221.202C221.104 54.6289 219.639 51.543 215.889 51.543ZM228.722 70V49.2578H231.613L231.847 52.2656C233.566 50.4102 235.773 48.6719 238.78 48.6719C242.609 48.6719 245.265 50.332 245.265 57.2656V70H241.905V57.2656C241.905 52.8906 240.519 51.6797 238.175 51.6797C235.616 51.6797 233.624 53.5742 232.081 55.1562V70H228.722ZM265.539 66.8555C263.625 69.3359 261.477 70.5664 258.293 70.5664C252.922 70.5664 249.23 66.5234 249.23 59.6484C249.23 53.418 252.57 48.6719 258.352 48.6719C261.535 48.6719 263.625 49.9609 265.539 52.4609L263.41 54.4531C262.16 52.7344 260.695 51.543 258.352 51.543C254.621 51.543 252.59 54.668 252.59 59.6484C252.59 64.6289 254.641 67.7148 258.527 67.7148C260.773 67.7148 262.16 66.582 263.41 64.8633L265.539 66.8555ZM272.845 44.5117H269.055V40.625H272.845V44.5117ZM269.27 70V49.2578H272.63V70H269.27ZM283.295 70.6055C279.564 70.6055 276.498 68.8672 276.498 64.043C276.498 58.8672 280.912 57.3242 284.349 57.3242H289.466V55.8398C289.466 52.7734 287.709 51.4453 284.388 51.4453C282.318 51.4453 280.56 51.9922 278.92 52.6562L278.08 49.9414C280.228 49.1797 282.396 48.6719 284.388 48.6719C289.271 48.6719 292.826 50.7422 292.826 56.25V70H289.994L289.74 67.5C288.568 68.9648 285.951 70.6055 283.295 70.6055ZM283.763 67.7344C285.99 67.7344 288.119 66.1914 289.466 64.7266V60H285.052C281.693 60 279.857 61.4844 279.857 64.043C279.857 66.6016 281.361 67.7344 283.763 67.7344ZM301.557 70H297.534V65.918H301.557V70ZM3.45703 118V91.457H19.1797V94.3086H6.85547V103.137H17.207V106.008H6.85547V115.031H19.1797V118H3.45703ZM23.575 118V88.332H26.9344V118H23.575ZM46.4867 96.6719C49.3969 96.6719 51.8969 97.6875 53.9672 100.246L51.7406 102.16C50.2953 100.305 48.557 99.543 46.643 99.543C43.85 99.543 42.6586 100.734 42.6586 102.473C42.6586 104.406 43.7914 105.363 48.0492 106.145C53.0883 107.102 55.0414 109.055 55.0414 112.395C55.0414 116.262 52.2289 118.566 47.1898 118.566C43.518 118.566 40.5883 116.984 38.7328 114.836L40.8812 112.727C42.4828 114.602 44.5336 115.715 47.1898 115.715C50.2367 115.715 51.682 114.406 51.682 112.453C51.682 110.695 50.3148 109.523 46.643 108.82C40.9203 107.727 39.2992 105.734 39.2992 102.57C39.2992 99.3672 41.7016 96.6719 46.4867 96.6719ZM58.7922 118V97.2578H61.8L61.9953 99.875C63.4602 97.9414 65.5305 96.6719 67.8742 96.6719C70.1008 96.6719 71.7219 97.5898 72.718 99.8164C74.3781 97.8047 76.6242 96.6719 78.8898 96.6719C82.9719 96.6719 84.8859 99.4648 84.8859 103.312V118H81.5266V103.977C81.5266 100.852 80.3156 99.6797 78.3234 99.6797C76.4289 99.6797 74.3391 101.32 73.4797 102.805C73.5187 103.723 73.5187 103.449 73.5187 104.094V118H70.1594V103.977C70.1594 100.852 68.9484 99.6797 66.9562 99.6797C65.2375 99.6797 63.5187 100.949 62.1516 102.844V118H58.7922ZM95.3555 118.605C91.625 118.605 88.5586 116.867 88.5586 112.043C88.5586 106.867 92.9727 105.324 96.4102 105.324H101.527V103.84C101.527 100.773 99.7695 99.4453 96.4492 99.4453C94.3789 99.4453 92.6211 99.9922 90.9805 100.656L90.1406 97.9414C92.2891 97.1797 94.457 96.6719 96.4492 96.6719C101.332 96.6719 104.887 98.7422 104.887 104.25V118H102.055L101.801 115.5C100.629 116.965 98.0117 118.605 95.3555 118.605ZM95.8242 115.734C98.0508 115.734 100.18 114.191 101.527 112.727V108H97.1133C93.7539 108 91.918 109.484 91.918 112.043C91.918 114.602 93.4219 115.734 95.8242 115.734ZM110.2 97.2578H113.052L113.305 100.051C115.18 97.7266 116.88 96.6719 118.735 96.6719C119.809 96.6719 120.884 96.9453 121.821 97.375L120.825 100.266C120.239 100.012 119.262 99.6406 118.384 99.6406C116.684 99.6406 115.122 100.852 113.559 103.312V118H110.2V97.2578ZM124.459 91.457H127.818V97.2578H135.494V100.031H127.818V111.105C127.818 114.191 128.814 115.559 131.216 115.559C132.779 115.559 134.576 114.973 135.884 114.328L136.705 117.062C134.263 118.156 132.33 118.566 130.787 118.566C125.884 118.566 124.459 115.305 124.459 111.379V91.457ZM157.937 109.719H152.878L151.882 118.566H148.913L149.909 109.719H146.159V106.945H150.222L151.023 99.8555H146.159V97.082H151.335L152.331 88.332H155.3L154.304 97.082H159.363L160.359 88.332H163.327L162.351 97.082H166.55V99.8555H162.038L161.238 106.945H166.55V109.719H160.905L159.909 118.566H156.941L157.937 109.719ZM153.191 106.945H158.249L159.07 99.8555H154.011L153.191 106.945ZM171.551 113.586C172.918 114.836 174.871 115.715 177.234 115.715C180.809 115.715 182.43 113.527 182.43 110.734C182.43 107.512 179.949 105.812 176.316 105.812H174.93V103.039H176.316C179.383 103.039 181.57 101.34 181.57 98.2539C181.57 94.8164 179.188 93.4883 176.746 93.4883C174.871 93.4883 173.074 94.2891 171.668 95.6758L169.754 93.3711C171.844 91.5156 174.285 90.6367 177.039 90.6367C182.508 90.6367 184.695 94.1914 184.695 97.9414C184.695 100.227 183.719 103.293 180.75 104.309C183.719 105.207 185.652 107.688 185.652 110.891C185.652 116.301 181.941 118.566 177.566 118.566C174.012 118.566 171.59 117.629 169.676 115.93L171.551 113.586ZM213.681 114.855C211.767 117.336 209.619 118.566 206.435 118.566C201.064 118.566 197.373 114.523 197.373 107.648C197.373 101.418 200.712 96.6719 206.494 96.6719C209.677 96.6719 211.767 97.9609 213.681 100.461L211.552 102.453C210.302 100.734 208.837 99.543 206.494 99.543C202.763 99.543 200.732 102.668 200.732 107.648C200.732 112.629 202.783 115.715 206.67 115.715C208.916 115.715 210.302 114.582 211.552 112.863L213.681 114.855ZM224.834 118.566C219.405 118.566 215.83 114.152 215.83 107.648C215.83 101.125 219.405 96.6719 224.834 96.6719C230.245 96.6719 233.819 101.125 233.819 107.648C233.819 114.152 230.245 118.566 224.834 118.566ZM224.834 115.715C228.545 115.715 230.459 112.688 230.459 107.648C230.459 102.629 228.545 99.543 224.834 99.543C221.104 99.543 219.19 102.629 219.19 107.648C219.19 112.688 221.104 115.715 224.834 115.715ZM238.019 118V97.2578H241.027L241.222 99.875C242.687 97.9414 244.757 96.6719 247.101 96.6719C249.327 96.6719 250.948 97.5898 251.945 99.8164C253.605 97.8047 255.851 96.6719 258.116 96.6719C262.198 96.6719 264.113 99.4648 264.113 103.312V118H260.753V103.977C260.753 100.852 259.542 99.6797 257.55 99.6797C255.655 99.6797 253.566 101.32 252.706 102.805C252.745 103.723 252.745 103.449 252.745 104.094V118H249.386V103.977C249.386 100.852 248.175 99.6797 246.183 99.6797C244.464 99.6797 242.745 100.949 241.378 102.844V118H238.019ZM279.191 96.6719C283.508 96.6719 287.316 100.148 287.316 107.59C287.316 115.031 283.43 118.566 279.113 118.566C276.926 118.566 274.27 117.727 272.727 114.875L272.473 118H269.445V88.0977H272.785V100.52C274.309 97.5703 276.867 96.6719 279.191 96.6719ZM278.352 99.543C274.777 99.543 272.668 102.473 272.668 107.59C272.668 112.707 274.777 115.715 278.352 115.715C281.906 115.715 283.957 112.688 283.957 107.59C283.957 102.473 281.906 99.543 278.352 99.543ZM295.149 92.5117H291.36V88.625H295.149V92.5117ZM291.575 118V97.2578H294.934V118H291.575ZM300.462 118V97.2578H303.353L303.587 100.266C305.306 98.4102 307.513 96.6719 310.521 96.6719C314.349 96.6719 317.005 98.332 317.005 105.266V118H313.646V105.266C313.646 100.891 312.259 99.6797 309.916 99.6797C307.357 99.6797 305.365 101.574 303.822 103.156V118H300.462ZM327.455 118.605C323.725 118.605 320.659 116.867 320.659 112.043C320.659 106.867 325.073 105.324 328.51 105.324H333.627V103.84C333.627 100.773 331.87 99.4453 328.549 99.4453C326.479 99.4453 324.721 99.9922 323.08 100.656L322.241 97.9414C324.389 97.1797 326.557 96.6719 328.549 96.6719C333.432 96.6719 336.987 98.7422 336.987 104.25V118H334.155L333.901 115.5C332.729 116.965 330.112 118.605 327.455 118.605ZM327.924 115.734C330.151 115.734 332.28 114.191 333.627 112.727V108H329.213C325.854 108 324.018 109.484 324.018 112.043C324.018 114.602 325.522 115.734 327.924 115.734ZM366.051 114.914C364.312 117.004 361.773 118.566 358.375 118.566C351.637 118.566 348.902 113.488 348.902 107.531C348.902 101.809 351.617 96.6719 357.828 96.6719C364.059 96.6719 366.598 101.789 366.598 108V108.762H352.379C352.535 113.547 355.016 115.715 358.473 115.715C360.758 115.715 362.457 114.641 363.98 112.863L366.051 114.914ZM357.828 99.543C354.039 99.543 352.535 102.629 352.418 106.066H363.141C363.043 102.629 361.578 99.543 357.828 99.543ZM370.661 118V88.332H374.02V118H370.661ZM392.635 118.605C388.905 118.605 385.838 116.867 385.838 112.043C385.838 106.867 390.252 105.324 393.69 105.324H398.807V103.84C398.807 100.773 397.049 99.4453 393.729 99.4453C391.659 99.4453 389.901 99.9922 388.26 100.656L387.42 97.9414C389.569 97.1797 391.737 96.6719 393.729 96.6719C398.612 96.6719 402.166 98.7422 402.166 104.25V118H399.334L399.08 115.5C397.909 116.965 395.291 118.605 392.635 118.605ZM393.104 115.734C395.33 115.734 397.459 114.191 398.807 112.727V108H394.393C391.034 108 389.198 109.484 389.198 112.043C389.198 114.602 390.702 115.734 393.104 115.734ZM407.48 97.2578H410.331L410.585 100.051C412.46 97.7266 414.159 96.6719 416.015 96.6719C417.089 96.6719 418.163 96.9453 419.101 97.375L418.105 100.266C417.519 100.012 416.542 99.6406 415.663 99.6406C413.964 99.6406 412.402 100.852 410.839 103.312V118H407.48V97.2578ZM421.738 91.457H425.098V97.2578H432.773V100.031H425.098V111.105C425.098 114.191 426.094 115.559 428.496 115.559C430.059 115.559 431.855 114.973 433.164 114.328L433.984 117.062C431.543 118.156 429.609 118.566 428.066 118.566C423.164 118.566 421.738 115.305 421.738 111.379V91.457ZM452.227 114.914C450.489 117.004 447.95 118.566 444.552 118.566C437.813 118.566 435.079 113.488 435.079 107.531C435.079 101.809 437.794 96.6719 444.005 96.6719C450.235 96.6719 452.774 101.789 452.774 108V108.762H438.555C438.712 113.547 441.192 115.715 444.649 115.715C446.934 115.715 448.634 114.641 450.157 112.863L452.227 114.914ZM444.005 99.543C440.216 99.543 438.712 102.629 438.595 106.066H449.317C449.22 102.629 447.755 99.543 444.005 99.543ZM480.705 97.2578L468.772 126.457H465.178L469.163 116.633L461.291 97.2578H464.905L471.038 112.961L477.229 97.2578H480.705ZM506.41 114.914C504.672 117.004 502.133 118.566 498.734 118.566C491.996 118.566 489.262 113.488 489.262 107.531C489.262 101.809 491.977 96.6719 498.188 96.6719C504.418 96.6719 506.957 101.789 506.957 108V108.762H492.738C492.895 113.547 495.375 115.715 498.832 115.715C501.117 115.715 502.816 114.641 504.34 112.863L506.41 114.914ZM498.188 99.543C494.398 99.543 492.895 102.629 492.777 106.066H503.5C503.402 102.629 501.938 99.543 498.188 99.543ZM511.02 118V88.332H514.38V118H511.02ZM527.858 97.2578H530.709L530.963 100.051C532.838 97.7266 534.537 96.6719 536.393 96.6719C537.467 96.6719 538.541 96.9453 539.479 97.375L538.483 100.266C537.897 100.012 536.92 99.6406 536.041 99.6406C534.342 99.6406 532.78 100.852 531.217 103.312V118H527.858V97.2578ZM557.39 114.914C555.652 117.004 553.112 118.566 549.714 118.566C542.976 118.566 540.241 113.488 540.241 107.531C540.241 101.809 542.956 96.6719 549.167 96.6719C555.398 96.6719 557.937 101.789 557.937 108V108.762H543.718C543.874 113.547 546.355 115.715 549.812 115.715C552.097 115.715 553.796 114.641 555.32 112.863L557.39 114.914ZM549.167 99.543C545.378 99.543 543.874 102.629 543.757 106.066H554.48C554.382 102.629 552.917 99.543 549.167 99.543ZM562 118V97.2578H564.891L565.125 100.266C566.844 98.4102 569.051 96.6719 572.059 96.6719C575.887 96.6719 578.543 98.332 578.543 105.266V118H575.184V105.266C575.184 100.891 573.797 99.6797 571.453 99.6797C568.895 99.6797 566.902 101.574 565.359 103.156V118H562ZM590.692 96.6719C593.016 96.6719 595.575 97.5703 597.118 100.52V88.0977H600.438V118H597.43L597.157 114.875C595.614 117.727 592.977 118.566 590.77 118.566C586.473 118.566 582.567 115.031 582.567 107.59C582.567 100.148 586.376 96.6719 590.692 96.6719ZM591.532 99.543C587.997 99.543 585.927 102.473 585.927 107.59C585.927 112.688 587.997 115.715 591.532 115.715C595.106 115.715 597.216 112.707 597.216 107.59C597.216 102.473 595.106 99.543 591.532 99.543ZM609.56 92.5117H605.771V88.625H609.56V92.5117ZM605.986 118V97.2578H609.345V118H605.986ZM614.873 118V97.2578H617.881L618.077 99.875C619.541 97.9414 621.612 96.6719 623.955 96.6719C626.182 96.6719 627.803 97.5898 628.799 99.8164C630.459 97.8047 632.705 96.6719 634.971 96.6719C639.053 96.6719 640.967 99.4648 640.967 103.312V118H637.608V103.977C637.608 100.852 636.397 99.6797 634.405 99.6797C632.51 99.6797 630.42 101.32 629.561 102.805C629.6 103.723 629.6 103.449 629.6 104.094V118H626.241V103.977C626.241 100.852 625.03 99.6797 623.037 99.6797C621.319 99.6797 619.6 100.949 618.233 102.844V118H614.873ZM649.874 92.5117H646.085V88.625H649.874V92.5117ZM646.3 118V97.2578H649.659V118H646.3ZM670.988 114.914C669.25 117.004 666.711 118.566 663.312 118.566C656.574 118.566 653.84 113.488 653.84 107.531C653.84 101.809 656.555 96.6719 662.766 96.6719C668.996 96.6719 671.535 101.789 671.535 108V108.762H657.316C657.473 113.547 659.953 115.715 663.41 115.715C665.695 115.715 667.395 114.641 668.918 112.863L670.988 114.914ZM662.766 99.543C658.977 99.543 657.473 102.629 657.355 106.066H668.078C667.98 102.629 666.516 99.543 662.766 99.543ZM675.598 118V97.2578H678.489L678.723 100.266C680.442 98.4102 682.649 96.6719 685.657 96.6719C689.485 96.6719 692.141 98.332 692.141 105.266V118H688.782V105.266C688.782 100.891 687.395 99.6797 685.052 99.6797C682.493 99.6797 680.501 101.574 678.958 103.156V118H675.598ZM697.24 91.457H700.599V97.2578H708.275V100.031H700.599V111.105C700.599 114.191 701.595 115.559 703.998 115.559C705.56 115.559 707.357 114.973 708.666 114.328L709.486 117.062C707.045 118.156 705.111 118.566 703.568 118.566C698.666 118.566 697.24 115.305 697.24 111.379V91.457ZM719.584 118.566C714.155 118.566 710.58 114.152 710.58 107.648C710.58 101.125 714.155 96.6719 719.584 96.6719C724.995 96.6719 728.569 101.125 728.569 107.648C728.569 114.152 724.995 118.566 719.584 118.566ZM719.584 115.715C723.295 115.715 725.209 112.688 725.209 107.648C725.209 102.629 723.295 99.543 719.584 99.543C715.854 99.543 713.94 102.629 713.94 107.648C713.94 112.688 715.854 115.715 719.584 115.715ZM735.679 118H731.655V113.918H735.679V118Z" fill="#141413"/>
</svg>
