<svg width="375" height="197" viewBox="0 0 375 197" fill="none" xmlns="http://www.w3.org/2000/svg">

<path d="M32.4023 10.5547H33.6094V14.1172H32.2617C32.1797 13.707 32.0273 13.332 31.7812 13.0039C31.3828 12.4531 30.6211 11.8789 29.2969 11.8789C27.1875 11.8789 26.9883 13.0977 26.9883 13.6602C26.9883 15.3125 28.2305 15.5703 30.1523 15.875C32.168 16.2266 34.2773 16.8477 34.2773 19.5547C34.2773 22.25 32.5078 23.3398 30.2578 23.3398C28.043 23.3398 26.8828 22.0977 26.4727 21.5L26.332 23H25.1484V19.2383H26.4844C26.6133 19.6953 26.8242 20.1172 27.1289 20.4805C27.6328 21.1133 28.5352 21.7109 30.0469 21.7109C31.5586 21.7109 32.4375 21.0781 32.4375 19.7539C32.4375 18.3008 31.3125 18.0195 29.5312 17.6797C27.5039 17.3047 25.2188 16.7656 25.2188 13.7773C25.2188 12.5938 25.6875 10.2383 29.0859 10.2383C31.043 10.2383 32.0156 11.1523 32.2734 11.7852L32.4023 10.5547ZM36.1702 23V21.3945H37.7639V12.1602H36.1702V10.5547H39.4631L39.5569 11.6445C40.2483 10.9766 41.6545 10.2383 43.0725 10.2383C44.2795 10.2383 44.8772 10.8828 45.2522 11.5039C45.7209 11.1289 47.1506 10.2383 48.8967 10.2383C51.135 10.2383 51.9319 12.1016 51.9319 13.8594V21.3945H53.3967V23H50.092V14.4102C50.092 13.2266 49.9631 11.9023 48.51 11.9023C47.3616 11.9023 45.9319 12.7812 45.7092 12.9102C45.8381 13.4609 45.8381 13.7773 45.8381 14.2344V21.3945H47.5256V23H43.9983V14.2344C43.9983 13.0859 43.7873 11.9023 42.4163 11.9023C41.76 11.9023 41.0686 12.207 40.5178 12.5C40.2014 12.6758 39.8967 12.8633 39.6038 13.0859V21.3945H41.303V23H36.1702ZM65.8833 21.3945V23H62.6958L62.5669 21.418C61.7466 22.3672 60.4458 23.3398 58.7466 23.3398C56.8716 23.3398 55.0669 22.2734 55.0669 19.4023C55.0669 16.625 56.9888 15.3945 59.895 15.3945H62.438V14.457C62.438 12.6758 61.313 11.8438 59.5083 11.8438C58.5708 11.8438 57.8091 12.0078 57.2583 12.1602C56.9419 12.2539 56.6489 12.3594 56.3794 12.4766L55.9341 10.9297C56.2739 10.8008 56.6489 10.6953 57.0356 10.5898C57.7036 10.4141 58.6177 10.2383 59.602 10.2383C62.3091 10.2383 64.2778 11.5625 64.2778 14.7734V21.3945H65.8833ZM59.0864 21.7109C60.3989 21.7109 61.6528 20.7148 62.438 19.8125V17H59.895C58.3364 17 56.9067 17.457 56.9067 19.4023C56.9067 21.2188 58.0903 21.7109 59.0864 21.7109ZM67.4948 12.1602V10.5547H70.6941L70.823 12.3008C71.8777 11.0938 72.9206 10.2383 74.3855 10.2383C74.8425 10.2383 75.2292 10.3555 75.5222 10.4609C75.698 10.5195 75.8503 10.5898 75.9909 10.6719L75.405 12.3242C75.2644 12.2656 75.1237 12.207 74.9831 12.1602C74.737 12.0781 74.4089 11.9961 74.1159 11.9961C72.4284 11.9961 71.4909 13.5547 70.9284 14.1758V21.3945H74.2448V23H67.4948V21.3945H69.0886V12.1602H67.4948ZM77.6142 19.0273V6.83984H79.4541V10.5547H83.6142V12.1602H79.4541V18.8281C79.4541 20.5273 79.8408 21.5586 81.2002 21.5586C81.8447 21.5586 82.4306 21.4062 82.8877 21.2305C83.1455 21.1367 83.3916 21.0195 83.6142 20.8906L84.0478 22.4375C83.7314 22.6133 83.3916 22.7656 83.0517 22.8945C82.4541 23.1172 81.6806 23.3398 80.9306 23.3398C78.083 23.3398 77.6142 21.2422 77.6142 19.0273ZM90.7983 11.9609V10.3555H93.8452L94.4077 4.95312H95.9897L95.4155 10.3555H98.5092L99.0717 4.95312H100.665L100.091 10.3555H102.576V11.9609H99.9155L99.4702 16.1328H102.576V17.7383H99.2827L98.6967 23.3398H97.103L97.7006 17.7383H94.6069L94.0209 23.3398H92.4272L93.0366 17.7383H90.7983V16.1328H93.2241L93.6694 11.9609H90.7983ZM95.2397 11.9609L94.7944 16.1328H97.8881L98.3334 11.9609H95.2397ZM103.789 21.793L104.902 20.4453C105.734 21.1953 106.847 21.6758 108.066 21.6758C110.457 21.6758 111.664 20.3516 111.664 18.5117C111.664 16.9648 110.75 15.5586 107.738 15.5586H106.847V13.9414H107.738C109.953 13.9414 111.101 12.8281 111.101 11.0938C111.101 9.27734 110.023 8.16406 107.879 8.16406C106.754 8.16406 105.757 8.65625 104.961 9.40625L103.824 8.08203C105.066 7.02734 106.73 6.47656 108.113 6.47656C111.523 6.47656 112.976 8.57422 112.976 10.8359C112.976 12.1016 112.531 13.9766 110.621 14.668C112.648 15.3242 113.55 16.9062 113.55 18.6289C113.55 21.8633 111.265 23.3398 108.324 23.3398C105.98 23.3398 104.574 22.4844 103.789 21.793Z" fill="white"/>
<path d="M28.2422 39.125C29.7969 39.125 30.9844 39.9062 31.6094 41.3906L30.3906 41.9375C30.0938 40.9922 29.3594 40.3047 28.2422 40.3047C27.0312 40.3047 26.2891 40.8047 26.2891 41.9375C26.2891 42.8047 26.8438 43.4609 28.4297 43.9922C30.5781 44.7109 31.8203 45.3594 31.8203 47.2422C31.8203 49.1172 30.5625 50.2266 28.2891 50.2266C26.6719 50.2266 25.5 49.5938 24.6875 48.4531L25.7812 47.6406C26.1094 48.2578 26.9766 49.0547 28.2891 49.0547C29.7812 49.0547 30.4062 48.3359 30.4062 47.3125C30.4062 46.1953 29.625 45.8281 28.0312 45.2734C26.1406 44.6328 24.875 43.8516 24.875 41.9453C24.875 40.4375 25.8125 39.125 28.2422 39.125ZM41.2422 39.3828V46.375C41.2422 48.7734 40.0781 50.2266 37.5469 50.2266C35.0234 50.2266 33.8516 48.7734 33.8516 46.375V39.3828H35.2109V46.375C35.2109 48.1797 35.9844 49.0234 37.5469 49.0234C39.1172 49.0234 39.8828 48.1797 39.8828 46.375V39.3828H41.2422ZM51.1094 39.3828L47.8672 50H46.1484L42.9141 39.3828H44.25L47.0156 48.7656L49.7734 39.3828H51.1094ZM55.0938 41.7031H56.2734V40.6797C56.2734 39.2578 56.9609 38.1328 58.7344 38.1328C59.2266 38.1328 59.8047 38.2109 60.375 38.3203L60.1641 39.4531C59.6016 39.3281 59.2188 39.2734 58.7344 39.2734C58.0781 39.2734 57.6172 39.6875 57.6172 40.6562V41.7031H59.5625V42.8125H57.6172V50H56.2734V42.8125H55.0938V41.7031ZM63.0547 50.2422C61.5625 50.2422 60.3359 49.5469 60.3359 47.6172C60.3359 45.5469 62.1016 44.9297 63.4766 44.9297H65.5234V44.3359C65.5234 43.1094 64.8203 42.5781 63.4922 42.5781C62.6641 42.5781 61.9609 42.7969 61.3047 43.0625L60.9688 41.9766C61.8281 41.6719 62.6953 41.4688 63.4922 41.4688C65.4453 41.4688 66.8672 42.2969 66.8672 44.5V50H65.7344L65.6328 49C65.1641 49.5859 64.1172 50.2422 63.0547 50.2422ZM63.2422 49.0938C64.1328 49.0938 64.9844 48.4766 65.5234 47.8906V46H63.7578C62.4141 46 61.6797 46.5938 61.6797 47.6172C61.6797 48.6406 62.2812 49.0938 63.2422 49.0938ZM71.7422 41.4688C72.9062 41.4688 73.9062 41.875 74.7344 42.8984L73.8438 43.6641C73.2656 42.9219 72.5703 42.6172 71.8047 42.6172C70.6875 42.6172 70.2109 43.0938 70.2109 43.7891C70.2109 44.5625 70.6641 44.9453 72.3672 45.2578C74.3828 45.6406 75.1641 46.4219 75.1641 47.7578C75.1641 49.3047 74.0391 50.2266 72.0234 50.2266C70.5547 50.2266 69.3828 49.5938 68.6406 48.7344L69.5 47.8906C70.1406 48.6406 70.9609 49.0859 72.0234 49.0859C73.2422 49.0859 73.8203 48.5625 73.8203 47.7812C73.8203 47.0781 73.2734 46.6094 71.8047 46.3281C69.5156 45.8906 68.8672 45.0938 68.8672 43.8281C68.8672 42.5469 69.8281 41.4688 71.7422 41.4688ZM76.8984 39.3828H78.2422V41.7031H81.3125V42.8125H78.2422V47.2422C78.2422 48.4766 78.6406 49.0234 79.6016 49.0234C80.2266 49.0234 80.9453 48.7891 81.4688 48.5312L81.7969 49.625C80.8203 50.0625 80.0469 50.2266 79.4297 50.2266C77.4688 50.2266 76.8984 48.9219 76.8984 47.3516V39.3828ZM87.1328 41.4688C88.8594 41.4688 90.3828 42.8594 90.3828 45.8359C90.3828 48.8125 88.8281 50.2266 87.1016 50.2266C86.2266 50.2266 85.1641 49.8906 84.5469 48.75L84.4453 50H83.2344V38.0391H84.5703V43.0078C85.1797 41.8281 86.2031 41.4688 87.1328 41.4688ZM86.7969 42.6172C85.3672 42.6172 84.5234 43.7891 84.5234 45.8359C84.5234 47.8828 85.3672 49.0859 86.7969 49.0859C88.2188 49.0859 89.0391 47.875 89.0391 45.8359C89.0391 43.7891 88.2188 42.6172 86.7969 42.6172ZM94.4609 50.2422C92.9688 50.2422 91.7422 49.5469 91.7422 47.6172C91.7422 45.5469 93.5078 44.9297 94.8828 44.9297H96.9297V44.3359C96.9297 43.1094 96.2266 42.5781 94.8984 42.5781C94.0703 42.5781 93.3672 42.7969 92.7109 43.0625L92.375 41.9766C93.2344 41.6719 94.1016 41.4688 94.8984 41.4688C96.8516 41.4688 98.2734 42.2969 98.2734 44.5V50H97.1406L97.0391 49C96.5703 49.5859 95.5234 50.2422 94.4609 50.2422ZM94.6484 49.0938C95.5391 49.0938 96.3906 48.4766 96.9297 47.8906V46H95.1641C93.8203 46 93.0859 46.5938 93.0859 47.6172C93.0859 48.6406 93.6875 49.0938 94.6484 49.0938ZM106.703 48.7422C105.938 49.7344 105.078 50.2266 103.805 50.2266C101.656 50.2266 100.18 48.6094 100.18 45.8594C100.18 43.3672 101.516 41.4688 103.828 41.4688C105.102 41.4688 105.938 41.9844 106.703 42.9844L105.852 43.7812C105.352 43.0938 104.766 42.6172 103.828 42.6172C102.336 42.6172 101.523 43.8672 101.523 45.8594C101.523 47.8516 102.344 49.0859 103.898 49.0859C104.797 49.0859 105.352 48.6328 105.852 47.9453L106.703 48.7422ZM114 50L111.5 46.2578L109.859 48.1953V50H108.516V38.1328H109.859V46.4609L113.703 41.7031H115.289L112.32 45.3125L115.484 50H114ZM120.266 40.5547L123.445 39.3828H124.328V48.8906H126.469V50H120.844V48.8906H122.984V40.8125L120.641 41.6406L120.266 40.5547ZM131.578 50.2266C129.195 50.2266 128.102 48.3359 128.102 44.8125C128.102 41.2969 129.195 39.0547 131.578 39.0547C133.953 39.0547 135.055 41.2969 135.055 44.8125C135.055 48.3359 133.953 50.2266 131.578 50.2266ZM131.578 49.0859C132.922 49.0859 133.734 47.9844 133.734 44.8125C133.734 41.6484 132.922 40.1953 131.578 40.1953C130.234 40.1953 129.414 41.6484 129.414 44.8125C129.414 47.9844 130.234 49.0859 131.578 49.0859ZM139.891 50.2266C137.508 50.2266 136.414 48.3359 136.414 44.8125C136.414 41.2969 137.508 39.0547 139.891 39.0547C142.266 39.0547 143.367 41.2969 143.367 44.8125C143.367 48.3359 142.266 50.2266 139.891 50.2266ZM139.891 49.0859C141.234 49.0859 142.047 47.9844 142.047 44.8125C142.047 41.6484 141.234 40.1953 139.891 40.1953C138.547 40.1953 137.727 41.6484 137.727 44.8125C137.727 47.9844 138.547 49.0859 139.891 49.0859ZM146.648 43.9219C145.258 43.9219 144.516 42.6953 144.516 41.4609C144.516 40.2266 145.273 38.9922 146.648 38.9922C148.039 38.9922 148.781 40.2266 148.781 41.4609C148.781 42.6953 148.039 43.9219 146.648 43.9219ZM151.633 39.2969H152.68L146.953 50H145.906L151.633 39.2969ZM146.648 42.9531C147.383 42.9531 147.758 42.3125 147.758 41.4609C147.758 40.6094 147.383 39.9688 146.648 39.9688C145.922 39.9688 145.539 40.6094 145.539 41.4609C145.539 42.3125 145.922 42.9531 146.648 42.9531ZM152.039 50.2266C150.648 50.2266 149.906 49 149.906 47.7656C149.906 46.5312 150.664 45.2969 152.039 45.2969C153.43 45.2969 154.172 46.5312 154.172 47.7656C154.172 49 153.43 50.2266 152.039 50.2266ZM152.039 49.25C152.773 49.25 153.148 48.6172 153.148 47.7656C153.148 46.9062 152.773 46.2734 152.039 46.2734C151.312 46.2734 150.93 46.9062 150.93 47.7656C150.93 48.6172 151.312 49.25 152.039 49.25ZM165.727 48.7656C165.031 49.6016 164.016 50.2266 162.656 50.2266C159.961 50.2266 158.867 48.1953 158.867 45.8125C158.867 43.5234 159.953 41.4688 162.438 41.4688C164.93 41.4688 165.945 43.5156 165.945 46V46.3047H160.258C160.32 48.2188 161.312 49.0859 162.695 49.0859C163.609 49.0859 164.289 48.6562 164.898 47.9453L165.727 48.7656ZM162.438 42.6172C160.922 42.6172 160.32 43.8516 160.273 45.2266H164.562C164.523 43.8516 163.938 42.6172 162.438 42.6172ZM167.891 50V38.1328H169.234V50H167.891ZM175.719 36.9453H177.242L174.977 39.8047H173.734L175.719 36.9453ZM178.086 48.7656C177.391 49.6016 176.375 50.2266 175.016 50.2266C172.32 50.2266 171.227 48.1953 171.227 45.8125C171.227 43.5234 172.312 41.4688 174.797 41.4688C177.289 41.4688 178.305 43.5156 178.305 46V46.3047H172.617C172.68 48.2188 173.672 49.0859 175.055 49.0859C175.969 49.0859 176.648 48.6562 177.258 47.9453L178.086 48.7656ZM174.797 42.6172C173.281 42.6172 172.68 43.8516 172.633 45.2266H176.922C176.883 43.8516 176.297 42.6172 174.797 42.6172ZM186.234 48.7422C185.469 49.7344 184.609 50.2266 183.336 50.2266C181.188 50.2266 179.711 48.6094 179.711 45.8594C179.711 43.3672 181.047 41.4688 183.359 41.4688C184.633 41.4688 185.469 41.9844 186.234 42.9844L185.383 43.7812C184.883 43.0938 184.297 42.6172 183.359 42.6172C181.867 42.6172 181.055 43.8672 181.055 45.8594C181.055 47.8516 181.875 49.0859 183.43 49.0859C184.328 49.0859 184.883 48.6328 185.383 47.9453L186.234 48.7422ZM187.961 39.3828H189.305V41.7031H192.375V42.8125H189.305V47.2422C189.305 48.4766 189.703 49.0234 190.664 49.0234C191.289 49.0234 192.008 48.7891 192.531 48.5312L192.859 49.625C191.883 50.0625 191.109 50.2266 190.492 50.2266C188.531 50.2266 187.961 48.9219 187.961 47.3516V39.3828ZM194.297 41.7031H195.438L195.539 42.8203C196.289 41.8906 196.969 41.4688 197.711 41.4688C198.141 41.4688 198.57 41.5781 198.945 41.75L198.547 42.9062C198.312 42.8047 197.922 42.6562 197.57 42.6562C196.891 42.6562 196.266 43.1406 195.641 44.125V50H194.297V41.7031ZM201.836 39.8047H200.32V38.25H201.836V39.8047ZM200.406 50V41.7031H201.75V50H200.406ZM210.266 48.7422C209.5 49.7344 208.641 50.2266 207.367 50.2266C205.219 50.2266 203.742 48.6094 203.742 45.8594C203.742 43.3672 205.078 41.4688 207.391 41.4688C208.664 41.4688 209.5 41.9844 210.266 42.9844L209.414 43.7812C208.914 43.0938 208.328 42.6172 207.391 42.6172C205.898 42.6172 205.086 43.8672 205.086 45.8594C205.086 47.8516 205.906 49.0859 207.461 49.0859C208.359 49.0859 208.914 48.6328 209.414 47.9453L210.266 48.7422ZM215.047 50.2266C212.875 50.2266 211.445 48.4609 211.445 45.8594C211.445 43.25 212.875 41.4688 215.047 41.4688C217.211 41.4688 218.641 43.25 218.641 45.8594C218.641 48.4609 217.211 50.2266 215.047 50.2266ZM215.047 49.0859C216.531 49.0859 217.297 47.875 217.297 45.8594C217.297 43.8516 216.531 42.6172 215.047 42.6172C213.555 42.6172 212.789 43.8516 212.789 45.8594C212.789 47.875 213.555 49.0859 215.047 49.0859ZM221.805 50H220.195V48.3672H221.805V50ZM31.3828 76V71.1641H26.7422V76H25.3828V65.3828H26.7422V69.9844H31.3828V65.3828H32.75V76H31.3828ZM37.4609 76.2422C35.9688 76.2422 34.7422 75.5469 34.7422 73.6172C34.7422 71.5469 36.5078 70.9297 37.8828 70.9297H39.9297V70.3359C39.9297 69.1094 39.2266 68.5781 37.8984 68.5781C37.0703 68.5781 36.3672 68.7969 35.7109 69.0625L35.375 67.9766C36.2344 67.6719 37.1016 67.4688 37.8984 67.4688C39.8516 67.4688 41.2734 68.2969 41.2734 70.5V76H40.1406L40.0391 75C39.5703 75.5859 38.5234 76.2422 37.4609 76.2422ZM37.6484 75.0938C38.5391 75.0938 39.3906 74.4766 39.9297 73.8906V72H38.1641C36.8203 72 36.0859 72.5938 36.0859 73.6172C36.0859 74.6406 36.6875 75.0938 37.6484 75.0938ZM46.1484 67.4688C47.3125 67.4688 48.3125 67.875 49.1406 68.8984L48.25 69.6641C47.6719 68.9219 46.9766 68.6172 46.2109 68.6172C45.0938 68.6172 44.6172 69.0938 44.6172 69.7891C44.6172 70.5625 45.0703 70.9453 46.7734 71.2578C48.7891 71.6406 49.5703 72.4219 49.5703 73.7578C49.5703 75.3047 48.4453 76.2266 46.4297 76.2266C44.9609 76.2266 43.7891 75.5938 43.0469 74.7344L43.9062 73.8906C44.5469 74.6406 45.3672 75.0859 46.4297 75.0859C47.6484 75.0859 48.2266 74.5625 48.2266 73.7812C48.2266 73.0781 47.6797 72.6094 46.2109 72.3281C43.9219 71.8906 43.2734 71.0938 43.2734 69.8281C43.2734 68.5469 44.2344 67.4688 46.1484 67.4688ZM51.3047 65.3828H52.6484V67.7031H55.7188V68.8125H52.6484V73.2422C52.6484 74.4766 53.0469 75.0234 54.0078 75.0234C54.6328 75.0234 55.3516 74.7891 55.875 74.5312L56.2031 75.625C55.2266 76.0625 54.4531 76.2266 53.8359 76.2266C51.875 76.2266 51.3047 74.9219 51.3047 73.3516V65.3828ZM59.6953 76.2422C58.2031 76.2422 56.9766 75.5469 56.9766 73.6172C56.9766 71.5469 58.7422 70.9297 60.1172 70.9297H62.1641V70.3359C62.1641 69.1094 61.4609 68.5781 60.1328 68.5781C59.3047 68.5781 58.6016 68.7969 57.9453 69.0625L57.6094 67.9766C58.4688 67.6719 59.3359 67.4688 60.1328 67.4688C62.0859 67.4688 63.5078 68.2969 63.5078 70.5V76H62.375L62.2734 75C61.8047 75.5859 60.7578 76.2422 59.6953 76.2422ZM59.8828 75.0938C60.7734 75.0938 61.625 74.4766 62.1641 73.8906V72H60.3984C59.0547 72 58.3203 72.5938 58.3203 73.6172C58.3203 74.6406 58.9219 75.0938 59.8828 75.0938ZM74.8906 66.4062H71.1641L70.6484 69.6172C71.0781 69.3594 71.6562 69.125 72.4062 69.125C74.1875 69.125 75.4688 70.3906 75.4688 72.5C75.4688 74.6016 74.3281 76.2266 72.0156 76.2266C70.8828 76.2266 69.9531 75.8594 69.1172 75.1719L69.875 74.2109C70.4375 74.7344 71.1562 75.0859 71.9922 75.0859C73.3828 75.0859 74.2031 74.0703 74.2031 72.5391C74.2031 71.3984 73.625 70.3125 71.9219 70.3125C71.25 70.3125 70.5312 70.6562 70.0469 71.0078L69.4062 70.4219L70.2344 65.2969H74.8906V66.4062ZM78.1797 74.3672C78.7422 74.8125 79.3672 75.0859 80.1328 75.0859C81.5469 75.0859 82.6328 73.9609 82.6328 71.1406C82.0859 71.7266 81.1875 72.1719 80.1953 72.1719C78.4531 72.1719 77.2188 70.9453 77.2188 68.75C77.2188 65.8828 79.1172 65.0547 80.4062 65.0547C82.5781 65.0547 83.9531 66.5859 83.9531 70.3906C83.9531 74.3594 82.4297 76.2266 80.125 76.2266C79.0156 76.2266 78.2656 75.875 77.4922 75.3281L78.1797 74.3672ZM82.6328 69.7422C82.6328 67.2188 81.6719 66.2031 80.3906 66.2031C79.2031 66.2031 78.4922 67.1797 78.4922 68.75C78.4922 70.1016 79.25 71.0156 80.3906 71.0156C81.4297 71.0156 82.1797 70.4219 82.6328 69.7422ZM85.8672 68.5703V65.3828H92.3203V66.4922L88.625 76H87.3047L91.0312 66.4922H87.1016V68.5703H85.8672ZM103.375 76L100.875 72.2578L99.2344 74.1953V76H97.8906V64.1328H99.2344V72.4609L103.078 67.7031H104.664L101.695 71.3125L104.859 76H103.375ZM106.25 76V67.7031H107.453L107.531 68.75C108.117 67.9766 108.945 67.4688 109.883 67.4688C110.773 67.4688 111.422 67.8359 111.82 68.7266C112.484 67.9219 113.383 67.4688 114.289 67.4688C115.922 67.4688 116.688 68.5859 116.688 70.125V76H115.344V70.3906C115.344 69.1406 114.859 68.6719 114.062 68.6719C113.305 68.6719 112.469 69.3281 112.125 69.9219C112.141 70.2891 112.141 70.1797 112.141 70.4375V76H110.797V70.3906C110.797 69.1406 110.312 68.6719 109.516 68.6719C108.828 68.6719 108.141 69.1797 107.594 69.9375V76H106.25ZM125.375 67.4688C126.305 67.4688 127.328 67.8281 127.945 69.0078V64.0391H129.273V76H128.07L127.961 74.75C127.344 75.8906 126.289 76.2266 125.406 76.2266C123.688 76.2266 122.125 74.8125 122.125 71.8359C122.125 68.8594 123.648 67.4688 125.375 67.4688ZM125.711 68.6172C124.297 68.6172 123.469 69.7891 123.469 71.8359C123.469 73.875 124.297 75.0859 125.711 75.0859C127.141 75.0859 127.984 73.8828 127.984 71.8359C127.984 69.7891 127.141 68.6172 125.711 68.6172ZM138.133 74.7656C137.438 75.6016 136.422 76.2266 135.062 76.2266C132.367 76.2266 131.273 74.1953 131.273 71.8125C131.273 69.5234 132.359 67.4688 134.844 67.4688C137.336 67.4688 138.352 69.5156 138.352 72V72.3047H132.664C132.727 74.2188 133.719 75.0859 135.102 75.0859C136.016 75.0859 136.695 74.6562 137.305 73.9453L138.133 74.7656ZM134.844 68.6172C133.328 68.6172 132.727 69.8516 132.68 71.2266H136.969C136.93 69.8516 136.344 68.6172 134.844 68.6172ZM145.852 76.2422C144.359 76.2422 143.133 75.5469 143.133 73.6172C143.133 71.5469 144.898 70.9297 146.273 70.9297H148.32V70.3359C148.32 69.1094 147.617 68.5781 146.289 68.5781C145.461 68.5781 144.758 68.7969 144.102 69.0625L143.766 67.9766C144.625 67.6719 145.492 67.4688 146.289 67.4688C148.242 67.4688 149.664 68.2969 149.664 70.5V76H148.531L148.43 75C147.961 75.5859 146.914 76.2422 145.852 76.2422ZM146.039 75.0938C146.93 75.0938 147.781 74.4766 148.32 73.8906V72H146.555C145.211 72 144.477 72.5938 144.477 73.6172C144.477 74.6406 145.078 75.0938 146.039 75.0938ZM158.641 67.7031V76H157.477L157.383 74.7969C156.695 75.5391 155.812 76.2344 154.609 76.2344C153.078 76.2344 152.016 75.5703 152.016 72.7969V67.7031H153.359V72.7969C153.359 74.5391 153.914 75.0312 154.852 75.0312C155.883 75.0312 156.672 74.2734 157.297 73.6406V67.7031H158.641ZM161.086 65.3828H162.43V67.7031H165.5V68.8125H162.43V73.2422C162.43 74.4766 162.828 75.0234 163.789 75.0234C164.414 75.0234 165.133 74.7891 165.656 74.5312L165.984 75.625C165.008 76.0625 164.234 76.2266 163.617 76.2266C161.656 76.2266 161.086 74.9219 161.086 73.3516V65.3828ZM170.344 76.2266C168.172 76.2266 166.742 74.4609 166.742 71.8594C166.742 69.25 168.172 67.4688 170.344 67.4688C172.508 67.4688 173.938 69.25 173.938 71.8594C173.938 74.4609 172.508 76.2266 170.344 76.2266ZM170.344 75.0859C171.828 75.0859 172.594 73.875 172.594 71.8594C172.594 69.8516 171.828 68.6172 170.344 68.6172C168.852 68.6172 168.086 69.8516 168.086 71.8594C168.086 73.875 168.852 75.0859 170.344 75.0859ZM175.938 76V67.7031H177.094L177.188 68.9062C177.875 68.1641 178.758 67.4688 179.961 67.4688C181.492 67.4688 182.555 68.1328 182.555 70.9062V76H181.211V70.9062C181.211 69.1562 180.656 68.6719 179.719 68.6719C178.695 68.6719 177.898 69.4297 177.281 70.0625V76H175.938ZM188.062 76.2266C185.891 76.2266 184.461 74.4609 184.461 71.8594C184.461 69.25 185.891 67.4688 188.062 67.4688C190.227 67.4688 191.656 69.25 191.656 71.8594C191.656 74.4609 190.227 76.2266 188.062 76.2266ZM188.062 75.0859C189.547 75.0859 190.312 73.875 190.312 71.8594C190.312 69.8516 189.547 68.6172 188.062 68.6172C186.57 68.6172 185.805 69.8516 185.805 71.8594C185.805 73.875 186.57 75.0859 188.062 75.0859ZM193.656 76V67.7031H194.859L194.938 68.75C195.523 67.9766 196.352 67.4688 197.289 67.4688C198.18 67.4688 198.828 67.8359 199.227 68.7266C199.891 67.9219 200.789 67.4688 201.695 67.4688C203.328 67.4688 204.094 68.5859 204.094 70.125V76H202.75V70.3906C202.75 69.1406 202.266 68.6719 201.469 68.6719C200.711 68.6719 199.875 69.3281 199.531 69.9219C199.547 70.2891 199.547 70.1797 199.547 70.4375V76H198.203V70.3906C198.203 69.1406 197.719 68.6719 196.922 68.6719C196.234 68.6719 195.547 69.1797 195 69.9375V76H193.656ZM208.531 62.9453H210.055L207.789 65.8047H206.547L208.531 62.9453ZM206.547 76V67.7031H207.891V76H206.547ZM212.477 76.2422C210.984 76.2422 209.758 75.5469 209.758 73.6172C209.758 71.5469 211.523 70.9297 212.898 70.9297H214.945V70.3359C214.945 69.1094 214.242 68.5781 212.914 68.5781C212.086 68.5781 211.383 68.7969 210.727 69.0625L210.391 67.9766C211.25 67.6719 212.117 67.4688 212.914 67.4688C214.867 67.4688 216.289 68.2969 216.289 70.5V76H215.156L215.055 75C214.586 75.5859 213.539 76.2422 212.477 76.2422ZM212.664 75.0938C213.555 75.0938 214.406 74.4766 214.945 73.8906V72H213.18C211.836 72 211.102 72.5938 211.102 73.6172C211.102 74.6406 211.703 75.0938 212.664 75.0938ZM232.984 65.3828L230.57 76H228.891L227.086 69.2891L225.281 76H223.602L221.211 65.3828H222.547L224.523 74.8047L226.328 67.7031H227.852L229.656 74.8125L231.617 65.3828H232.984ZM234.883 76V65.3828H236.242V74.8594H241.07V76H234.883ZM243.57 76V66.5234H240.195V65.3828H248.297V66.5234H244.93V76H243.57ZM257.219 68.6641C257.219 70.7266 256.031 71.8906 253.188 71.8906H251.383V76.0078H250.023V65.3828H253.188C256.031 65.3828 257.219 66.6016 257.219 68.6641ZM251.383 66.5234V70.7344H253.188C254.961 70.7344 255.773 70.0781 255.773 68.6641C255.773 67.25 254.961 66.5234 253.188 66.5234H251.383ZM268.508 67.7031L263.734 79.3828H262.297L263.891 75.4531L260.742 67.7031H262.188L264.641 73.9844L267.117 67.7031H268.508ZM276 76.2266C273.617 76.2266 272.523 74.3359 272.523 70.8125C272.523 67.2969 273.617 65.0547 276 65.0547C278.375 65.0547 279.477 67.2969 279.477 70.8125C279.477 74.3359 278.375 76.2266 276 76.2266ZM276 75.0859C277.344 75.0859 278.156 73.9844 278.156 70.8125C278.156 67.6484 277.344 66.1953 276 66.1953C274.656 66.1953 273.836 67.6484 273.836 70.8125C273.836 73.9844 274.656 75.0859 276 75.0859ZM286.977 76.2422C285.484 76.2422 284.258 75.5469 284.258 73.6172C284.258 71.5469 286.023 70.9297 287.398 70.9297H289.445V70.3359C289.445 69.1094 288.742 68.5781 287.414 68.5781C286.586 68.5781 285.883 68.7969 285.227 69.0625L284.891 67.9766C285.75 67.6719 286.617 67.4688 287.414 67.4688C289.367 67.4688 290.789 68.2969 290.789 70.5V76H289.656L289.555 75C289.086 75.5859 288.039 76.2422 286.977 76.2422ZM287.164 75.0938C288.055 75.0938 288.906 74.4766 289.445 73.8906V72H287.68C286.336 72 285.602 72.5938 285.602 73.6172C285.602 74.6406 286.203 75.0938 287.164 75.0938ZM296.625 66.5547L299.805 65.3828H300.688V74.8906H302.828V76H297.203V74.8906H299.344V66.8125L297 67.6406L296.625 66.5547ZM307.938 76.2266C305.555 76.2266 304.461 74.3359 304.461 70.8125C304.461 67.2969 305.555 65.0547 307.938 65.0547C310.312 65.0547 311.414 67.2969 311.414 70.8125C311.414 74.3359 310.312 76.2266 307.938 76.2266ZM307.938 75.0859C309.281 75.0859 310.094 73.9844 310.094 70.8125C310.094 67.6484 309.281 66.1953 307.938 66.1953C306.594 66.1953 305.773 67.6484 305.773 70.8125C305.773 73.9844 306.594 75.0859 307.938 75.0859ZM316.25 76.2266C313.867 76.2266 312.773 74.3359 312.773 70.8125C312.773 67.2969 313.867 65.0547 316.25 65.0547C318.625 65.0547 319.727 67.2969 319.727 70.8125C319.727 74.3359 318.625 76.2266 316.25 76.2266ZM316.25 75.0859C317.594 75.0859 318.406 73.9844 318.406 70.8125C318.406 67.6484 317.594 66.1953 316.25 66.1953C314.906 66.1953 314.086 67.6484 314.086 70.8125C314.086 73.9844 314.906 75.0859 316.25 75.0859ZM331.492 74.7656C330.797 75.6016 329.781 76.2266 328.422 76.2266C325.727 76.2266 324.633 74.1953 324.633 71.8125C324.633 69.5234 325.719 67.4688 328.203 67.4688C330.695 67.4688 331.711 69.5156 331.711 72V72.3047H326.023C326.086 74.2188 327.078 75.0859 328.461 75.0859C329.375 75.0859 330.055 74.6562 330.664 73.9453L331.492 74.7656ZM328.203 68.6172C326.688 68.6172 326.086 69.8516 326.039 71.2266H330.328C330.289 69.8516 329.703 68.6172 328.203 68.6172ZM333.656 76V67.7031H334.812L334.906 68.9062C335.594 68.1641 336.477 67.4688 337.68 67.4688C339.211 67.4688 340.273 68.1328 340.273 70.9062V76H338.93V70.9062C338.93 69.1562 338.375 68.6719 337.438 68.6719C336.414 68.6719 335.617 69.4297 335 70.0625V76H333.656ZM25.5703 96.2344C26.1172 96.7344 26.8984 97.0859 27.8438 97.0859C29.2734 97.0859 29.9219 96.2109 29.9219 95.0938C29.9219 93.8047 28.9297 93.125 27.4766 93.125H26.9219V92.0156H27.4766C28.7031 92.0156 29.5781 91.3359 29.5781 90.1016C29.5781 88.7266 28.625 88.1953 27.6484 88.1953C26.8984 88.1953 26.1797 88.5156 25.6172 89.0703L24.8516 88.1484C25.6875 87.4062 26.6641 87.0547 27.7656 87.0547C29.9531 87.0547 30.8281 88.4766 30.8281 89.9766C30.8281 90.8906 30.4375 92.1172 29.25 92.5234C30.4375 92.8828 31.2109 93.875 31.2109 95.1562C31.2109 97.3203 29.7266 98.2266 27.9766 98.2266C26.5547 98.2266 25.5859 97.8516 24.8203 97.1719L25.5703 96.2344ZM35.2109 96.0703L33.4062 101.062H32.1406L33.6172 96.0703H35.2109ZM37.1484 90.5703V87.3828H43.6016V88.4922L39.9062 98H38.5859L42.3125 88.4922H38.3828V90.5703H37.1484ZM51.6016 89.4688C52.7656 89.4688 53.7656 89.875 54.5938 90.8984L53.7031 91.6641C53.125 90.9219 52.4297 90.6172 51.6641 90.6172C50.5469 90.6172 50.0703 91.0938 50.0703 91.7891C50.0703 92.5625 50.5234 92.9453 52.2266 93.2578C54.2422 93.6406 55.0234 94.4219 55.0234 95.7578C55.0234 97.3047 53.8984 98.2266 51.8828 98.2266C50.4141 98.2266 49.2422 97.5938 48.5 96.7344L49.3594 95.8906C50 96.6406 50.8203 97.0859 51.8828 97.0859C53.1016 97.0859 53.6797 96.5625 53.6797 95.7812C53.6797 95.0781 53.1328 94.6094 51.6641 94.3281C49.375 93.8906 48.7266 93.0938 48.7266 91.8281C48.7266 90.5469 49.6875 89.4688 51.6016 89.4688ZM63.1641 96.7656C62.4688 97.6016 61.4531 98.2266 60.0938 98.2266C57.3984 98.2266 56.3047 96.1953 56.3047 93.8125C56.3047 91.5234 57.3906 89.4688 59.875 89.4688C62.3672 89.4688 63.3828 91.5156 63.3828 94V94.3047H57.6953C57.7578 96.2188 58.75 97.0859 60.1328 97.0859C61.0469 97.0859 61.7266 96.6562 62.3359 95.9453L63.1641 96.7656ZM59.875 90.6172C58.3594 90.6172 57.7578 91.8516 57.7109 93.2266H62C61.9609 91.8516 61.375 90.6172 59.875 90.6172ZM68.1172 89.4688C69.1641 89.4688 70.0625 89.9219 70.6406 91.0078V89.7031H71.9141V98.0078C71.9141 100.344 70.3828 101.367 68.0469 101.367H65.9609V100.258H68.0703C69.7734 100.258 70.5703 99.4375 70.5703 97.9062V96.6875C70.1172 97.6562 69.2656 98.125 68.0703 98.125C66.4062 98.125 64.8125 96.7656 64.8125 93.8125C64.8125 90.8594 66.3438 89.4688 68.1172 89.4688ZM68.4297 90.6172C66.9375 90.6172 66.1406 91.8594 66.1406 93.8125C66.1406 95.7578 66.9375 96.9453 68.4297 96.9453C69.9219 96.9453 70.6797 95.7734 70.6797 93.8125C70.6797 91.8672 69.9297 90.6172 68.4297 90.6172ZM80.9688 89.7031V98H79.8047L79.7109 96.7969C79.0234 97.5391 78.1406 98.2344 76.9375 98.2344C75.4062 98.2344 74.3438 97.5703 74.3438 94.7969V89.7031H75.6875V94.7969C75.6875 96.5391 76.2422 97.0312 77.1797 97.0312C78.2109 97.0312 79 96.2734 79.625 95.6406V89.7031H80.9688ZM83.5 98V89.7031H84.6562L84.75 90.9062C85.4375 90.1641 86.3203 89.4688 87.5234 89.4688C89.0547 89.4688 90.1172 90.1328 90.1172 92.9062V98H88.7734V92.9062C88.7734 91.1562 88.2188 90.6719 87.2812 90.6719C86.2578 90.6719 85.4609 91.4297 84.8438 92.0625V98H83.5ZM95.2969 89.4688C96.2266 89.4688 97.25 89.8281 97.8672 91.0078V86.0391H99.1953V98H97.9922L97.8828 96.75C97.2656 97.8906 96.2109 98.2266 95.3281 98.2266C93.6094 98.2266 92.0469 96.8125 92.0469 93.8359C92.0469 90.8594 93.5703 89.4688 95.2969 89.4688ZM95.6328 90.6172C94.2188 90.6172 93.3906 91.7891 93.3906 93.8359C93.3906 95.875 94.2188 97.0859 95.6328 97.0859C97.0625 97.0859 97.9062 95.8828 97.9062 93.8359C97.9062 91.7891 97.0625 90.6172 95.6328 90.6172ZM104.797 98.2266C102.625 98.2266 101.195 96.4609 101.195 93.8594C101.195 91.25 102.625 89.4688 104.797 89.4688C106.961 89.4688 108.391 91.25 108.391 93.8594C108.391 96.4609 106.961 98.2266 104.797 98.2266ZM104.797 97.0859C106.281 97.0859 107.047 95.875 107.047 93.8594C107.047 91.8516 106.281 90.6172 104.797 90.6172C103.305 90.6172 102.539 91.8516 102.539 93.8594C102.539 95.875 103.305 97.0859 104.797 97.0859ZM112.82 89.4688C113.984 89.4688 114.984 89.875 115.812 90.8984L114.922 91.6641C114.344 90.9219 113.648 90.6172 112.883 90.6172C111.766 90.6172 111.289 91.0938 111.289 91.7891C111.289 92.5625 111.742 92.9453 113.445 93.2578C115.461 93.6406 116.242 94.4219 116.242 95.7578C116.242 97.3047 115.117 98.2266 113.102 98.2266C111.633 98.2266 110.461 97.5938 109.719 96.7344L110.578 95.8906C111.219 96.6406 112.039 97.0859 113.102 97.0859C114.32 97.0859 114.898 96.5625 114.898 95.7812C114.898 95.0781 114.352 94.6094 112.883 94.3281C110.594 93.8906 109.945 93.0938 109.945 91.8281C109.945 90.5469 110.906 89.4688 112.82 89.4688ZM127.883 96.7656C127.188 97.6016 126.172 98.2266 124.812 98.2266C122.117 98.2266 121.023 96.1953 121.023 93.8125C121.023 91.5234 122.109 89.4688 124.594 89.4688C127.086 89.4688 128.102 91.5156 128.102 94V94.3047H122.414C122.477 96.2188 123.469 97.0859 124.852 97.0859C125.766 97.0859 126.445 96.6562 127.055 95.9453L127.883 96.7656ZM124.594 90.6172C123.078 90.6172 122.477 91.8516 122.43 93.2266H126.719C126.68 91.8516 126.094 90.6172 124.594 90.6172ZM130.047 98V89.7031H131.203L131.297 90.9062C131.984 90.1641 132.867 89.4688 134.07 89.4688C135.602 89.4688 136.664 90.1328 136.664 92.9062V98H135.32V92.9062C135.32 91.1562 134.766 90.6719 133.828 90.6719C132.805 90.6719 132.008 91.4297 131.391 92.0625V98H130.047ZM145.039 89.4688C146.203 89.4688 147.203 89.875 148.031 90.8984L147.141 91.6641C146.562 90.9219 145.867 90.6172 145.102 90.6172C143.984 90.6172 143.508 91.0938 143.508 91.7891C143.508 92.5625 143.961 92.9453 145.664 93.2578C147.68 93.6406 148.461 94.4219 148.461 95.7578C148.461 97.3047 147.336 98.2266 145.32 98.2266C143.852 98.2266 142.68 97.5938 141.938 96.7344L142.797 95.8906C143.438 96.6406 144.258 97.0859 145.32 97.0859C146.539 97.0859 147.117 96.5625 147.117 95.7812C147.117 95.0781 146.57 94.6094 145.102 94.3281C142.812 93.8906 142.164 93.0938 142.164 91.8281C142.164 90.5469 143.125 89.4688 145.039 89.4688ZM156.812 89.7031V98H155.648L155.555 96.7969C154.867 97.5391 153.984 98.2344 152.781 98.2344C151.25 98.2344 150.188 97.5703 150.188 94.7969V89.7031H151.531V94.7969C151.531 96.5391 152.086 97.0312 153.023 97.0312C154.055 97.0312 154.844 96.2734 155.469 95.6406V89.7031H156.812ZM169.164 89.7031L166.125 98H164.586L161.555 89.7031H162.922L165.359 96.6562L167.781 89.7031H169.164ZM176.898 96.7656C176.203 97.6016 175.188 98.2266 173.828 98.2266C171.133 98.2266 170.039 96.1953 170.039 93.8125C170.039 91.5234 171.125 89.4688 173.609 89.4688C176.102 89.4688 177.117 91.5156 177.117 94V94.3047H171.43C171.492 96.2188 172.484 97.0859 173.867 97.0859C174.781 97.0859 175.461 96.6562 176.07 95.9453L176.898 96.7656ZM173.609 90.6172C172.094 90.6172 171.492 91.8516 171.445 93.2266H175.734C175.695 91.8516 175.109 90.6172 173.609 90.6172ZM179.062 89.7031H180.203L180.305 90.8203C181.055 89.8906 181.734 89.4688 182.477 89.4688C182.906 89.4688 183.336 89.5781 183.711 89.75L183.312 90.9062C183.078 90.8047 182.688 90.6562 182.336 90.6562C181.656 90.6562 181.031 91.1406 180.406 92.125V98H179.062V89.7031ZM187.445 89.4688C188.609 89.4688 189.609 89.875 190.438 90.8984L189.547 91.6641C188.969 90.9219 188.273 90.6172 187.508 90.6172C186.391 90.6172 185.914 91.0938 185.914 91.7891C185.914 92.5625 186.367 92.9453 188.07 93.2578C190.086 93.6406 190.867 94.4219 190.867 95.7578C190.867 97.3047 189.742 98.2266 187.727 98.2266C186.258 98.2266 185.086 97.5938 184.344 96.7344L185.203 95.8906C185.844 96.6406 186.664 97.0859 187.727 97.0859C188.945 97.0859 189.523 96.5625 189.523 95.7812C189.523 95.0781 188.977 94.6094 187.508 94.3281C185.219 93.8906 184.57 93.0938 184.57 91.8281C184.57 90.5469 185.531 89.4688 187.445 89.4688ZM194.117 87.8047H192.602V86.25H194.117V87.8047ZM192.688 98V89.7031H194.031V98H192.688ZM200.523 84.9453H202.047L199.781 87.8047H198.539L200.523 84.9453ZM199.625 98.2266C197.453 98.2266 196.023 96.4609 196.023 93.8594C196.023 91.25 197.453 89.4688 199.625 89.4688C201.789 89.4688 203.219 91.25 203.219 93.8594C203.219 96.4609 201.789 98.2266 199.625 98.2266ZM199.625 97.0859C201.109 97.0859 201.875 95.875 201.875 93.8594C201.875 91.8516 201.109 90.6172 199.625 90.6172C198.133 90.6172 197.367 91.8516 197.367 93.8594C197.367 95.875 198.133 97.0859 199.625 97.0859ZM205.219 98V89.7031H206.375L206.469 90.9062C207.156 90.1641 208.039 89.4688 209.242 89.4688C210.773 89.4688 211.836 90.1328 211.836 92.9062V98H210.492V92.9062C210.492 91.1562 209.938 90.6719 209 90.6719C207.977 90.6719 207.18 91.4297 206.562 92.0625V98H205.219ZM217.898 87.3828H221.164C223.414 87.3828 224.492 88.5 224.492 90.1875C224.492 90.9766 224.148 92.125 223.164 92.4375C224.242 92.7266 225.062 93.6172 225.062 95.0156C225.062 97.0547 223.438 98 221.328 98H217.898V87.3828ZM219.258 88.5234V91.9219H221.102C222.508 91.9219 223.047 91.25 223.047 90.25C223.047 89.2109 222.477 88.5234 221.078 88.5234H219.258ZM219.258 93.0703V96.8594H221.242C222.898 96.8594 223.617 95.9844 223.617 94.9531C223.617 93.8984 222.891 93.0703 221.266 93.0703H219.258ZM230.352 93.6328H228.57V98.0078H227.211V87.3828H230.227C232.742 87.3828 233.852 88.5703 233.852 90.5078C233.852 92.1406 232.969 93.0703 231.711 93.4453L234.133 98H232.633L230.352 93.6328ZM228.57 88.5234V92.4844H230.156C231.688 92.4844 232.398 91.7266 232.398 90.5078C232.398 89.2812 231.695 88.5234 230.156 88.5234H228.57ZM241.648 95.5312H237.273L236.422 98H235.016L238.812 87.3828H240.258L243.859 98H242.477L241.648 95.5312ZM237.656 94.3906H241.266L239.492 89.1016L237.656 94.3906ZM245.57 87.3828H248.836C251.086 87.3828 252.164 88.5 252.164 90.1875C252.164 90.9766 251.82 92.125 250.836 92.4375C251.914 92.7266 252.734 93.6172 252.734 95.0156C252.734 97.0547 251.109 98 249 98H245.57V87.3828ZM246.93 88.5234V91.9219H248.773C250.18 91.9219 250.719 91.25 250.719 90.25C250.719 89.2109 250.148 88.5234 248.75 88.5234H246.93ZM246.93 93.0703V96.8594H248.914C250.57 96.8594 251.289 95.9844 251.289 94.9531C251.289 93.8984 250.562 93.0703 248.938 93.0703H246.93ZM262.18 87.3828V94.375C262.18 96.7734 261.016 98.2266 258.484 98.2266C255.961 98.2266 254.789 96.7734 254.789 94.375V87.3828H256.148V94.375C256.148 96.1797 256.922 97.0234 258.484 97.0234C260.055 97.0234 260.82 96.1797 260.82 94.375V87.3828H262.18ZM267.711 87.125C269.266 87.125 270.453 87.9062 271.078 89.3906L269.859 89.9375C269.562 88.9922 268.828 88.3047 267.711 88.3047C266.5 88.3047 265.758 88.8047 265.758 89.9375C265.758 90.8047 266.312 91.4609 267.898 91.9922C270.047 92.7109 271.289 93.3594 271.289 95.2422C271.289 97.1172 270.031 98.2266 267.758 98.2266C266.141 98.2266 264.969 97.5938 264.156 96.4531L265.25 95.6406C265.578 96.2578 266.445 97.0547 267.758 97.0547C269.25 97.0547 269.875 96.3359 269.875 95.3125C269.875 94.1953 269.094 93.8281 267.5 93.2734C265.609 92.6328 264.344 91.8516 264.344 89.9453C264.344 88.4375 265.281 87.125 267.711 87.125ZM274.664 98H273.055V96.3672H274.664V98Z" fill="white"/>
<path opacity="0.99" d="M28.4336 111.766H26.2461L25.8203 113H25.1172L27.0156 107.691H27.7383L29.5391 113H28.8477L28.4336 111.766ZM26.4375 111.195H28.2422L27.3555 108.551L26.4375 111.195ZM33.5469 108.852V113H32.9648L32.918 112.398C32.5742 112.77 32.1328 113.117 31.5312 113.117C30.7656 113.117 30.2344 112.785 30.2344 111.398V108.852H30.9062V111.398C30.9062 112.27 31.1836 112.516 31.6523 112.516C32.168 112.516 32.5625 112.137 32.875 111.82V108.852H33.5469ZM34.7695 107.691H35.4414V108.852H36.9766V109.406H35.4414V111.621C35.4414 112.238 35.6406 112.512 36.1211 112.512C36.4336 112.512 36.793 112.395 37.0547 112.266L37.2188 112.812C36.7305 113.031 36.3438 113.113 36.0352 113.113C35.0547 113.113 34.7695 112.461 34.7695 111.676V107.691ZM39.3984 113.113C38.3125 113.113 37.5977 112.23 37.5977 110.93C37.5977 109.625 38.3125 108.734 39.3984 108.734C40.4805 108.734 41.1953 109.625 41.1953 110.93C41.1953 112.23 40.4805 113.113 39.3984 113.113ZM39.3984 112.543C40.1406 112.543 40.5234 111.938 40.5234 110.93C40.5234 109.926 40.1406 109.309 39.3984 109.309C38.6523 109.309 38.2695 109.926 38.2695 110.93C38.2695 111.938 38.6523 112.543 39.3984 112.543ZM42.1953 113V108.852H42.7734L42.8203 109.453C43.1641 109.082 43.6055 108.734 44.207 108.734C44.9727 108.734 45.5039 109.066 45.5039 110.453V113H44.832V110.453C44.832 109.578 44.5547 109.336 44.0859 109.336C43.5742 109.336 43.1758 109.715 42.8672 110.031V113H42.1953ZM48.2578 113.113C47.1719 113.113 46.457 112.23 46.457 110.93C46.457 109.625 47.1719 108.734 48.2578 108.734C49.3398 108.734 50.0547 109.625 50.0547 110.93C50.0547 112.23 49.3398 113.113 48.2578 113.113ZM48.2578 112.543C49 112.543 49.3828 111.938 49.3828 110.93C49.3828 109.926 49 109.309 48.2578 109.309C47.5117 109.309 47.1289 109.926 47.1289 110.93C47.1289 111.938 47.5117 112.543 48.2578 112.543ZM51.0547 113V108.852H51.6562L51.6953 109.375C51.9883 108.988 52.4023 108.734 52.8711 108.734C53.3164 108.734 53.6406 108.918 53.8398 109.363C54.1719 108.961 54.6211 108.734 55.0742 108.734C55.8906 108.734 56.2734 109.293 56.2734 110.062V113H55.6016V110.195C55.6016 109.57 55.3594 109.336 54.9609 109.336C54.582 109.336 54.1641 109.664 53.9922 109.961C54 110.145 54 110.09 54 110.219V113H53.3281V110.195C53.3281 109.57 53.0859 109.336 52.6875 109.336C52.3438 109.336 52 109.59 51.7266 109.969V113H51.0547ZM58.4922 106.473H59.2539L58.1211 107.902H57.5L58.4922 106.473ZM57.5 113V108.852H58.1719V113H57.5ZM60.4648 113.121C59.7188 113.121 59.1055 112.773 59.1055 111.809C59.1055 110.773 59.9883 110.465 60.6758 110.465H61.6992V110.168C61.6992 109.555 61.3477 109.289 60.6836 109.289C60.2695 109.289 59.918 109.398 59.5898 109.531L59.4219 108.988C59.8516 108.836 60.2852 108.734 60.6836 108.734C61.6602 108.734 62.3711 109.148 62.3711 110.25V113H61.8047L61.7539 112.5C61.5195 112.793 60.9961 113.121 60.4648 113.121ZM60.5586 112.547C61.0039 112.547 61.4297 112.238 61.6992 111.945V111H60.8164C60.1445 111 59.7773 111.297 59.7773 111.809C59.7773 112.32 60.0781 112.547 60.5586 112.547ZM66.5586 108.734C67.1406 108.734 67.6406 108.938 68.0547 109.449L67.6094 109.832C67.3203 109.461 66.9727 109.309 66.5898 109.309C66.0312 109.309 65.793 109.547 65.793 109.895C65.793 110.281 66.0195 110.473 66.8711 110.629C67.8789 110.82 68.2695 111.211 68.2695 111.879C68.2695 112.652 67.707 113.113 66.6992 113.113C65.9648 113.113 65.3789 112.797 65.0078 112.367L65.4375 111.945C65.7578 112.32 66.168 112.543 66.6992 112.543C67.3086 112.543 67.5977 112.281 67.5977 111.891C67.5977 111.539 67.3242 111.305 66.5898 111.164C65.4453 110.945 65.1211 110.547 65.1211 109.914C65.1211 109.273 65.6016 108.734 66.5586 108.734ZM72.4453 108.852V113H71.8633L71.8164 112.398C71.4727 112.77 71.0312 113.117 70.4297 113.117C69.6641 113.117 69.1328 112.785 69.1328 111.398V108.852H69.8047V111.398C69.8047 112.27 70.082 112.516 70.5508 112.516C71.0664 112.516 71.4609 112.137 71.7734 111.82V108.852H72.4453ZM74.4258 107.902H73.668V107.125H74.4258V107.902ZM72.2188 114.129H72.8789C73.418 114.129 73.7109 113.793 73.7109 113V108.852H74.3828V112.957C74.3828 114.145 73.8672 114.684 72.9297 114.684H72.2188V114.129ZM78.8086 112.383C78.4609 112.801 77.9531 113.113 77.2734 113.113C75.9258 113.113 75.3789 112.098 75.3789 110.906C75.3789 109.762 75.9219 108.734 77.1641 108.734C78.4102 108.734 78.918 109.758 78.918 111V111.152H76.0742C76.1055 112.109 76.6016 112.543 77.293 112.543C77.75 112.543 78.0898 112.328 78.3945 111.973L78.8086 112.383ZM77.1641 109.309C76.4062 109.309 76.1055 109.926 76.082 110.613H78.2266C78.207 109.926 77.9141 109.309 77.1641 109.309ZM79.8477 107.691H80.5195V108.852H82.0547V109.406H80.5195V111.621C80.5195 112.238 80.7188 112.512 81.1992 112.512C81.5117 112.512 81.8711 112.395 82.1328 112.266L82.2969 112.812C81.8086 113.031 81.4219 113.113 81.1133 113.113C80.1328 113.113 79.8477 112.461 79.8477 111.676V107.691ZM84.043 113.121C83.2969 113.121 82.6836 112.773 82.6836 111.809C82.6836 110.773 83.5664 110.465 84.2539 110.465H85.2773V110.168C85.2773 109.555 84.9258 109.289 84.2617 109.289C83.8477 109.289 83.4961 109.398 83.168 109.531L83 108.988C83.4297 108.836 83.8633 108.734 84.2617 108.734C85.2383 108.734 85.9492 109.148 85.9492 110.25V113H85.3828L85.332 112.5C85.0977 112.793 84.5742 113.121 84.043 113.121ZM84.1367 112.547C84.582 112.547 85.0078 112.238 85.2773 111.945V111H84.3945C83.7227 111 83.3555 111.297 83.3555 111.809C83.3555 112.32 83.6562 112.547 84.1367 112.547ZM89.9492 113.121C89.2031 113.121 88.5898 112.773 88.5898 111.809C88.5898 110.773 89.4727 110.465 90.1602 110.465H91.1836V110.168C91.1836 109.555 90.832 109.289 90.168 109.289C89.7539 109.289 89.4023 109.398 89.0742 109.531L88.9062 108.988C89.3359 108.836 89.7695 108.734 90.168 108.734C91.1445 108.734 91.8555 109.148 91.8555 110.25V113H91.2891L91.2383 112.5C91.0039 112.793 90.4805 113.121 89.9492 113.121ZM90.043 112.547C90.4883 112.547 90.9141 112.238 91.1836 111.945V111H90.3008C89.6289 111 89.2617 111.297 89.2617 111.809C89.2617 112.32 89.5625 112.547 90.043 112.547ZM94.7852 107.691H95.457V108.852H96.9922V109.406H95.457V111.621C95.457 112.238 95.6562 112.512 96.1367 112.512C96.4492 112.512 96.8086 112.395 97.0703 112.266L97.2344 112.812C96.7461 113.031 96.3594 113.113 96.0508 113.113C95.0703 113.113 94.7852 112.461 94.7852 111.676V107.691ZM98.668 107.902H97.9102V107.125H98.668V107.902ZM97.9531 113V108.852H98.625V113H97.9531ZM99.8906 114.68V108.852H100.496L100.555 109.473C100.867 108.918 101.359 108.734 101.824 108.734C102.707 108.734 103.465 109.445 103.465 110.934C103.465 112.418 102.707 113.113 101.824 113.113C101.359 113.113 100.863 112.934 100.559 112.344V114.68H99.8906ZM101.664 112.539C102.375 112.539 102.793 111.953 102.793 110.934C102.793 109.91 102.375 109.305 101.664 109.305C100.953 109.305 100.535 109.906 100.535 110.934C100.535 111.953 100.953 112.539 101.664 112.539ZM106.008 113.113C104.922 113.113 104.207 112.23 104.207 110.93C104.207 109.625 104.922 108.734 106.008 108.734C107.09 108.734 107.805 109.625 107.805 110.93C107.805 112.23 107.09 113.113 106.008 113.113ZM106.008 112.543C106.75 112.543 107.133 111.938 107.133 110.93C107.133 109.926 106.75 109.309 106.008 109.309C105.262 109.309 104.879 109.926 104.879 110.93C104.879 111.938 105.262 112.543 106.008 112.543ZM111.922 108.734C112.387 108.734 112.898 108.914 113.207 109.504V107.02H113.871V113H113.27L113.215 112.375C112.906 112.945 112.379 113.113 111.938 113.113C111.078 113.113 110.297 112.406 110.297 110.918C110.297 109.43 111.059 108.734 111.922 108.734ZM112.09 109.309C111.383 109.309 110.969 109.895 110.969 110.918C110.969 111.938 111.383 112.543 112.09 112.543C112.805 112.543 113.227 111.941 113.227 110.918C113.227 109.895 112.805 109.309 112.09 109.309ZM118.301 112.383C117.953 112.801 117.445 113.113 116.766 113.113C115.418 113.113 114.871 112.098 114.871 110.906C114.871 109.762 115.414 108.734 116.656 108.734C117.902 108.734 118.41 109.758 118.41 111V111.152H115.566C115.598 112.109 116.094 112.543 116.785 112.543C117.242 112.543 117.582 112.328 117.887 111.973L118.301 112.383ZM116.656 109.309C115.898 109.309 115.598 109.926 115.574 110.613H117.719C117.699 109.926 117.406 109.309 116.656 109.309ZM124.125 112.371C123.742 112.867 123.312 113.113 122.676 113.113C121.602 113.113 120.863 112.305 120.863 110.93C120.863 109.684 121.531 108.734 122.688 108.734C123.324 108.734 123.742 108.992 124.125 109.492L123.699 109.891C123.449 109.547 123.156 109.309 122.688 109.309C121.941 109.309 121.535 109.934 121.535 110.93C121.535 111.926 121.945 112.543 122.723 112.543C123.172 112.543 123.449 112.316 123.699 111.973L124.125 112.371ZM126.516 113.113C125.43 113.113 124.715 112.23 124.715 110.93C124.715 109.625 125.43 108.734 126.516 108.734C127.598 108.734 128.312 109.625 128.312 110.93C128.312 112.23 127.598 113.113 126.516 113.113ZM126.516 112.543C127.258 112.543 127.641 111.938 127.641 110.93C127.641 109.926 127.258 109.309 126.516 109.309C125.77 109.309 125.387 109.926 125.387 110.93C125.387 111.938 125.77 112.543 126.516 112.543ZM129.312 113V108.852H129.891L129.938 109.453C130.281 109.082 130.723 108.734 131.324 108.734C132.09 108.734 132.621 109.066 132.621 110.453V113H131.949V110.453C131.949 109.578 131.672 109.336 131.203 109.336C130.691 109.336 130.293 109.715 129.984 110.031V113H129.312ZM135.211 108.734C135.676 108.734 136.188 108.914 136.496 109.504V107.02H137.16V113H136.559L136.504 112.375C136.195 112.945 135.668 113.113 135.227 113.113C134.367 113.113 133.586 112.406 133.586 110.918C133.586 109.43 134.348 108.734 135.211 108.734ZM135.379 109.309C134.672 109.309 134.258 109.895 134.258 110.918C134.258 111.938 134.672 112.543 135.379 112.543C136.094 112.543 136.516 111.941 136.516 110.918C136.516 109.895 136.094 109.309 135.379 109.309ZM141.695 108.852V113H141.113L141.066 112.398C140.723 112.77 140.281 113.117 139.68 113.117C138.914 113.117 138.383 112.785 138.383 111.398V108.852H139.055V111.398C139.055 112.27 139.332 112.516 139.801 112.516C140.316 112.516 140.711 112.137 141.023 111.82V108.852H141.695ZM145.953 112.371C145.57 112.867 145.141 113.113 144.504 113.113C143.43 113.113 142.691 112.305 142.691 110.93C142.691 109.684 143.359 108.734 144.516 108.734C145.152 108.734 145.57 108.992 145.953 109.492L145.527 109.891C145.277 109.547 144.984 109.309 144.516 109.309C143.77 109.309 143.363 109.934 143.363 110.93C143.363 111.926 143.773 112.543 144.551 112.543C145 112.543 145.277 112.316 145.527 111.973L145.953 112.371ZM149.805 112.371C149.422 112.867 148.992 113.113 148.355 113.113C147.281 113.113 146.543 112.305 146.543 110.93C146.543 109.684 147.211 108.734 148.367 108.734C149.004 108.734 149.422 108.992 149.805 109.492L149.379 109.891C149.129 109.547 148.836 109.309 148.367 109.309C147.621 109.309 147.215 109.934 147.215 110.93C147.215 111.926 147.625 112.543 148.402 112.543C148.852 112.543 149.129 112.316 149.379 111.973L149.805 112.371ZM151.426 107.902H150.668V107.125H151.426V107.902ZM150.711 113V108.852H151.383V113H150.711ZM154.629 106.473H155.391L154.258 107.902H153.637L154.629 106.473ZM154.18 113.113C153.094 113.113 152.379 112.23 152.379 110.93C152.379 109.625 153.094 108.734 154.18 108.734C155.262 108.734 155.977 109.625 155.977 110.93C155.977 112.23 155.262 113.113 154.18 113.113ZM154.18 112.543C154.922 112.543 155.305 111.938 155.305 110.93C155.305 109.926 154.922 109.309 154.18 109.309C153.434 109.309 153.051 109.926 153.051 110.93C153.051 111.938 153.434 112.543 154.18 112.543ZM156.977 113V108.852H157.555L157.602 109.453C157.945 109.082 158.387 108.734 158.988 108.734C159.754 108.734 160.285 109.066 160.285 110.453V113H159.613V110.453C159.613 109.578 159.336 109.336 158.867 109.336C158.355 109.336 157.957 109.715 157.648 110.031V113H156.977ZM162.324 112.035L161.422 114.531H160.789L161.527 112.035H162.324ZM167.945 112.371C167.562 112.867 167.133 113.113 166.496 113.113C165.422 113.113 164.684 112.305 164.684 110.93C164.684 109.684 165.352 108.734 166.508 108.734C167.145 108.734 167.562 108.992 167.945 109.492L167.52 109.891C167.27 109.547 166.977 109.309 166.508 109.309C165.762 109.309 165.355 109.934 165.355 110.93C165.355 111.926 165.766 112.543 166.543 112.543C166.992 112.543 167.27 112.316 167.52 111.973L167.945 112.371ZM170.336 113.113C169.25 113.113 168.535 112.23 168.535 110.93C168.535 109.625 169.25 108.734 170.336 108.734C171.418 108.734 172.133 109.625 172.133 110.93C172.133 112.23 171.418 113.113 170.336 113.113ZM170.336 112.543C171.078 112.543 171.461 111.938 171.461 110.93C171.461 109.926 171.078 109.309 170.336 109.309C169.59 109.309 169.207 109.926 169.207 110.93C169.207 111.938 169.59 112.543 170.336 112.543ZM173.133 113V108.852H173.711L173.758 109.453C174.102 109.082 174.543 108.734 175.145 108.734C175.91 108.734 176.441 109.066 176.441 110.453V113H175.77V110.453C175.77 109.578 175.492 109.336 175.023 109.336C174.512 109.336 174.113 109.715 173.805 110.031V113H173.133ZM179.031 108.734C179.496 108.734 180.008 108.914 180.316 109.504V107.02H180.98V113H180.379L180.324 112.375C180.016 112.945 179.488 113.113 179.047 113.113C178.188 113.113 177.406 112.406 177.406 110.918C177.406 109.43 178.168 108.734 179.031 108.734ZM179.199 109.309C178.492 109.309 178.078 109.895 178.078 110.918C178.078 111.938 178.492 112.543 179.199 112.543C179.914 112.543 180.336 111.941 180.336 110.918C180.336 109.895 179.914 109.309 179.199 109.309ZM182.965 107.902H182.207V107.125H182.965V107.902ZM182.25 113V108.852H182.922V113H182.25ZM187.18 112.371C186.797 112.867 186.367 113.113 185.73 113.113C184.656 113.113 183.918 112.305 183.918 110.93C183.918 109.684 184.586 108.734 185.742 108.734C186.379 108.734 186.797 108.992 187.18 109.492L186.754 109.891C186.504 109.547 186.211 109.309 185.742 109.309C184.996 109.309 184.59 109.934 184.59 110.93C184.59 111.926 185 112.543 185.777 112.543C186.227 112.543 186.504 112.316 186.754 111.973L187.18 112.371ZM188.801 107.902H188.043V107.125H188.801V107.902ZM188.086 113V108.852H188.758V113H188.086ZM191.555 113.113C190.469 113.113 189.754 112.23 189.754 110.93C189.754 109.625 190.469 108.734 191.555 108.734C192.637 108.734 193.352 109.625 193.352 110.93C193.352 112.23 192.637 113.113 191.555 113.113ZM191.555 112.543C192.297 112.543 192.68 111.938 192.68 110.93C192.68 109.926 192.297 109.309 191.555 109.309C190.809 109.309 190.426 109.926 190.426 110.93C190.426 111.938 190.809 112.543 191.555 112.543ZM194.352 113V108.852H194.93L194.977 109.453C195.32 109.082 195.762 108.734 196.363 108.734C197.129 108.734 197.66 109.066 197.66 110.453V113H196.988V110.453C196.988 109.578 196.711 109.336 196.242 109.336C195.73 109.336 195.332 109.715 195.023 110.031V113H194.352ZM202.043 112.383C201.695 112.801 201.188 113.113 200.508 113.113C199.16 113.113 198.613 112.098 198.613 110.906C198.613 109.762 199.156 108.734 200.398 108.734C201.645 108.734 202.152 109.758 202.152 111V111.152H199.309C199.34 112.109 199.836 112.543 200.527 112.543C200.984 112.543 201.324 112.328 201.629 111.973L202.043 112.383ZM200.398 109.309C199.641 109.309 199.34 109.926 199.316 110.613H201.461C201.441 109.926 201.148 109.309 200.398 109.309ZM204.34 108.734C204.922 108.734 205.422 108.938 205.836 109.449L205.391 109.832C205.102 109.461 204.754 109.309 204.371 109.309C203.812 109.309 203.574 109.547 203.574 109.895C203.574 110.281 203.801 110.473 204.652 110.629C205.66 110.82 206.051 111.211 206.051 111.879C206.051 112.652 205.488 113.113 204.48 113.113C203.746 113.113 203.16 112.797 202.789 112.367L203.219 111.945C203.539 112.32 203.949 112.543 204.48 112.543C205.09 112.543 205.379 112.281 205.379 111.891C205.379 111.539 205.105 111.305 204.371 111.164C203.227 110.945 202.902 110.547 202.902 109.914C202.902 109.273 203.383 108.734 204.34 108.734ZM210.078 108.734C210.543 108.734 211.055 108.914 211.363 109.504V107.02H212.027V113H211.426L211.371 112.375C211.062 112.945 210.535 113.113 210.094 113.113C209.234 113.113 208.453 112.406 208.453 110.918C208.453 109.43 209.215 108.734 210.078 108.734ZM210.246 109.309C209.539 109.309 209.125 109.895 209.125 110.918C209.125 111.938 209.539 112.543 210.246 112.543C210.961 112.543 211.383 111.941 211.383 110.918C211.383 109.895 210.961 109.309 210.246 109.309ZM216.457 112.383C216.109 112.801 215.602 113.113 214.922 113.113C213.574 113.113 213.027 112.098 213.027 110.906C213.027 109.762 213.57 108.734 214.812 108.734C216.059 108.734 216.566 109.758 216.566 111V111.152H213.723C213.754 112.109 214.25 112.543 214.941 112.543C215.398 112.543 215.738 112.328 216.043 111.973L216.457 112.383ZM214.812 109.309C214.055 109.309 213.754 109.926 213.73 110.613H215.875C215.855 109.926 215.562 109.309 214.812 109.309ZM217.539 113V107.066H218.211V113H217.539ZM221.184 107.691H221.855V108.852H223.391V109.406H221.855V111.621C221.855 112.238 222.055 112.512 222.535 112.512C222.848 112.512 223.207 112.395 223.469 112.266L223.633 112.812C223.145 113.031 222.758 113.113 222.449 113.113C221.469 113.113 221.184 112.461 221.184 111.676V107.691ZM227.441 112.383C227.094 112.801 226.586 113.113 225.906 113.113C224.559 113.113 224.012 112.098 224.012 110.906C224.012 109.762 224.555 108.734 225.797 108.734C227.043 108.734 227.551 109.758 227.551 111V111.152H224.707C224.738 112.109 225.234 112.543 225.926 112.543C226.383 112.543 226.723 112.328 227.027 111.973L227.441 112.383ZM225.797 109.309C225.039 109.309 224.738 109.926 224.715 110.613H226.859C226.84 109.926 226.547 109.309 225.797 109.309ZM228.523 108.852H229.094L229.145 109.41C229.52 108.945 229.859 108.734 230.23 108.734C230.445 108.734 230.66 108.789 230.848 108.875L230.648 109.453C230.531 109.402 230.336 109.328 230.16 109.328C229.82 109.328 229.508 109.57 229.195 110.062V113H228.523V108.852ZM231.578 108.852H232.148L232.199 109.41C232.574 108.945 232.914 108.734 233.285 108.734C233.5 108.734 233.715 108.789 233.902 108.875L233.703 109.453C233.586 109.402 233.391 109.328 233.215 109.328C232.875 109.328 232.562 109.57 232.25 110.062V113H231.578V108.852ZM234.633 108.852H235.203L235.254 109.41C235.629 108.945 235.969 108.734 236.34 108.734C236.555 108.734 236.77 108.789 236.957 108.875L236.758 109.453C236.641 109.402 236.445 109.328 236.27 109.328C235.93 109.328 235.617 109.57 235.305 110.062V113H234.633V108.852ZM240.699 112.383C240.352 112.801 239.844 113.113 239.164 113.113C237.816 113.113 237.27 112.098 237.27 110.906C237.27 109.762 237.812 108.734 239.055 108.734C240.301 108.734 240.809 109.758 240.809 111V111.152H237.965C237.996 112.109 238.492 112.543 239.184 112.543C239.641 112.543 239.98 112.328 240.285 111.973L240.699 112.383ZM239.055 109.309C238.297 109.309 237.996 109.926 237.973 110.613H240.117C240.098 109.926 239.805 109.309 239.055 109.309ZM241.781 113V108.852H242.359L242.406 109.453C242.75 109.082 243.191 108.734 243.793 108.734C244.559 108.734 245.09 109.066 245.09 110.453V113H244.418V110.453C244.418 109.578 244.141 109.336 243.672 109.336C243.16 109.336 242.762 109.715 242.453 110.031V113H241.781ZM247.844 113.113C246.758 113.113 246.043 112.23 246.043 110.93C246.043 109.625 246.758 108.734 247.844 108.734C248.926 108.734 249.641 109.625 249.641 110.93C249.641 112.23 248.926 113.113 247.844 113.113ZM247.844 112.543C248.586 112.543 248.969 111.938 248.969 110.93C248.969 109.926 248.586 109.309 247.844 109.309C247.098 109.309 246.715 109.926 246.715 110.93C246.715 111.938 247.098 112.543 247.844 112.543ZM255.574 108.852L253.188 114.691H252.469L253.266 112.727L251.691 108.852H252.414L253.641 111.992L254.879 108.852H255.574ZM260.867 112.371C260.484 112.867 260.055 113.113 259.418 113.113C258.344 113.113 257.605 112.305 257.605 110.93C257.605 109.684 258.273 108.734 259.43 108.734C260.066 108.734 260.484 108.992 260.867 109.492L260.441 109.891C260.191 109.547 259.898 109.309 259.43 109.309C258.684 109.309 258.277 109.934 258.277 110.93C258.277 111.926 258.688 112.543 259.465 112.543C259.914 112.543 260.191 112.316 260.441 111.973L260.867 112.371ZM263.258 113.113C262.172 113.113 261.457 112.23 261.457 110.93C261.457 109.625 262.172 108.734 263.258 108.734C264.34 108.734 265.055 109.625 265.055 110.93C265.055 112.23 264.34 113.113 263.258 113.113ZM263.258 112.543C264 112.543 264.383 111.938 264.383 110.93C264.383 109.926 264 109.309 263.258 109.309C262.512 109.309 262.129 109.926 262.129 110.93C262.129 111.938 262.512 112.543 263.258 112.543ZM266.055 113V108.852H266.633L266.68 109.453C267.023 109.082 267.465 108.734 268.066 108.734C268.832 108.734 269.363 109.066 269.363 110.453V113H268.691V110.453C268.691 109.578 268.414 109.336 267.945 109.336C267.434 109.336 267.035 109.715 266.727 110.031V113H266.055ZM271.953 108.734C272.418 108.734 272.93 108.914 273.238 109.504V107.02H273.902V113H273.301L273.246 112.375C272.938 112.945 272.41 113.113 271.969 113.113C271.109 113.113 270.328 112.406 270.328 110.918C270.328 109.43 271.09 108.734 271.953 108.734ZM272.121 109.309C271.414 109.309 271 109.895 271 110.918C271 111.938 271.414 112.543 272.121 112.543C272.836 112.543 273.258 111.941 273.258 110.918C273.258 109.895 272.836 109.309 272.121 109.309ZM275.887 107.902H275.129V107.125H275.887V107.902ZM275.172 113V108.852H275.844V113H275.172ZM280.102 112.371C279.719 112.867 279.289 113.113 278.652 113.113C277.578 113.113 276.84 112.305 276.84 110.93C276.84 109.684 277.508 108.734 278.664 108.734C279.301 108.734 279.719 108.992 280.102 109.492L279.676 109.891C279.426 109.547 279.133 109.309 278.664 109.309C277.918 109.309 277.512 109.934 277.512 110.93C277.512 111.926 277.922 112.543 278.699 112.543C279.148 112.543 279.426 112.316 279.676 111.973L280.102 112.371ZM281.723 107.902H280.965V107.125H281.723V107.902ZM281.008 113V108.852H281.68V113H281.008ZM284.477 113.113C283.391 113.113 282.676 112.23 282.676 110.93C282.676 109.625 283.391 108.734 284.477 108.734C285.559 108.734 286.273 109.625 286.273 110.93C286.273 112.23 285.559 113.113 284.477 113.113ZM284.477 112.543C285.219 112.543 285.602 111.938 285.602 110.93C285.602 109.926 285.219 109.309 284.477 109.309C283.73 109.309 283.348 109.926 283.348 110.93C283.348 111.938 283.73 112.543 284.477 112.543ZM287.273 113V108.852H287.852L287.898 109.453C288.242 109.082 288.684 108.734 289.285 108.734C290.051 108.734 290.582 109.066 290.582 110.453V113H289.91V110.453C289.91 109.578 289.633 109.336 289.164 109.336C288.652 109.336 288.254 109.715 287.945 110.031V113H287.273ZM294.965 112.383C294.617 112.801 294.109 113.113 293.43 113.113C292.082 113.113 291.535 112.098 291.535 110.906C291.535 109.762 292.078 108.734 293.32 108.734C294.566 108.734 295.074 109.758 295.074 111V111.152H292.23C292.262 112.109 292.758 112.543 293.449 112.543C293.906 112.543 294.246 112.328 294.551 111.973L294.965 112.383ZM293.32 109.309C292.562 109.309 292.262 109.926 292.238 110.613H294.383C294.363 109.926 294.07 109.309 293.32 109.309ZM297.262 108.734C297.844 108.734 298.344 108.938 298.758 109.449L298.312 109.832C298.023 109.461 297.676 109.309 297.293 109.309C296.734 109.309 296.496 109.547 296.496 109.895C296.496 110.281 296.723 110.473 297.574 110.629C298.582 110.82 298.973 111.211 298.973 111.879C298.973 112.652 298.41 113.113 297.402 113.113C296.668 113.113 296.082 112.797 295.711 112.367L296.141 111.945C296.461 112.32 296.871 112.543 297.402 112.543C298.012 112.543 298.301 112.281 298.301 111.891C298.301 111.539 298.027 111.305 297.293 111.164C296.148 110.945 295.824 110.547 295.824 109.914C295.824 109.273 296.305 108.734 297.262 108.734ZM27 119.734C27.4648 119.734 27.9766 119.914 28.2852 120.504V118.02H28.9492V124H28.3477L28.293 123.375C27.9844 123.945 27.457 124.113 27.0156 124.113C26.1562 124.113 25.375 123.406 25.375 121.918C25.375 120.43 26.1367 119.734 27 119.734ZM27.168 120.309C26.4609 120.309 26.0469 120.895 26.0469 121.918C26.0469 122.938 26.4609 123.543 27.168 123.543C27.8828 123.543 28.3047 122.941 28.3047 121.918C28.3047 120.895 27.8828 120.309 27.168 120.309ZM33.3789 123.383C33.0312 123.801 32.5234 124.113 31.8438 124.113C30.4961 124.113 29.9492 123.098 29.9492 121.906C29.9492 120.762 30.4922 119.734 31.7344 119.734C32.9805 119.734 33.4883 120.758 33.4883 122V122.152H30.6445C30.6758 123.109 31.1719 123.543 31.8633 123.543C32.3203 123.543 32.6602 123.328 32.9648 122.973L33.3789 123.383ZM31.7344 120.309C30.9766 120.309 30.6758 120.926 30.6523 121.613H32.7969C32.7773 120.926 32.4844 120.309 31.7344 120.309ZM34.4609 124V118.066H35.1328V124H34.4609ZM41.1406 123.371C40.7578 123.867 40.3281 124.113 39.6914 124.113C38.6172 124.113 37.8789 123.305 37.8789 121.93C37.8789 120.684 38.5469 119.734 39.7031 119.734C40.3398 119.734 40.7578 119.992 41.1406 120.492L40.7148 120.891C40.4648 120.547 40.1719 120.309 39.7031 120.309C38.957 120.309 38.5508 120.934 38.5508 121.93C38.5508 122.926 38.9609 123.543 39.7383 123.543C40.1875 123.543 40.4648 123.316 40.7148 122.973L41.1406 123.371ZM42.0469 124V118.066H42.7188V124H42.0469ZM44.6992 118.902H43.9414V118.125H44.6992V118.902ZM43.9844 124V119.852H44.6562V124H43.9844ZM45.9219 124V119.852H46.5234L46.5625 120.375C46.8555 119.988 47.2695 119.734 47.7383 119.734C48.1836 119.734 48.5078 119.918 48.707 120.363C49.0391 119.961 49.4883 119.734 49.9414 119.734C50.7578 119.734 51.1406 120.293 51.1406 121.062V124H50.4688V121.195C50.4688 120.57 50.2266 120.336 49.8281 120.336C49.4492 120.336 49.0312 120.664 48.8594 120.961C48.8672 121.145 48.8672 121.09 48.8672 121.219V124H48.1953V121.195C48.1953 120.57 47.9531 120.336 47.5547 120.336C47.2109 120.336 46.8672 120.59 46.5938 120.969V124H45.9219ZM53.3945 124.121C52.6484 124.121 52.0352 123.773 52.0352 122.809C52.0352 121.773 52.918 121.465 53.6055 121.465H54.6289V121.168C54.6289 120.555 54.2773 120.289 53.6133 120.289C53.1992 120.289 52.8477 120.398 52.5195 120.531L52.3516 119.988C52.7812 119.836 53.2148 119.734 53.6133 119.734C54.5898 119.734 55.3008 120.148 55.3008 121.25V124H54.7344L54.6836 123.5C54.4492 123.793 53.9258 124.121 53.3945 124.121ZM53.4883 123.547C53.9336 123.547 54.3594 123.238 54.6289 122.945V122H53.7461C53.0742 122 52.707 122.297 52.707 122.809C52.707 123.32 53.0078 123.547 53.4883 123.547ZM57.207 124H56.4023V123.184H57.207V124Z" fill="white"/>
<rect x="24" y="140" width="148" height="33.9216" rx="16.9608" fill="white"/>
<path d="M63.214 157.596H62.4627V159.966H61.2337V153.658H63.2557C64.8789 153.658 65.607 154.331 65.607 155.606C65.607 156.636 65.0273 157.16 64.4059 157.396L65.7462 159.961H64.392L63.214 157.596ZM62.4627 154.655V156.585H63.1676C63.8865 156.585 64.2621 156.255 64.2621 155.606C64.2621 154.957 63.8865 154.655 63.1676 154.655H62.4627ZM70.866 159.21C70.5089 159.687 69.8365 160.095 68.9507 160.095C67.0817 160.095 66.5483 158.639 66.5483 157.438C66.5483 156.316 67.0724 154.897 68.7791 154.897C70.342 154.897 70.931 156.102 70.931 157.772V157.92H67.8191C67.833 158.866 68.5704 159.098 69.0109 159.098C69.4144 159.098 69.8086 158.899 70.124 158.514L70.866 159.21ZM68.7791 155.898C68.1344 155.898 67.8191 156.325 67.8191 157.011H69.6881C69.6881 156.325 69.4098 155.898 68.7791 155.898ZM73.398 160.095C72.4288 160.095 71.7795 159.534 71.7795 158.491C71.7795 157.262 72.8461 156.886 73.5696 156.886H74.6178V156.631C74.6178 156.028 74.2514 155.852 73.6346 155.852C73.2033 155.852 72.8461 155.931 72.4102 156.116L72.1319 155.184C72.7209 154.999 73.194 154.897 73.6346 154.897C74.7847 154.897 75.8236 155.3 75.8236 156.844V159.961H74.8172L74.7198 159.544C74.4601 159.817 73.9778 160.095 73.398 160.095ZM73.6485 159.098C73.9731 159.098 74.3673 158.885 74.6178 158.672V157.786H73.9406C73.4073 157.786 72.9853 157.953 72.9853 158.491C72.9853 158.913 73.2589 159.098 73.6485 159.098ZM77.2657 159.961V152.916H78.4715V159.961H77.2657ZM81.1658 153.992H79.96V152.735H81.1658V153.992ZM79.96 159.961V155.036H81.1658V159.961H79.96ZM86.1605 159.961H82.3761V159.163L84.6996 155.991H82.39V155.036H86.1605V155.843L83.8602 159.006H86.1605V159.961ZM88.6461 160.095C87.6768 160.095 87.0275 159.534 87.0275 158.491C87.0275 157.262 88.0942 156.886 88.8177 156.886H89.8658V156.631C89.8658 156.028 89.4994 155.852 88.8826 155.852C88.4513 155.852 88.0942 155.931 87.6583 156.116L87.38 155.184C87.969 154.999 88.442 154.897 88.8826 154.897C90.0328 154.897 91.0716 155.3 91.0716 156.844V159.961H90.0652L89.9678 159.544C89.7081 159.817 89.2258 160.095 88.6461 160.095ZM88.8965 159.098C89.2212 159.098 89.6154 158.885 89.8658 158.672V157.786H89.1887C88.6554 157.786 88.2333 157.953 88.2333 158.491C88.2333 158.913 88.507 159.098 88.8965 159.098ZM92.5138 155.036H93.5387L93.6361 155.527C94.1045 155.045 94.4523 154.901 94.8836 154.901C95.1063 154.901 95.3428 154.943 95.5468 155.059L95.2129 156.088C95.0552 156.019 94.879 155.954 94.6935 155.954C94.3457 155.954 94.021 156.135 93.7196 156.585V159.961H92.5138V155.036ZM102.215 159.177C101.784 159.752 101.214 160.095 100.333 160.095C99.1824 160.095 98.1111 159.186 98.1111 157.503C98.1111 156.112 98.881 154.897 100.365 154.897C101.246 154.897 101.784 155.258 102.215 155.833L101.492 156.506C101.214 156.153 100.922 155.898 100.365 155.898C99.6787 155.898 99.3169 156.515 99.3169 157.503C99.3169 158.486 99.7853 159.098 100.458 159.098C100.954 159.098 101.214 158.857 101.492 158.505L102.215 159.177ZM105.211 160.095C103.913 160.095 102.943 159.047 102.943 157.503C102.943 155.954 103.913 154.897 105.211 154.897C106.51 154.897 107.479 155.954 107.479 157.503C107.479 159.047 106.51 160.095 105.211 160.095ZM105.211 159.098C105.828 159.098 106.273 158.635 106.273 157.503C106.273 156.376 105.828 155.898 105.211 155.898C104.594 155.898 104.149 156.376 104.149 157.503C104.149 158.635 104.594 159.098 105.211 159.098ZM108.671 159.961V155.036H109.691L109.784 155.564C110.192 155.124 110.66 154.901 111.184 154.901C112.149 154.901 112.84 155.328 112.84 157.09V159.961H111.634V157.09C111.634 156.283 111.393 155.977 110.86 155.977C110.549 155.977 110.243 156.102 109.877 156.395V159.961H108.671ZM115.878 154.901C116.596 154.901 117.218 155.091 117.816 155.685L117.088 156.395C116.675 155.973 116.318 155.898 115.956 155.898C115.502 155.898 115.298 156.088 115.298 156.367C115.298 156.668 115.437 156.858 116.286 157.025C117.556 157.276 117.983 157.739 117.983 158.574C117.983 159.483 117.348 160.095 116.054 160.095C115.136 160.095 114.361 159.729 113.865 159.173L114.574 158.444C114.978 158.908 115.46 159.098 116.049 159.098C116.578 159.098 116.777 158.88 116.777 158.602C116.777 158.301 116.527 158.106 115.841 157.967C114.505 157.698 114.092 157.22 114.092 156.427C114.092 155.615 114.695 154.901 115.878 154.901ZM123.224 155.036V159.961H122.203L122.111 159.432C121.702 159.873 121.234 160.095 120.71 160.095C119.745 160.095 119.054 159.669 119.054 157.906V155.036H120.26V157.906C120.26 158.713 120.501 159.019 121.035 159.019C121.345 159.019 121.651 158.894 122.018 158.602V155.036H123.224ZM124.712 159.961V152.916H125.918V159.961H124.712ZM127.36 153.658H128.566V155.036H129.98V155.991H128.566V158.245C128.566 158.792 128.724 159.019 129.09 159.019C129.396 159.019 129.688 158.941 130.027 158.792L130.268 159.738C129.688 159.998 129.229 160.095 128.863 160.095C127.699 160.095 127.36 159.321 127.36 158.389V153.658ZM132.489 160.095C131.52 160.095 130.871 159.534 130.871 158.491C130.871 157.262 131.937 156.886 132.661 156.886H133.709V156.631C133.709 156.028 133.343 155.852 132.726 155.852C132.294 155.852 131.937 155.931 131.501 156.116L131.223 155.184C131.812 154.999 132.285 154.897 132.726 154.897C133.876 154.897 134.915 155.3 134.915 156.844V159.961H133.908L133.811 159.544C133.551 159.817 133.069 160.095 132.489 160.095ZM132.74 159.098C133.064 159.098 133.458 158.885 133.709 158.672V157.786H133.032C132.498 157.786 132.076 157.953 132.076 158.491C132.076 158.913 132.35 159.098 132.74 159.098Z" fill="black"/>

</svg>
