<svg width="1440" height="329" viewBox="0 0 1440 329" fill="none" xmlns="http://www.w3.org/2000/svg">
<rect width="1440" height="120" fill="url(#paint0_linear_304_46638)"/>
<rect width="1440" height="209" transform="translate(0 120)" fill="url(#paint1_linear_304_46638)"/>
<rect x="60" y="219" width="183" height="50" rx="25" fill="white"/>
<path d="M100.226 245.514H99.1184V249.007H97.3069V239.71H100.287C102.68 239.71 103.753 240.701 103.753 242.581C103.753 244.099 102.899 244.871 101.983 245.22L103.958 249H101.962L100.226 245.514ZM99.1184 241.18V244.023H100.157C101.217 244.023 101.771 243.538 101.771 242.581C101.771 241.624 101.217 241.18 100.157 241.18H99.1184ZM111.505 247.893C110.978 248.597 109.987 249.198 108.682 249.198C105.927 249.198 105.141 247.052 105.141 245.281C105.141 243.627 105.913 241.535 108.429 241.535C110.732 241.535 111.601 243.312 111.601 245.773V245.992H107.014C107.034 247.387 108.121 247.729 108.77 247.729C109.365 247.729 109.946 247.435 110.411 246.867L111.505 247.893ZM108.429 243.012C107.478 243.012 107.014 243.641 107.014 244.652H109.769C109.769 243.641 109.358 243.012 108.429 243.012ZM115.237 249.198C113.808 249.198 112.851 248.371 112.851 246.833C112.851 245.021 114.424 244.468 115.49 244.468H117.035V244.092C117.035 243.203 116.495 242.943 115.586 242.943C114.95 242.943 114.424 243.06 113.781 243.333L113.371 241.959C114.239 241.686 114.936 241.535 115.586 241.535C117.281 241.535 118.812 242.13 118.812 244.406V249H117.329L117.185 248.385C116.802 248.788 116.091 249.198 115.237 249.198ZM115.606 247.729C116.085 247.729 116.666 247.414 117.035 247.1V245.794H116.037C115.251 245.794 114.629 246.04 114.629 246.833C114.629 247.455 115.032 247.729 115.606 247.729ZM120.938 249V238.616H122.715V249H120.938ZM126.687 240.202H124.909V238.35H126.687V240.202ZM124.909 249V241.74H126.687V249H124.909ZM134.049 249H128.471V247.824L131.895 243.148H128.491V241.74H134.049V242.93L130.658 247.592H134.049V249ZM137.712 249.198C136.284 249.198 135.327 248.371 135.327 246.833C135.327 245.021 136.899 244.468 137.965 244.468H139.51V244.092C139.51 243.203 138.97 242.943 138.061 242.943C137.425 242.943 136.899 243.06 136.256 243.333L135.846 241.959C136.714 241.686 137.412 241.535 138.061 241.535C139.756 241.535 141.288 242.13 141.288 244.406V249H139.804L139.661 248.385C139.278 248.788 138.567 249.198 137.712 249.198ZM138.082 247.729C138.56 247.729 139.141 247.414 139.51 247.1V245.794H138.512C137.726 245.794 137.104 246.04 137.104 246.833C137.104 247.455 137.507 247.729 138.082 247.729ZM143.413 241.74H144.924L145.068 242.465C145.758 241.754 146.271 241.542 146.907 241.542C147.235 241.542 147.583 241.604 147.884 241.774L147.392 243.292C147.159 243.189 146.9 243.094 146.626 243.094C146.114 243.094 145.635 243.36 145.191 244.023V249H143.413V241.74ZM157.714 247.845C157.078 248.692 156.237 249.198 154.938 249.198C153.243 249.198 151.664 247.858 151.664 245.377C151.664 243.326 152.799 241.535 154.986 241.535C156.285 241.535 157.078 242.068 157.714 242.916L156.647 243.907C156.237 243.388 155.806 243.012 154.986 243.012C153.974 243.012 153.441 243.921 153.441 245.377C153.441 246.826 154.132 247.729 155.123 247.729C155.854 247.729 156.237 247.373 156.647 246.854L157.714 247.845ZM162.129 249.198C160.215 249.198 158.787 247.653 158.787 245.377C158.787 243.094 160.215 241.535 162.129 241.535C164.043 241.535 165.472 243.094 165.472 245.377C165.472 247.653 164.043 249.198 162.129 249.198ZM162.129 247.729C163.039 247.729 163.695 247.045 163.695 245.377C163.695 243.716 163.039 243.012 162.129 243.012C161.22 243.012 160.564 243.716 160.564 245.377C160.564 247.045 161.22 247.729 162.129 247.729ZM167.229 249V241.74H168.733L168.869 242.52C169.471 241.87 170.161 241.542 170.934 241.542C172.356 241.542 173.374 242.171 173.374 244.769V249H171.597V244.769C171.597 243.579 171.241 243.128 170.455 243.128C169.997 243.128 169.546 243.312 169.006 243.743V249H167.229ZM177.851 241.542C178.911 241.542 179.827 241.822 180.709 242.697L179.636 243.743C179.027 243.121 178.501 243.012 177.968 243.012C177.298 243.012 176.997 243.292 176.997 243.702C176.997 244.146 177.202 244.427 178.453 244.673C180.326 245.042 180.955 245.726 180.955 246.956C180.955 248.296 180.018 249.198 178.111 249.198C176.758 249.198 175.616 248.658 174.885 247.838L175.931 246.765C176.525 247.448 177.236 247.729 178.104 247.729C178.884 247.729 179.178 247.407 179.178 246.997C179.178 246.553 178.808 246.266 177.797 246.061C175.828 245.664 175.22 244.96 175.22 243.791C175.22 242.595 176.108 241.542 177.851 241.542ZM188.679 241.74V249H187.175L187.039 248.221C186.437 248.87 185.747 249.198 184.974 249.198C183.552 249.198 182.534 248.569 182.534 245.972V241.74H184.311V245.972C184.311 247.161 184.667 247.612 185.453 247.612C185.911 247.612 186.362 247.428 186.902 246.997V241.74H188.679ZM190.873 249V238.616H192.651V249H190.873ZM194.776 239.71H196.554V241.74H198.639V243.148H196.554V246.471C196.554 247.277 196.786 247.612 197.326 247.612C197.777 247.612 198.208 247.496 198.707 247.277L199.063 248.672C198.208 249.055 197.531 249.198 196.991 249.198C195.275 249.198 194.776 248.057 194.776 246.683V239.71ZM202.337 249.198C200.908 249.198 199.951 248.371 199.951 246.833C199.951 245.021 201.523 244.468 202.59 244.468H204.135V244.092C204.135 243.203 203.594 242.943 202.685 242.943C202.05 242.943 201.523 243.06 200.881 243.333L200.47 241.959C201.339 241.686 202.036 241.535 202.685 241.535C204.381 241.535 205.912 242.13 205.912 244.406V249H204.428L204.285 248.385C203.902 248.788 203.191 249.198 202.337 249.198ZM202.706 247.729C203.184 247.729 203.765 247.414 204.135 247.1V245.794H203.136C202.35 245.794 201.728 246.04 201.728 246.833C201.728 247.455 202.132 247.729 202.706 247.729Z" fill="#141413"/>
<path d="M64.2422 130.125C65.7969 130.125 66.9844 130.906 67.6094 132.391L66.3906 132.938C66.0938 131.992 65.3594 131.305 64.2422 131.305C63.0312 131.305 62.2891 131.805 62.2891 132.938C62.2891 133.805 62.8438 134.461 64.4297 134.992C66.5781 135.711 67.8203 136.359 67.8203 138.242C67.8203 140.117 66.5625 141.227 64.2891 141.227C62.6719 141.227 61.5 140.594 60.6875 139.453L61.7812 138.641C62.1094 139.258 62.9766 140.055 64.2891 140.055C65.7812 140.055 66.4062 139.336 66.4062 138.312C66.4062 137.195 65.625 136.828 64.0312 136.273C62.1406 135.633 60.875 134.852 60.875 132.945C60.875 131.438 61.8125 130.125 64.2422 130.125ZM77.2422 130.383V137.375C77.2422 139.773 76.0781 141.227 73.5469 141.227C71.0234 141.227 69.8516 139.773 69.8516 137.375V130.383H71.2109V137.375C71.2109 139.18 71.9844 140.023 73.5469 140.023C75.1172 140.023 75.8828 139.18 75.8828 137.375V130.383H77.2422ZM87.1094 130.383L83.8672 141H82.1484L78.9141 130.383H80.25L83.0156 139.766L85.7734 130.383H87.1094ZM91.0938 132.703H92.2734V131.68C92.2734 130.258 92.9609 129.133 94.7344 129.133C95.2266 129.133 95.8047 129.211 96.375 129.32L96.1641 130.453C95.6016 130.328 95.2188 130.273 94.7344 130.273C94.0781 130.273 93.6172 130.688 93.6172 131.656V132.703H95.5625V133.812H93.6172V141H92.2734V133.812H91.0938V132.703ZM99.0547 141.242C97.5625 141.242 96.3359 140.547 96.3359 138.617C96.3359 136.547 98.1016 135.93 99.4766 135.93H101.523V135.336C101.523 134.109 100.82 133.578 99.4922 133.578C98.6641 133.578 97.9609 133.797 97.3047 134.062L96.9688 132.977C97.8281 132.672 98.6953 132.469 99.4922 132.469C101.445 132.469 102.867 133.297 102.867 135.5V141H101.734L101.633 140C101.164 140.586 100.117 141.242 99.0547 141.242ZM99.2422 140.094C100.133 140.094 100.984 139.477 101.523 138.891V137H99.7578C98.4141 137 97.6797 137.594 97.6797 138.617C97.6797 139.641 98.2812 140.094 99.2422 140.094ZM107.742 132.469C108.906 132.469 109.906 132.875 110.734 133.898L109.844 134.664C109.266 133.922 108.57 133.617 107.805 133.617C106.688 133.617 106.211 134.094 106.211 134.789C106.211 135.562 106.664 135.945 108.367 136.258C110.383 136.641 111.164 137.422 111.164 138.758C111.164 140.305 110.039 141.227 108.023 141.227C106.555 141.227 105.383 140.594 104.641 139.734L105.5 138.891C106.141 139.641 106.961 140.086 108.023 140.086C109.242 140.086 109.82 139.562 109.82 138.781C109.82 138.078 109.273 137.609 107.805 137.328C105.516 136.891 104.867 136.094 104.867 134.828C104.867 133.547 105.828 132.469 107.742 132.469ZM112.898 130.383H114.242V132.703H117.312V133.812H114.242V138.242C114.242 139.477 114.641 140.023 115.602 140.023C116.227 140.023 116.945 139.789 117.469 139.531L117.797 140.625C116.82 141.062 116.047 141.227 115.43 141.227C113.469 141.227 112.898 139.922 112.898 138.352V130.383ZM123.133 132.469C124.859 132.469 126.383 133.859 126.383 136.836C126.383 139.812 124.828 141.227 123.102 141.227C122.227 141.227 121.164 140.891 120.547 139.75L120.445 141H119.234V129.039H120.57V134.008C121.18 132.828 122.203 132.469 123.133 132.469ZM122.797 133.617C121.367 133.617 120.523 134.789 120.523 136.836C120.523 138.883 121.367 140.086 122.797 140.086C124.219 140.086 125.039 138.875 125.039 136.836C125.039 134.789 124.219 133.617 122.797 133.617ZM130.461 141.242C128.969 141.242 127.742 140.547 127.742 138.617C127.742 136.547 129.508 135.93 130.883 135.93H132.93V135.336C132.93 134.109 132.227 133.578 130.898 133.578C130.07 133.578 129.367 133.797 128.711 134.062L128.375 132.977C129.234 132.672 130.102 132.469 130.898 132.469C132.852 132.469 134.273 133.297 134.273 135.5V141H133.141L133.039 140C132.57 140.586 131.523 141.242 130.461 141.242ZM130.648 140.094C131.539 140.094 132.391 139.477 132.93 138.891V137H131.164C129.82 137 129.086 137.594 129.086 138.617C129.086 139.641 129.688 140.094 130.648 140.094ZM142.703 139.742C141.938 140.734 141.078 141.227 139.805 141.227C137.656 141.227 136.18 139.609 136.18 136.859C136.18 134.367 137.516 132.469 139.828 132.469C141.102 132.469 141.938 132.984 142.703 133.984L141.852 134.781C141.352 134.094 140.766 133.617 139.828 133.617C138.336 133.617 137.523 134.867 137.523 136.859C137.523 138.852 138.344 140.086 139.898 140.086C140.797 140.086 141.352 139.633 141.852 138.945L142.703 139.742ZM150 141L147.5 137.258L145.859 139.195V141H144.516V129.133H145.859V137.461L149.703 132.703H151.289L148.32 136.312L151.484 141H150ZM156.266 131.555L159.445 130.383H160.328V139.891H162.469V141H156.844V139.891H158.984V131.812L156.641 132.641L156.266 131.555ZM167.578 141.227C165.195 141.227 164.102 139.336 164.102 135.812C164.102 132.297 165.195 130.055 167.578 130.055C169.953 130.055 171.055 132.297 171.055 135.812C171.055 139.336 169.953 141.227 167.578 141.227ZM167.578 140.086C168.922 140.086 169.734 138.984 169.734 135.812C169.734 132.648 168.922 131.195 167.578 131.195C166.234 131.195 165.414 132.648 165.414 135.812C165.414 138.984 166.234 140.086 167.578 140.086ZM175.891 141.227C173.508 141.227 172.414 139.336 172.414 135.812C172.414 132.297 173.508 130.055 175.891 130.055C178.266 130.055 179.367 132.297 179.367 135.812C179.367 139.336 178.266 141.227 175.891 141.227ZM175.891 140.086C177.234 140.086 178.047 138.984 178.047 135.812C178.047 132.648 177.234 131.195 175.891 131.195C174.547 131.195 173.727 132.648 173.727 135.812C173.727 138.984 174.547 140.086 175.891 140.086ZM182.648 134.922C181.258 134.922 180.516 133.695 180.516 132.461C180.516 131.227 181.273 129.992 182.648 129.992C184.039 129.992 184.781 131.227 184.781 132.461C184.781 133.695 184.039 134.922 182.648 134.922ZM187.633 130.297H188.68L182.953 141H181.906L187.633 130.297ZM182.648 133.953C183.383 133.953 183.758 133.312 183.758 132.461C183.758 131.609 183.383 130.969 182.648 130.969C181.922 130.969 181.539 131.609 181.539 132.461C181.539 133.312 181.922 133.953 182.648 133.953ZM188.039 141.227C186.648 141.227 185.906 140 185.906 138.766C185.906 137.531 186.664 136.297 188.039 136.297C189.43 136.297 190.172 137.531 190.172 138.766C190.172 140 189.43 141.227 188.039 141.227ZM188.039 140.25C188.773 140.25 189.148 139.617 189.148 138.766C189.148 137.906 188.773 137.273 188.039 137.273C187.312 137.273 186.93 137.906 186.93 138.766C186.93 139.617 187.312 140.25 188.039 140.25ZM201.727 139.766C201.031 140.602 200.016 141.227 198.656 141.227C195.961 141.227 194.867 139.195 194.867 136.812C194.867 134.523 195.953 132.469 198.438 132.469C200.93 132.469 201.945 134.516 201.945 137V137.305H196.258C196.32 139.219 197.312 140.086 198.695 140.086C199.609 140.086 200.289 139.656 200.898 138.945L201.727 139.766ZM198.438 133.617C196.922 133.617 196.32 134.852 196.273 136.227H200.562C200.523 134.852 199.938 133.617 198.438 133.617ZM203.891 141V129.133H205.234V141H203.891ZM211.719 127.945H213.242L210.977 130.805H209.734L211.719 127.945ZM214.086 139.766C213.391 140.602 212.375 141.227 211.016 141.227C208.32 141.227 207.227 139.195 207.227 136.812C207.227 134.523 208.312 132.469 210.797 132.469C213.289 132.469 214.305 134.516 214.305 137V137.305H208.617C208.68 139.219 209.672 140.086 211.055 140.086C211.969 140.086 212.648 139.656 213.258 138.945L214.086 139.766ZM210.797 133.617C209.281 133.617 208.68 134.852 208.633 136.227H212.922C212.883 134.852 212.297 133.617 210.797 133.617ZM222.234 139.742C221.469 140.734 220.609 141.227 219.336 141.227C217.188 141.227 215.711 139.609 215.711 136.859C215.711 134.367 217.047 132.469 219.359 132.469C220.633 132.469 221.469 132.984 222.234 133.984L221.383 134.781C220.883 134.094 220.297 133.617 219.359 133.617C217.867 133.617 217.055 134.867 217.055 136.859C217.055 138.852 217.875 140.086 219.43 140.086C220.328 140.086 220.883 139.633 221.383 138.945L222.234 139.742ZM223.961 130.383H225.305V132.703H228.375V133.812H225.305V138.242C225.305 139.477 225.703 140.023 226.664 140.023C227.289 140.023 228.008 139.789 228.531 139.531L228.859 140.625C227.883 141.062 227.109 141.227 226.492 141.227C224.531 141.227 223.961 139.922 223.961 138.352V130.383ZM230.297 132.703H231.438L231.539 133.82C232.289 132.891 232.969 132.469 233.711 132.469C234.141 132.469 234.57 132.578 234.945 132.75L234.547 133.906C234.312 133.805 233.922 133.656 233.57 133.656C232.891 133.656 232.266 134.141 231.641 135.125V141H230.297V132.703ZM237.836 130.805H236.32V129.25H237.836V130.805ZM236.406 141V132.703H237.75V141H236.406ZM246.266 139.742C245.5 140.734 244.641 141.227 243.367 141.227C241.219 141.227 239.742 139.609 239.742 136.859C239.742 134.367 241.078 132.469 243.391 132.469C244.664 132.469 245.5 132.984 246.266 133.984L245.414 134.781C244.914 134.094 244.328 133.617 243.391 133.617C241.898 133.617 241.086 134.867 241.086 136.859C241.086 138.852 241.906 140.086 243.461 140.086C244.359 140.086 244.914 139.633 245.414 138.945L246.266 139.742ZM251.047 141.227C248.875 141.227 247.445 139.461 247.445 136.859C247.445 134.25 248.875 132.469 251.047 132.469C253.211 132.469 254.641 134.25 254.641 136.859C254.641 139.461 253.211 141.227 251.047 141.227ZM251.047 140.086C252.531 140.086 253.297 138.875 253.297 136.859C253.297 134.852 252.531 133.617 251.047 133.617C249.555 133.617 248.789 134.852 248.789 136.859C248.789 138.875 249.555 140.086 251.047 140.086ZM257.805 141H256.195V139.367H257.805V141ZM67.3828 167V162.164H62.7422V167H61.3828V156.383H62.7422V160.984H67.3828V156.383H68.75V167H67.3828ZM73.4609 167.242C71.9688 167.242 70.7422 166.547 70.7422 164.617C70.7422 162.547 72.5078 161.93 73.8828 161.93H75.9297V161.336C75.9297 160.109 75.2266 159.578 73.8984 159.578C73.0703 159.578 72.3672 159.797 71.7109 160.062L71.375 158.977C72.2344 158.672 73.1016 158.469 73.8984 158.469C75.8516 158.469 77.2734 159.297 77.2734 161.5V167H76.1406L76.0391 166C75.5703 166.586 74.5234 167.242 73.4609 167.242ZM73.6484 166.094C74.5391 166.094 75.3906 165.477 75.9297 164.891V163H74.1641C72.8203 163 72.0859 163.594 72.0859 164.617C72.0859 165.641 72.6875 166.094 73.6484 166.094ZM82.1484 158.469C83.3125 158.469 84.3125 158.875 85.1406 159.898L84.25 160.664C83.6719 159.922 82.9766 159.617 82.2109 159.617C81.0938 159.617 80.6172 160.094 80.6172 160.789C80.6172 161.562 81.0703 161.945 82.7734 162.258C84.7891 162.641 85.5703 163.422 85.5703 164.758C85.5703 166.305 84.4453 167.227 82.4297 167.227C80.9609 167.227 79.7891 166.594 79.0469 165.734L79.9062 164.891C80.5469 165.641 81.3672 166.086 82.4297 166.086C83.6484 166.086 84.2266 165.562 84.2266 164.781C84.2266 164.078 83.6797 163.609 82.2109 163.328C79.9219 162.891 79.2734 162.094 79.2734 160.828C79.2734 159.547 80.2344 158.469 82.1484 158.469ZM87.3047 156.383H88.6484V158.703H91.7188V159.812H88.6484V164.242C88.6484 165.477 89.0469 166.023 90.0078 166.023C90.6328 166.023 91.3516 165.789 91.875 165.531L92.2031 166.625C91.2266 167.062 90.4531 167.227 89.8359 167.227C87.875 167.227 87.3047 165.922 87.3047 164.352V156.383ZM95.6953 167.242C94.2031 167.242 92.9766 166.547 92.9766 164.617C92.9766 162.547 94.7422 161.93 96.1172 161.93H98.1641V161.336C98.1641 160.109 97.4609 159.578 96.1328 159.578C95.3047 159.578 94.6016 159.797 93.9453 160.062L93.6094 158.977C94.4688 158.672 95.3359 158.469 96.1328 158.469C98.0859 158.469 99.5078 159.297 99.5078 161.5V167H98.375L98.2734 166C97.8047 166.586 96.7578 167.242 95.6953 167.242ZM95.8828 166.094C96.7734 166.094 97.625 165.477 98.1641 164.891V163H96.3984C95.0547 163 94.3203 163.594 94.3203 164.617C94.3203 165.641 94.9219 166.094 95.8828 166.094ZM110.891 157.406H107.164L106.648 160.617C107.078 160.359 107.656 160.125 108.406 160.125C110.188 160.125 111.469 161.391 111.469 163.5C111.469 165.602 110.328 167.227 108.016 167.227C106.883 167.227 105.953 166.859 105.117 166.172L105.875 165.211C106.438 165.734 107.156 166.086 107.992 166.086C109.383 166.086 110.203 165.07 110.203 163.539C110.203 162.398 109.625 161.312 107.922 161.312C107.25 161.312 106.531 161.656 106.047 162.008L105.406 161.422L106.234 156.297H110.891V157.406ZM114.18 165.367C114.742 165.812 115.367 166.086 116.133 166.086C117.547 166.086 118.633 164.961 118.633 162.141C118.086 162.727 117.188 163.172 116.195 163.172C114.453 163.172 113.219 161.945 113.219 159.75C113.219 156.883 115.117 156.055 116.406 156.055C118.578 156.055 119.953 157.586 119.953 161.391C119.953 165.359 118.43 167.227 116.125 167.227C115.016 167.227 114.266 166.875 113.492 166.328L114.18 165.367ZM118.633 160.742C118.633 158.219 117.672 157.203 116.391 157.203C115.203 157.203 114.492 158.18 114.492 159.75C114.492 161.102 115.25 162.016 116.391 162.016C117.43 162.016 118.18 161.422 118.633 160.742ZM121.867 159.57V156.383H128.32V157.492L124.625 167H123.305L127.031 157.492H123.102V159.57H121.867ZM139.375 167L136.875 163.258L135.234 165.195V167H133.891V155.133H135.234V163.461L139.078 158.703H140.664L137.695 162.312L140.859 167H139.375ZM142.25 167V158.703H143.453L143.531 159.75C144.117 158.977 144.945 158.469 145.883 158.469C146.773 158.469 147.422 158.836 147.82 159.727C148.484 158.922 149.383 158.469 150.289 158.469C151.922 158.469 152.688 159.586 152.688 161.125V167H151.344V161.391C151.344 160.141 150.859 159.672 150.062 159.672C149.305 159.672 148.469 160.328 148.125 160.922C148.141 161.289 148.141 161.18 148.141 161.438V167H146.797V161.391C146.797 160.141 146.312 159.672 145.516 159.672C144.828 159.672 144.141 160.18 143.594 160.938V167H142.25ZM161.375 158.469C162.305 158.469 163.328 158.828 163.945 160.008V155.039H165.273V167H164.07L163.961 165.75C163.344 166.891 162.289 167.227 161.406 167.227C159.688 167.227 158.125 165.812 158.125 162.836C158.125 159.859 159.648 158.469 161.375 158.469ZM161.711 159.617C160.297 159.617 159.469 160.789 159.469 162.836C159.469 164.875 160.297 166.086 161.711 166.086C163.141 166.086 163.984 164.883 163.984 162.836C163.984 160.789 163.141 159.617 161.711 159.617ZM174.133 165.766C173.438 166.602 172.422 167.227 171.062 167.227C168.367 167.227 167.273 165.195 167.273 162.812C167.273 160.523 168.359 158.469 170.844 158.469C173.336 158.469 174.352 160.516 174.352 163V163.305H168.664C168.727 165.219 169.719 166.086 171.102 166.086C172.016 166.086 172.695 165.656 173.305 164.945L174.133 165.766ZM170.844 159.617C169.328 159.617 168.727 160.852 168.68 162.227H172.969C172.93 160.852 172.344 159.617 170.844 159.617ZM181.852 167.242C180.359 167.242 179.133 166.547 179.133 164.617C179.133 162.547 180.898 161.93 182.273 161.93H184.32V161.336C184.32 160.109 183.617 159.578 182.289 159.578C181.461 159.578 180.758 159.797 180.102 160.062L179.766 158.977C180.625 158.672 181.492 158.469 182.289 158.469C184.242 158.469 185.664 159.297 185.664 161.5V167H184.531L184.43 166C183.961 166.586 182.914 167.242 181.852 167.242ZM182.039 166.094C182.93 166.094 183.781 165.477 184.32 164.891V163H182.555C181.211 163 180.477 163.594 180.477 164.617C180.477 165.641 181.078 166.094 182.039 166.094ZM194.641 158.703V167H193.477L193.383 165.797C192.695 166.539 191.812 167.234 190.609 167.234C189.078 167.234 188.016 166.57 188.016 163.797V158.703H189.359V163.797C189.359 165.539 189.914 166.031 190.852 166.031C191.883 166.031 192.672 165.273 193.297 164.641V158.703H194.641ZM197.086 156.383H198.43V158.703H201.5V159.812H198.43V164.242C198.43 165.477 198.828 166.023 199.789 166.023C200.414 166.023 201.133 165.789 201.656 165.531L201.984 166.625C201.008 167.062 200.234 167.227 199.617 167.227C197.656 167.227 197.086 165.922 197.086 164.352V156.383ZM206.344 167.227C204.172 167.227 202.742 165.461 202.742 162.859C202.742 160.25 204.172 158.469 206.344 158.469C208.508 158.469 209.938 160.25 209.938 162.859C209.938 165.461 208.508 167.227 206.344 167.227ZM206.344 166.086C207.828 166.086 208.594 164.875 208.594 162.859C208.594 160.852 207.828 159.617 206.344 159.617C204.852 159.617 204.086 160.852 204.086 162.859C204.086 164.875 204.852 166.086 206.344 166.086ZM211.938 167V158.703H213.094L213.188 159.906C213.875 159.164 214.758 158.469 215.961 158.469C217.492 158.469 218.555 159.133 218.555 161.906V167H217.211V161.906C217.211 160.156 216.656 159.672 215.719 159.672C214.695 159.672 213.898 160.43 213.281 161.062V167H211.938ZM224.062 167.227C221.891 167.227 220.461 165.461 220.461 162.859C220.461 160.25 221.891 158.469 224.062 158.469C226.227 158.469 227.656 160.25 227.656 162.859C227.656 165.461 226.227 167.227 224.062 167.227ZM224.062 166.086C225.547 166.086 226.312 164.875 226.312 162.859C226.312 160.852 225.547 159.617 224.062 159.617C222.57 159.617 221.805 160.852 221.805 162.859C221.805 164.875 222.57 166.086 224.062 166.086ZM229.656 167V158.703H230.859L230.938 159.75C231.523 158.977 232.352 158.469 233.289 158.469C234.18 158.469 234.828 158.836 235.227 159.727C235.891 158.922 236.789 158.469 237.695 158.469C239.328 158.469 240.094 159.586 240.094 161.125V167H238.75V161.391C238.75 160.141 238.266 159.672 237.469 159.672C236.711 159.672 235.875 160.328 235.531 160.922C235.547 161.289 235.547 161.18 235.547 161.438V167H234.203V161.391C234.203 160.141 233.719 159.672 232.922 159.672C232.234 159.672 231.547 160.18 231 160.938V167H229.656ZM244.531 153.945H246.055L243.789 156.805H242.547L244.531 153.945ZM242.547 167V158.703H243.891V167H242.547ZM248.477 167.242C246.984 167.242 245.758 166.547 245.758 164.617C245.758 162.547 247.523 161.93 248.898 161.93H250.945V161.336C250.945 160.109 250.242 159.578 248.914 159.578C248.086 159.578 247.383 159.797 246.727 160.062L246.391 158.977C247.25 158.672 248.117 158.469 248.914 158.469C250.867 158.469 252.289 159.297 252.289 161.5V167H251.156L251.055 166C250.586 166.586 249.539 167.242 248.477 167.242ZM248.664 166.094C249.555 166.094 250.406 165.477 250.945 164.891V163H249.18C247.836 163 247.102 163.594 247.102 164.617C247.102 165.641 247.703 166.094 248.664 166.094ZM268.984 156.383L266.57 167H264.891L263.086 160.289L261.281 167H259.602L257.211 156.383H258.547L260.523 165.805L262.328 158.703H263.852L265.656 165.812L267.617 156.383H268.984ZM270.883 167V156.383H272.242V165.859H277.07V167H270.883ZM279.57 167V157.523H276.195V156.383H284.297V157.523H280.93V167H279.57ZM293.219 159.664C293.219 161.727 292.031 162.891 289.188 162.891H287.383V167.008H286.023V156.383H289.188C292.031 156.383 293.219 157.602 293.219 159.664ZM287.383 157.523V161.734H289.188C290.961 161.734 291.773 161.078 291.773 159.664C291.773 158.25 290.961 157.523 289.188 157.523H287.383ZM304.508 158.703L299.734 170.383H298.297L299.891 166.453L296.742 158.703H298.188L300.641 164.984L303.117 158.703H304.508ZM312 167.227C309.617 167.227 308.523 165.336 308.523 161.812C308.523 158.297 309.617 156.055 312 156.055C314.375 156.055 315.477 158.297 315.477 161.812C315.477 165.336 314.375 167.227 312 167.227ZM312 166.086C313.344 166.086 314.156 164.984 314.156 161.812C314.156 158.648 313.344 157.195 312 157.195C310.656 157.195 309.836 158.648 309.836 161.812C309.836 164.984 310.656 166.086 312 166.086ZM322.977 167.242C321.484 167.242 320.258 166.547 320.258 164.617C320.258 162.547 322.023 161.93 323.398 161.93H325.445V161.336C325.445 160.109 324.742 159.578 323.414 159.578C322.586 159.578 321.883 159.797 321.227 160.062L320.891 158.977C321.75 158.672 322.617 158.469 323.414 158.469C325.367 158.469 326.789 159.297 326.789 161.5V167H325.656L325.555 166C325.086 166.586 324.039 167.242 322.977 167.242ZM323.164 166.094C324.055 166.094 324.906 165.477 325.445 164.891V163H323.68C322.336 163 321.602 163.594 321.602 164.617C321.602 165.641 322.203 166.094 323.164 166.094ZM332.625 157.555L335.805 156.383H336.688V165.891H338.828V167H333.203V165.891H335.344V157.812L333 158.641L332.625 157.555ZM343.938 167.227C341.555 167.227 340.461 165.336 340.461 161.812C340.461 158.297 341.555 156.055 343.938 156.055C346.312 156.055 347.414 158.297 347.414 161.812C347.414 165.336 346.312 167.227 343.938 167.227ZM343.938 166.086C345.281 166.086 346.094 164.984 346.094 161.812C346.094 158.648 345.281 157.195 343.938 157.195C342.594 157.195 341.773 158.648 341.773 161.812C341.773 164.984 342.594 166.086 343.938 166.086ZM352.25 167.227C349.867 167.227 348.773 165.336 348.773 161.812C348.773 158.297 349.867 156.055 352.25 156.055C354.625 156.055 355.727 158.297 355.727 161.812C355.727 165.336 354.625 167.227 352.25 167.227ZM352.25 166.086C353.594 166.086 354.406 164.984 354.406 161.812C354.406 158.648 353.594 157.195 352.25 157.195C350.906 157.195 350.086 158.648 350.086 161.812C350.086 164.984 350.906 166.086 352.25 166.086ZM367.492 165.766C366.797 166.602 365.781 167.227 364.422 167.227C361.727 167.227 360.633 165.195 360.633 162.812C360.633 160.523 361.719 158.469 364.203 158.469C366.695 158.469 367.711 160.516 367.711 163V163.305H362.023C362.086 165.219 363.078 166.086 364.461 166.086C365.375 166.086 366.055 165.656 366.664 164.945L367.492 165.766ZM364.203 159.617C362.688 159.617 362.086 160.852 362.039 162.227H366.328C366.289 160.852 365.703 159.617 364.203 159.617ZM369.656 167V158.703H370.812L370.906 159.906C371.594 159.164 372.477 158.469 373.68 158.469C375.211 158.469 376.273 159.133 376.273 161.906V167H374.93V161.906C374.93 160.156 374.375 159.672 373.438 159.672C372.414 159.672 371.617 160.43 371 161.062V167H369.656ZM382.523 165.234C383.07 165.734 383.852 166.086 384.797 166.086C386.227 166.086 386.875 165.211 386.875 164.094C386.875 162.805 385.883 162.125 384.43 162.125H383.875V161.016H384.43C385.656 161.016 386.531 160.336 386.531 159.102C386.531 157.727 385.578 157.195 384.602 157.195C383.852 157.195 383.133 157.516 382.57 158.07L381.805 157.148C382.641 156.406 383.617 156.055 384.719 156.055C386.906 156.055 387.781 157.477 387.781 158.977C387.781 159.891 387.391 161.117 386.203 161.523C387.391 161.883 388.164 162.875 388.164 164.156C388.164 166.32 386.68 167.227 384.93 167.227C383.508 167.227 382.539 166.852 381.773 166.172L382.523 165.234ZM392.164 165.07L390.359 170.062H389.094L390.57 165.07H392.164ZM394.102 159.57V156.383H400.555V157.492L396.859 167H395.539L399.266 157.492H395.336V159.57H394.102ZM408.555 158.469C409.719 158.469 410.719 158.875 411.547 159.898L410.656 160.664C410.078 159.922 409.383 159.617 408.617 159.617C407.5 159.617 407.023 160.094 407.023 160.789C407.023 161.562 407.477 161.945 409.18 162.258C411.195 162.641 411.977 163.422 411.977 164.758C411.977 166.305 410.852 167.227 408.836 167.227C407.367 167.227 406.195 166.594 405.453 165.734L406.312 164.891C406.953 165.641 407.773 166.086 408.836 166.086C410.055 166.086 410.633 165.562 410.633 164.781C410.633 164.078 410.086 163.609 408.617 163.328C406.328 162.891 405.68 162.094 405.68 160.828C405.68 159.547 406.641 158.469 408.555 158.469ZM420.117 165.766C419.422 166.602 418.406 167.227 417.047 167.227C414.352 167.227 413.258 165.195 413.258 162.812C413.258 160.523 414.344 158.469 416.828 158.469C419.32 158.469 420.336 160.516 420.336 163V163.305H414.648C414.711 165.219 415.703 166.086 417.086 166.086C418 166.086 418.68 165.656 419.289 164.945L420.117 165.766ZM416.828 159.617C415.312 159.617 414.711 160.852 414.664 162.227H418.953C418.914 160.852 418.328 159.617 416.828 159.617ZM425.07 158.469C426.117 158.469 427.016 158.922 427.594 160.008V158.703H428.867V167.008C428.867 169.344 427.336 170.367 425 170.367H422.914V169.258H425.023C426.727 169.258 427.523 168.438 427.523 166.906V165.688C427.07 166.656 426.219 167.125 425.023 167.125C423.359 167.125 421.766 165.766 421.766 162.812C421.766 159.859 423.297 158.469 425.07 158.469ZM425.383 159.617C423.891 159.617 423.094 160.859 423.094 162.812C423.094 164.758 423.891 165.945 425.383 165.945C426.875 165.945 427.633 164.773 427.633 162.812C427.633 160.867 426.883 159.617 425.383 159.617ZM437.922 158.703V167H436.758L436.664 165.797C435.977 166.539 435.094 167.234 433.891 167.234C432.359 167.234 431.297 166.57 431.297 163.797V158.703H432.641V163.797C432.641 165.539 433.195 166.031 434.133 166.031C435.164 166.031 435.953 165.273 436.578 164.641V158.703H437.922ZM440.453 167V158.703H441.609L441.703 159.906C442.391 159.164 443.273 158.469 444.477 158.469C446.008 158.469 447.07 159.133 447.07 161.906V167H445.727V161.906C445.727 160.156 445.172 159.672 444.234 159.672C443.211 159.672 442.414 160.43 441.797 161.062V167H440.453ZM452.25 158.469C453.18 158.469 454.203 158.828 454.82 160.008V155.039H456.148V167H454.945L454.836 165.75C454.219 166.891 453.164 167.227 452.281 167.227C450.562 167.227 449 165.812 449 162.836C449 159.859 450.523 158.469 452.25 158.469ZM452.586 159.617C451.172 159.617 450.344 160.789 450.344 162.836C450.344 164.875 451.172 166.086 452.586 166.086C454.016 166.086 454.859 164.883 454.859 162.836C454.859 160.789 454.016 159.617 452.586 159.617ZM461.75 167.227C459.578 167.227 458.148 165.461 458.148 162.859C458.148 160.25 459.578 158.469 461.75 158.469C463.914 158.469 465.344 160.25 465.344 162.859C465.344 165.461 463.914 167.227 461.75 167.227ZM461.75 166.086C463.234 166.086 464 164.875 464 162.859C464 160.852 463.234 159.617 461.75 159.617C460.258 159.617 459.492 160.852 459.492 162.859C459.492 164.875 460.258 166.086 461.75 166.086ZM469.773 158.469C470.938 158.469 471.938 158.875 472.766 159.898L471.875 160.664C471.297 159.922 470.602 159.617 469.836 159.617C468.719 159.617 468.242 160.094 468.242 160.789C468.242 161.562 468.695 161.945 470.398 162.258C472.414 162.641 473.195 163.422 473.195 164.758C473.195 166.305 472.07 167.227 470.055 167.227C468.586 167.227 467.414 166.594 466.672 165.734L467.531 164.891C468.172 165.641 468.992 166.086 470.055 166.086C471.273 166.086 471.852 165.562 471.852 164.781C471.852 164.078 471.305 163.609 469.836 163.328C467.547 162.891 466.898 162.094 466.898 160.828C466.898 159.547 467.859 158.469 469.773 158.469ZM484.836 165.766C484.141 166.602 483.125 167.227 481.766 167.227C479.07 167.227 477.977 165.195 477.977 162.812C477.977 160.523 479.062 158.469 481.547 158.469C484.039 158.469 485.055 160.516 485.055 163V163.305H479.367C479.43 165.219 480.422 166.086 481.805 166.086C482.719 166.086 483.398 165.656 484.008 164.945L484.836 165.766ZM481.547 159.617C480.031 159.617 479.43 160.852 479.383 162.227H483.672C483.633 160.852 483.047 159.617 481.547 159.617ZM487 167V158.703H488.156L488.25 159.906C488.938 159.164 489.82 158.469 491.023 158.469C492.555 158.469 493.617 159.133 493.617 161.906V167H492.273V161.906C492.273 160.156 491.719 159.672 490.781 159.672C489.758 159.672 488.961 160.43 488.344 161.062V167H487ZM501.992 158.469C503.156 158.469 504.156 158.875 504.984 159.898L504.094 160.664C503.516 159.922 502.82 159.617 502.055 159.617C500.938 159.617 500.461 160.094 500.461 160.789C500.461 161.562 500.914 161.945 502.617 162.258C504.633 162.641 505.414 163.422 505.414 164.758C505.414 166.305 504.289 167.227 502.273 167.227C500.805 167.227 499.633 166.594 498.891 165.734L499.75 164.891C500.391 165.641 501.211 166.086 502.273 166.086C503.492 166.086 504.07 165.562 504.07 164.781C504.07 164.078 503.523 163.609 502.055 163.328C499.766 162.891 499.117 162.094 499.117 160.828C499.117 159.547 500.078 158.469 501.992 158.469ZM513.766 158.703V167H512.602L512.508 165.797C511.82 166.539 510.938 167.234 509.734 167.234C508.203 167.234 507.141 166.57 507.141 163.797V158.703H508.484V163.797C508.484 165.539 509.039 166.031 509.977 166.031C511.008 166.031 511.797 165.273 512.422 164.641V158.703H513.766ZM526.117 158.703L523.078 167H521.539L518.508 158.703H519.875L522.312 165.656L524.734 158.703H526.117ZM533.852 165.766C533.156 166.602 532.141 167.227 530.781 167.227C528.086 167.227 526.992 165.195 526.992 162.812C526.992 160.523 528.078 158.469 530.562 158.469C533.055 158.469 534.07 160.516 534.07 163V163.305H528.383C528.445 165.219 529.438 166.086 530.82 166.086C531.734 166.086 532.414 165.656 533.023 164.945L533.852 165.766ZM530.562 159.617C529.047 159.617 528.445 160.852 528.398 162.227H532.688C532.648 160.852 532.062 159.617 530.562 159.617ZM536.016 158.703H537.156L537.258 159.82C538.008 158.891 538.688 158.469 539.43 158.469C539.859 158.469 540.289 158.578 540.664 158.75L540.266 159.906C540.031 159.805 539.641 159.656 539.289 159.656C538.609 159.656 537.984 160.141 537.359 161.125V167H536.016V158.703ZM544.398 158.469C545.562 158.469 546.562 158.875 547.391 159.898L546.5 160.664C545.922 159.922 545.227 159.617 544.461 159.617C543.344 159.617 542.867 160.094 542.867 160.789C542.867 161.562 543.32 161.945 545.023 162.258C547.039 162.641 547.82 163.422 547.82 164.758C547.82 166.305 546.695 167.227 544.68 167.227C543.211 167.227 542.039 166.594 541.297 165.734L542.156 164.891C542.797 165.641 543.617 166.086 544.68 166.086C545.898 166.086 546.477 165.562 546.477 164.781C546.477 164.078 545.93 163.609 544.461 163.328C542.172 162.891 541.523 162.094 541.523 160.828C541.523 159.547 542.484 158.469 544.398 158.469ZM551.07 156.805H549.555V155.25H551.07V156.805ZM549.641 167V158.703H550.984V167H549.641ZM557.477 153.945H559L556.734 156.805H555.492L557.477 153.945ZM556.578 167.227C554.406 167.227 552.977 165.461 552.977 162.859C552.977 160.25 554.406 158.469 556.578 158.469C558.742 158.469 560.172 160.25 560.172 162.859C560.172 165.461 558.742 167.227 556.578 167.227ZM556.578 166.086C558.062 166.086 558.828 164.875 558.828 162.859C558.828 160.852 558.062 159.617 556.578 159.617C555.086 159.617 554.32 160.852 554.32 162.859C554.32 164.875 555.086 166.086 556.578 166.086ZM562.172 167V158.703H563.328L563.422 159.906C564.109 159.164 564.992 158.469 566.195 158.469C567.727 158.469 568.789 159.133 568.789 161.906V167H567.445V161.906C567.445 160.156 566.891 159.672 565.953 159.672C564.93 159.672 564.133 160.43 563.516 161.062V167H562.172ZM574.852 156.383H578.117C580.367 156.383 581.445 157.5 581.445 159.188C581.445 159.977 581.102 161.125 580.117 161.438C581.195 161.727 582.016 162.617 582.016 164.016C582.016 166.055 580.391 167 578.281 167H574.852V156.383ZM576.211 157.523V160.922H578.055C579.461 160.922 580 160.25 580 159.25C580 158.211 579.43 157.523 578.031 157.523H576.211ZM576.211 162.07V165.859H578.195C579.852 165.859 580.57 164.984 580.57 163.953C580.57 162.898 579.844 162.07 578.219 162.07H576.211ZM587.305 162.633H585.523V167.008H584.164V156.383H587.18C589.695 156.383 590.805 157.57 590.805 159.508C590.805 161.141 589.922 162.07 588.664 162.445L591.086 167H589.586L587.305 162.633ZM585.523 157.523V161.484H587.109C588.641 161.484 589.352 160.727 589.352 159.508C589.352 158.281 588.648 157.523 587.109 157.523H585.523ZM598.602 164.531H594.227L593.375 167H591.969L595.766 156.383H597.211L600.812 167H599.43L598.602 164.531ZM594.609 163.391H598.219L596.445 158.102L594.609 163.391ZM602.523 156.383H605.789C608.039 156.383 609.117 157.5 609.117 159.188C609.117 159.977 608.773 161.125 607.789 161.438C608.867 161.727 609.688 162.617 609.688 164.016C609.688 166.055 608.062 167 605.953 167H602.523V156.383ZM603.883 157.523V160.922H605.727C607.133 160.922 607.672 160.25 607.672 159.25C607.672 158.211 607.102 157.523 605.703 157.523H603.883ZM603.883 162.07V165.859H605.867C607.523 165.859 608.242 164.984 608.242 163.953C608.242 162.898 607.516 162.07 605.891 162.07H603.883ZM619.133 156.383V163.375C619.133 165.773 617.969 167.227 615.438 167.227C612.914 167.227 611.742 165.773 611.742 163.375V156.383H613.102V163.375C613.102 165.18 613.875 166.023 615.438 166.023C617.008 166.023 617.773 165.18 617.773 163.375V156.383H619.133ZM624.664 156.125C626.219 156.125 627.406 156.906 628.031 158.391L626.812 158.938C626.516 157.992 625.781 157.305 624.664 157.305C623.453 157.305 622.711 157.805 622.711 158.938C622.711 159.805 623.266 160.461 624.852 160.992C627 161.711 628.242 162.359 628.242 164.242C628.242 166.117 626.984 167.227 624.711 167.227C623.094 167.227 621.922 166.594 621.109 165.453L622.203 164.641C622.531 165.258 623.398 166.055 624.711 166.055C626.203 166.055 626.828 165.336 626.828 164.312C626.828 163.195 626.047 162.828 624.453 162.273C622.562 161.633 621.297 160.852 621.297 158.945C621.297 157.438 622.234 156.125 624.664 156.125ZM631.617 167H630.008V165.367H631.617V167Z" fill="white"/>
<path opacity="0.99" d="M65.292 186.457H62.5576L62.0254 188H61.1465L63.5195 181.364H64.4229L66.6738 188H65.8096L65.292 186.457ZM62.7969 185.744H65.0527L63.9443 182.438L62.7969 185.744ZM71.6836 182.814V188H70.9561L70.8975 187.248C70.4678 187.712 69.916 188.146 69.1641 188.146C68.207 188.146 67.543 187.731 67.543 185.998V182.814H68.3828V185.998C68.3828 187.087 68.7295 187.395 69.3154 187.395C69.96 187.395 70.4531 186.921 70.8438 186.525V182.814H71.6836ZM73.2119 181.364H74.0518V182.814H75.9707V183.508H74.0518V186.276C74.0518 187.048 74.3008 187.39 74.9014 187.39C75.292 187.39 75.7412 187.243 76.0684 187.082L76.2734 187.766C75.6631 188.039 75.1797 188.142 74.7939 188.142C73.5684 188.142 73.2119 187.326 73.2119 186.345V181.364ZM78.998 188.142C77.6406 188.142 76.7471 187.038 76.7471 185.412C76.7471 183.781 77.6406 182.668 78.998 182.668C80.3506 182.668 81.2441 183.781 81.2441 185.412C81.2441 187.038 80.3506 188.142 78.998 188.142ZM78.998 187.429C79.9258 187.429 80.4043 186.672 80.4043 185.412C80.4043 184.157 79.9258 183.386 78.998 183.386C78.0654 183.386 77.5869 184.157 77.5869 185.412C77.5869 186.672 78.0654 187.429 78.998 187.429ZM82.4941 188V182.814H83.2168L83.2754 183.566C83.7051 183.103 84.2568 182.668 85.0088 182.668C85.9658 182.668 86.6299 183.083 86.6299 184.816V188H85.79V184.816C85.79 183.723 85.4434 183.42 84.8574 183.42C84.2178 183.42 83.7197 183.894 83.334 184.289V188H82.4941ZM90.0723 188.142C88.7148 188.142 87.8213 187.038 87.8213 185.412C87.8213 183.781 88.7148 182.668 90.0723 182.668C91.4248 182.668 92.3184 183.781 92.3184 185.412C92.3184 187.038 91.4248 188.142 90.0723 188.142ZM90.0723 187.429C91 187.429 91.4785 186.672 91.4785 185.412C91.4785 184.157 91 183.386 90.0723 183.386C89.1396 183.386 88.6611 184.157 88.6611 185.412C88.6611 186.672 89.1396 187.429 90.0723 187.429ZM93.5684 188V182.814H94.3203L94.3691 183.469C94.7354 182.985 95.2529 182.668 95.8389 182.668C96.3955 182.668 96.8008 182.897 97.0498 183.454C97.4648 182.951 98.0264 182.668 98.5928 182.668C99.6133 182.668 100.092 183.366 100.092 184.328V188H99.252V184.494C99.252 183.713 98.9492 183.42 98.4512 183.42C97.9775 183.42 97.4551 183.83 97.2402 184.201C97.25 184.431 97.25 184.362 97.25 184.523V188H96.4102V184.494C96.4102 183.713 96.1074 183.42 95.6094 183.42C95.1797 183.42 94.75 183.737 94.4082 184.211V188H93.5684ZM102.865 179.841H103.817L102.401 181.628H101.625L102.865 179.841ZM101.625 188V182.814H102.465V188H101.625ZM105.331 188.151C104.398 188.151 103.632 187.717 103.632 186.511C103.632 185.217 104.735 184.831 105.595 184.831H106.874V184.46C106.874 183.693 106.435 183.361 105.604 183.361C105.087 183.361 104.647 183.498 104.237 183.664L104.027 182.985C104.564 182.795 105.106 182.668 105.604 182.668C106.825 182.668 107.714 183.186 107.714 184.562V188H107.006L106.942 187.375C106.649 187.741 105.995 188.151 105.331 188.151ZM105.448 187.434C106.005 187.434 106.537 187.048 106.874 186.682V185.5H105.771C104.931 185.5 104.472 185.871 104.472 186.511C104.472 187.15 104.848 187.434 105.448 187.434ZM112.948 182.668C113.676 182.668 114.301 182.922 114.818 183.562L114.262 184.04C113.9 183.576 113.466 183.386 112.987 183.386C112.289 183.386 111.991 183.684 111.991 184.118C111.991 184.602 112.274 184.841 113.339 185.036C114.599 185.275 115.087 185.764 115.087 186.599C115.087 187.565 114.384 188.142 113.124 188.142C112.206 188.142 111.474 187.746 111.01 187.209L111.547 186.682C111.947 187.15 112.46 187.429 113.124 187.429C113.886 187.429 114.247 187.102 114.247 186.613C114.247 186.174 113.905 185.881 112.987 185.705C111.557 185.432 111.151 184.934 111.151 184.143C111.151 183.342 111.752 182.668 112.948 182.668ZM120.307 182.814V188H119.579L119.521 187.248C119.091 187.712 118.539 188.146 117.787 188.146C116.83 188.146 116.166 187.731 116.166 185.998V182.814H117.006V185.998C117.006 187.087 117.353 187.395 117.938 187.395C118.583 187.395 119.076 186.921 119.467 186.525V182.814H120.307ZM122.782 181.628H121.835V180.656H122.782V181.628ZM120.023 189.411H120.849C121.522 189.411 121.889 188.991 121.889 188V182.814H122.729V187.946C122.729 189.431 122.084 190.104 120.912 190.104H120.023V189.411ZM128.261 187.229C127.826 187.751 127.191 188.142 126.342 188.142C124.657 188.142 123.974 186.872 123.974 185.383C123.974 183.952 124.652 182.668 126.205 182.668C127.763 182.668 128.397 183.947 128.397 185.5V185.69H124.843C124.882 186.887 125.502 187.429 126.366 187.429C126.938 187.429 127.362 187.16 127.743 186.716L128.261 187.229ZM126.205 183.386C125.258 183.386 124.882 184.157 124.853 185.017H127.533C127.509 184.157 127.143 183.386 126.205 183.386ZM129.56 181.364H130.399V182.814H132.318V183.508H130.399V186.276C130.399 187.048 130.648 187.39 131.249 187.39C131.64 187.39 132.089 187.243 132.416 187.082L132.621 187.766C132.011 188.039 131.527 188.142 131.142 188.142C129.916 188.142 129.56 187.326 129.56 186.345V181.364ZM134.804 188.151C133.871 188.151 133.104 187.717 133.104 186.511C133.104 185.217 134.208 184.831 135.067 184.831H136.347V184.46C136.347 183.693 135.907 183.361 135.077 183.361C134.56 183.361 134.12 183.498 133.71 183.664L133.5 182.985C134.037 182.795 134.579 182.668 135.077 182.668C136.298 182.668 137.187 183.186 137.187 184.562V188H136.479L136.415 187.375C136.122 187.741 135.468 188.151 134.804 188.151ZM134.921 187.434C135.478 187.434 136.01 187.048 136.347 186.682V185.5H135.243C134.403 185.5 133.944 185.871 133.944 186.511C133.944 187.15 134.32 187.434 134.921 187.434ZM142.187 188.151C141.254 188.151 140.487 187.717 140.487 186.511C140.487 185.217 141.591 184.831 142.45 184.831H143.729V184.46C143.729 183.693 143.29 183.361 142.46 183.361C141.942 183.361 141.503 183.498 141.093 183.664L140.883 182.985C141.42 182.795 141.962 182.668 142.46 182.668C143.681 182.668 144.569 183.186 144.569 184.562V188H143.861L143.798 187.375C143.505 187.741 142.851 188.151 142.187 188.151ZM142.304 187.434C142.86 187.434 143.393 187.048 143.729 186.682V185.5H142.626C141.786 185.5 141.327 185.871 141.327 186.511C141.327 187.15 141.703 187.434 142.304 187.434ZM148.231 181.364H149.071V182.814H150.99V183.508H149.071V186.276C149.071 187.048 149.32 187.39 149.921 187.39C150.312 187.39 150.761 187.243 151.088 187.082L151.293 187.766C150.683 188.039 150.199 188.142 149.813 188.142C148.588 188.142 148.231 187.326 148.231 186.345V181.364ZM153.085 181.628H152.138V180.656H153.085V181.628ZM152.191 188V182.814H153.031V188H152.191ZM154.613 190.1V182.814H155.37L155.443 183.591C155.834 182.897 156.449 182.668 157.03 182.668C158.134 182.668 159.081 183.557 159.081 185.417C159.081 187.272 158.134 188.142 157.03 188.142C156.449 188.142 155.829 187.917 155.448 187.18V190.1H154.613ZM156.83 187.424C157.719 187.424 158.241 186.691 158.241 185.417C158.241 184.138 157.719 183.381 156.83 183.381C155.941 183.381 155.419 184.133 155.419 185.417C155.419 186.691 155.941 187.424 156.83 187.424ZM162.26 188.142C160.902 188.142 160.009 187.038 160.009 185.412C160.009 183.781 160.902 182.668 162.26 182.668C163.612 182.668 164.506 183.781 164.506 185.412C164.506 187.038 163.612 188.142 162.26 188.142ZM162.26 187.429C163.188 187.429 163.666 186.672 163.666 185.412C163.666 184.157 163.188 183.386 162.26 183.386C161.327 183.386 160.849 184.157 160.849 185.412C160.849 186.672 161.327 187.429 162.26 187.429ZM169.652 182.668C170.233 182.668 170.873 182.893 171.259 183.63V180.524H172.089V188H171.337L171.269 187.219C170.883 187.932 170.224 188.142 169.672 188.142C168.598 188.142 167.621 187.258 167.621 185.397C167.621 183.537 168.573 182.668 169.652 182.668ZM169.862 183.386C168.979 183.386 168.461 184.118 168.461 185.397C168.461 186.672 168.979 187.429 169.862 187.429C170.756 187.429 171.283 186.677 171.283 185.397C171.283 184.118 170.756 183.386 169.862 183.386ZM177.626 187.229C177.191 187.751 176.557 188.142 175.707 188.142C174.022 188.142 173.339 186.872 173.339 185.383C173.339 183.952 174.018 182.668 175.57 182.668C177.128 182.668 177.763 183.947 177.763 185.5V185.69H174.208C174.247 186.887 174.867 187.429 175.731 187.429C176.303 187.429 176.728 187.16 177.108 186.716L177.626 187.229ZM175.57 183.386C174.623 183.386 174.247 184.157 174.218 185.017H176.898C176.874 184.157 176.508 183.386 175.57 183.386ZM184.906 187.214C184.428 187.834 183.891 188.142 183.095 188.142C181.752 188.142 180.829 187.131 180.829 185.412C180.829 183.854 181.664 182.668 183.109 182.668C183.905 182.668 184.428 182.99 184.906 183.615L184.374 184.113C184.062 183.684 183.695 183.386 183.109 183.386C182.177 183.386 181.669 184.167 181.669 185.412C181.669 186.657 182.182 187.429 183.153 187.429C183.715 187.429 184.062 187.146 184.374 186.716L184.906 187.214ZM187.895 188.142C186.537 188.142 185.644 187.038 185.644 185.412C185.644 183.781 186.537 182.668 187.895 182.668C189.247 182.668 190.141 183.781 190.141 185.412C190.141 187.038 189.247 188.142 187.895 188.142ZM187.895 187.429C188.822 187.429 189.301 186.672 189.301 185.412C189.301 184.157 188.822 183.386 187.895 183.386C186.962 183.386 186.483 184.157 186.483 185.412C186.483 186.672 186.962 187.429 187.895 187.429ZM191.391 188V182.814H192.113L192.172 183.566C192.602 183.103 193.153 182.668 193.905 182.668C194.862 182.668 195.526 183.083 195.526 184.816V188H194.687V184.816C194.687 183.723 194.34 183.42 193.754 183.42C193.114 183.42 192.616 183.894 192.23 184.289V188H191.391ZM198.764 182.668C199.345 182.668 199.984 182.893 200.37 183.63V180.524H201.2V188H200.448L200.38 187.219C199.994 187.932 199.335 188.142 198.783 188.142C197.709 188.142 196.732 187.258 196.732 185.397C196.732 183.537 197.685 182.668 198.764 182.668ZM198.974 183.386C198.09 183.386 197.572 184.118 197.572 185.397C197.572 186.672 198.09 187.429 198.974 187.429C199.867 187.429 200.395 186.677 200.395 185.397C200.395 184.118 199.867 183.386 198.974 183.386ZM206.869 182.814V188H206.142L206.083 187.248C205.653 187.712 205.102 188.146 204.35 188.146C203.393 188.146 202.729 187.731 202.729 185.998V182.814H203.568V185.998C203.568 187.087 203.915 187.395 204.501 187.395C205.146 187.395 205.639 186.921 206.029 186.525V182.814H206.869ZM212.191 187.214C211.713 187.834 211.176 188.142 210.38 188.142C209.037 188.142 208.114 187.131 208.114 185.412C208.114 183.854 208.949 182.668 210.395 182.668C211.19 182.668 211.713 182.99 212.191 183.615L211.659 184.113C211.347 183.684 210.98 183.386 210.395 183.386C209.462 183.386 208.954 184.167 208.954 185.412C208.954 186.657 209.467 187.429 210.438 187.429C211 187.429 211.347 187.146 211.659 186.716L212.191 187.214ZM217.006 187.214C216.527 187.834 215.99 188.142 215.194 188.142C213.852 188.142 212.929 187.131 212.929 185.412C212.929 183.854 213.764 182.668 215.209 182.668C216.005 182.668 216.527 182.99 217.006 183.615L216.474 184.113C216.161 183.684 215.795 183.386 215.209 183.386C214.276 183.386 213.769 184.167 213.769 185.412C213.769 186.657 214.281 187.429 215.253 187.429C215.814 187.429 216.161 187.146 216.474 186.716L217.006 187.214ZM219.032 181.628H218.085V180.656H219.032V181.628ZM218.139 188V182.814H218.979V188H218.139ZM223.036 179.841H223.988L222.572 181.628H221.796L223.036 179.841ZM222.475 188.142C221.117 188.142 220.224 187.038 220.224 185.412C220.224 183.781 221.117 182.668 222.475 182.668C223.827 182.668 224.721 183.781 224.721 185.412C224.721 187.038 223.827 188.142 222.475 188.142ZM222.475 187.429C223.402 187.429 223.881 186.672 223.881 185.412C223.881 184.157 223.402 183.386 222.475 183.386C221.542 183.386 221.063 184.157 221.063 185.412C221.063 186.672 221.542 187.429 222.475 187.429ZM225.971 188V182.814H226.693L226.752 183.566C227.182 183.103 227.733 182.668 228.485 182.668C229.442 182.668 230.106 183.083 230.106 184.816V188H229.267V184.816C229.267 183.723 228.92 183.42 228.334 183.42C227.694 183.42 227.196 183.894 226.811 184.289V188H225.971ZM232.655 186.794L231.527 189.914H230.736L231.659 186.794H232.655ZM239.682 187.214C239.203 187.834 238.666 188.142 237.87 188.142C236.527 188.142 235.604 187.131 235.604 185.412C235.604 183.854 236.439 182.668 237.885 182.668C238.681 182.668 239.203 182.99 239.682 183.615L239.149 184.113C238.837 183.684 238.471 183.386 237.885 183.386C236.952 183.386 236.444 184.167 236.444 185.412C236.444 186.657 236.957 187.429 237.929 187.429C238.49 187.429 238.837 187.146 239.149 186.716L239.682 187.214ZM242.67 188.142C241.312 188.142 240.419 187.038 240.419 185.412C240.419 183.781 241.312 182.668 242.67 182.668C244.022 182.668 244.916 183.781 244.916 185.412C244.916 187.038 244.022 188.142 242.67 188.142ZM242.67 187.429C243.598 187.429 244.076 186.672 244.076 185.412C244.076 184.157 243.598 183.386 242.67 183.386C241.737 183.386 241.259 184.157 241.259 185.412C241.259 186.672 241.737 187.429 242.67 187.429ZM246.166 188V182.814H246.889L246.947 183.566C247.377 183.103 247.929 182.668 248.681 182.668C249.638 182.668 250.302 183.083 250.302 184.816V188H249.462V184.816C249.462 183.723 249.115 183.42 248.529 183.42C247.89 183.42 247.392 183.894 247.006 184.289V188H246.166ZM253.539 182.668C254.12 182.668 254.76 182.893 255.146 183.63V180.524H255.976V188H255.224L255.155 187.219C254.77 187.932 254.11 188.142 253.559 188.142C252.484 188.142 251.508 187.258 251.508 185.397C251.508 183.537 252.46 182.668 253.539 182.668ZM253.749 183.386C252.865 183.386 252.348 184.118 252.348 185.397C252.348 186.672 252.865 187.429 253.749 187.429C254.643 187.429 255.17 186.677 255.17 185.397C255.17 184.118 254.643 183.386 253.749 183.386ZM258.456 181.628H257.509V180.656H258.456V181.628ZM257.562 188V182.814H258.402V188H257.562ZM263.725 187.214C263.246 187.834 262.709 188.142 261.913 188.142C260.57 188.142 259.647 187.131 259.647 185.412C259.647 183.854 260.482 182.668 261.928 182.668C262.724 182.668 263.246 182.99 263.725 183.615L263.192 184.113C262.88 183.684 262.514 183.386 261.928 183.386C260.995 183.386 260.487 184.167 260.487 185.412C260.487 186.657 261 187.429 261.972 187.429C262.533 187.429 262.88 187.146 263.192 186.716L263.725 187.214ZM265.751 181.628H264.804V180.656H265.751V181.628ZM264.857 188V182.814H265.697V188H264.857ZM269.193 188.142C267.836 188.142 266.942 187.038 266.942 185.412C266.942 183.781 267.836 182.668 269.193 182.668C270.546 182.668 271.439 183.781 271.439 185.412C271.439 187.038 270.546 188.142 269.193 188.142ZM269.193 187.429C270.121 187.429 270.6 186.672 270.6 185.412C270.6 184.157 270.121 183.386 269.193 183.386C268.261 183.386 267.782 184.157 267.782 185.412C267.782 186.672 268.261 187.429 269.193 187.429ZM272.689 188V182.814H273.412L273.471 183.566C273.9 183.103 274.452 182.668 275.204 182.668C276.161 182.668 276.825 183.083 276.825 184.816V188H275.985V184.816C275.985 183.723 275.639 183.42 275.053 183.42C274.413 183.42 273.915 183.894 273.529 184.289V188H272.689ZM282.304 187.229C281.869 187.751 281.234 188.142 280.385 188.142C278.7 188.142 278.017 186.872 278.017 185.383C278.017 183.952 278.695 182.668 280.248 182.668C281.806 182.668 282.44 183.947 282.44 185.5V185.69H278.886C278.925 186.887 279.545 187.429 280.409 187.429C280.98 187.429 281.405 187.16 281.786 186.716L282.304 187.229ZM280.248 183.386C279.301 183.386 278.925 184.157 278.896 185.017H281.576C281.552 184.157 281.186 183.386 280.248 183.386ZM285.175 182.668C285.902 182.668 286.527 182.922 287.045 183.562L286.488 184.04C286.127 183.576 285.692 183.386 285.214 183.386C284.516 183.386 284.218 183.684 284.218 184.118C284.218 184.602 284.501 184.841 285.565 185.036C286.825 185.275 287.313 185.764 287.313 186.599C287.313 187.565 286.61 188.142 285.351 188.142C284.433 188.142 283.7 187.746 283.236 187.209L283.773 186.682C284.174 187.15 284.687 187.429 285.351 187.429C286.112 187.429 286.474 187.102 286.474 186.613C286.474 186.174 286.132 185.881 285.214 185.705C283.783 185.432 283.378 184.934 283.378 184.143C283.378 183.342 283.979 182.668 285.175 182.668ZM292.348 182.668C292.929 182.668 293.568 182.893 293.954 183.63V180.524H294.784V188H294.032L293.964 187.219C293.578 187.932 292.919 188.142 292.367 188.142C291.293 188.142 290.316 187.258 290.316 185.397C290.316 183.537 291.269 182.668 292.348 182.668ZM292.558 183.386C291.674 183.386 291.156 184.118 291.156 185.397C291.156 186.672 291.674 187.429 292.558 187.429C293.451 187.429 293.979 186.677 293.979 185.397C293.979 184.118 293.451 183.386 292.558 183.386ZM300.321 187.229C299.887 187.751 299.252 188.142 298.402 188.142C296.718 188.142 296.034 186.872 296.034 185.383C296.034 183.952 296.713 182.668 298.266 182.668C299.823 182.668 300.458 183.947 300.458 185.5V185.69H296.903C296.942 186.887 297.562 187.429 298.427 187.429C298.998 187.429 299.423 187.16 299.804 186.716L300.321 187.229ZM298.266 183.386C297.318 183.386 296.942 184.157 296.913 185.017H299.594C299.569 184.157 299.203 183.386 298.266 183.386ZM301.674 188V180.583H302.514V188H301.674ZM306.229 181.364H307.069V182.814H308.988V183.508H307.069V186.276C307.069 187.048 307.318 187.39 307.919 187.39C308.31 187.39 308.759 187.243 309.086 187.082L309.291 187.766C308.681 188.039 308.197 188.142 307.812 188.142C306.586 188.142 306.229 187.326 306.229 186.345V181.364ZM314.052 187.229C313.617 187.751 312.982 188.142 312.133 188.142C310.448 188.142 309.765 186.872 309.765 185.383C309.765 183.952 310.443 182.668 311.996 182.668C313.554 182.668 314.188 183.947 314.188 185.5V185.69H310.634C310.673 186.887 311.293 187.429 312.157 187.429C312.729 187.429 313.153 187.16 313.534 186.716L314.052 187.229ZM311.996 183.386C311.049 183.386 310.673 184.157 310.644 185.017H313.324C313.3 184.157 312.934 183.386 311.996 183.386ZM315.404 182.814H316.117L316.181 183.513C316.649 182.932 317.074 182.668 317.538 182.668C317.807 182.668 318.075 182.736 318.31 182.844L318.061 183.566C317.914 183.503 317.67 183.41 317.45 183.41C317.025 183.41 316.635 183.713 316.244 184.328V188H315.404V182.814ZM319.223 182.814H319.936L319.999 183.513C320.468 182.932 320.893 182.668 321.356 182.668C321.625 182.668 321.894 182.736 322.128 182.844L321.879 183.566C321.732 183.503 321.488 183.41 321.269 183.41C320.844 183.41 320.453 183.713 320.062 184.328V188H319.223V182.814ZM323.041 182.814H323.754L323.817 183.513C324.286 182.932 324.711 182.668 325.175 182.668C325.443 182.668 325.712 182.736 325.946 182.844L325.697 183.566C325.551 183.503 325.307 183.41 325.087 183.41C324.662 183.41 324.271 183.713 323.881 184.328V188H323.041V182.814ZM330.624 187.229C330.189 187.751 329.555 188.142 328.705 188.142C327.021 188.142 326.337 186.872 326.337 185.383C326.337 183.952 327.016 182.668 328.568 182.668C330.126 182.668 330.761 183.947 330.761 185.5V185.69H327.206C327.245 186.887 327.865 187.429 328.729 187.429C329.301 187.429 329.726 187.16 330.106 186.716L330.624 187.229ZM328.568 183.386C327.621 183.386 327.245 184.157 327.216 185.017H329.896C329.872 184.157 329.506 183.386 328.568 183.386ZM331.977 188V182.814H332.699L332.758 183.566C333.188 183.103 333.739 182.668 334.491 182.668C335.448 182.668 336.112 183.083 336.112 184.816V188H335.272V184.816C335.272 183.723 334.926 183.42 334.34 183.42C333.7 183.42 333.202 183.894 332.816 184.289V188H331.977ZM339.555 188.142C338.197 188.142 337.304 187.038 337.304 185.412C337.304 183.781 338.197 182.668 339.555 182.668C340.907 182.668 341.801 183.781 341.801 185.412C341.801 187.038 340.907 188.142 339.555 188.142ZM339.555 187.429C340.482 187.429 340.961 186.672 340.961 185.412C340.961 184.157 340.482 183.386 339.555 183.386C338.622 183.386 338.144 184.157 338.144 185.412C338.144 186.672 338.622 187.429 339.555 187.429ZM349.218 182.814L346.234 190.114H345.336L346.332 187.658L344.364 182.814H345.268L346.801 186.74L348.349 182.814H349.218ZM355.834 187.214C355.355 187.834 354.818 188.142 354.022 188.142C352.68 188.142 351.757 187.131 351.757 185.412C351.757 183.854 352.592 182.668 354.037 182.668C354.833 182.668 355.355 182.99 355.834 183.615L355.302 184.113C354.989 183.684 354.623 183.386 354.037 183.386C353.104 183.386 352.597 184.167 352.597 185.412C352.597 186.657 353.109 187.429 354.081 187.429C354.643 187.429 354.989 187.146 355.302 186.716L355.834 187.214ZM358.822 188.142C357.465 188.142 356.571 187.038 356.571 185.412C356.571 183.781 357.465 182.668 358.822 182.668C360.175 182.668 361.068 183.781 361.068 185.412C361.068 187.038 360.175 188.142 358.822 188.142ZM358.822 187.429C359.75 187.429 360.229 186.672 360.229 185.412C360.229 184.157 359.75 183.386 358.822 183.386C357.89 183.386 357.411 184.157 357.411 185.412C357.411 186.672 357.89 187.429 358.822 187.429ZM362.318 188V182.814H363.041L363.1 183.566C363.529 183.103 364.081 182.668 364.833 182.668C365.79 182.668 366.454 183.083 366.454 184.816V188H365.614V184.816C365.614 183.723 365.268 183.42 364.682 183.42C364.042 183.42 363.544 183.894 363.158 184.289V188H362.318ZM369.691 182.668C370.272 182.668 370.912 182.893 371.298 183.63V180.524H372.128V188H371.376L371.308 187.219C370.922 187.932 370.263 188.142 369.711 188.142C368.637 188.142 367.66 187.258 367.66 185.397C367.66 183.537 368.612 182.668 369.691 182.668ZM369.901 183.386C369.018 183.386 368.5 184.118 368.5 185.397C368.5 186.672 369.018 187.429 369.901 187.429C370.795 187.429 371.322 186.677 371.322 185.397C371.322 184.118 370.795 183.386 369.901 183.386ZM374.608 181.628H373.661V180.656H374.608V181.628ZM373.715 188V182.814H374.555V188H373.715ZM379.877 187.214C379.398 187.834 378.861 188.142 378.065 188.142C376.723 188.142 375.8 187.131 375.8 185.412C375.8 183.854 376.635 182.668 378.08 182.668C378.876 182.668 379.398 182.99 379.877 183.615L379.345 184.113C379.032 183.684 378.666 183.386 378.08 183.386C377.147 183.386 376.64 184.167 376.64 185.412C376.64 186.657 377.152 187.429 378.124 187.429C378.686 187.429 379.032 187.146 379.345 186.716L379.877 187.214ZM381.903 181.628H380.956V180.656H381.903V181.628ZM381.01 188V182.814H381.85V188H381.01ZM385.346 188.142C383.988 188.142 383.095 187.038 383.095 185.412C383.095 183.781 383.988 182.668 385.346 182.668C386.698 182.668 387.592 183.781 387.592 185.412C387.592 187.038 386.698 188.142 385.346 188.142ZM385.346 187.429C386.273 187.429 386.752 186.672 386.752 185.412C386.752 184.157 386.273 183.386 385.346 183.386C384.413 183.386 383.935 184.157 383.935 185.412C383.935 186.672 384.413 187.429 385.346 187.429ZM388.842 188V182.814H389.564L389.623 183.566C390.053 183.103 390.604 182.668 391.356 182.668C392.313 182.668 392.978 183.083 392.978 184.816V188H392.138V184.816C392.138 183.723 391.791 183.42 391.205 183.42C390.565 183.42 390.067 183.894 389.682 184.289V188H388.842ZM398.456 187.229C398.021 187.751 397.387 188.142 396.537 188.142C394.853 188.142 394.169 186.872 394.169 185.383C394.169 183.952 394.848 182.668 396.4 182.668C397.958 182.668 398.593 183.947 398.593 185.5V185.69H395.038C395.077 186.887 395.697 187.429 396.562 187.429C397.133 187.429 397.558 187.16 397.938 186.716L398.456 187.229ZM396.4 183.386C395.453 183.386 395.077 184.157 395.048 185.017H397.729C397.704 184.157 397.338 183.386 396.4 183.386ZM401.327 182.668C402.055 182.668 402.68 182.922 403.197 183.562L402.641 184.04C402.279 183.576 401.845 183.386 401.366 183.386C400.668 183.386 400.37 183.684 400.37 184.118C400.37 184.602 400.653 184.841 401.718 185.036C402.978 185.275 403.466 185.764 403.466 186.599C403.466 187.565 402.763 188.142 401.503 188.142C400.585 188.142 399.853 187.746 399.389 187.209L399.926 186.682C400.326 187.15 400.839 187.429 401.503 187.429C402.265 187.429 402.626 187.102 402.626 186.613C402.626 186.174 402.284 185.881 401.366 185.705C399.936 185.432 399.53 184.934 399.53 184.143C399.53 183.342 400.131 182.668 401.327 182.668ZM408.5 182.668C409.081 182.668 409.721 182.893 410.106 183.63V180.524H410.937V188H410.185L410.116 187.219C409.73 187.932 409.071 188.142 408.52 188.142C407.445 188.142 406.469 187.258 406.469 185.397C406.469 183.537 407.421 182.668 408.5 182.668ZM408.71 183.386C407.826 183.386 407.309 184.118 407.309 185.397C407.309 186.672 407.826 187.429 408.71 187.429C409.604 187.429 410.131 186.677 410.131 185.397C410.131 184.118 409.604 183.386 408.71 183.386ZM416.474 187.229C416.039 187.751 415.404 188.142 414.555 188.142C412.87 188.142 412.187 186.872 412.187 185.383C412.187 183.952 412.865 182.668 414.418 182.668C415.976 182.668 416.61 183.947 416.61 185.5V185.69H413.056C413.095 186.887 413.715 187.429 414.579 187.429C415.15 187.429 415.575 187.16 415.956 186.716L416.474 187.229ZM414.418 183.386C413.471 183.386 413.095 184.157 413.065 185.017H415.746C415.722 184.157 415.355 183.386 414.418 183.386ZM417.826 188V180.583H418.666V188H417.826ZM426.176 187.214C425.697 187.834 425.16 188.142 424.364 188.142C423.021 188.142 422.099 187.131 422.099 185.412C422.099 183.854 422.934 182.668 424.379 182.668C425.175 182.668 425.697 182.99 426.176 183.615L425.644 184.113C425.331 183.684 424.965 183.386 424.379 183.386C423.446 183.386 422.938 184.167 422.938 185.412C422.938 186.657 423.451 187.429 424.423 187.429C424.984 187.429 425.331 187.146 425.644 186.716L426.176 187.214ZM427.309 188V180.583H428.148V188H427.309ZM430.624 181.628H429.677V180.656H430.624V181.628ZM429.73 188V182.814H430.57V188H429.73ZM432.152 188V182.814H432.904L432.953 183.469C433.319 182.985 433.837 182.668 434.423 182.668C434.979 182.668 435.385 182.897 435.634 183.454C436.049 182.951 436.61 182.668 437.177 182.668C438.197 182.668 438.676 183.366 438.676 184.328V188H437.836V184.494C437.836 183.713 437.533 183.42 437.035 183.42C436.562 183.42 436.039 183.83 435.824 184.201C435.834 184.431 435.834 184.362 435.834 184.523V188H434.994V184.494C434.994 183.713 434.691 183.42 434.193 183.42C433.764 183.42 433.334 183.737 432.992 184.211V188H432.152ZM441.493 188.151C440.561 188.151 439.794 187.717 439.794 186.511C439.794 185.217 440.897 184.831 441.757 184.831H443.036V184.46C443.036 183.693 442.597 183.361 441.767 183.361C441.249 183.361 440.81 183.498 440.399 183.664L440.189 182.985C440.727 182.795 441.269 182.668 441.767 182.668C442.987 182.668 443.876 183.186 443.876 184.562V188H443.168L443.104 187.375C442.812 187.741 442.157 188.151 441.493 188.151ZM441.61 187.434C442.167 187.434 442.699 187.048 443.036 186.682V185.5H441.933C441.093 185.5 440.634 185.871 440.634 186.511C440.634 187.15 441.01 187.434 441.61 187.434ZM446.259 188H445.253V186.979H446.259V188Z" fill="white"/>
<path d="M71.2031 98.4062H72.8125V103.156H71.0156C70.9062 102.609 70.7031 102.109 70.375 101.672C69.8438 100.938 68.8281 100.172 67.0625 100.172C64.25 100.172 63.9844 101.797 63.9844 102.547C63.9844 104.75 65.6406 105.094 68.2031 105.5C70.8906 105.969 73.7031 106.797 73.7031 110.406C73.7031 114 71.3438 115.453 68.3438 115.453C65.3906 115.453 63.8438 113.797 63.2969 113L63.1094 115H61.5312V109.984H63.3125C63.4844 110.594 63.7656 111.156 64.1719 111.641C64.8438 112.484 66.0469 113.281 68.0625 113.281C70.0781 113.281 71.25 112.438 71.25 110.672C71.25 108.734 69.75 108.359 67.375 107.906C64.6719 107.406 61.625 106.688 61.625 102.703C61.625 101.125 62.25 97.9844 66.7812 97.9844C69.3906 97.9844 70.6875 99.2031 71.0312 100.047L71.2031 98.4062ZM76.2269 115V112.859H78.3519V100.547H76.2269V98.4062H80.6175L80.7425 99.8594C81.6644 98.9688 83.5394 97.9844 85.43 97.9844C87.0394 97.9844 87.8363 98.8438 88.3363 99.6719C88.9613 99.1719 90.8675 97.9844 93.1956 97.9844C96.18 97.9844 97.2425 100.469 97.2425 102.812V112.859H99.1956V115H94.7894V103.547C94.7894 101.969 94.6175 100.203 92.68 100.203C91.1488 100.203 89.2425 101.375 88.9456 101.547C89.1175 102.281 89.1175 102.703 89.1175 103.312V112.859H91.3675V115H86.6644V103.312C86.6644 101.781 86.3831 100.203 84.555 100.203C83.68 100.203 82.7581 100.609 82.0238 101C81.6019 101.234 81.1956 101.484 80.805 101.781V112.859H83.0706V115H76.2269ZM115.844 112.859V115H111.594L111.423 112.891C110.329 114.156 108.594 115.453 106.329 115.453C103.829 115.453 101.423 114.031 101.423 110.203C101.423 106.5 103.985 104.859 107.86 104.859H111.251V103.609C111.251 101.234 109.751 100.125 107.344 100.125C106.094 100.125 105.079 100.344 104.344 100.547C103.923 100.672 103.532 100.812 103.173 100.969L102.579 98.9062C103.032 98.7344 103.532 98.5938 104.048 98.4531C104.938 98.2188 106.157 97.9844 107.469 97.9844C111.079 97.9844 113.704 99.75 113.704 104.031V112.859H115.844ZM106.782 113.281C108.532 113.281 110.204 111.953 111.251 110.75V107H107.86C105.782 107 103.876 107.609 103.876 110.203C103.876 112.625 105.454 113.281 106.782 113.281ZM117.993 100.547V98.4062H122.259L122.431 100.734C123.837 99.125 125.228 97.9844 127.181 97.9844C127.79 97.9844 128.306 98.1406 128.696 98.2812C128.931 98.3594 129.134 98.4531 129.321 98.5625L128.54 100.766C128.353 100.688 128.165 100.609 127.978 100.547C127.649 100.438 127.212 100.328 126.821 100.328C124.571 100.328 123.321 102.406 122.571 103.234V112.859H126.993V115H117.993V112.859H120.118V100.547H117.993ZM131.486 109.703V93.4531H133.939V98.4062H139.486V100.547H133.939V109.438C133.939 111.703 134.454 113.078 136.267 113.078C137.126 113.078 137.908 112.875 138.517 112.641C138.861 112.516 139.189 112.359 139.486 112.188L140.064 114.25C139.642 114.484 139.189 114.688 138.736 114.859C137.939 115.156 136.908 115.453 135.908 115.453C132.111 115.453 131.486 112.656 131.486 109.703ZM149.064 100.281V98.1406H153.127L153.877 90.9375H155.986L155.221 98.1406H159.346L160.096 90.9375H162.221L161.455 98.1406H164.768V100.281H161.221L160.627 105.844H164.768V107.984H160.377L159.596 115.453H157.471L158.268 107.984H154.143L153.361 115.453H151.236L152.049 107.984H149.064V105.844H152.299L152.893 100.281H149.064ZM154.986 100.281L154.393 105.844H158.518L159.111 100.281H154.986ZM166.385 113.391L167.869 111.594C168.979 112.594 170.463 113.234 172.088 113.234C175.276 113.234 176.885 111.469 176.885 109.016C176.885 106.953 175.666 105.078 171.651 105.078H170.463V102.922H171.651C174.604 102.922 176.135 101.438 176.135 99.125C176.135 96.7031 174.698 95.2188 171.838 95.2188C170.338 95.2188 169.01 95.875 167.948 96.875L166.432 95.1094C168.088 93.7031 170.307 92.9688 172.151 92.9688C176.698 92.9688 178.635 95.7656 178.635 98.7812C178.635 100.469 178.041 102.969 175.494 103.891C178.198 104.766 179.401 106.875 179.401 109.172C179.401 113.484 176.354 115.453 172.432 115.453C169.307 115.453 167.432 114.312 166.385 113.391Z" fill="white"/>
<defs>
<linearGradient id="paint0_linear_304_46638" x1="721.377" y1="-1.85636e-06" x2="721.377" y2="120" gradientUnits="userSpaceOnUse">
<stop stop-opacity="0"/>
<stop offset="1" stop-opacity="0.6"/>
</linearGradient>
<linearGradient id="paint1_linear_304_46638" x1="721.377" y1="-3.23315e-06" x2="721.377" y2="209" gradientUnits="userSpaceOnUse">
<stop stop-opacity="0.6"/>
<stop offset="1" stop-opacity="0.8"/>
</linearGradient>
</defs>
</svg>
