<svg width="375" height="236" viewBox="0 0 375 236" fill="none" xmlns="http://www.w3.org/2000/svg">
<rect width="375" height="236" fill="white"/>
<path d="M28.6191 56.3359C30.0742 56.3359 31.3242 56.8438 32.3594 58.123L31.2461 59.0801C30.5234 58.1523 29.6543 57.7715 28.6973 57.7715C27.3008 57.7715 26.7051 58.3672 26.7051 59.2363C26.7051 60.2031 27.2715 60.6816 29.4004 61.0723C31.9199 61.5508 32.8965 62.5273 32.8965 64.1973C32.8965 66.1309 31.4902 67.2832 28.9707 67.2832C27.1348 67.2832 25.6699 66.4922 24.7422 65.418L25.8164 64.3633C26.6172 65.3008 27.6426 65.8574 28.9707 65.8574C30.4941 65.8574 31.2168 65.2031 31.2168 64.2266C31.2168 63.3477 30.5332 62.7617 28.6973 62.4102C25.8359 61.8633 25.0254 60.8672 25.0254 59.2852C25.0254 57.6836 26.2266 56.3359 28.6191 56.3359ZM34.9719 67V56.6289H36.4758L36.5734 57.9375C37.3059 56.9707 38.341 56.3359 39.5129 56.3359C40.6262 56.3359 41.4367 56.7949 41.9348 57.9082C42.7648 56.9023 43.8879 56.3359 45.0207 56.3359C47.0617 56.3359 48.0188 57.7324 48.0188 59.6562V67H46.3391V59.9883C46.3391 58.4258 45.7336 57.8398 44.7375 57.8398C43.7902 57.8398 42.7453 58.6602 42.3156 59.4023C42.3352 59.8613 42.3352 59.7246 42.3352 60.0469V67H40.6555V59.9883C40.6555 58.4258 40.05 57.8398 39.0539 57.8398C38.1945 57.8398 37.3352 58.4746 36.6516 59.4219V67H34.9719ZM53.4535 67.3027C51.5883 67.3027 50.0551 66.4336 50.0551 64.0215C50.0551 61.4336 52.2621 60.6621 53.9809 60.6621H56.5395V59.9199C56.5395 58.3867 55.6605 57.7227 54.0004 57.7227C52.9652 57.7227 52.0863 57.9961 51.266 58.3281L50.8461 56.9707C51.9203 56.5898 53.0043 56.3359 54.0004 56.3359C56.4418 56.3359 58.2191 57.3711 58.2191 60.125V67H56.8031L56.6762 65.75C56.0902 66.4824 54.7816 67.3027 53.4535 67.3027ZM53.6879 65.8672C54.8012 65.8672 55.8656 65.0957 56.5395 64.3633V62H54.3324C52.6527 62 51.7348 62.7422 51.7348 64.0215C51.7348 65.3008 52.4867 65.8672 53.6879 65.8672ZM61.0758 56.6289H62.5016L62.6285 58.0254C63.566 56.8633 64.4156 56.3359 65.3434 56.3359C65.8805 56.3359 66.4176 56.4727 66.8863 56.6875L66.3883 58.1328C66.0953 58.0059 65.607 57.8203 65.1676 57.8203C64.318 57.8203 63.5367 58.4258 62.7555 59.6562V67H61.0758V56.6289ZM68.4051 53.7285H70.0848V56.6289H73.9227V58.0156H70.0848V63.5527C70.0848 65.0957 70.5828 65.7793 71.784 65.7793C72.5652 65.7793 73.4637 65.4863 74.118 65.1641L74.5281 66.5312C73.3074 67.0781 72.3406 67.2832 71.5691 67.2832C69.118 67.2832 68.4051 65.6523 68.4051 63.6895V53.7285ZM85.5441 62.8594H83.0148L82.5168 67.2832H81.0324L81.5305 62.8594H79.6555V61.4727H81.6867L82.0871 57.9277H79.6555V56.541H82.2434L82.7414 52.166H84.2258L83.7277 56.541H86.257L86.7551 52.166H88.2395L87.7512 56.541H89.8508V57.9277H87.5949L87.1945 61.4727H89.8508V62.8594H87.0285L86.5305 67.2832H85.0461L85.5441 62.8594ZM83.1711 61.4727H85.7004L86.1105 57.9277H83.5812L83.1711 61.4727ZM92.5512 64.793C93.2348 65.418 94.2113 65.8574 95.393 65.8574C97.1801 65.8574 97.9906 64.7637 97.9906 63.3672C97.9906 61.7559 96.7504 60.9062 94.934 60.9062H94.2406V59.5195H94.934C96.4672 59.5195 97.5609 58.6699 97.5609 57.127C97.5609 55.4082 96.3695 54.7441 95.1488 54.7441C94.2113 54.7441 93.3129 55.1445 92.6098 55.8379L91.6527 54.6855C92.6977 53.7578 93.9184 53.3184 95.2953 53.3184C98.0297 53.3184 99.1234 55.0957 99.1234 56.9707C99.1234 58.1133 98.6352 59.6465 97.1508 60.1543C98.6352 60.6035 99.602 61.8438 99.602 63.4453C99.602 66.1504 97.7465 67.2832 95.559 67.2832C93.7816 67.2832 92.5707 66.8145 91.6137 65.9648L92.5512 64.793Z" fill="#6B747B"/>
<path d="M37.3813 108V99.2349H28.9702V108H26.5063V88.7563H28.9702V97.0967H37.3813V88.7563H39.8594V108H37.3813ZM48.3979 108.439C45.6934 108.439 43.4702 107.179 43.4702 103.681C43.4702 99.9287 46.6704 98.8101 49.1626 98.8101H52.8726V97.7339C52.8726 95.5107 51.5981 94.5479 49.1909 94.5479C47.6899 94.5479 46.4155 94.9443 45.2261 95.4258L44.6172 93.4575C46.1748 92.9053 47.7466 92.5371 49.1909 92.5371C52.731 92.5371 55.3081 94.0381 55.3081 98.0312V108H53.2549L53.0708 106.188C52.2212 107.25 50.3237 108.439 48.3979 108.439ZM48.7378 106.357C50.3521 106.357 51.8955 105.239 52.8726 104.177V100.75H49.6724C47.2368 100.75 45.9058 101.826 45.9058 103.681C45.9058 105.536 46.9961 106.357 48.7378 106.357ZM70.5869 105.72C69.1992 107.519 67.6416 108.411 65.3335 108.411C61.4395 108.411 58.7632 105.479 58.7632 100.495C58.7632 95.978 61.1846 92.5371 65.376 92.5371C67.6841 92.5371 69.1992 93.4717 70.5869 95.2842L69.0435 96.7285C68.1372 95.4824 67.0752 94.6187 65.376 94.6187C62.6714 94.6187 61.1987 96.8843 61.1987 100.495C61.1987 104.106 62.6855 106.343 65.5034 106.343C67.1318 106.343 68.1372 105.522 69.0435 104.276L70.5869 105.72ZM80.8672 84.3384H83.6284L79.522 89.521H77.2705L80.8672 84.3384ZM85.1577 105.763C83.8975 107.278 82.0566 108.411 79.5928 108.411C74.7075 108.411 72.7251 104.729 72.7251 100.41C72.7251 96.2612 74.6934 92.5371 79.1963 92.5371C83.7134 92.5371 85.5542 96.2471 85.5542 100.75V101.302H75.2456C75.3589 104.771 77.1572 106.343 79.6636 106.343C81.3203 106.343 82.5522 105.564 83.6567 104.276L85.1577 105.763ZM79.1963 94.6187C76.4492 94.6187 75.3589 96.856 75.2739 99.3481H83.0479C82.9771 96.856 81.915 94.6187 79.1963 94.6187ZM95.4238 108V86.4907H97.8594V108H95.4238ZM106.171 108.439C103.467 108.439 101.244 107.179 101.244 103.681C101.244 99.9287 104.444 98.8101 106.936 98.8101H110.646V97.7339C110.646 95.5107 109.372 94.5479 106.964 94.5479C105.463 94.5479 104.189 94.9443 103 95.4258L102.391 93.4575C103.948 92.9053 105.52 92.5371 106.964 92.5371C110.504 92.5371 113.082 94.0381 113.082 98.0312V108H111.028L110.844 106.188C109.995 107.25 108.097 108.439 106.171 108.439ZM106.511 106.357C108.125 106.357 109.669 105.239 110.646 104.177V100.75H107.446C105.01 100.75 103.679 101.826 103.679 103.681C103.679 105.536 104.77 106.357 106.511 106.357ZM128.813 92.5371C130.499 92.5371 132.354 93.1885 133.472 95.3267V86.3208H135.879V108H133.699L133.5 105.734C132.382 107.802 130.47 108.411 128.87 108.411C125.755 108.411 122.923 105.848 122.923 100.453C122.923 95.0576 125.684 92.5371 128.813 92.5371ZM129.422 94.6187C126.859 94.6187 125.358 96.7427 125.358 100.453C125.358 104.148 126.859 106.343 129.422 106.343C132.014 106.343 133.543 104.163 133.543 100.453C133.543 96.7427 132.014 94.6187 129.422 94.6187ZM143.073 89.521H140.326V86.7031H143.073V89.521ZM140.481 108V92.9619H142.917V108H140.481ZM145.976 92.9619H148.114V91.1069C148.114 88.5298 149.36 86.4907 152.574 86.4907C153.466 86.4907 154.514 86.6323 155.548 86.8306L155.166 88.8838C154.146 88.6572 153.452 88.5581 152.574 88.5581C151.385 88.5581 150.549 89.3086 150.549 91.0645V92.9619H154.075V94.9727H150.549V108H148.114V94.9727H145.976V92.9619ZM168.108 105.763C166.848 107.278 165.007 108.411 162.543 108.411C157.658 108.411 155.675 104.729 155.675 100.41C155.675 96.2612 157.644 92.5371 162.146 92.5371C166.664 92.5371 168.504 96.2471 168.504 100.75V101.302H158.196C158.309 104.771 160.107 106.343 162.614 106.343C164.271 106.343 165.502 105.564 166.607 104.276L168.108 105.763ZM162.146 94.6187C159.399 94.6187 158.309 96.856 158.224 99.3481H165.998C165.927 96.856 164.865 94.6187 162.146 94.6187ZM172.03 92.9619H174.098L174.282 94.9868C175.641 93.3018 176.873 92.5371 178.218 92.5371C178.997 92.5371 179.776 92.7354 180.456 93.0469L179.733 95.1426C179.309 94.9585 178.601 94.6895 177.963 94.6895C176.731 94.6895 175.599 95.5674 174.466 97.3516V108H172.03V92.9619ZM194.021 105.763C192.761 107.278 190.92 108.411 188.456 108.411C183.571 108.411 181.588 104.729 181.588 100.41C181.588 96.2612 183.557 92.5371 188.06 92.5371C192.577 92.5371 194.417 96.2471 194.417 100.75V101.302H184.109C184.222 104.771 186.021 106.343 188.527 106.343C190.184 106.343 191.416 105.564 192.52 104.276L194.021 105.763ZM188.06 94.6187C185.312 94.6187 184.222 96.856 184.137 99.3481H191.911C191.84 96.856 190.778 94.6187 188.06 94.6187ZM197.943 108V92.9619H200.039L200.209 95.1426C201.455 93.7974 203.055 92.5371 205.236 92.5371C208.011 92.5371 209.937 93.7407 209.937 98.7676V108H207.501V98.7676C207.501 95.5957 206.496 94.7178 204.797 94.7178C202.942 94.7178 201.498 96.0913 200.379 97.2383V108H197.943ZM225.216 105.72C223.828 107.519 222.271 108.411 219.962 108.411C216.068 108.411 213.392 105.479 213.392 100.495C213.392 95.978 215.813 92.5371 220.005 92.5371C222.313 92.5371 223.828 93.4717 225.216 95.2842L223.672 96.7285C222.766 95.4824 221.704 94.6187 220.005 94.6187C217.3 94.6187 215.828 96.8843 215.828 100.495C215.828 104.106 217.314 106.343 220.132 106.343C221.761 106.343 222.766 105.522 223.672 104.276L225.216 105.72ZM231.092 89.521H228.345V86.7031H231.092V89.521ZM228.501 108V92.9619H230.937V108H228.501ZM239.249 108.439C236.544 108.439 234.321 107.179 234.321 103.681C234.321 99.9287 237.521 98.8101 240.013 98.8101H243.723V97.7339C243.723 95.5107 242.449 94.5479 240.042 94.5479C238.541 94.5479 237.266 94.9443 236.077 95.4258L235.468 93.4575C237.025 92.9053 238.597 92.5371 240.042 92.5371C243.582 92.5371 246.159 94.0381 246.159 98.0312V108H244.105L243.921 106.188C243.072 107.25 241.174 108.439 239.249 108.439ZM239.588 106.357C241.203 106.357 242.746 105.239 243.723 104.177V100.75H240.523C238.087 100.75 236.756 101.826 236.756 103.681C236.756 105.536 237.847 106.357 239.588 106.357ZM253.069 108H250.152V105.041H253.069V108ZM263.066 108V88.7563H274.465V90.8237H265.53V97.2241H273.035V99.3057H265.53V105.848H274.465V108H263.066ZM278.231 108V86.4907H280.667V108H278.231ZM30.6978 128.537C32.8076 128.537 34.6201 129.273 36.1211 131.128L34.5068 132.516C33.459 131.171 32.1987 130.619 30.811 130.619C28.7861 130.619 27.9224 131.482 27.9224 132.743C27.9224 134.145 28.7437 134.838 31.8306 135.405C35.4839 136.099 36.8999 137.515 36.8999 139.936C36.8999 142.74 34.8608 144.411 31.2075 144.411C28.5454 144.411 26.4214 143.264 25.0762 141.706L26.6338 140.177C27.7949 141.536 29.2817 142.343 31.2075 142.343C33.4165 142.343 34.4644 141.395 34.4644 139.979C34.4644 138.704 33.4731 137.854 30.811 137.345C26.6621 136.552 25.4868 135.107 25.4868 132.813C25.4868 130.491 27.2285 128.537 30.6978 128.537ZM40.1992 144V128.962H42.3799L42.5215 130.859C43.5835 129.458 45.0845 128.537 46.7837 128.537C48.3979 128.537 49.5732 129.203 50.2954 130.817C51.499 129.358 53.1274 128.537 54.77 128.537C57.7295 128.537 59.1172 130.562 59.1172 133.352V144H56.6816V133.833C56.6816 131.567 55.8037 130.718 54.3594 130.718C52.9858 130.718 51.4707 131.907 50.8477 132.983C50.876 133.649 50.876 133.451 50.876 133.918V144H48.4404V133.833C48.4404 131.567 47.5625 130.718 46.1182 130.718C44.8721 130.718 43.626 131.638 42.6348 133.012V144H40.1992ZM67.2876 144.439C64.583 144.439 62.3599 143.179 62.3599 139.681C62.3599 135.929 65.5601 134.81 68.0522 134.81H71.7622V133.734C71.7622 131.511 70.4878 130.548 68.0806 130.548C66.5796 130.548 65.3052 130.944 64.1157 131.426L63.5068 129.458C65.0645 128.905 66.6362 128.537 68.0806 128.537C71.6206 128.537 74.1978 130.038 74.1978 134.031V144H72.1445L71.9604 142.188C71.1108 143.25 69.2134 144.439 67.2876 144.439ZM67.6274 142.357C69.2417 142.357 70.7852 141.239 71.7622 140.177V136.75H68.562C66.1265 136.75 64.7954 137.826 64.7954 139.681C64.7954 141.536 65.8857 142.357 67.6274 142.357ZM78.6299 128.962H80.6973L80.8813 130.987C82.2407 129.302 83.4727 128.537 84.8179 128.537C85.5967 128.537 86.3755 128.735 87.0552 129.047L86.333 131.143C85.9082 130.958 85.2002 130.689 84.563 130.689C83.3311 130.689 82.1982 131.567 81.0654 133.352V144H78.6299V128.962ZM89.5474 124.756H91.9829V128.962H97.5479V130.973H91.9829V139.001C91.9829 141.239 92.7051 142.23 94.4468 142.23C95.5796 142.23 96.8823 141.805 97.8311 141.338L98.4258 143.32C96.6558 144.113 95.2539 144.411 94.1353 144.411C90.5811 144.411 89.5474 142.046 89.5474 139.2V124.756ZM114.979 137.996H111.312L110.589 144.411H108.437L109.159 137.996H106.44V135.985H109.386L109.966 130.845H106.44V128.834H110.193L110.915 122.491H113.067L112.345 128.834H116.013L116.735 122.491H118.887L118.179 128.834H121.224V130.845H117.953L117.372 135.985H121.224V137.996H117.131L116.409 144.411H114.257L114.979 137.996ZM111.538 135.985H115.206L115.8 130.845H112.133L111.538 135.985ZM125.429 140.8C126.42 141.706 127.836 142.343 129.55 142.343C132.141 142.343 133.316 140.757 133.316 138.732C133.316 136.396 131.518 135.164 128.884 135.164H127.879V133.153H128.884C131.107 133.153 132.693 131.921 132.693 129.684C132.693 127.192 130.966 126.229 129.196 126.229C127.836 126.229 126.534 126.81 125.514 127.815L124.126 126.144C125.642 124.799 127.412 124.162 129.408 124.162C133.373 124.162 134.959 126.739 134.959 129.458C134.959 131.114 134.251 133.337 132.099 134.074C134.251 134.725 135.653 136.523 135.653 138.846C135.653 142.768 132.962 144.411 129.791 144.411C127.213 144.411 125.458 143.731 124.07 142.499L125.429 140.8ZM157.134 141.72C155.746 143.519 154.188 144.411 151.88 144.411C147.986 144.411 145.31 141.479 145.31 136.495C145.31 131.978 147.731 128.537 151.923 128.537C154.231 128.537 155.746 129.472 157.134 131.284L155.59 132.729C154.684 131.482 153.622 130.619 151.923 130.619C149.218 130.619 147.746 132.884 147.746 136.495C147.746 140.106 149.232 142.343 152.05 142.343C153.679 142.343 154.684 141.522 155.59 140.276L157.134 141.72ZM165.8 144.411C161.863 144.411 159.272 141.21 159.272 136.495C159.272 131.766 161.863 128.537 165.8 128.537C169.722 128.537 172.313 131.766 172.313 136.495C172.313 141.21 169.722 144.411 165.8 144.411ZM165.8 142.343C168.49 142.343 169.878 140.148 169.878 136.495C169.878 132.856 168.49 130.619 165.8 130.619C163.095 130.619 161.708 132.856 161.708 136.495C161.708 140.148 163.095 142.343 165.8 142.343ZM175.938 144V128.962H178.119L178.261 130.859C179.323 129.458 180.824 128.537 182.523 128.537C184.137 128.537 185.312 129.203 186.035 130.817C187.238 129.358 188.867 128.537 190.509 128.537C193.469 128.537 194.856 130.562 194.856 133.352V144H192.421V133.833C192.421 131.567 191.543 130.718 190.099 130.718C188.725 130.718 187.21 131.907 186.587 132.983C186.615 133.649 186.615 133.451 186.615 133.918V144H184.18V133.833C184.18 131.567 183.302 130.718 181.857 130.718C180.611 130.718 179.365 131.638 178.374 133.012V144H175.938ZM206.369 128.537C209.498 128.537 212.259 131.058 212.259 136.453C212.259 141.848 209.441 144.411 206.312 144.411C204.726 144.411 202.8 143.802 201.682 141.734L201.498 144H199.303V122.321H201.724V131.327C202.829 129.188 204.684 128.537 206.369 128.537ZM205.76 130.619C203.168 130.619 201.639 132.743 201.639 136.453C201.639 140.163 203.168 142.343 205.76 142.343C208.337 142.343 209.824 140.148 209.824 136.453C209.824 132.743 208.337 130.619 205.76 130.619ZM218.518 125.521H215.771V122.703H218.518V125.521ZM215.927 144V128.962H218.362V144H215.927ZM222.95 144V128.962H225.046L225.216 131.143C226.462 129.797 228.062 128.537 230.243 128.537C233.018 128.537 234.944 129.741 234.944 134.768V144H232.508V134.768C232.508 131.596 231.503 130.718 229.804 130.718C227.949 130.718 226.504 132.091 225.386 133.238V144H222.95ZM243.1 144.439C240.396 144.439 238.172 143.179 238.172 139.681C238.172 135.929 241.373 134.81 243.865 134.81H247.575V133.734C247.575 131.511 246.3 130.548 243.893 130.548C242.392 130.548 241.118 130.944 239.928 131.426L239.319 129.458C240.877 128.905 242.449 128.537 243.893 128.537C247.433 128.537 250.01 130.038 250.01 134.031V144H247.957L247.773 142.188C246.923 143.25 245.026 144.439 243.1 144.439ZM243.44 142.357C245.054 142.357 246.598 141.239 247.575 140.177V136.75H244.375C241.939 136.75 240.608 137.826 240.608 139.681C240.608 141.536 241.698 142.357 243.44 142.357ZM272.242 141.763C270.981 143.278 269.141 144.411 266.677 144.411C261.792 144.411 259.809 140.729 259.809 136.41C259.809 132.261 261.777 128.537 266.28 128.537C270.797 128.537 272.638 132.247 272.638 136.75V137.302H262.33C262.443 140.771 264.241 142.343 266.748 142.343C268.404 142.343 269.636 141.564 270.741 140.276L272.242 141.763ZM266.28 130.619C263.533 130.619 262.443 132.856 262.358 135.348H270.132C270.061 132.856 268.999 130.619 266.28 130.619ZM276.164 144V122.491H278.6V144H276.164ZM293.255 144.439C290.551 144.439 288.328 143.179 288.328 139.681C288.328 135.929 291.528 134.81 294.02 134.81H297.73V133.734C297.73 131.511 296.456 130.548 294.048 130.548C292.547 130.548 291.273 130.944 290.083 131.426L289.475 129.458C291.032 128.905 292.604 128.537 294.048 128.537C297.588 128.537 300.166 130.038 300.166 134.031V144H298.112L297.928 142.188C297.079 143.25 295.181 144.439 293.255 144.439ZM293.595 142.357C295.209 142.357 296.753 141.239 297.73 140.177V136.75H294.53C292.094 136.75 290.763 137.826 290.763 139.681C290.763 141.536 291.854 142.357 293.595 142.357ZM304.598 128.962H306.665L306.849 130.987C308.208 129.302 309.44 128.537 310.786 128.537C311.564 128.537 312.343 128.735 313.023 129.047L312.301 131.143C311.876 130.958 311.168 130.689 310.531 130.689C309.299 130.689 308.166 131.567 307.033 133.352V144H304.598V128.962ZM315.515 124.756H317.951V128.962H323.516V130.973H317.951V139.001C317.951 141.239 318.673 142.23 320.415 142.23C321.547 142.23 322.85 141.805 323.799 141.338L324.394 143.32C322.624 144.113 321.222 144.411 320.103 144.411C316.549 144.411 315.515 142.046 315.515 139.2V124.756ZM338.2 141.763C336.939 143.278 335.099 144.411 332.635 144.411C327.75 144.411 325.767 140.729 325.767 136.41C325.767 132.261 327.735 128.537 332.238 128.537C336.755 128.537 338.596 132.247 338.596 136.75V137.302H328.288C328.401 140.771 330.199 142.343 332.706 142.343C334.362 142.343 335.594 141.564 336.699 140.276L338.2 141.763ZM332.238 130.619C329.491 130.619 328.401 132.856 328.316 135.348H336.09C336.019 132.856 334.957 130.619 332.238 130.619ZM38.4575 164.962L29.8057 186.131H27.2002L30.0889 179.009L24.3823 164.962H27.002L31.4482 176.347L35.937 164.962H38.4575ZM58.2534 177.763C56.9932 179.278 55.1523 180.411 52.6885 180.411C47.8032 180.411 45.8208 176.729 45.8208 172.41C45.8208 168.261 47.7891 164.537 52.292 164.537C56.8091 164.537 58.6499 168.247 58.6499 172.75V173.302H48.3413C48.4546 176.771 50.2529 178.343 52.7593 178.343C54.416 178.343 55.6479 177.564 56.7524 176.276L58.2534 177.763ZM52.292 166.619C49.5449 166.619 48.4546 168.856 48.3696 171.348H56.1436C56.0728 168.856 55.0107 166.619 52.292 166.619ZM62.1758 180V158.491H64.6113V180H62.1758ZM75.543 164.962H77.6104L77.7944 166.987C79.1538 165.302 80.3857 164.537 81.731 164.537C82.5098 164.537 83.2886 164.735 83.9683 165.047L83.2461 167.143C82.8213 166.958 82.1133 166.689 81.4761 166.689C80.2441 166.689 79.1113 167.567 77.9785 169.352V180H75.543V164.962ZM97.5337 177.763C96.2734 179.278 94.4326 180.411 91.9688 180.411C87.0835 180.411 85.1011 176.729 85.1011 172.41C85.1011 168.261 87.0693 164.537 91.5723 164.537C96.0894 164.537 97.9302 168.247 97.9302 172.75V173.302H87.6216C87.7349 176.771 89.5332 178.343 92.0396 178.343C93.6963 178.343 94.9282 177.564 96.0327 176.276L97.5337 177.763ZM91.5723 166.619C88.8252 166.619 87.7349 168.856 87.6499 171.348H95.4238C95.353 168.856 94.291 166.619 91.5723 166.619ZM101.456 180V164.962H103.552L103.722 167.143C104.968 165.797 106.568 164.537 108.749 164.537C111.524 164.537 113.45 165.741 113.45 170.768V180H111.014V170.768C111.014 167.596 110.009 166.718 108.31 166.718C106.455 166.718 105.01 168.091 103.892 169.238V180H101.456ZM122.838 164.537C124.523 164.537 126.378 165.188 127.497 167.327V158.321H129.904V180H127.723L127.525 177.734C126.406 179.802 124.495 180.411 122.895 180.411C119.779 180.411 116.947 177.848 116.947 172.453C116.947 167.058 119.708 164.537 122.838 164.537ZM123.447 166.619C120.884 166.619 119.383 168.743 119.383 172.453C119.383 176.148 120.884 178.343 123.447 178.343C126.038 178.343 127.567 176.163 127.567 172.453C127.567 168.743 126.038 166.619 123.447 166.619ZM137.097 161.521H134.35V158.703H137.097V161.521ZM134.506 180V164.962H136.941V180H134.506ZM141.529 180V164.962H143.71L143.852 166.859C144.914 165.458 146.415 164.537 148.114 164.537C149.728 164.537 150.903 165.203 151.625 166.817C152.829 165.358 154.458 164.537 156.1 164.537C159.06 164.537 160.447 166.562 160.447 169.352V180H158.012V169.833C158.012 167.567 157.134 166.718 155.689 166.718C154.316 166.718 152.801 167.907 152.178 168.983C152.206 169.649 152.206 169.451 152.206 169.918V180H149.771V169.833C149.771 167.567 148.893 166.718 147.448 166.718C146.202 166.718 144.956 167.638 143.965 169.012V180H141.529ZM167.485 161.521H164.738V158.703H167.485V161.521ZM164.894 180V164.962H167.329V180H164.894ZM183.373 177.763C182.112 179.278 180.271 180.411 177.808 180.411C172.922 180.411 170.94 176.729 170.94 172.41C170.94 168.261 172.908 164.537 177.411 164.537C181.928 164.537 183.769 168.247 183.769 172.75V173.302H173.46C173.574 176.771 175.372 178.343 177.878 178.343C179.535 178.343 180.767 177.564 181.872 176.276L183.373 177.763ZM177.411 166.619C174.664 166.619 173.574 168.856 173.489 171.348H181.263C181.192 168.856 180.13 166.619 177.411 166.619ZM187.295 180V164.962H189.391L189.561 167.143C190.807 165.797 192.407 164.537 194.587 164.537C197.363 164.537 199.289 165.741 199.289 170.768V180H196.853V170.768C196.853 167.596 195.848 166.718 194.148 166.718C192.293 166.718 190.849 168.091 189.73 169.238V180H187.295ZM203.565 160.756H206V164.962H211.565V166.973H206V175.001C206 177.239 206.723 178.23 208.464 178.23C209.597 178.23 210.9 177.805 211.849 177.338L212.443 179.32C210.673 180.113 209.271 180.411 208.153 180.411C204.599 180.411 203.565 178.046 203.565 175.2V160.756ZM220.345 180.411C216.408 180.411 213.817 177.21 213.817 172.495C213.817 167.766 216.408 164.537 220.345 164.537C224.267 164.537 226.858 167.766 226.858 172.495C226.858 177.21 224.267 180.411 220.345 180.411ZM220.345 178.343C223.035 178.343 224.423 176.148 224.423 172.495C224.423 168.856 223.035 166.619 220.345 166.619C217.64 166.619 216.252 168.856 216.252 172.495C216.252 176.148 217.64 178.343 220.345 178.343ZM232.593 180H229.676V177.041H232.593V180Z" fill="#141413"/>
</svg>
